<?xml version="1.0" encoding="utf-8"?>
<!-- Generator: Adobe Illustrator 18.0.0, SVG Export Plug-In . SVG Version: 6.00 Build 0)  -->
<!DOCTYPE svg PUBLIC "-//W3C//DTD SVG 1.1//EN" "http://www.w3.org/Graphics/SVG/1.1/DTD/svg11.dtd">
<svg version="1.1" id="Indianapolis_Colts" xmlns="http://www.w3.org/2000/svg" xmlns:xlink="http://www.w3.org/1999/xlink" x="0px"
	 y="0px" viewBox="0 0 500 430.6" enable-background="new 0 0 500 430.6" xml:space="preserve">
<path fill="#283043" d="M205.7,65.1c35.8,0.1,66.9,26.6,72.3,62.2c5,32.8-5.9,59.5-33.9,77.5c-42.6,27.3-98.9,3.8-110.2-46.4
	c-7.3-32.2,2.7-59.2,29.1-79.5C175,69.7,190.5,65,205.7,65.1z M214.2,124.9c0,2.6,0,4.9,0,8.2c-2.9-3.7-5.5-5.5-9.2-2.9
	c-0.2,0.1-0.6-0.1-0.8-0.1c-3-0.3-6.1-0.6-9-0.9c-0.6,1.7-1.1,2.9-1.6,4.2c-5.7-5.3-5.7-5.3-9.5-0.1c-1.7-2.2-3.1-5.2-6.7-3.5
	c0.1,0.9,0.2,1.8,0.3,3c-5.5-4.6-7.5-4.8-14-1.4c-3.2-8.1-10.1-6.7-17-6.4c0,4.3,0,8.4,0,12.6c0,4.2,1.7,5.9,5.9,6
	c4.3,0.1,8.7,0.5,11.3-4c7.9,7.2,14.3,4.5,15.4-1.7c1.4,1.6,2.8,3.9,4.8,5.2c3.4,2.1,4.2-1.4,5.4-3.5c3.9,5.5,6.2,5.3,9.7-1
	c0.1,0.6,0.1,1.1,0.3,1.3c1.6,1.3,3.1,3.2,4.8,3.5c2.5,0.4,1.7-2.2,1.9-3.8c0.2-1.3,0.4-2.6,0.6-4.1c2.3,2-0.3,4.7,2.5,6.6
	c2.7,1.8,4.3,1.3,5.7,0.1c1.9,0.5,3.4,1.4,4.4,1.1c1-0.3,1.5-2,1.8-2.4c3.1,1,6.3,3.2,8.8,2.6c4-0.9,7.4-2.2,11.2,0.2
	c0.6,0.4,1.7-0.2,2.6-0.2c1-0.1,2-0.3,3-0.1c2.2,0.5,3.9,0.3,4-3.4c3.4,5.2,8.1,3,12.1,3.4c0.6,0.1,1.9-1.5,1.9-2.4
	c0.2-3.6,0.2-7.2,0.1-10.8c-0.1-4.3-2-5.8-6.6-4.9c-0.1,1.4-0.2,2.8-0.2,4.6c-3.9-1.9-6.5-0.3-8.6,2.8c-4.8-5-11.8-5.1-13.8-0.5
	c0.8,0.7,1.5,1.3,2.3,2c-0.6,0.4-1.2,0.8-1.7,1.2c-5.4-7.3-7.5-7.9-15-4.5C220.3,125.5,219.4,124.6,214.2,124.9z M208.2,157.4
	c-4.3-5.5-8.9-6-14-2.5c-1.2-6.3-2.3-7.2-7.1-5.9c-0.1,2.2-0.3,4.3-0.5,7c-3.7-3-4.7-9.3-11.2-7.1c0,4.9-0.3,9.9,0.2,14.8
	c0.1,1.3,2.7,2.9,4.5,3.3c2.2,0.5,2.1-1.7,2.1-3.3c0-1,0.1-2.1,0.2-3.1c1.7,1.1,2.6,2.5,3.6,3.8c3.2,4,6.6,3.7,8.3-0.5
	c8.5,5.6,13.4,4.7,14.9-3.1c5.3,8,6.9,8.4,10.2,2.6c0.2,0.2,0.5,0.5,0.7,0.6c1.7,1.1,3.4,2.8,5.1,2.9c1,0.1,2.2-2.5,3.2-4
	c0.6-1,0.9-2.3,1.4-3.4c0.9,0.4,1.7,0.6,3,1.2c-1.4,0.5-2.3,0.8-2.8,1c-1.2,3.5,1.7,4.1,3.4,5.4c0.5,0.4,1.9,0.1,2.4-0.4
	c0.5-0.4,0.4-1.6,0.4-2.4c0-1.3-0.3-2.7-0.3-4c0.1-2,0.6-4,0.7-6c0.2-4.7-2-6.3-6.7-5.2c-0.1,1.7-0.2,3.5-0.2,5.3
	c-2.9-2.2-3.9-1.7-6.1,2.6c-1.5-1.2-2.9-2.9-4.7-3.7c-3-1.3-3.2,2-4.3,3.6c-4.1-3.8-4.1-3.8-7.1-3.4
	C207.7,154.5,207.9,155.6,208.2,157.4z"/>
<path fill="#FFFFFF" d="M346.1,338.9c2.4,0.8,4,1.5,5.6,1.8c2.3,0.5,3.2,1.8,3.5,4.2c0.9,9.4,3.5,18.3,9.1,26.1
	c8.4,11.9,20.1,18.6,34.3,21.3c2.3,0.4,4.8,0.2,7,0.8c3,0.8,4.1-0.5,4.6-3.1c2.4-11.7,4.9-23.5,7.4-35.2c0.7-3-0.7-3.6-3.3-4
	c-23.2-3.2-46.2-7.1-68.1-15.6c-12.2-4.8-23.9-10.9-35.5-17c-18.3-9.6-36.3-19.7-54.5-29.6c-0.9-0.5-1.7-1.1-2.8-1.8
	c2-1.5,3.8-3.1,5.8-4.3c0.7-0.5,2.1-0.6,2.9-0.2c14.9,8,29.7,16.3,44.7,24.2c16,8.4,31.2,18.3,48.7,23.5
	c19.6,5.7,39.5,10.3,59.8,12.9c2.3,0.3,3.5-0.5,3.6-2.7c0.4-7.5,0.9-15.1,0.9-22.6c0-1-2-2.7-3.3-2.9c-18.2-3.1-36-7.6-53.5-13.2
	c-8.4-2.7-16.9-5.2-24.4-10.2c-6.4-4.2-11.6-9.5-16.2-15.6c-9-12-14.8-25.6-19.2-39.8c-0.5-1.5-0.6-3.5,0-4.9
	c0.5-1.1,2.5-2.4,3.6-2.1c1.4,0.3,3.1,1.7,3.7,3.1c4.2,9.5,7.8,19.4,12.4,28.7c8,16.2,21,26.5,38.6,31.7c20,5.9,40.1,11.7,60.7,14.9
	c3.9,0.6,5.6,2.5,5.8,6.6c0.7,15.8-0.2,31.5-3.1,47.1c-2.2,11.9-5,23.7-7.7,35.5c-0.9,4.2-2.5,5.4-6.8,5.5c-18,0.7-34-4.4-46.8-17.5
	c-8.7-8.8-13.6-19.7-15.9-31.7C347.1,348.2,346.7,343.8,346.1,338.9z"/>
<path fill="#FFFFFF" d="M115.6,277.4c-12.2,1-23.3,1.9-34.2-1.1c-5.5-1.5-6.2-3.3-5.4-9.1c0.8-6.4,0.9-12.9,1.1-19.3
	c0.1-1.7,0.4-2.5,2.3-2.5c3.9,0.1,7.9-0.1,11.8,0.1c1.1,0.1,2.5,1,3.3,1.9c6.4,7.7,12.8,15.4,18.9,23.3
	C114.5,272.3,114.7,274.7,115.6,277.4z"/>
<path fill="#FFFFFF" d="M290.8,256.5c4.3-3.5,8.5-6.9,12.7-10.4c2.7,5.8,5.4,11.4,7.9,17.1c0.3,0.8-0.1,1.9-0.2,2.9
	c-1.1,9.9-2.2,19.8-3.4,29.7c-0.2,2.1-0.8,4.2-1.3,6.8c-14.6-7.9-28.9-15.6-43.6-23.6c2.9-2.4,5.4-4.4,8.1-6.6
	c3.7,4.2,7.1,8.4,10.8,12.3c5.8,6,12.9,5.9,18.6-0.1c4.6-4.8,4.7-11.2,0.1-16.8c-1.6-1.9-3.2-3.7-4.9-5.6
	C294.1,260.5,292.6,258.7,290.8,256.5z"/>
<path fill="#FFFFFF" d="M351.7,284.2c-0.6,0-0.8,0.1-0.9,0.1c-6.4-1.4-7.7-6-7.8-11.8c-0.3-12.9-0.9-25.9-1.5-38.8
	c-0.4-8.4-0.9-16.9-1.3-25.3c-0.1-1.1,0-2.3,0-3.4c0-2.8,1.6-4.2,4.2-4.3c2.6,0,3.8,1.7,3.9,4.2c0.3,6.6,0.5,13.3,0.8,19.9
	c0.8,16.3,1.7,32.6,2.5,48.9C351.8,277.1,351.7,280.6,351.7,284.2z"/>
<path fill="#FFFFFF" d="M263.6,259.4c5-4.2,9.7-8.3,14.9-12.7c3.4,3.9,6.8,7.8,10.2,11.8c3.3,3.9,6.7,7.8,9.9,11.9
	c3.5,4.4,2.8,9.9-1.5,13.5c-3.2,2.6-9.9,3.4-13.7-1c-5.9-6.9-11.9-13.7-17.8-20.6C264.9,261.4,264.4,260.4,263.6,259.4z M297.8,275
	c-0.6-0.9-1.6-3.1-3.2-4.2c-1.8-1.2-3-2.6-4.3-4.2c-1.2-1.5-3.7-2.5-5.7-2.5c-2.5-0.1-4.7,1.8-4.7,4.4c0,2,1.1,4.1,2,6
	c0.7,1.5,2.2,2.6,2.8,4.1c1.2,2.9,4.5,5.1,7.4,4.6C295.4,282.5,297.8,279.6,297.8,275z"/>
<path fill="#FFFFFF" d="M350.5,200.1c10.8-1.8,21.7-0.6,32.5,0.1c5.6,0.3,11.2,1.1,16.7,1.6c2.7,0.2,4.3,1.3,4.1,4.2
	c-0.2,3.1-2.3,3.6-4.8,3.3c-5-0.5-10-1.1-15.1-1.6c-10.2-1-20.3-2-30.5,0.1c-0.4,0.1-0.9-0.1-1.2-0.1
	C351.7,205.1,351.1,202.6,350.5,200.1z"/>
<path fill="#FFFFFF" d="M315.6,233.1c-1.8-2.8-3.2-5.1-4.9-7.7c8.1-6.4,16.4-12.9,24.7-19.4c2,2.8,2,8.8,0.1,10.5
	C328.9,222,322.2,227.5,315.6,233.1z"/>
<path fill="#FFFFFF" d="M263,264.1c2,2.3,3.7,4.2,5.6,6.4c-1.3,1.1-2.5,2.1-3.7,3.2c-4.1,3.3-8.1,6.7-12.2,10c-2.4,2-5.6,2.2-7,0.6
	c-1.6-2-1.3-4.7,1.2-6.8C252.2,272.9,257.6,268.6,263,264.1z"/>
<path fill="#FFFFFF" d="M386.2,211.1c-3,4.1-6.6,4.4-10.1,4.8c-4,0.4-8.1,0.3-12.1,0.8c-3.9,0.4-7.7,1.3-11.9,2
	c-0.2-2.3-0.3-4.6-0.5-7.1C363.1,209.2,374.2,210.6,386.2,211.1z"/>
<path fill="#FFFFFF" d="M353.1,325.3c-0.2,0-0.6-0.1-1-0.2c-6.1-1.6-6.1-1.6-6.4-7.9c-0.3-6-0.6-12.1-0.9-18.2
	c6.5,0.6,8.3,2.4,8.3,8.2C353.1,313.2,353.1,319.1,353.1,325.3z"/>
<path fill="#FFFFFF" d="M302.2,243.3c-4.2,3.5-8.4,7-12.8,10.8c-1.9-2.2-3.8-4.3-5.9-6.7c5.2-4.2,10.4-8.4,15.9-12.9
	C300.4,237.6,301.3,240.4,302.2,243.3z"/>
<path fill="#FFFFFF" d="M337.2,219c2,4,0.1,5.7-3,7.6c-6.7,4.1-11.6,10.1-15.5,17.7c-1-2.7-2-4.9-2.6-7.1c-0.2-0.6,0.5-1.7,1.1-2.1
	C323.8,229.7,330.5,224.4,337.2,219z"/>
<path fill="#FFFFFF" d="M396.9,197.6c-1.6,0-2.9,0-3.8,0c0-7.6,0-14.9,0-22.5c1.5,0,2.5,0,3.8,0
	C396.9,182.6,396.9,190.1,396.9,197.6z"/>
<path fill="#FFFFFF" d="M381.6,218.8c3.2-2.1,6.5-4.4,10.1-6.9c1,1.2,2.3,2.8,3.6,4.5C391.9,221,386.4,221.8,381.6,218.8z"/>
<path fill="#FFFFFF" d="M192.2,300.8c-3,0-5.4-2.2-5.5-5.1c-0.1-2.7,2.5-5.2,5.5-5.1c3,0,5.2,2.1,5.2,4.9
	C197.5,298.5,195.2,300.8,192.2,300.8z M189.5,298.2c1.7,0,3.4,0.1,5.2,0.1c2.3-1.8,1.8-4-0.1-5.2c-1.2-0.8-3.9-0.8-5,0
	C187.9,294.2,187,296.4,189.5,298.2z"/>
<path fill="#FFFFFF" d="M265.3,304.8c2.9,0,5.2,2.1,5.3,4.9c0,3.1-2.1,5.4-5.1,5.4c-3,0-5.3-2.4-5.3-5.4
	C260.2,306.8,262.3,304.8,265.3,304.8z M268.5,311.7c1.6-1.9,0.9-3.9-0.8-4.7c-1.3-0.6-3.8-0.6-4.7,0.3c-0.9,0.9-1.2,3.4-0.6,4.7
	c0.9,2,2.9,2.5,5,0.9C267.7,312.5,268.1,312.1,268.5,311.7z"/>
<path fill="#1F3F78" d="M262,303.9c2.4-1.6,5.2-1.7,7.8,0.4c2.8,2.3,3.5,4.7,2.4,7.4c-0.8-1.8-1.3-5-3.1-6.4
	C267.2,303.9,263.9,304.2,262,303.9z"/>
<path fill="#1F3F78" d="M297.8,275c0.1,4.6-2.4,7.6-5.7,8.2c-2.9,0.5-6.2-1.7-7.4-4.6c-0.6-1.5-2.1-2.6-2.8-4.1c-0.9-1.9-2.1-4-2-6
	c0-2.6,2.2-4.5,4.7-4.4c2,0.1,4.4,1.1,5.7,2.5c1.3,1.6,2.5,3,4.3,4.2C296.2,271.9,297.1,274.1,297.8,275z M295.9,276.5
	c0-2.7-1.9-4.8-4.6-4.8c-2.9-0.1-5,1.9-5.1,4.7c0,2.6,2,4.8,4.6,4.9C293.7,281.4,295.9,279.3,295.9,276.5z M289.3,269.4
	c-1.2-3.2-3.1-4.4-5.4-3.4c-2.4,1-3,2.9-2.3,5.2c0.7,2.3,2.4,2.5,4.1,0.9C286.8,271.3,288,270.5,289.3,269.4z"/>
<path fill="#283043" d="M154.2,137.8c0-2.3-0.1-4,0.1-5.7c0.1-0.5,1-1.1,1.6-1.3c0.3-0.1,1.1,0.8,1.1,1.3
	C157.3,134.3,157.6,136.6,154.2,137.8z"/>
<path fill="#1F3F78" d="M295.9,276.5c0,2.8-2.2,4.8-5.1,4.7c-2.6-0.1-4.6-2.2-4.6-4.9c0.1-2.8,2.2-4.8,5.1-4.7
	C294,271.8,295.9,273.8,295.9,276.5z M293.8,279.5c-0.4-1.9-0.7-3.4-0.9-4.6c-1.5-0.6-2.8-1.1-4.4-1.7c0.3,1.7,0.6,3.3,0.9,4.7
	C290.8,278.5,292.2,279,293.8,279.5z"/>
<path fill="#FFFFFF" d="M289.3,269.4c-1.3,1-2.5,1.8-3.6,2.8c-1.7,1.6-3.4,1.3-4.1-0.9c-0.7-2.3-0.1-4.2,2.3-5.2
	C286.3,265.1,288.1,266.2,289.3,269.4z"/>
<path fill="#FFFFFF" d="M293.8,279.5c-1.6-0.6-3-1.1-4.5-1.6c-0.3-1.4-0.5-2.9-0.9-4.7c1.6,0.6,2.9,1.1,4.4,1.7
	C293.2,276.1,293.5,277.7,293.8,279.5z"/>
<g>
	<path fill="#1F3F78" d="M194.5,293c-1.2-0.8-3.9-0.8-5,0c-1.6,1.2-2.5,3.4,0,5.2c1.7,0,3.4,0.1,5.2,0.1
		C196.9,296.4,196.4,294.2,194.5,293z"/>
	<path fill="#1F3F78" d="M267.7,307c-1.3-0.6-3.8-0.6-4.7,0.3c-0.9,0.9-1.2,3.4-0.6,4.7c0.9,2,2.9,2.5,5,0.9
		c0.4-0.4,0.8-0.8,1.2-1.2C270.1,309.8,269.4,307.9,267.7,307z"/>
	<path fill="#1F3F78" d="M431.7,315.6c-0.3-7.5-2.4-10.4-9.8-11.6c-21.8-3.8-43.1-9.1-63.9-16.6c-1.1-0.4-2.6-1.6-2.7-2.7
		c-0.5-3.2-0.4-6.5-0.6-9.8c-0.3-8-0.6-16-1-24c-0.5-9.8-1-19.5-1.5-29.8c6.1-0.7,11.9-1.6,17.7-2.1c3.9-0.3,7.5,0,11.3,2.2
		c5.3,3.1,10.8,2.1,15.6-2.2c0.8-0.7,2.4-0.9,3.5-0.7c8.6,0.9,14.7-4.6,13.9-12.3c-1.2-10.4-2.3-20.8-3.3-31.2c-0.2-2.5-1.2-3-3.4-3
		c-4.2,0.1-8.4-0.1-12.5,0.1c-2.2,0.1-3-0.7-3.2-2.8c-0.4-3.7-0.7-7.4-1.5-11c-6.2-26.6-17.7-50.4-36.5-70.6
		c-11.6-12.4-24.7-22.7-39.6-30.7c-23.8-12.8-49.2-19.6-76.2-20.7c-15-0.6-30,0.3-44.7,3.5c-31.1,6.8-58.5,20.6-80.6,44
		c-14.5,15.3-24.8,33.1-31.5,53c-6.7,19.9-8.4,40.6-8.8,61.5c-0.1,6.2,0.2,12.4,0.5,18.6c0.4,9.8,0.5,19.7,1.7,29.5
		c0.9,7.6,0.2,15-1.2,22.4c-1,4.9,0.2,7.3,4.7,9.5c1.5,0.7,3.1,1.6,4.8,1.7c8.3,0.5,16.6,1,24.9,1.1c5.1,0.1,10.3-1.2,15.3-0.8
		c11.5,0.8,22.3,3.9,32.5,9.5c9.8,5.5,17.6,13.2,24.5,21.9c6.8,8.6,13.9,16.9,23.3,22.9c15.4,9.8,32.3,13.5,50.3,12.6
		c10.7-0.6,20.8-3.3,30.3-8.6c8.5-4.8,15.3-11.4,20.5-20c1.3,0.7,2.4,1.3,3.6,1.9c11.3,5.6,22.5,11.2,33.8,17
		c0.9,0.4,1.8,1.7,1.9,2.6c0.7,4.6,0.8,9.2,1.7,13.7c2.6,13.6,8.5,25.6,18.8,35.1c13.2,12.3,29.1,17.1,46.8,16.6
		c5.4-0.1,8.6-2.5,10-7.8C427.8,370.5,432.6,343.5,431.7,315.6z M81.4,276.3c-5.5-1.5-6.2-3.3-5.4-9.1c0.8-6.4,0.9-12.9,1.1-19.3
		c0.1-1.7,0.4-2.5,2.3-2.5c3.9,0.1,7.9-0.1,11.8,0.1c1.1,0.1,2.5,1,3.3,1.9c6.4,7.7,12.8,15.4,18.9,23.3c1.2,1.6,1.4,4,2.3,6.7
		C103.4,278.4,92.3,279.3,81.4,276.3z M192.2,300.8c-3,0-5.4-2.2-5.5-5.1c-0.1-2.7,2.5-5.2,5.5-5.1c3,0,5.2,2.1,5.2,4.9
		C197.5,298.5,195.2,300.8,192.2,300.8z M376.1,215.9c-4,0.4-8.1,0.3-12.1,0.8c-3.9,0.4-7.7,1.3-11.9,2c-0.2-2.3-0.3-4.6-0.5-7.1
		c11.4-2.5,22.6-1,34.6-0.5C383.3,215.3,379.6,215.6,376.1,215.9z M381.6,218.8c3.2-2.1,6.5-4.4,10.1-6.9c1,1.2,2.3,2.8,3.6,4.5
		C391.9,221,386.4,221.8,381.6,218.8z M400.1,175.3c0.5-0.1,0.9-0.3,1.3-0.3c5.6,0.1,6.1-1.5,6.6,5.6c0.7,8.6,1.9,17.2,2.6,25.8
		c0.3,3.4-0.7,6.5-4.2,8.2c-3.4,1.6-5.5,1.7-8.4-0.3c2.2-0.5,4.2,0.2,6-0.9c1.7-1.1,3.6-4.6,4.1-6.5c1-3.4-3.2-7.1-8.1-8.9
		C400.1,190.5,400.1,182.9,400.1,175.3z M393.1,175.1c1.5,0,2.5,0,3.8,0c0,7.5,0,14.9,0,22.5c-1.6,0-2.9,0-3.8,0
		C393.1,190,393.1,182.7,393.1,175.1z M383,200.3c5.6,0.3,11.2,1.1,16.7,1.6c2.7,0.2,4.3,1.3,4.1,4.2c-0.2,3.1-2.3,3.6-4.8,3.3
		c-5-0.5-10-1.1-15.1-1.6c-10.2-1-20.3-2-30.5,0.1c-0.4,0.1-0.9-0.1-1.2-0.1c-0.6-2.6-1.2-5.1-1.8-7.6
		C361.3,198.3,372.2,199.6,383,200.3z M344.4,200.7c2.6,0,3.8,1.7,3.9,4.2c0.3,6.6,0.5,13.3,0.8,19.9c0.8,16.3,1.7,32.6,2.5,48.9
		c0.2,3.5,0,6.9,0,10.5c-0.6,0-0.8,0.1-0.9,0.1c-6.4-1.4-7.7-6-7.8-11.8c-0.3-12.9-0.9-25.9-1.5-38.8c-0.4-8.4-0.9-16.9-1.3-25.3
		c-0.1-1.1,0-2.3,0-3.4C340.2,202.2,341.8,200.8,344.4,200.7z M340.6,278.3c-9.5-8.8-15.6-18.8-20.2-29.8c-0.3-0.6-0.2-1.6,0.1-2.2
		c4-7.7,9.2-14.3,17.6-19.1C338.9,244.3,339.7,260.9,340.6,278.3z M334.2,226.6c-6.7,4.1-11.6,10.1-15.5,17.7c-1-2.7-2-4.9-2.6-7.1
		c-0.2-0.6,0.5-1.7,1.1-2.1c6.6-5.4,13.2-10.7,19.9-16.1C339.1,223,337.2,224.7,334.2,226.6z M335.4,205.9c2,2.8,2,8.8,0.1,10.5
		c-6.6,5.7-13.3,11.2-19.9,16.7c-1.8-2.8-3.2-5.1-4.9-7.7C318.8,218.9,327.1,212.4,335.4,205.9z M299.4,234.6c1,3.1,1.9,5.9,2.8,8.8
		c-4.2,3.5-8.4,7-12.8,10.8c-1.9-2.2-3.8-4.3-5.9-6.7C288.7,243.2,293.9,239,299.4,234.6z M311.2,266.2c-1.1,9.9-2.2,19.8-3.4,29.7
		c-0.2,2.1-0.8,4.2-1.3,6.8c-14.6-7.9-28.9-15.6-43.6-23.6c2.9-2.4,5.4-4.4,8.1-6.6c3.7,4.2,7.1,8.4,10.8,12.3
		c5.8,6,12.9,5.9,18.6-0.1c4.6-4.8,4.7-11.2,0.1-16.8c-1.6-1.9-3.2-3.7-4.9-5.6c-1.5-1.8-3.1-3.6-4.9-5.8c4.3-3.5,8.5-6.9,12.7-10.4
		c2.7,5.8,5.4,11.4,7.9,17.1C311.8,264.1,311.3,265.2,311.2,266.2z M312.5,277.3c0.3-2.9,0.8-5.7,1.2-8.7c4.5,5.6,8.4,11.2,13,16
		c3.9,4.1,8.8,7.3,13.2,11c0.7,0.6,1.6,1.5,1.7,2.3c0.5,7.9,0.8,15.8,1.2,24.4c-5.4-2.8-10.3-5.4-15.2-8c-5.2-2.8-10.4-5.7-15.7-8.5
		c-1.5-0.8-2.1-1.5-1.9-3.3C310.9,294,311.6,285.6,312.5,277.3z M278.6,246.7c3.4,3.9,6.8,7.8,10.2,11.8c3.3,3.9,6.7,7.8,9.9,11.9
		c3.5,4.4,2.8,9.9-1.5,13.5c-3.2,2.6-9.9,3.4-13.7-1c-5.9-6.9-11.9-13.7-17.8-20.6c-0.7-0.8-1.3-1.8-2-2.8
		C268.6,255.1,273.4,251.1,278.6,246.7z M229.7,271.7c-10.6,0-18.9-8.3-18.8-18.8c0-10.7,8.5-19,19.2-18.9c10.4,0,18.8,8.5,18.8,19
		C249,263.4,240.5,271.7,229.7,271.7z M252.7,283.6c-2.4,2-5.6,2.2-7,0.6c-1.6-2-1.3-4.7,1.2-6.8c5.3-4.5,10.7-8.8,16.1-13.3
		c2,2.3,3.7,4.2,5.6,6.4c-1.3,1.1-2.5,2.1-3.7,3.2C260.8,276.9,256.8,280.3,252.7,283.6z M265.5,315.1c-3,0-5.3-2.4-5.3-5.4
		c0-3,2.1-5,5.2-5c2.9,0,5.2,2.1,5.3,4.9C270.7,312.8,268.5,315.1,265.5,315.1z M272.2,311.7c-0.8-1.8-1.3-5-3.1-6.4
		c-1.9-1.4-5.1-1.1-7.1-1.4c2.4-1.6,5.2-1.7,7.8,0.4C272.6,306.6,273.2,309.1,272.2,311.7z M425.2,360.6c-2.2,11.9-5,23.7-7.7,35.5
		c-0.9,4.2-2.5,5.4-6.8,5.5c-18,0.7-34-4.4-46.8-17.5c-8.7-8.8-13.6-19.7-15.9-31.7c-0.8-4.3-1.1-8.6-1.7-13.6
		c2.4,0.8,4,1.5,5.6,1.8c2.3,0.5,3.2,1.8,3.5,4.2c0.9,9.4,3.5,18.3,9.1,26.1c8.4,11.9,20.1,18.6,34.3,21.3c2.3,0.4,4.8,0.2,7,0.8
		c3,0.8,4.1-0.5,4.6-3.1c2.4-11.7,4.9-23.5,7.4-35.2c0.7-3-0.7-3.6-3.3-4c-23.2-3.2-46.2-7.1-68.1-15.6c-12.2-4.8-23.9-10.9-35.5-17
		c-18.3-9.6-36.3-19.7-54.5-29.6c-0.9-0.5-1.7-1.1-2.8-1.8c2-1.5,3.8-3.1,5.8-4.3c0.7-0.5,2.1-0.6,2.9-0.2
		c14.9,8,29.7,16.3,44.7,24.2c16,8.4,31.2,18.3,48.7,23.5c19.6,5.7,39.5,10.3,59.8,12.9c2.3,0.3,3.5-0.5,3.6-2.7
		c0.4-7.5,0.9-15.1,0.9-22.6c0-1-2-2.7-3.3-2.9c-18.2-3.1-36-7.6-53.5-13.2c-8.4-2.7-16.9-5.2-24.4-10.2
		c-6.4-4.2-11.6-9.5-16.2-15.6c-9-12-14.8-25.6-19.2-39.8c-0.5-1.5-0.6-3.5,0-4.9c0.5-1.1,2.5-2.4,3.6-2.1c1.4,0.3,3.1,1.7,3.7,3.1
		c4.2,9.5,7.8,19.4,12.4,28.7c8,16.2,21,26.5,38.6,31.7c20,5.9,40.1,11.7,60.7,14.9c3.9,0.6,5.6,2.5,5.8,6.6
		C428.9,329.4,428,345.1,425.2,360.6z M358.4,342.9c9.3,2.2,18.5,4.6,27.8,6.5c9.3,1.9,18.8,3.3,29.1,5c-2.5,12.1-5,23.9-7.4,35.6
		C379.6,389.3,359.7,370.6,358.4,342.9z M344.8,299c6.5,0.6,8.3,2.4,8.3,8.2c0,5.9,0,11.9,0,18.1c-0.2,0-0.6-0.1-1-0.2
		c-6.1-1.6-6.1-1.6-6.4-7.9C345.3,311.1,345,305.1,344.8,299z M356,303.1c20.4,5.2,40.6,10.3,61.4,15.6c-0.3,6.5-0.6,13.6-1,21.1
		c-20.5-2.4-39.9-7.2-59.3-12.6C356.8,319,356.4,310.9,356,303.1z"/>
</g>
<g>
	<path fill="#003A70" stroke="#FFFFFF" stroke-width="2" stroke-miterlimit="10" d="M218.2,213c-11.2-0.1-19.8-3.2-23.9-5.3
		c-8.1-4.2-14.7-9.8-20.4-17.6c-8.2-11.2-9.8-20.1-10.5-25c-0.4-2.5-0.8-8.7,0-14.2c1-7.9,2.8-11.9,4.1-15.7c1-2.7,4.2-9.4,6.2-12.4
		c1.6-2.4,4.6-6.8,5.8-8.3c0.3-0.5-0.1-0.3-0.3-0.3c-0.4,0.1-0.7,0.1-1,0.1c-0.3,0-0.8-0.1-1.1-0.2c-1.6-0.3-3.9-2.1-3.6-5.2
		c-0.1-0.7,0.7-6.6,1.3-8.4c0.7-2.6,2.3-3.8,5-4c1.4,0,7.2-0.1,9.8,0.3c5.3,0.5,9.1,2.1,11.4,6.7c1.8,4.1,1.2,10.4-1.3,15.3
		c-0.9,1.7-2.6,4.8-4.1,6.8c-1.4,2-1.9,3-3.1,5.3c-1.2,2.3-5.2,11.1-6.6,16.8c-2.6,10.7-1.1,16.8,3.9,25.2
		c3.7,5.6,8.1,9.6,11.4,11.4c5.6,3.5,13.2,4.5,17.1,4.5"/>
</g>
<g>
	<path fill="#003A70" stroke="#FFFFFF" stroke-width="2" stroke-miterlimit="10" d="M218.2,188.6c3.9,0,11.6-1,17.1-4.5
		c3.4-1.8,7.7-5.8,11.4-11.4c5-8.4,6.5-14.5,3.9-25.2c-1.4-5.7-5.4-14.5-6.6-16.8c-1.2-2.2-1.8-3.3-3.1-5.3c-1.5-2-3.2-5.1-4.1-6.8
		c-2.5-4.9-3.1-11.2-1.3-15.3c2.3-4.6,6.1-6.2,11.4-6.7c2.6-0.4,8.4-0.3,9.8-0.3c2.7,0.2,4.3,1.4,5,4c0.6,1.8,1.3,7.7,1.3,8.4
		c0.3,3.1-2,4.9-3.6,5.2c-0.3,0.1-0.8,0.2-1.1,0.2c-0.3,0-0.6,0-1-0.1c-0.2,0-0.6-0.2-0.3,0.3c1.2,1.5,4.2,5.9,5.8,8.3
		c1.9,3,5.2,9.6,6.2,12.4c1.3,3.9,3.1,7.8,4.1,15.7c0.9,5.5,0.4,11.6,0,14.2c-0.7,4.9-2.2,13.9-10.5,25
		c-5.7,7.8-12.4,13.4-20.4,17.6c-4.1,2.2-12.7,5.3-23.9,5.3"/>
</g>
<g>
	<path fill="#1F3F78" d="M193.1,203.8c-7.3-4.4-14-9.8-20.4-20.4c-2.9-5.2-9.5-16.3-6.2-35.7c3.8-17.7,11.4-26.6,15.7-32.7
		c2.1-3-0.1-4.7-1.7-4.1c-1.4,0.5-2.3,0.6-2.3,0.6c-2.5-0.3-2.1-1.9-1.7-6.1l0.6-3.4c0.5-3,1.9-3,5.5-2.9c5.7,0.1,6.8,0.2,9.8,0.7
		c4.1,0.9,9.5,5,5.3,16.4c-2.6,6.1-5.4,8.1-8.4,14.4c-3.2,7-11,22.7-5.7,36.1c7.2,18,21.2,24.4,34.5,24.6c13.3-0.2,28.6-8,34.8-24.6
		c5.3-13.4-2.5-29.1-5.7-36.1c-3-6.3-5.7-8.4-8.4-14.4c-4.2-11.3,1.1-15.5,5.3-16.4c3.1-0.6,4.1-0.6,9.8-0.7c3.6-0.1,5-0.1,5.5,2.9
		l0.6,3.4c0.5,4.2,0.8,5.8-1.7,6.1c0,0-1,0-2.3-0.6c-1.7-0.6-3.8,1.1-1.7,4.1c4.4,6.1,12,15.1,15.7,32.7c3.3,19.3-3.4,30.5-6.2,35.7
		c-6.4,10.6-13.1,16.1-20.4,20.4c-10,7-28.8,6.6-25.2,6.4C221.9,210.5,204.3,210.9,193.1,203.8z"/>
</g>
<g>
	<g>
		<circle fill="#FFFFFF" stroke="#FFFFFF" stroke-width="2" stroke-miterlimit="10" cx="246.4" cy="115.7" r="1.3"/>
	</g>
	<g>
		<circle fill="#FFFFFF" stroke="#FFFFFF" stroke-width="2" stroke-miterlimit="10" cx="262.2" cy="152.4" r="1.3"/>
	</g>
	<g>
		<circle fill="#FFFFFF" stroke="#FFFFFF" stroke-width="2" stroke-miterlimit="10" cx="254.2" cy="183.5" r="1.3"/>
	</g>
	<g>
		<circle fill="#FFFFFF" stroke="#FFFFFF" stroke-width="2" stroke-miterlimit="10" cx="190.1" cy="115.7" r="1.3"/>
	</g>
	<g>
		<circle fill="#FFFFFF" stroke="#FFFFFF" stroke-width="2" stroke-miterlimit="10" cx="174.3" cy="152.4" r="1.3"/>
	</g>
	<g>
		<circle fill="#FFFFFF" stroke="#FFFFFF" stroke-width="2" stroke-miterlimit="10" cx="182.3" cy="183.5" r="1.3"/>
	</g>
	<g>
		<circle fill="#FFFFFF" stroke="#FFFFFF" stroke-width="2" stroke-miterlimit="10" cx="218.2" cy="200.6" r="1.3"/>
	</g>
</g>
<path fill="#FFFFFF" d="M400.1,198.5c0-7.6,0-15.2,0-22.9c0.5-0.1,0.9-0.4,1.3-0.3c5.7,0.1,6.1-1.6,6.7,5.7
	c0.7,8.7,1.9,17.4,2.6,26.1c0.3,3.4-0.7,6.6-4.2,8.3c-3.4,1.6-6.6,0.9-9.5-1.1c2.2-0.5,4.7-0.5,6.5-1.6c1.7-1.1,3.3-3.2,3.8-5.2
	C408.3,203.9,405,200.2,400.1,198.5z"/>
</svg>
