<?xml version="1.0" encoding="utf-8"?>
<!-- Generator: Adobe Illustrator 18.1.0, SVG Export Plug-In . SVG Version: 6.00 Build 0)  -->
<!DOCTYPE svg PUBLIC "-//W3C//DTD SVG 1.1//EN" "http://www.w3.org/Graphics/SVG/1.1/DTD/svg11.dtd">
<svg version="1.1" id="Layer_1" xmlns="http://www.w3.org/2000/svg" xmlns:xlink="http://www.w3.org/1999/xlink" x="0px" y="0px"
	 viewBox="0 0 120.9 80.2" enable-background="new 0 0 120.9 80.2" xml:space="preserve">
<g>
	<path fill="#722A06" d="M5.8,43.3c0.9,5.5,8.3,17.8,27.1,26.9c21.3,10.3,52.4,5.3,64.8-3.4c12.5-8.7,18.5-16.4,19.7-26
		c1.7-13.1-22.1-28.2-32.7-31.5C76.5,6.9,52.9-0.1,28.5,15C10.8,26,5,38.2,5.8,43.3z"/>
	<path fill="#722A06" d="M14.9,38.3c0.6,3.1,4.8,9.8,15.4,14.6c12,5.5,29.2,2.3,36-2.6c6.8-5,10.1-9.4,10.7-14.7
		c0.8-7.3-12.6-15.4-18.5-17.1c-4.6-1.3-17.9-4.9-31.2,3.8C17.5,28.7,14.4,35.5,14.9,38.3z"/>
	<path fill="#722A06" d="M24,33.3c0.2,0.6,1.3,1.8,3.6,2.4c2.6,0.7,6-0.6,7.2-1.9c1.2-1.3,1.7-2.3,1.6-3.4c-0.1-1.5-3.1-2.6-4.4-2.8
		c-1-0.1-3.8-0.3-6.2,1.9C24.2,31.3,23.8,32.8,24,33.3z"/>
</g>
<path fill="#571202" d="M115.3,48.6c-8.8,10.7-23.6,17.1-42.6,18.3C54.2,68.1,32.8,64,18.4,56.6c0,0,0,0,0,0c-4.2-2.2-7.6-4.5-10-7
	c0.8,1.3,1.7,2.7,2.9,4.1c1.9,1.4,4.1,2.7,6.5,4c0,0,0,0,0,0c14.7,7.6,36.2,11.7,55,10.5c10.8-0.7,20.3-3,28.2-6.9
	c4.3-2.1,8-4.6,11.2-7.5C113.4,52.1,114.5,50.4,115.3,48.6z"/>
<path fill="#571202" d="M97.8,22.3c2.1,1.1,4.1,2.2,5.8,3.2c0.8,0.4,1.5,0.9,2.2,1.3c5.3,2.9,8.6,5.5,10.7,7.6
	c-0.5-1.1-1-2.2-1.7-3.3c-2.2-1.8-5-3.6-8.4-5.5c-0.7-0.4-1.4-0.8-2.2-1.3c-1.7-1-3.7-2.1-5.8-3.2c-5.5-2.8-14.3-6.7-26.9-7.3
	c-13.4-0.7-28.9,2.5-46.1,9.4c-6.3,2.5-11.9,5.8-15.9,9.2c-0.9,1.4-1.7,2.8-2.2,4c3.4-4,9.8-8.5,18.6-12
	C63.8,9.2,84.2,15.3,97.8,22.3z"/>
<g>
	<path fill="#3B2314" d="M18,57.4c-2.4-1.3-4.6-2.6-6.5-3.9c-0.4-0.6-0.9-1.1-1.3-1.7c2.2,1.8,4.8,3.5,8,5.1
		c14.5,7.5,35.9,11.6,54.5,10.4c17.7-1.1,31.7-6.7,40.8-16.1c-0.5,0.8-1,1.6-1.6,2.4c-3.2,2.9-6.9,5.4-11.1,7.5
		c-7.9,3.9-17.3,6.2-28,6.9C54.1,69,32.6,64.9,18,57.4L18,57.4z"/>
	<path fill="#3B2314" d="M8.8,34.4c0.3-0.6,0.7-1.1,1-1.7c4-3.4,9.6-6.6,15.8-9.1c17.2-6.9,32.6-10,45.9-9.4
		c12.5,0.6,21.2,4.4,26.7,7.3c2.1,1.1,4.1,2.2,5.8,3.2c0.8,0.4,1.5,0.9,2.2,1.3c3.3,1.8,6.1,3.7,8.3,5.4c0.3,0.5,0.6,0.9,0.8,1.4
		c-2.3-2-5.5-4.2-9.4-6.3c-0.7-0.4-1.5-0.8-2.2-1.3c-1.7-1-3.7-2.1-5.8-3.2c-13.6-7-34.1-13.1-72.2,2.1
		C18.8,26.9,12.8,30.6,8.8,34.4L8.8,34.4z"/>
</g>
<circle fill="#571202" cx="40.5" cy="22" r="2.2"/>
<circle fill="#571202" cx="52.4" cy="20.3" r="2.2"/>
<circle fill="#571202" cx="64.5" cy="19.2" r="2.2"/>
<path fill="#571202" d="M78.7,21c-0.5,1.1-1.8,1.5-2.9,0.9c-1.1-0.5-1.5-1.8-0.9-2.9c0.5-1.1,1.8-1.5,2.9-0.9
	C78.9,18.6,79.3,19.9,78.7,21z"/>
<circle fill="#571202" cx="88.2" cy="22.7" r="2.2"/>
<circle fill="#571202" cx="39.5" cy="14.2" r="2"/>
<circle fill="#571202" cx="51.6" cy="12.1" r="2"/>
<circle fill="#571202" cx="64.6" cy="11.6" r="2"/>
<circle fill="#571202" cx="76.7" cy="12.1" r="2"/>
<circle fill="#3B2314" cx="87.9" cy="14.2" r="2"/>
<g>
	<g>
		<path fill="#FFFFFF" d="M105.2,20.9c-2-1.6-4.1-3.1-6.2-4.5c1.4,3.1,2.3,6.4,3.7,10.7c4,12.4,0.6,28.1-2.9,38.3c0,0,0,0,0,0
			c0.3-0.2,0.6-0.4,0.9-0.6c0,0,0.1-0.1,0.1-0.1c0.3-0.2,0.6-0.4,0.8-0.6c0,0,0.1-0.1,0.1-0.1c1.8-1.4,3.4-2.7,4.8-4c0,0,0,0,0,0
			C111.9,47.1,111.1,32.8,105.2,20.9z"/>
		<path fill="#FFFFFF" d="M34.1,70.8c0.3,0.1,0.6,0.3,0.9,0.4c0,0,0,0,0.1,0c0.7,0.3,1.4,0.6,2.1,0.8c-6-6.2-9.4-10.8-11.7-17.9
			c-4.4-13.7-1.8-28.3,2.9-39.1c0,0-0.1,0-0.1,0.1c-0.7,0.4-1.4,0.9-2,1.3c0,0,0,0-0.1,0c-0.2,0.1-0.4,0.3-0.6,0.4
			c0,0-0.1,0-0.1,0.1c-0.2,0.1-0.4,0.3-0.6,0.4c0,0-0.1,0-0.1,0.1c-0.2,0.1-0.4,0.3-0.6,0.4c0,0,0,0-0.1,0c-0.2,0.1-0.4,0.3-0.6,0.4
			c0,0,0,0,0,0c-0.2,0.2-0.4,0.3-0.6,0.5c-0.3,0.5-0.6,1.1-0.9,1.6c-7.3,14.2-6.7,30.5,0.4,43.6c0.8,0.5,1.5,1.1,2.4,1.6
			c0,0,0,0,0,0c0.4,0.3,0.8,0.5,1.2,0.8c0,0,0.1,0,0.1,0.1c0.4,0.2,0.8,0.5,1.2,0.7c0,0,0,0,0.1,0c0.4,0.2,0.8,0.5,1.3,0.7
			c0,0,0,0,0.1,0c0.4,0.2,0.8,0.5,1.3,0.7c0.1,0,0.1,0.1,0.2,0.1c0.4,0.2,0.8,0.4,1.3,0.7c0.1,0,0.1,0.1,0.2,0.1
			c0.4,0.2,0.9,0.4,1.3,0.7c0.3,0.2,0.7,0.3,1,0.5C34,70.8,34.1,70.8,34.1,70.8z"/>
	</g>
</g>
<path fill="#929497" d="M19.6,25.9c1.9-0.9,3.8-1.8,5.8-2.6c0.1,0,0.1,0,0.2-0.1c-0.1,0.5-0.3,1-0.4,1.6c-2.2,0.9-4.3,1.9-6.2,2.9
	C19.2,27.1,19.4,26.5,19.6,25.9z M101.8,24.5c0.6,0.3,1.2,0.7,1.8,1c0.8,0.4,1.5,0.9,2.2,1.3c0.8,0.4,1.6,0.9,2.3,1.3
	c-0.2-0.6-0.4-1.3-0.6-1.9c-0.3-0.2-0.7-0.4-1-0.6c-0.7-0.4-1.4-0.8-2.2-1.3c-0.9-0.5-1.9-1.1-3-1.7
	C101.4,23.3,101.6,23.9,101.8,24.5z M28.4,60.9c-3.2-1.1-6.3-2.4-9.1-3.8c0.2,0.6,0.4,1.2,0.6,1.8c2.9,1.4,6.1,2.6,9.5,3.8
	C29.1,62,28.7,61.4,28.4,60.9z M107.4,57.5c0.3-0.7,0.5-1.4,0.7-2.2c-2,1.5-4.2,2.9-6.6,4.2c-0.2,0.6-0.3,1.2-0.5,1.8
	C103.3,60.2,105.5,58.9,107.4,57.5z"/>
<g>
	<path fill="#6D6E70" d="M106.2,25.9c-0.7-0.4-1.4-0.8-2.2-1.3c-0.8-0.5-1.7-1-2.6-1.5c0.1,0.3,0.2,0.5,0.2,0.8
		c0.7,0.4,1.4,0.8,2.1,1.2c0.7,0.4,1.5,0.9,2.2,1.3c0.7,0.4,1.3,0.7,1.9,1.1c-0.1-0.3-0.2-0.5-0.3-0.8
		C107.2,26.5,106.7,26.2,106.2,25.9z"/>
	<path fill="#6D6E70" d="M29.1,62.1c-0.1-0.2-0.3-0.5-0.4-0.7c-3.3-1.1-6.3-2.4-9.2-3.8c0.1,0.2,0.2,0.5,0.3,0.7
		C22.7,59.7,25.8,61,29.1,62.1z"/>
	<path fill="#6D6E70" d="M19.4,26.4c-0.1,0.3-0.2,0.5-0.3,0.8c1.9-1,4-2,6.1-2.9c0.1-0.2,0.1-0.4,0.2-0.7
		C23.4,24.5,21.3,25.4,19.4,26.4z"/>
	<path fill="#6D6E70" d="M101.2,60.8c2.3-1.2,4.5-2.4,6.5-3.9c0.1-0.3,0.2-0.6,0.3-1c-2,1.5-4.2,2.8-6.6,4.1
		C101.3,60.3,101.2,60.5,101.2,60.8z"/>
</g>
<g>
	<path fill="#FFFFFF" d="M37.4,20c-0.2-0.1-0.4-0.3-0.5-0.5c-0.2-0.5,0.1-1,0.6-1.2c3.9-1.2,13.4-3.4,23.8-4.2
		c8.8-0.7,20.9-0.6,29.2,3.7c0.1,0.1,0.3,0.1,0.4,0.2c0.4,0.2,0.6,0.8,0.4,1.3c-0.2,0.5-0.8,0.6-1.3,0.4c-7.8-4.2-19.8-4.3-28.5-3.7
		c-10.2,0.8-19.6,2.9-23.4,4.1C37.8,20.2,37.6,20.1,37.4,20L37.4,20z"/>
</g>
<path fill="#A6A8AB" d="M91.3,18.5c0,0.2,0,0.4-0.1,0.6c-0.2,0.4-0.8,0.6-1.3,0.4c-7.8-4.2-19.8-4.3-28.5-3.7
	c-10.2,0.8-19.6,2.9-23.4,4.1c-0.2,0.1-0.5,0-0.7-0.1c-0.2-0.1-0.4-0.3-0.4-0.5c0,0,0,0.1,0,0.1c0.1,0.2,0.2,0.4,0.5,0.5
	c0.2,0.1,0.5,0.1,0.7,0.1c3.8-1.2,13.2-3.3,23.4-4.1c8.7-0.7,20.7-0.6,28.5,3.7c0.5,0.2,1,0.1,1.3-0.4C91.4,19,91.4,18.8,91.3,18.5z
	"/>
<path fill="#D0D2D3" d="M37.5,18.7c3.9-1.2,13.4-3.4,23.8-4.2c8.8-0.7,20.9-0.6,29.2,3.7c0.1,0.1,0.3,0.1,0.4,0.2
	c0.3,0.2,0.5,0.5,0.5,0.8c0.1-0.4,0-0.9-0.4-1.1c-0.1-0.1-0.3-0.1-0.4-0.2c-8.2-4.2-20.4-4.3-29.2-3.7c-10.4,0.8-19.9,2.9-23.8,4.2
	c-0.4,0.1-0.7,0.5-0.6,0.9C37,19,37.2,18.8,37.5,18.7z"/>
<g>
	<path fill="#FFFFFF" d="M39.7,23.2c-0.4-0.2-0.8-0.7-0.8-1.2c0-0.1,0-0.2-0.1-0.4c-0.8-4.1-1.1-6-0.9-6.9c0.1-0.9,1-1.6,1.9-1.5
		c0.9,0.1,1.4,1,1.4,1.9c0,0.3,0,1.4,0.9,5.7c0.1,0.4,0.1,0.5,0.1,0.6c0.1,0.9-0.5,1.8-1.4,2C40.4,23.4,40,23.4,39.7,23.2L39.7,23.2
		z"/>
	<path fill="#FFFFFF" d="M40.1,22.4c-0.2-0.1-0.3-0.3-0.4-0.5c0-0.1,0-0.2-0.1-0.3l0-0.1c-0.5-2.7-1.1-5.6-0.9-6.6
		c0.1-0.4,0.5-0.8,0.9-0.7c0.1,0,0.1,0,0.2,0.1c0.2,0.1,0.4,0.5,0.4,0.9c0,0.7,0.3,2.7,0.9,5.9c0.1,0.4,0.1,0.5,0.1,0.6
		c0.1,0.4-0.2,0.9-0.7,1C40.4,22.5,40.3,22.4,40.1,22.4L40.1,22.4z"/>
</g>
<g>
	<path fill="#FFFFFF" d="M51.6,21.5c-1.1-0.5-1.1-1.4-1.4-4.5c-0.1-1.6-0.2-3.4-0.3-4.3c0-1,0.7-1.9,1.8-1.9c1,0,1.5,0.9,1.6,1.9
		c0.1,1.9,0.8,5.5,0.9,6.4c0.2,0.5,0.2,1-0.1,1.6C53.6,21.6,52.5,21.9,51.6,21.5L51.6,21.5z"/>
</g>
<g>
	<path fill="#FFFFFF" d="M63.8,20.2c-0.7-0.3-1.1-1.1-1-1.9c0.3-2.3,0.4-4.8,0.2-5.5c-0.4-0.9-0.1-2,0.8-2.4
		c0.9-0.5,1.8-0.2,2.3,0.7c0.8,1.4,0.7,5,0.4,7.7c-0.1,1-1.1,1.7-2.1,1.6C64.2,20.4,64,20.3,63.8,20.2L63.8,20.2z"/>
</g>
<g>
	<path fill="#FFFFFF" d="M76,21c-0.6-0.3-1-0.9-1-1.6l-0.1-6.8c0-1,0.8-1.9,1.8-1.9c1,0,1.5,0.7,1.5,1.7l0.4,6.9
		c0,1-0.8,1.9-1.8,1.9C76.6,21.2,76.3,21.1,76,21L76,21z"/>
</g>
<g>
	<path fill="#FFFFFF" d="M87.4,24c-0.4-0.2-0.7-0.5-0.9-0.9c-0.2-0.5-0.2-1.1,0.1-1.6c0.2-1.2-0.1-5.2-0.4-6c-0.4-0.9,0-2,0.9-2.4
		c0.9-0.4,1.8,0.1,2.2,1c0.5,1,0.9,3,1,4.5c0.1,2.2,0,3.7-0.3,4.4c-0.3,0.7-0.8,1.1-1.1,1.2C88.5,24.3,87.9,24.2,87.4,24L87.4,24z"
		/>
</g>
<path fill="#BBBDBF" d="M39.8,23c-0.4-0.2-0.7-0.6-0.8-1.2c0-0.1,0-0.2-0.1-0.4c-0.8-3.9-1-5.8-0.9-6.8c0.1-0.8,0.8-1.4,1.5-1.5
	c-0.8,0-1.5,0.6-1.6,1.5c-0.1,0.9,0.1,2.8,0.9,6.8c0,0.2,0.1,0.4,0.1,0.4c0.1,0.5,0.4,0.9,0.8,1.2c0.2,0.1,0.5,0.2,0.8,0.2
	C40.3,23.2,40,23.2,39.8,23z"/>
<path fill="#BBBDBF" d="M51.7,21.2c-1-0.5-1.1-1.3-1.3-4.3c-0.1-1.5-0.2-3.3-0.3-4.1c0-0.3,0-0.6,0.2-0.8c-0.2,0.3-0.3,0.6-0.2,1
	c0,0.9,0.2,2.6,0.3,4.1c0.3,3,0.3,3.8,1.3,4.3c0.9,0.5,2,0.1,2.4-0.8c0,0,0-0.1,0-0.1C53.6,21.3,52.5,21.6,51.7,21.2z"/>
<path fill="#D0D2D3" d="M64.6,20.2c-0.2,0-0.4-0.1-0.6-0.2c-0.7-0.3-1.1-1.1-1-1.8c0.3-2.2,0.4-4.7,0.2-5.3C62.8,12,63.2,11,64,10.5
	c0.1-0.1,0.2-0.1,0.3-0.1c-0.2,0-0.3,0.1-0.5,0.2c-0.8,0.5-1.2,1.5-0.7,2.4c0.2,0.6,0.1,3.1-0.2,5.3c-0.1,0.8,0.3,1.5,1,1.8
	c0.2,0.1,0.4,0.2,0.6,0.2c0.3,0,0.6,0,0.9-0.1C65.1,20.2,64.9,20.2,64.6,20.2z"/>
<path fill="#D0D2D3" d="M77,20.9c-0.3,0-0.6-0.1-0.8-0.2c-0.6-0.3-1-0.9-1-1.6l0-6.5c0-0.8,0.5-1.4,1.2-1.7
	c-0.8,0.2-1.3,0.9-1.3,1.7l0.1,6.5c0,0.7,0.4,1.3,1,1.6c0.2,0.1,0.5,0.2,0.8,0.2c0.2,0,0.4,0,0.6-0.1C77.3,20.9,77.2,20.9,77,20.9z"
	/>
<path fill="#D0D2D3" d="M87.6,23.7c-0.4-0.2-0.7-0.5-0.8-0.9c-0.2-0.5-0.2-1.1,0.1-1.5c0.2-1.2-0.1-5-0.4-5.7
	c-0.4-0.9,0-1.9,0.9-2.3c0,0,0.1,0,0.1,0c-0.1,0-0.2,0.1-0.3,0.1c-0.9,0.4-1.3,1.5-0.9,2.3c0.3,0.8,0.6,4.6,0.4,5.7
	c-0.3,0.5-0.3,1-0.1,1.5c0.2,0.4,0.5,0.7,0.8,0.9c0.4,0.2,0.9,0.3,1.4,0.1C88.5,24,88,23.9,87.6,23.7z"/>
<path fill="#D8D8D8" d="M39.3,13.3c0.9,0.1,1.4,1,1.4,1.9c0,0.3,0,1.4,0.9,5.7c0.1,0.4,0.1,0.5,0.1,0.6c0.1,0.7-0.2,1.3-0.7,1.7
	c0.8-0.3,1.3-1.1,1.2-2c0-0.1,0-0.2-0.1-0.6c-0.9-4.3-0.9-5.4-0.9-5.7c0-0.9-0.5-1.8-1.4-1.9c-0.4-0.1-0.8,0.1-1.2,0.3
	C38.8,13.3,39,13.3,39.3,13.3z"/>
<path fill="#D0D2D3" d="M51.4,11.2c1,0,1.5,0.9,1.6,1.9c0.1,1.9,0.8,5.5,0.9,6.4c0.2,0.5,0.2,1.1-0.1,1.6c0,0,0,0,0,0.1
	c0.1-0.1,0.2-0.3,0.3-0.5c0.3-0.5,0.3-1.1,0.1-1.6c-0.2-0.9-0.8-4.5-0.9-6.4c0-1-0.5-1.9-1.6-1.9c-0.7,0-1.2,0.4-1.5,1
	C50.5,11.4,50.9,11.2,51.4,11.2z"/>
<path fill="#BBBDBF" d="M66.5,18.8c0.3-2.7,0.4-6.3-0.4-7.7c-0.5-0.8-1.3-1.1-2.2-0.8c0.7-0.1,1.3,0.2,1.7,0.9
	c0.8,1.4,0.7,5,0.4,7.7c-0.1,0.7-0.5,1.2-1.1,1.4C65.8,20.2,66.4,19.6,66.5,18.8z"/>
<path fill="#BBBDBF" d="M78.7,19.3l-0.4-6.9c0-1-0.5-1.7-1.5-1.7c-0.3,0-0.5,0.1-0.7,0.2c0.1,0,0.2,0,0.4,0c1,0,1.5,0.7,1.5,1.7
	l0.4,6.9c0,0.8-0.4,1.4-1.1,1.7C78.1,21,78.7,20.2,78.7,19.3z"/>
<path fill="#BBBDBF" d="M90.1,22.9c0.3-0.7,0.4-2.2,0.3-4.4c-0.1-1.5-0.5-3.5-1-4.5c-0.4-0.9-1.2-1.4-2.2-1c0.8-0.2,1.5,0.3,1.8,1.1
	c0.5,1,0.9,3,1,4.5c0.1,2.2,0,3.7-0.3,4.4c-0.3,0.7-0.8,1-1.1,1.2c0.1,0,0.2,0,0.3-0.1C89.3,23.9,89.8,23.6,90.1,22.9z"/>
</svg>
