<?xml version="1.0" encoding="utf-8"?>
<!-- Generator: Adobe Illustrator 18.1.1, SVG Export Plug-In . SVG Version: 6.00 Build 0)  -->
<svg version="1.1" id="Layer_1" xmlns="http://www.w3.org/2000/svg" xmlns:xlink="http://www.w3.org/1999/xlink" x="0px" y="0px"
	 viewBox="0 0 792 612" enable-background="new 0 0 792 612" xml:space="preserve">
<g>
	<path fill="#2A2F30" d="M56.5,408.4h3.9c-0.1-0.4-0.2-0.6,0-0.9c0.1-0.2,0.3-0.3,0.5-0.5c0.4-0.5,0.9-0.9,1.2-1.5
		c0.6-1.2-0.2-1.2-0.2-2.3c0.1-1-0.3-1.8-1.4-1.5c-0.4-0.6-1.1-0.5-1.6-0.1c-0.6-0.3-0.9-0.3-1.4,0.3c-0.8-0.2-0.9,0.2-1.4,0.9
		c-0.9,1-0.3,3,0.1,4.6C56.3,407.7,56.5,408,56.5,408.4z"/>
	<path fill="#2A2F30" d="M795.1,432.9L795.1,432.9c-0.1-0.1-0.2-0.2-0.3-0.2c0.1-0.1,0.2-0.2,0.3-0.2v-9.1c-0.7,0.5-1.5,1-2.2,1.5
		l-0.4,0.6c-0.6-0.2-0.9-0.3-1.2-0.2l0,0c0.4-0.6,0.3-1.4-0.2-2.1c-0.7-1.3-0.6-2.9-0.8-4.4c0-0.2-0.2-0.2-0.4-0.2l-0.2-1.6v-2.8
		l-0.1-0.7l0.5,0.9c0.3,0.2,0.1-0.4,0.5,0.1c0.3,0.3,0.2,0.3,0.4-0.1c0.2,0.6,0.3,0.2,0.5,0.5c0.1,0.2,0.5-0.1,0.5-0.1
		c0.9,0.3,0.3,0.1,0.8-0.3c0.2-0.1,0.3,0.1,0.2,0.1c0,0,0.5-0.8,0.6-0.9c0,0,0.4-0.1,0.3-0.2c-0.2-0.2-0.1-0.6,0-0.7
		c0.2-0.2,0.5-0.5,0.5-0.7c0-0.3,0.2-0.5,0.2-0.5c-0.2-0.1,0.4-0.1,0.3-0.2c-0.2-0.4-1-0.7-0.7-1c0.2-0.2,0.6-0.2,0.8-0.2v-0.3
		c-0.1-0.1-0.1-0.2-0.2-0.2c-0.4-0.5-1-1.1-1-1.2c0-0.2,0.2-0.2,0.5-0.4c0.9,0.3-0.2-0.2-0.4-0.5c-0.2-0.2,0-0.5-0.1-0.9
		c-0.2-0.6-0.9-1.2-1.3-1.7l-1-0.9c-0.6-0.1-0.5-0.2-0.3-0.5c0.1-0.2-0.1-0.5-0.2-0.8c-0.9-0.9-1.2-1.5-1.7-1.6
		c-0.2-0.1-0.2-0.3-0.5-0.4c-1.1-0.4-2.2-0.5-3.9-0.6c-3.8,0-7.7,0.2-11.4,0.2H771c-3.8-0.1-7.6-0.2-11.3-0.2
		c-0.2,0-0.5,0.1-0.7,0.1c-0.9-0.1-1.4-0.2-1.6-0.1c-0.3,0.2-0.1,1.1,0.1,2.2c0.1,1.2,0.3,3.2,0.3,5c0,0.8-0.1,1.5-0.1,2.2
		c0,0.3-0.2,0.6-0.1,0.9c0.1,0.3,0,0.5,0,0.7c0.1,0.6,1.7,0.6,3.4,0.2c0.9-0.2,1.9-0.5,2.7-0.5c0.8-0.2,1.5-0.3,2.2-0.6
		c0.4-0.2,0.7,0,1-0.1c1.5-0.1,2.7-0.4,4.1-0.5c1.3-0.2,2.5-0.2,3.7-0.5c2.9-0.7,5.7-1.9,8.7-3.2c0.2-0.1,0.2,0.4,0.2,0.5
		c0,0.2-0.4,0.2-0.5,0.5c-0.2,0.5,0.5,1.2,1,1.9c0.2,0.4,0.1,1,0.2,1.7c0.2,0.2,0.5,0.3,0.6,0.3c0.1,0.2,0.2,0.5,0.2,0.8
		s0.2,0.6,0.4,0.9c0.2,0.5,0.3,0.9,0.5,1.3c0.1,0.8-0.2,5.7-0.2,5.8c0,0-0.2-0.1-0.3,0c-0.2,0.1-0.3,0.4-0.4,0.4
		c0,0.8,0,1.5,0.2,2.2l-0.2,1.9c-0.1,1-0.2,2-0.1,3c-0.5,0.1-1.1,0.2-1.8,0.5c-1.8-1.2-2.7,0.9-3.5,2.2l-0.7,1.2
		c-1.9-1.7-2.6,1.5-2.5-1.2c0-1.1-0.3-2.6,0.9-2.6c2.4-0.6,4.1-3.1,1.5-3.9c-1.4-0.4-0.3-2.4-0.9-3.6c-1-1-1.1-1-1.1-2.4
		c-0.6-3.3-2.2-3.6-5.1-3.8c-7.5,0.2-3.9,2.6-7.3,4.8c-1.9,1.4-1.5,2.8-1.1,4.7c-1.2,5,0.9,2.2,2.1,4.3c0.2,0.3,0.3,0.4,0.8,0.2
		c0,1.5,1.6,2.5,1.1,3.9c-0.9,0.2-1.2,0-1.5,0.9c-2.4,1-1.2-0.9-3.2,0l-1.9,0.6l-1,0.4c-1.2,0-1.3,0.2-2.3,0.9
		c-0.9-0.2-0.9-0.2-1.4,0.5c-0.9-0.2-1.2-0.2-2.1,0.2c-2-0.4-3.8-0.5-5.8-0.2c-2.1-1-3.6-1.4-6-1.6c-3.3-0.6-6.3-1.6-9.2-3
		c0-0.2-0.1-0.5-0.2-0.8c-0.2-0.8-0.2-1.2-1.1-1.3c-0.5-0.3-0.4-0.3-1.1-0.4c0-0.1-0.1-0.2-0.1-0.4c-0.5-1.2-1.3-1.9-2.5-2.4
		c-0.7-0.5-0.6-0.5-1.3-0.1c-0.9,0.3-1.2,0.9-0.2,0.9c-0.3,0.5-0.4,0.5-0.4,1.2c-0.8,0.3-0.7,0.7-0.5,1.3c-0.9,0.9-0.3,1.3,0.4,1.9
		c0.4,1.2,0.9,1.8,1.7,2.2c0.4,0.6,0.3,1.2,0.4,2c0,2.4,0.4,4.7-0.1,7c-0.3,1.7-0.6,3.6-0.7,5.4c0,1.2-0.1,2.5,0.1,3.6
		c0,0.2,0,0.2-0.2,0.3c-0.1-0.9-0.3-1.8-0.6-2.6c-0.2-0.5-0.2-0.8,0-1.3c0-0.3,0.1-0.9,0-1.3c-0.1-0.3-0.3-0.3-0.4-0.6
		c-0.1-0.7,0.3-1.1-0.5-1.6c-0.4-0.5-0.5-0.7-1.1-0.9c-0.1-0.5,0.1-0.5-0.4-0.8c-0.2-0.5-0.4-0.7-0.8-1.1c0.2-1.8-0.2-1.8,0-2.5
		c0.1-0.2,0.4-0.3,0.5-0.5c0.5-0.5,0.9-1.1,1.4-1.5c0.7-1.3-0.2-1.3-0.2-2.6c0.1-1.1-0.3-1.9-1.5-1.6c-0.4-0.7-1.2-0.5-1.8-0.1
		c-0.7-0.4-0.9-0.3-1.5,0.4c-0.9-0.2-1.1,0.2-1.5,0.9c-0.9,1.2-0.3,3.3,0.1,5c0.5,1.1,0.3,1.9,0.4,3.1c-1.3,0.5-0.5,1.9-1.2,2.9
		c-0.5,0.9-0.5,0.9-0.2,1.9c0.2,2.2-0.3,4.8,0.4,6.9c-0.3,1.6-0.2,3,0,4.6c0,1.1-0.1,1.9,0.1,2.7c-1.5,1-2.9,2.1-4.1,3.6
		c-0.2,0.2-0.5,0.5-1,0.8c-0.7,0.2-1.6,0.2-1.6-0.5c0-0.9,0.2-2.5,0.3-3.6c0.9,0.3,0.9-0.3,1.2-1.1c0.4-0.8,0.5-1.5,0.3-1.7
		c-0.2-0.4-0.7-0.2-0.7-0.2c0.1-0.4,0.2-1.7,0.2-2.3c0.4-0.4-0.2-1-0.5-1.6c0.1-0.3,0.1-0.4-0.1-0.7c0.4-0.1-0.5-0.7-0.9-1.2
		c-0.4-1.2-1-1.9-2.4-1.9c-0.5-0.2-0.8-0.3-1.4-0.2c-0.5-0.7-1.2,0.2-2.3,0.2c-1.8,0.4-1.9,1-2.9,2.6c-0.8,0.8-0.9,2.4-0.6,3.9
		c0,0.6-0.1,0.9,0.2,1.4c-0.7,0.1-0.7,1.2-0.4,1.9c0.2,0.8,0.5,1.4,0.8,1.5c0.4,0.2,0.5-0.5,0.6,0c0,0.2,0.3,1,0.5,1.9
		c0.2,0.8,0.2,1.6,0.2,1.5c-0.4-0.2-1.5-1.2-1.9-1.5c-1.3-1.2-2.7-2.8-4.4-3.4c-1-0.4-1.3-0.5-1.9-1.4c-1-2.2-2.2-4.4-4.2-6.1
		l-0.1-0.1c0.1-0.6,0.2-1.2,0.1-1.9c-0.2-2.9-1.1-5.6-1.9-8.4c-0.2-0.5-0.3-1.1-0.5-1.6c-0.1-1.9,0-3.6,0-5.6
		c0.1-0.7,0.2-0.9,0.6-1.3l0.6-0.5l0.5-0.5c0.9-1,0.9-0.9,0.5-2.2c-0.2-0.5-0.2-0.7-0.5-1c0.8-0.7-0.4-1.6-1.2-1.2
		c-0.5-0.5-0.8-0.7-1.6-0.2c-0.8-0.3-0.8-0.2-1.5,0.2c-0.8-0.2-1.1,0.2-1.3,0.9c-0.1,0.2-0.2,0.3-0.2,0.5c-0.5-1.5-0.7-1.9-2.6-2.7
		c-0.5-3.9-1.9-2.1-2.1-3.6c-1.1-12.5-2.6-2.7-6.2-6.3c-2.5-6.5-1.5-6.3-8-3.9c-2-3.4-6.6-4.8-5.4,0.5c0.3,1.4-6.1,0.4-2.3,3.9
		c-0.1,3-0.3,2.7,2.7,3.3c1.6,1.9,2.9,0.2,4.3,2.2c1.2,4.8-0.2,7.2,5,5.7c4.6,3.2,3.9-1.5,7.5-1.5c0.4,2.2,1.3,3.4,2.5,5.3
		c0.9,1.7,1.8,3.2,2.9,4.7c0.9,1.2,1.1,2.3,1.3,3.6c-0.3,3.5-1,7.3-0.1,10.8c0,0.2,0,0.3,0,0.5c-0.2,0.9-0.5,1.6-0.7,2.3
		c-0.4,2.2-2.6,0.9-6.4,4c-1,0.9-1.2,0.9-2.6,1.1c-3.1,0.8-4.3,1.4-6,3.9c-1.7,1.5-1.1-2.2-1-2.9l0.1-1.5c0.4-0.8,0.5-1.2,0.5-1.9
		c1.2-0.9,1.1-1.9,1.1-3.2c0-1-0.2-1.7-0.4-2.7c-0.7-3.7-2.6-6.9-5.3-7c-4.3-0.2-3.6,0.2-5.2,1.5c-1.2,1-2.6,2.3-2.7,4.2l0.2,1.7
		l0.2,1.2c-0.3,1.4-0.3,1.5,0.4,2.6c0.1,1.3-0.2,1.5,0.9,2.2l0.7,0.5c0.2,0.7,0.3,1.2,1,1.6c-0.2,1.5-0.4,2.3-0.8,3
		c-0.5,0.9-1.5-0.5-4.7,1.6c-1.7-0.2-3.3,0.2-4.8,0.6c0.2-0.2,0.3-0.5,0.4-0.9c0.4-0.8,0.7-1.5,1.1-2.2c0.8-1.1,1.1-1.7,1-2.4
		c0.4-0.6,0.5-0.9,0.6-1.5c0.3-0.5,0.4-0.9,0.5-1.5c0.3-0.7,0.3-1.2,0.3-1.9c0.2-1.1,0.5-2.1,0.5-3.2c0.4-1.4,0.4-2.9,0.5-4.3
		c0.2-0.9,0.4-1.6,0.2-2.6c0.2-0.8,0.2-1.5-0.2-2.2c0.1-0.5,0.1-0.9,0-1.4c-0.1-0.7-0.1-0.9-0.9-0.9c-0.1-0.6-0.1-1.2,0.2-1.7
		c0.3-0.4,0.5-0.8,0.8-1.2c0.5-0.9,1.1-2.1,1.4-2.9c0.2-0.5,0-0.5,0.2-1c0.2-0.3,0.4-0.6,0.5-0.9c0.5-1.2,1.1-2.4,0.9-2.8
		s-0.7-0.1-1,0.7c-0.2,0.3-1,2.2-1.3,2.2c-0.2,0-0.2-0.4-0.1-1c0.4-1.3,0.4-2.6,0.4-3.9c-0.1-0.9-0.9-0.8-0.9,0s-0.2,1.5-0.2,2.3
		c-0.1,0.6-0.2,1.2-0.4,1.2s0-0.3,0-0.8c0.2-1,0.2-2,0.3-3c0.1-0.3,0.1-0.8,0.1-1.1c0-0.5-0.9-0.6-1,0.3l-0.2,1.2
		c-0.2,0.7-0.2,1.2-0.2,1.9c0,0.2,0.1,1.7-0.2,0.8l-0.1-0.8c0.1-0.6-0.1-0.8-0.1-1.2c-0.1-0.6-0.1-1.3-0.2-1.9c-0.1-0.6-0.9-0.7-1,0
		c0,0.6,0,1.3-0.1,1.9c0,1,0.2,2,0.2,2.9v0.5c-0.3,0.5-0.9,1.4-1.2,1.4c-0.2,0-0.7-0.5-1-1.4c0-0.5-0.5-1.2-1.2-1.5
		c-0.6-0.2-1,0.2-0.2,0.9c0.3,0.8,0.5,0.7,0.6,1c0.2,0.2,0.2,0.6,0.3,1l0.1,0.6c0.1,0.4,0.1,0.5,0.3,0.8l0.4,0.5
		c0.2,0.5,0.5,0.9,0.7,1.2c0.2,0.4,0.1,0.6-0.1,1c-0.1,0.6-0.1,1.2,0,1.9c-0.4,0.1-0.4,0.2-0.5,0.6c-0.6,0.3-0.2,0.8-1.2,1.5
		c-0.5,0-0.5,0-0.9,0.3c-0.3,0.4-0.3,0.4-0.1,0.8c-0.4,0.4-0.3,0.5-0.3,1.1c-0.2,0.5-0.2,0.7-0.2,1.2c-0.1,0.7-0.2,1.4-0.2,2.2
		c-0.5,0.7-0.2,1.3,0.1,2c-0.5,0.3-0.5,0.4-0.7,0.9l-0.4,0.9c-0.3,0.5-0.5,1.1-0.8,1.7s-0.4,0.8-0.3,1.5c-0.2,0.4-0.3,0.6-0.4,1.1
		c-0.6,0.4-0.8,0.6-1.2,1.3l-0.5,0.7c-1.2,0.2-1.2,0.5-1.1,1.8c-0.2,0.5-0.4,0.9-0.5,1.4c-0.5,0.2-0.6,0.2-0.9,0.6
		c-0.4-0.5-0.3-0.5-0.9-0.5c-0.8,0.1-1.1,0.2-1.8,0.6s-0.5-0.2-1.9,1.1c-0.2,0.2-0.2-0.2-0.1-0.5c0.1-0.2-0.3-0.5-0.5-0.5
		c-0.6-0.2-0.9,0.4-0.6-0.5c0.2-0.1,0.2-0.5,0.5-0.6c0.8-0.1,0.9-1.8,0.9-2.6c0.2-0.5,0.2-0.9,0.2-1.5c0-1.4,0-2.9-0.6-4.1
		c-1.5-2.9-4.6-3.6-6.9-2.6s-3.6,3.4-3.6,6.2c0,1.9-0.2,3.6,1.2,5c0.2,0.3,0.6,0.5,0,0.4c-0.2,0-0.3,0-0.4,0.1
		c-0.2,0.2,0.1,0.6-0.2,0.7c-0.2,0.1-0.6-0.5-1.6-0.3c-0.8-0.3-1.5-0.8-2.4-0.4c-0.5-0.2-0.1-0.2-1,0c-0.4-1.1-0.1-1.2-0.3-1.6
		c-0.3-0.7-0.7-1-1.8-1.9c-0.1-0.9-0.1-1.5-0.5-2.2c0-0.5,0-0.5-0.4-0.9c-0.2-0.6-0.5-1-0.8-1.5c0-0.1-0.1-0.1-0.1-0.2v-1.3h-1.2
		c-0.2-0.1-0.2-0.2-0.4-0.2c0.2-0.5,0.2-1,0.2-1.6c0.1-0.7,0.1-1.1-0.1-1.7c-0.2-0.5-0.3-0.9-0.5-1.2c2-0.9,3.9-2.2,5.8-3.2
		c1.9-1.2,4.9-3.3,6.3-5c1.5-1.7,1.5-0.7,3.3-2.9c2.9-3.4,5.2-7.7,6.7-12.2c0.7-1.9,0.7-2.6,2.5-3.7l1-1.2c0.6-1.3,0.2-2.2,1.3-3.3
		c0.9-0.5,3.8-3.4,2.2-4.1c-0.9-0.1-0.5,0.6-1.2,1.7c-0.6,0.9-1.5,0.7-1.6,1.1c-1.2,0.8-0.7-0.4-0.4-1.2c0.7-1.8,0.9-2.5,1.2-3.4
		l0.5-1.4c0.3-1-1-1.1-1.3-0.2c-0.6,1.5-1.5,2.9-2,4.4c-0.7,1.3-0.5,0.8-0.2-0.3c0.1-0.3,1.7-3.7,1.9-5.1c0.1-0.7-0.6-1-1.2-0.1
		c-0.6,1-1.4,2.6-1.5,2.9c-0.3,1-1.2,2.9-0.9,1.1c0.3-1.1,0.6-2.1,1.1-3.1c0.2-0.5,1-2.2-0.2-1.9c-0.5,0.1-0.9,0.9-1.2,1.3
		c-0.8,1.4-1.3,3.3-1.9,6c-0.2,0.5-0.5,2.6-0.9,2.1c-0.3-0.5-1.3-1.8-1.1-2.9c0.2-0.9,0.1-2.3-0.4-3.2c-0.5-0.8-1.2-1-1.1-0.2
		c0,0.5,0.2,0.9-0.2,2c-0.2,0.6,0,1.9,0.2,2.2c0.2,0.3,0.1,1,0.2,1.6c0.1,0.9,1.6,2.3,1.5,3.4c-0.7,2.7-2.1,5.3-3.9,7.4
		c-3,2.5-5.3,4.6-6.7,8.3c-5.9,2.2-5.8,4.9-9.4,5c-0.8,0-1.7,0-2.6,0c-0.2-0.7-0.2-1.3-0.2-2.1c0.9-0.8,1.6-1.9,1.9-2.9
		c0.2-0.2,0.5-0.5,0.7-0.9c0.2-0.3,0.2-0.5,0.3-0.7c0.2-0.6,1-0.7,0.9-1.1c-0.2-0.5-1.5-0.7-2.5,1.3c-0.1,0.1-0.5,0.8-0.7,0.6
		c-0.2-0.2-0.4-0.8-0.5-1c-0.1-0.5-0.2-1-0.2-1.5c0.2-0.9,0.2-1.7,0.1-2.5c0-0.3-0.2-1.1-0.2-1.8c0-0.8-1-0.9-1.1-0.1
		c-0.1,0.7,0.3,2.6,0,3.9c-0.2,0.5-0.3,0.3-0.3-0.2c0-0.2,0-0.5-0.1-0.7c-0.2-0.8-0.4-1.5-0.5-1.8c-0.2-0.5-0.3-1.2-0.5-1.6
		c-0.2-0.6-0.9-0.5-1-0.2c-0.2,0.4,0.2,0.6,0.4,1.9c0.2,0.6,0.3,1.3,0.5,2c0.2,0.8,0,1.8-0.4,0.4c-0.2-0.5-0.4-1.1-0.5-1.7
		c-0.1-0.4-0.2-0.9-0.3-1.3c0-0.3-0.1-0.5-0.2-0.7c-0.2-0.2-0.8-0.2-0.9,0.3c-0.1,0.4,0.2,1.1,0.3,1.7c0.2,1,0.5,2,0.9,2.9
		c0,0.4-0.2,0.5-0.5,0.2c-0.2-0.4-0.4-0.8-0.6-1.2c-0.2-0.5-0.5-1-0.6-1.5c-0.2-0.7-0.7-0.5-0.9-0.2c-0.2,0.2,0,0.6,0.1,1.1
		c0.3,1.1,0.6,1.8,1.3,2.7c-0.1,2.1,0.7,4.3,1.6,5.8c0.2,0.3,0.2,0.8,0.2,1.3c-0.9,0.3-1.7,0.6-2.6,0.9c-2.9,0.2-2.7,2.2-3.9,2.4
		c-0.9,0.2-2.1-0.5-3.6-0.3c-0.6,0.1-0.6-1.5-0.9-2.2c-0.2-1-0.5-1.9-0.1-3c0.4,0.8,1.1,0.3,0.9-0.3c-0.1-0.3,0.5-0.3,0.3-0.9
		c0.5-0.5,0.5-0.7,0.5-1.4c0.3-1.1,0.2-1.5-0.1-2.6c0.2-2.2,0.3-3.6-0.3-4.6c-0.4-1.9-2-2.9-3.7-3.9c-2.9-1.7-5.6-0.8-8.1,1.4
		c-1.6,1.8-2.3,3.2-2.3,6c-0.4,1.1-0.4,2.2,0.1,3.9c-0.2,0.7-0.1,1.4,0.3,2c0.4,0.5,0.2,1.5,1.1,0.7c0.2,0.6,0.5,1.1,0.9,1.6
		c0.6,1.7,1,3.2,0.5,4.4c-1.2,0.5-2.1,1-2.7,2.2c-0.9-0.5-1.8-0.9-2.8-1.3c-1.1-0.4-2.1-0.5-3-0.3c0.1-0.2,0.2-0.4,0.2-0.6
		c1.5-3.2-0.6-2.6,0.5-4.9c1.5-2.6,1.2-3.2,1.8-4.9c1.4-2.9-0.9-2.2,0.4-4.6c0.3-0.5,0.9-0.8,0.9-0.9c-0.1-0.5-1-0.7-1.9-1.5
		c0.2-1.2,0.2-2.4,0.4-3.7c0.1-0.7,0.5-1.4,0.5-2.1c0.3-0.9,1.2-1.6,0.6-2.6c0.3-0.6,0.2-1-0.3-1.5c-0.1-0.8-0.1-1.2-1-1.1
		c-0.4-1.9-1.6-0.6-2.6-0.6c-0.2,0-0.3-0.5-0.5-0.9c-0.1-0.3-0.1-1.2,0-1.7c0.1-1.3-0.9-1.5-1.3-0.7c-0.2,0.4-0.2,1.2,0,1.9
		c0.1,0.9-0.2,2.1-0.2,2.6c0.1,0.9,0.1,1.9,0.3,2.3c0.2,0.5,0.7,0.4,0.9,1.2c0.5,1.5-0.2,2.8-0.6,5.3c-1-0.2-0.7,1.9-1.2,2.6
		c-1.4,0.5-1.5,0.8-1.5,2.8c-0.5,0.7-0.5,0.9-0.5,1.8c-0.6,0.7-0.5,0.9-0.5,1.9c-0.7,0.9-0.9,1.3-1.1,2.4c-1.6,2.2-1.1,3.7-2.2,4.1
		l-1.2,0.9c-0.9,0.8-0.9,1.8-0.8,2.9c-0.2,0-0.3,0-0.5,0c-0.4-1.2-1.4-2.3-3.1-3.8c-2.6-3.6-5.4-4.8-8.8-2.5
		c-0.9,0.9-1.4,1.3-1.9,2.1c-1.2-0.7-2.2-1.5-3.3-2.2c-1-1.9-2.2-3.9-3.2-5.8c-0.4-0.7-0.9-1.3-1.1-2.2c-0.3-1.5-0.1-3.3-0.9-4.4
		c-0.1-0.5,0-0.9-0.2-1.2c-0.2-0.3-0.8,0-0.8-0.3c0.1-0.4,0.9-1.1,0.4-1.4c-0.2-0.2-1,0.3-1.5,0.6c0.2-1.2-1.4-2-1.6-0.4v0.1
		c-0.2-0.6-0.1-1.4-0.1-2.2c1.6-1.9,1.3-3.7,1.2-6.1c0.4-0.6,0.3-2.6-0.4-2.6c-0.2,0-0.5,0-0.7,0.5c-0.6,1.2,0.1,1.9-0.3,3
		c-0.3-0.2-0.6-0.2-1-0.2c-0.9-0.5-1.8-0.5-2.2,0.6c-0.9,0-0.9,0.5-0.9,1.3c-0.8,0.2-0.7,0.6-0.5,1.3c-0.9,0.8-0.6,1.2,0,2.2
		c1.2,1.3,1.2,2.2,1.4,4.1c-0.5,0.2-0.5,0.3-0.7,0.8l-0.1,0.1l0,0c-1.2-0.9-1.7-0.4-1.5,0.3c0.3,0.8,1.2,1.2,1.9,2.2
		c-0.1,0.2-0.2,0.5-0.3,1c-0.8-0.7-1.5-1.5-2.2-2.2c-0.7-0.8-2.2-0.3-1.2,0.8c1,1,2,2,2.9,3.1c0,0,0,0,0.1,0.1
		c0,0.2-0.1,0.3-0.1,0.5c-0.2-0.1-0.5-0.2-0.7-0.4c-0.5-0.5-1.1-1-1.6-1.5c-0.7-0.9-1.8,0.1-0.9,1.2c1,1.1,2.5,1.6,3.2,2.8v1.9
		c-0.3,3.3,1.7,5,2.7,8.1c0.2,1.3,0.2,2,0.9,3.1c-0.2,2.1,0.6,4.4,1.8,6.8c-0.5,0-0.5,0-0.4,0.5c-0.4,0-0.4,0.1-0.5,0.4
		c-0.7,0.1-0.8-0.1-0.9,0.6c-0.6,0.3-0.9,0.5-1.2,1l-0.5-0.1c-0.9,0.2-0.8,0.1-0.9,0.9c-0.9,0.2-1.1,0.5-1.7,1.2
		c-0.5,0-0.6,0.1-1,0.4c-0.5-0.3-0.5-0.2-0.9-0.1c-0.7-0.9-0.5-3.4-0.3-4.5c0.7,0.5,0.9-0.1,1.2-0.7c0.2-0.3,0.4-0.6,0.5-0.9
		c0.2-0.6,0.5-1.5-0.5-1.5V448c0.2-0.9,0.3-1.5-0.2-2.2c-0.4-2.7-3.8-3.9-3.4-4.4c0.2-0.4,0.4-0.5,0.7-0.8c0.5-0.3,1.1-1.4,0.9-1.7
		c-0.4-0.5-0.4,0.5-0.9-0.9c0.1-0.7,0.1-0.6-0.5-0.9c-1.8-0.6-0.9-1.2-1.9-1c-0.2-0.1-0.6,0.5-0.9,0.6c-1-0.5-0.9-0.5-1.1,0.5
		c-0.8,0.4-0.9,0.8-0.8,1.7c-1.2,1-1.9,2.5-1.2,4c-1.2,1-2,2.2-1.9,3.9c-0.2,1.3-0.4,2.4,0.1,3.7c-1.1,0.5,0.2,1.2-0.2,2.6
		c0,0.2,0.1,0.2,0.1,0.5c0,0.5-0.2,1.5-0.2,1.7c0,1-0.2,1.4-0.2,2.1c-0.2-0.2-0.2-0.2-0.6-0.2c-0.5-0.5-0.7-0.6-1.4-0.6
		c-1.5-1.5-3.9-2.3-6-2.9c-0.2-0.6-0.4-1-0.6-1.2c0.5-0.7,0.9-1.3,1.2-2.2c0.6-1.3,0.9-2.5,1.2-3.9c0.5-1.3,0.5-2.4,0.7-3.7
		c0.1-0.9-0.5-0.8-0.7-0.7c-0.3,0.1-0.4,1.3-0.7,2.1c-0.2,0.8-0.7,2.6-0.9,2.6c-0.5-0.9-0.9-1.3-1.6-0.4c-0.9-0.2-1.2-0.2-1.3,0.9
		c-0.8-0.1-1.1,0-1.4,0.9c-0.7,0.5-0.7,1.3-0.7,2.1c0,0.5,0.1,0.9,0.1,1.4c-0.2-0.5-0.5-0.5-1.3-0.7c-0.3-0.5-0.8-0.6-1.4-0.6
		c-0.7-0.5-0.9-0.4-1.7-0.2c0-1.2,0.4-1.9,0.8-3.2c0.5,0.4,0.5,0.2,1.2-0.2c2-0.7,2.4-1.2,1.5-2.8c-1.2-1.5,1.9-2.2-1.2-4.4
		c-1.2-0.5,0.5-2.6-2.3-4.5c-3.3-2.9-7.1-0.7-8.4,3.2c-3.4,1.5-0.8,3.8-2.3,5.5c-0.9,1.2,0.8,1.9,1.9,2.4l0.7,0.4
		c0.1,0.6,0.2,1.2,0.5,1.8v1.2c-1.5-1.2-1.8,0.3-2.6-0.5c0.2-1.1-0.5-1.2-1.5-1.5c-0.9-0.5-1.6-0.7-2.7-0.9
		c-1.3-1.4-1.7-0.6-2.6-1.6c-1.1-1.4-2.4-2.9-3.7-4c-1.1-0.9-1.7-0.7-2.3-2.6c-2.4-5.5-7.4-9.2-9.5-15c-0.2-0.5,0.2-1,0.3-1.5
		c0.7-2.1,0-2.2-1.4-3.7c0.5-0.5-0.2-1.1-0.7-1.1c-0.2,0-0.2,0.3-0.5,0.7c-0.2-0.4-1.1-0.4-1.4,0.5c-0.7,0-1.1-0.1-1.3,1
		c-3.6,0.3,1.5,5.7,1.9,7c2.3,5.3,5.6,13.8,8.2,16.1c-0.2,0.2-0.3,0.4-0.2,0.9c0.2,1.7,0.3,3.1,0.9,4.7c0.3,1.8,0.7,3.3,1.5,5
		c0.5,1.5,1,2.3,2,3.4l1.2,2.3l1.8,3.1c0.8,1.5,1,2.4,1.5,3.9c0.5,1.4,0.9,2.7,1.3,4.1l-1.4-0.4l-1.5-0.2c0.1-0.5-0.9-0.3-1.4-0.3
		c-1.5-0.7-1.8-0.1-2.6-0.3c-1.1-0.3-1.3-0.9-2.7-1c-1-0.6-1.4-0.3-1.8-0.5c-0.9-0.5-1.2-1.2-1.5-0.3c-0.8-0.3-2.2-0.7-2.8-0.4
		c-0.1,0.1,0.4-0.3,0.5-0.8c0.2-0.5,0.1-1.2-0.2-1.7c-0.2-0.5-1.2-0.7-1.9-0.3c0-2.1-0.5-2.4-0.4-4.1c0-0.4-0.2-1.5-0.2-2.2
		c0-0.3,0.1-0.5,0.1-0.6c-0.5-1.9,1.1-2.6-0.2-3.3c0.6-1.6,0.3-3,0.1-4.6c0.2-2.1-0.9-3.6-2.3-4.8c0.9-1.9-0.1-3.7-1.5-5
		c0.2-1.2,0-1.6-0.9-2.2c-0.3-1.3-0.1-1.3-1.3-0.7c-0.2-0.2-0.9-0.9-1.1-0.8c-1.3-0.3-0.1,0.4-2.4,1.2c-0.8,0.3-0.8,0.2-0.6,1.1
		c-0.7,1.6-0.7,0.3-1.2,1.1c-0.3,0.4,0.5,1.8,1.1,2.1c0.1,0,0.1,0.1,0.1,0.1c0,0.3,0.1,0.6,0.2,1.1c0.2,0.2,0.2,0.4,0.2,0.5
		c-1,0.9-3.5,2.3-3.9,4.9c-0.3,0.4-0.4,0.8-0.5,1.2c-0.5,0.5-1,0.9-1.9,1.6c-5.5,3.7-4.3,4.1-7,5c-0.3,0.1-0.5,0.2-0.9,0.2
		c-0.3-0.4-0.5-0.5-1-0.8l-1.1-2.2c-1-2-1.9-3.8-3.5-5.4c-0.8-1-0.5-1.2,0-2.2c1.5-4.3,1.8-6.7,2.6-9.7c0.7-2.6,2.1-5,2.9-7.6
		c1.1-1.5,1.5-2.8,2-4.5c0.9-1.5,1.3-2.9,1.4-4.1c0.1-0.8,0.7-1.5,0.7-2.6l0.3-1.7c0.4-1.5-1.2-2.1-1.5,0l-0.3,1.2
		c-0.4,0.8-0.7,2.9-1.2,1.4c-0.3-2.1-2.3-0.9-2.1,0.5c-0.7-0.4-1.5-1-1.9-0.8c-0.6,0.5,0.4,1.2,0.5,1.8c0.1,0.4-0.6,0-0.9,0.4
		c-0.2,0.3-0.2,0.9-0.3,1.5c-1,1.3-0.6,3.6-1,5.5c-0.2,1-0.9,1.8-1.4,2.7c-2.9,5.1-6.3,10.4-7.7,16.2c-0.3,1.2-0.5,1.5,0.5,2.6
		c1.2,3.2,2.2,6.6,3.3,9.3c-0.1,0-0.2,0.1-0.3,0.1c-1.9-0.2-2.8-1.5-5.6-0.8c-0.5-0.2-0.5-1.2-1-0.9c-0.7,0.7-2.7-0.3-2.6,0.4
		c0.1,0.6-1.1-0.5-1.7,1c-0.1-0.5-0.1-0.9-0.1-1.2c0.5-0.2,1.3-1.5,1.4-1.2c0.3,1,1,0.5,0.9,0.4c-0.2-0.2,0.2-0.5,0-0.8
		c-0.4-0.5-0.6-1.1-0.9-1.7c0.7-0.5,0.5-2,0.5-3.6c-0.1-4-1.5-6.9-3.6-8.4c-0.1-0.5-0.2-1-0.3-1.5c-0.6-2.6-1.5-5.1-2.2-7.7
		c-0.5-2-1-4.1-1.9-6c-0.5-0.6-0.3-0.9-1-0.2c0-0.1,0.1-0.1,0.1-0.2c0.1-0.2,0.3-0.2,0.4-0.4c0.4,0.2,0.8,1.3,1,1.8
		c0.2,0.4,0.5-1.5,0.2-2.5c-0.2-0.7-0.1-0.9-0.8-1.1c0-0.7-0.3-1.5-1.2-1c0-0.8-0.5-1.1-1.2-0.7c-0.5-1.2-1.5-0.5-1.6,0.9
		c0,0.2-0.1,0.4-0.1,0.6c0.2-0.9-0.2-1.2-0.9-1.5h0.1c0.1-0.3,0.5-2.2-0.5-2.2c-0.2,0-0.2,0.4-0.2,0.9c-0.1,0.5-0.2,0.7-0.4,1.1l0,0
		c-0.3-0.1-0.6-0.1-0.9-0.2c-11.7,0-23.4,0.3-35.1,0.1c-8-0.2-16.3-0.6-24.4-1c-0.6,0-0.9,0.1-1.1,0.5c-0.2,0.1-0.3,0.2-0.4,0.4
		c0,0,0,0,0-0.1c0.4-1.3-1.2-1.7-1.5-0.4c-0.6-0.7-1-0.5-1.4,0.4c-0.9-0.5-1.5-0.2-1.4,0.9c-0.4,0-0.7-0.2-0.9,0.2
		c-0.2,0.7-0.1,1.3,0.1,1.9c-0.2,0.2-0.4,0.5-0.6,0.8c-0.6,0.8-1.7,2.5-1.9,2.9c-0.5,1.2,0.5,2.2,0.2,3.8c-1.6,2.3-1.4,3.6-1.4,6.5
		c-0.9,3.6-3.2,6.4-3.1,9.8c-0.2,0.5-0.5,1-0.7,1.5c-4.2,1.6-4.6,3.6-6.7,4.2c-0.4-0.9-0.9-1.3-2-1.2c-0.5-0.2-0.7-0.2-1.3-0.2
		c-0.5-0.6-1.2,0.2-2.1,0.2c-1.7,0.3-1.8,0.9-2.7,2.4c-0.1,0.1-0.1,0.2-0.2,0.2c-1.9,0.3-1.8,1.8-2.7,1.9c-0.7,0.2-1.7-0.4-2.9-0.2
		c-0.5,0.1-0.5-1.3-0.7-1.9c-0.2-0.9-0.4-1.6-0.1-2.6c0.3,0.6,0.9,0.2,0.8-0.3c-0.1-0.2,0.4-0.2,0.2-0.7c0.5-0.5,0.4-0.5,0.4-1.2
		c0.2-0.9,0.2-1.2-0.1-2.2c0.2-1.9,0.2-3.1-0.3-3.9c-0.3-1.6-1.7-2.5-3-3.3c-1.3-0.9-2.6-0.9-3.9-0.5c0-0.5,0-1.2,0.1-1.7
		c0.1-0.6,0.2-0.8,0.5-1.2l0.6-0.5l0.4-0.5c0.9-0.9,0.9-0.9,0.5-2.1c-0.1-0.3-0.2-0.5-0.3-0.8c2.1-4.1,4.2-9.3,5.8-13
		c0.3-1.5,6.3-7.8,2.2-8.2c-0.2-1.2-0.8-1.2-1.5-1.2c-0.3-1-1.5-1-1.6-0.5c-0.4-0.5-0.3-0.8-0.6-0.9c-0.5-0.1-1.4,0.6-0.8,1.2
		c-1.6,1.7-2.5,1.9-1.6,4.3c0.2,0.7,0.6,1.2,0.4,1.9c-2.5,6.8-8.4,11.3-11.3,17.7c-0.7,2.2-1.5,2.1-2.8,3.1
		c-1.5,1.3-3.1,3.2-4.4,4.8c-0.9,1.2-1.5,0.3-2.9,1.9c-1.2,0.2-2,0.5-3.2,1c-1.1,0.4-1.9,0.5-1.7,1.9c-1,0.9-1.3-1-3.1,0.5v-1.4
		c0.2-0.8,0.4-1.4,0.5-2.2l0.9-0.4c1.3-0.5,3.2-1.3,2.2-2.9c-1.8-2,1.3-4.7-2.8-6.5c-1.5-4.6-6-7.3-10-3.8c-3.3,2.2-1.4,4.7-2.8,5.3
		c-3.7,2.6,0,3.3-1.4,5.2c-0.9,1.5-0.8,2.2,0.7,2.9c-0.1,0.7-0.5,1.4-0.9,0.9c-0.6-1.3-1.5-2.6-2.4-3.8c-0.5-0.5-1.5-0.2-0.9,0.8
		c0.4,0.5,0.8,1.1,1.2,1.7c0.2,0.3,1.5,2.9,0.2,1.2c-0.7-0.9-1.5-1.7-2.3-2.5c-0.9-0.7-1.4-0.3-1.2,0.3c0.2,0.7,1.2,1.1,1.7,2.1
		c0.5,0.5,1.8,2.5,0.3,1.4c-0.9-0.9-1.6-1.7-2.5-2.6c-0.5-0.6-1.8-0.2-1,0.7c0.9,0.9,1.6,1.7,2.4,2.6c0.8,1.1,0.2,0.5-0.6,0.2
		c-0.5-0.5-0.9-0.9-1.3-1.2c-0.5-0.7-1.4,0.1-0.8,1c0.9,0.9,2.2,1.5,2.8,2.6c0.1,0.1,0.1,0.1,0.2,0.2c-0.4,0.1-0.5-0.1-0.9-0.3
		c-0.5-0.6-1-0.4-2-0.2c-0.6,0.1-1.5,0-2.2,0.1c0.5-1.1-0.2-0.9-0.2-1.5c-0.1-0.5,0.2-1.2,0.4-1.9c0.2-0.4,0.2-1.1,0.5-0.7
		c0.2,0.3,0.5,0.2,0.5-0.1c0.2-0.3,0.2-0.7,0.3-0.9c0.2-0.5,0.9-2.2-0.3-2c0,0,0.2-0.3,0.4-1.2c0.2-0.8-0.1-1.7-0.1-2.7
		c-0.2-0.8-0.1-0.7-0.8-1.3c-0.1-0.8-0.5-1.1-1-1.7c-0.9-1.2-1.9-1.4-3.5-1.5c-0.9-0.2-1.2-0.2-2,0.2c-1.3,0.2-2.1,0.8-2.8,2.4
		c-0.4,1-0.5,1.9-0.6,3c-0.2,0.9-0.2,1.5,0,2.5c-0.9-0.1-0.5,1.1-0.4,1.5s0,0.8,0.1,1.1c0.1,0.2,0.2,0.3,0.4,0.3s0.4-0.3,0.5,0
		c0,0.2,0.2,0.5,0.2,0.9c0.2,0.5,0.3,1,0.5,1.3c0,0.4,0.4,1.9,0.2,2.4c-0.1,0.1-0.2,0.1-0.3,0c-0.3-0.1-0.7,0-1,0
		c-0.7,0-1.4,0.1-2,0.2c-0.7-0.5-1.2-0.5-1.8,0.3c-0.9-0.3-1.2-0.4-1.9,0.2l0,0c-0.2,0-0.5-0.1-0.9-0.3c-0.7-0.6-1.2-1.2-2-1.5
		c0-1.2-0.2-2.1-0.9-3.2c0.4-2.6-0.6-3.2-2.4-4.4c-0.8-0.8-0.9-1.1-2-1.3c-0.5-0.2-0.5-0.1-0.3-0.6c0.2-0.2,0.4-0.1,0.5-0.2
		c0.3-0.5,0-0.5-0.3-1.4c-0.2-0.2-0.1-0.7-0.2-0.8c-0.5-0.4-1.1,0-2-0.2c-0.5-0.5-1.1-0.6-1.4-0.1c-0.2,0.2-0.6,0-0.9,0.2
		c-0.3,0.2-0.4,0.7-0.4,0.9c-1,0.5-0.7,0.1-0.5,1.2c-0.1,1.2-0.3,1.9,0.6,2.8c0.2,0.5,0.2,0.4,0.7,0.4c-2.1,1.4-3.8,3.8-3.5,6.4
		c0.1,0.5-0.6,0.2-1.4,1.2c-0.1,0.2-0.2,0.3-0.5,0.4c-0.5-0.2-1.2-0.5-1.7-0.7c-1.7-0.5-3.1-1.5-4.6-2.5c-0.4-0.2-0.5-0.3-0.5-0.8
		c0.1-0.7,0-0.8-0.2-1.5c0.1-0.9,0-1.2-0.9-1.6c-0.3-0.2-0.5-0.3-0.7-0.4c1.1-0.5,1.5-0.8,2.4-1.7c3.1-1.5,5.4-3.7,7.5-5.5
		c4.9-2.9,7.3-5.8,10.4-10.4c1-1.2,2.2-3.2,3.5-4.4c0.9-0.9,1.6-1.3,2-2.4c0.2-0.8,0.1-2.1,0.1-2.6c0-0.2,0.3-0.2,0.6-0.1
		c0.2,0.1,0.5-0.2,0.6-0.3c0.5-0.4,0.2-1.5,0.2-2c1.4-0.8,0.5-1.5-0.5-1.5c-0.2-0.2-0.4-0.4-0.7-0.5c-0.4-1.2-1.8-0.7-2.4-0.1
		c-1.9,0.3-2,1.2-1.7,2.7c0,1.5,0.2,2.5-0.3,3.9c-1.1,1.8-3.8,3.4-5.4,4.8c-3.9,2.9-8.1,5.2-12,8.4c-1.6,0.7-3.1,1.3-4.6,2.2
		c-1.5,0.3-2,1-2.2,1.4c-0.2,0.9-0.2-1.6-2.6-0.3c-1.2-0.3-1.6-0.4-2.8-0.2c-1.3-1.6-1-1.8-2.8-0.6c-1,0.9-1.4,1.3-1.9,2.6
		c-0.4-1.2-0.9-1.2-2-1.6c0.5-1.1,0.5-1.8,0.7-2.9c1.4,0.4,0.9-1.3,0.9-2.1c0.2-1.9,0.2-1.5-0.7-2.6c0.2-1.5-0.1-2.6-0.3-4
		c-0.2-2.3-1.2-4.6-3.7-4.6c-1.5-0.7-2-0.9-3.6-0.6c-2.5,1-4.6,0.2-5.3,3.5c-1.4,1.2-1.1,2.6-1,4.2c0.1,1.1,0,2.4,0.5,3.2
		c-1.4,0.6-0.6,1.5-0.2,2.6l0.6,1.1c0.5,0.9,0.4,1.2,1.2,0.4c0.5,1.1,0.7,1.5,0.5,2.6c-2.9-0.3-2.9,1.3-3.4,1.5c0-0.2,0-0.2,0-0.4
		c-0.2-0.9-0.2-1.7-0.2-2.6c0.1-2.1,0.8-2.7-0.2-3.1c-0.3-1.3-1.6-3.3-2.8-4.2c-0.5-1.2-0.7-1.8-1.2-2.8s-1.2-1.2-1.3-0.9
		c-0.2,0.4,0.3,0.6,0.6,1.5c0.1,0.4,0.4,1.5,0.2,1.6c-0.1,0.1-0.2-0.2-0.5-0.6c-0.5-1.1-0.9-2.1-1.2-3.2c-0.2-0.6-0.4-1-1.2-0.7
		c-0.4-0.6-0.8-0.6-0.9-0.4c-0.2,0.5,0,1.6,0,1.9s-0.1,0.6-0.1,0.7s-0.1,0-0.2-0.2c-0.2-0.5-0.2-0.7-0.4-1.1c-0.3-0.9-0.9-0.9-1-0.5
		c-0.2,0.9,1.3,2.8,1.1,3.8c0,0.1-0.2-0.1-0.7-0.2s-0.5,0.3,0.5,1.2l1.1,1.7c0.7,0.8,1.2,1.2,2,1.5c0.2,0.1,0.5,0.2,0.7,0.4
		c0.2,0.2,0.2,0.3,0.4,0.4c-0.1,0.9,0.2,1.3,0.3,2.2c-0.2,0.9-0.2,1.7-0.2,2.6c-0.2,0.2-0.3,0.3-0.4,0.4c-2.6,0.8-2.8-1.2-5.7-0.2
		c-1.3-0.5-2.1-0.6-3.5-0.6c-2.2-0.8-4.5-1.5-6.7-2.4c-3.5-1.9-6.6-2.8-10.4-3.6c-1.5-0.5-3-1.1-4.4-1.7c0.1-1.2,0.2-2.2-0.5-3.3
		c-0.7-1.2-2-1.1-3.5-1c0.1-0.3,0.1-0.6,0.1-0.9c-0.1-0.7,0.1-1.6-0.9-1.2l0.2-0.6c0.2-0.6-0.9-0.9-1.2-0.1
		c-0.2,0.7-0.4,1.9-0.9,2.5c0-0.2-0.1-0.3-0.1-0.5s-0.1-0.4-0.2-0.6c0.1-0.4,0.2-0.8,0.3-1.2c0.2-0.7-0.6-1-0.9-0.6
		c-0.5-0.9-1.1-1.7-1.9-2.1c-0.7-0.3-2.6-0.9-2.6,0.5c-1.2,0-0.9,0.4-0.7,1.3c-0.2,0.8-0.7,0.2-0.7,2.1c-0.8,1.7,0.5,1.2,0.8,2.2
		c0.1,0.2,0.2,0.5,0.3,0.6c-0.9,0.4-1.6,0.9-1.9,1.9c-0.5-0.2-0.4,1.9-0.8,2.6c-0.2,0.9-0.2,1.4-0.2,2.2c-0.2,0.5-0.2,0.9-0.2,1.4
		c-0.6,0.6-0.2,2-0.4,3.2c-0.2,1.6-0.3,3.2-0.3,4.7c-0.5-0.7-1.1-0.2-2,0.5c-1.4,0.5-1.2,1.2-1.3,2.5c-0.2,0.5-0.3,0.9-0.4,1.3
		c-0.6,1.2-1.9,2.6-3.2,3.6c-1.5,1.4-2.9,2.3-4.1,3c-0.8,0.5-1.5,0.9-2.2,1.3c-0.2-0.3,0.1-0.9-1.3-0.9c-0.2-0.8-0.9-0.9-1,0.1
		c-0.2,0.5-1-0.7-1.3,0.9c-0.9,0.4-0.7,0.5-0.7,1.4c-0.2,0.7-0.4,1.2,0.1,1.8v0.1c-0.3,0.3-0.6,0.6-0.9,0.9
		c-0.5,0.6-0.7,0.9-1.7,1.2c-0.3,0.1-0.6,0.2-0.9,0.4c-0.7-2-1.5-4-2.1-6.1c-0.9-2.9-1.9-5.7-3-8.6c-0.2-0.9-0.3-1.6-0.9-2.4
		c-0.1-0.8-0.2-1.2-0.5-1.9c-0.1-1.2-0.2-1.6-0.9-2.6c-0.4-1.3-0.5-1.9-0.2-3.2c0.1-0.9,0.2-1.7-0.9-1.6c0.7-1.4,2.4-2.2,1.5-3.7
		c-0.2-0.8-1.2-4.6-2.6-3.2c-0.5-0.2-1.2-0.2-0.8,0.5c-0.5,0-0.7,0-1.1,0.4c-0.9-0.2-1.2,0.3-1.9,0.9c-1.2,0-1.1,0.6-1.2,1.6
		c-0.2,1.5-0.2,2.4,0.4,3.7c-0.1,1.8-0.8,0.7-0.1,1.8c1.2,2.4,0.3,2.6,1.2,4c-0.1,1.2,0,2.4,0.3,3.6c0.2,1.2,0.5,2.4,0.8,3.6
		c0.2,2.2,0.8,4.6,1.2,6.8c0.2,0.8,0.5,1.5,0.6,2.2c0.2,1.2-0.5,1.2,0.2,4.1c-0.2,2.3,0.5,3.9,1.5,5.8v0.1l-0.1,0.1
		c-0.5-0.1-0.5,0-0.9,0.3c-0.5-0.1-0.6-0.2-0.7,0.3c-0.7,0.2-1.5,0.4-2.1,0.7c-0.7,0.2-1.2,0.5-1.8,0.9c-0.5-0.5-0.9,0.1-1.2,0.5
		c-0.9,0.5-1,0.8-1.2,1.5c-0.5-0.2-0.5-0.2-1,0.2c-0.2-0.6-0.7-0.2-1.5-0.2c-0.3,0.1-0.5-0.1-0.9-0.1c-0.1-0.9-0.3-1.7-0.1-2.6
		c0.3-1.2,0.3-2,0.3-1.9c0,0.2,0.5,0.5,0.9-0.5c1.5-0.3,2.2-1.2,2.2-1.6s-0.8-0.7-1-1.4c-0.2-0.6,0.5-2.2,0.1-2.7
		c-0.6-0.9-1.2-0.3-1.5-1.3c-0.2-0.4-0.3-0.9-0.4-1.6c-0.2-1.4-0.9-2.2-2.2-2.9c-2.6-1.9-4.6-1.8-6.8,0.5c-1.5,0.8-1.3,2-1.7,3.6
		c-2.6,1.1-2.1,3.5-1.5,5.3c-1.3,1.4-0.4,1.2,1.3,1.9c-0.1,1.1,0.8,0.5,0.8,0.5c0.3-0.1,0.2,0.5,0.3,1.2c0.2,0.5,0.5,1,0.6,1.3
		c0.3,0.9,0.9,1.9,0.7,2.9c-0.9-0.1-0.5,0.2-0.8,0.2c-0.1,0.1-0.2,0.2-0.5,0.1c-0.4,0.2,0.5-1.2-1.4-1.4c-0.1,0,0-0.2-0.1-0.2
		c-0.7-0.3-1.2-0.5-1.9-0.2c0-0.8,0.1-0.8-0.9-0.3c-0.6-0.3-1-0.4-1.6-0.4c0.1-0.7-0.5-0.5-1-0.3c-0.4-0.5-0.5-0.5-1.1-0.5
		c-0.2-0.1-0.4-0.2-0.5-0.2c-0.1-0.2-0.1-0.5-0.2-0.7c0.2-1.8,0.2-3,0.1-4.8c0.3-2.2-1-3.5-2.6-5c-1-0.9-2.1-2.2-3-3.1
		c-0.3-1.5,0.9-1,1.1-3.4c1.1-0.6,1.4-1.3,2.1-2.2c0.9,0.2,0.2-0.8,0.8-1.4c0.7-0.7,1.1-2,0.1-1.9c0.9-2.2,1.5-4.2,0.6-6.5
		c-0.5-1.9-2.1-3.5-2.6-5.8c-1.5,1.6-3.9,2.8-5.9,4.2c0.1-0.9,0.2-1.6,0.2-2.5c-0.2-3.6,0.3-2.9,0.2-4.8c-0.1-1.5-0.7-2.7-0.5-3.9
		l0.2-0.9c0.2-0.6,0.4-1.5,0.2-2.1s-0.9-0.9-1,0.2c-0.1,1-0.3,1.9-0.5,2.9c-0.1,0.7-0.4,1-0.5,1c-0.2-0.1-0.2-1-0.2-1.6
		c-0.1-1-0.2-2-0.2-3s-1-1.5-1.2-0.5v1.4c0,0.5-0.1,2.5-0.1,3c0,0-0.5-0.5-0.5-1.5c-0.2-1-0.1-2.2-0.5-3.2c-0.2-0.5-0.9-0.2-0.9,0.4
		c0,1.2,0,2.4,0.2,3.6c0.2,1.1-0.1,0.4-0.5-0.2c-0.4-0.9-0.5-1.3-0.9-2.2c-0.2-0.4-0.4-1.1-0.7-1.2c-0.2-0.1-0.5-0.1-0.5,0.6
		l0.1,0.7c0.3,0.9,0.7,2.1,1.1,2.9c0.3,0.6,0.9,0.9,0.7,1.5c-0.3,1.2-1.7-0.8-1.7-0.9c0.3-0.2-0.2-1-0.6-1.2
		c-0.3-0.2-0.9-0.1-0.9,0.2c0.1,0.2,0.5,0.5,0.5,1.1c0.1,0.5,0.1,0.5,0.5,0.9c0.2,0.4,0.3,0.5,0.5,0.7c0.5,0.5,1.4,0.9,2.3,1.2
		c1,0.6,1.2,1.3,1.5,2.3c0.8,2.8-0.8,6.1-1.7,9c-0.2,0.4-0.5,0.8-0.7,1.1c-0.1-0.1-0.1-0.1-0.2-0.2c-0.2-0.8-0.5-1.2-0.9-1.9
		c-0.5-1,0.8-5.5-2.2-10.1c-0.2-0.4-0.1-0.9-0.1-1.9c-0.1-3.6-2-9.1-2.7-11.5c-0.3-1.5-0.8-3.1-0.8-4.6h-3.9c0,1.9,0.1,3.6,0.3,5.5
		c0.5,4.3,0.2,8,2.1,13.5c0.2,0.5,0.2,0.9,0.2,1.4c-0.2,3.2-0.2,5.7,0.1,9.7c-0.3,1.5,0.2,1.5,0.3,3.6c0,0.7,0,1.3,0.1,2
		c-0.6,0-1.4-0.1-1.9,0.1c0-0.1,0-0.2-0.1-0.2c-0.2-1.1-0.2-1.8-1.5-2.2c-0.3-0.1-0.6-0.2-0.9-0.4c-0.4-0.4-0.4-1-1.2-1
		c-0.5,0-1-0.1-0.8,1.1c-0.7-0.1-0.9,0.4-0.8,1.1c-0.9,0.1-0.8,0.7-0.8,1.4c-0.6,0.7-0.6,1.2-0.2,2.2c0.1,0.3,0.2,0.5,0.4,0.8
		c0,0-0.1,0-0.1,0.1c-1.6-1.1-2.3,0-2.4,1.5c-1.5,1.1-0.8,0-1.5-0.2c-0.6,0.3-0.8,0.4-1.4,0.4c0-0.7-0.2-1.4-0.2-2
		c0.1-0.7,0.7-0.8,0.6-1.9c1.6,0.3,1.3-2.1,1.2-3.5c-0.3-3.3-0.7-4.6-2.4-6.7c-2.6-2.2-6.3-2-8.7,0.2c-1.5,2-1.3,4.5-1.2,6.8
		c0.1,1,0.2,2,0.4,2.9s0.3,0.7,1.1,0.9c0.7,0.6,0.5,1.7,0.3,2.6l-0.2,1.2c-0.5-0.2-1.2-0.2-1.5,0.3c-0.4,0.7-0.4-0.9-2-1.1
		c-1-1.5-2.2-1-3.7-0.9c0.1-1.3-0.9-1.5,0-3.2c1.7-2.7,1.5-3.3,2.1-5.3c1.6-3.1-0.9-2.5,0.5-5c0.3-0.5,0.9-0.8,0.9-0.9
		c-0.1-0.5-1-0.9-2-1.7c0.2-1.3,0.3-2.6,0.5-3.9c0.2-0.7,0.5-1.5,0.7-2.2c0.4-1,1.4-1.7,0.8-2.8c0.4-0.7,0.2-1.1-0.2-1.6
		c-0.1-0.9,0-1.3-1.1-1.2c-0.4-2.1-1.8-0.7-2.7-0.8c-0.2,0-0.3-0.5-0.5-0.9c0-0.3,0-1.4,0-1.9c0.2-1.5-0.9-1.6-1.4-0.9
		c-0.3,0.5-0.2,1.3-0.1,2.1c0.1,1-0.2,2.2-0.2,2.8c0,1,0.1,2,0.3,2.5c0.2,0.5,0.7,0.5,0.9,1.3c0.5,1.6-0.2,3-0.9,5.6
		c-1-0.2-0.9,1.9-1.4,2.7c-1.5,0.5-1.7,0.8-1.7,2.9c-0.5,0.8-0.5,1-0.6,1.9c-0.7,0.8-0.6,0.9-0.7,2c-0.8,0.9-1,1.3-1.2,2.6
		c-0.5,0.7-0.9,1.3-1.2,1.9c-0.2-0.1-0.4-0.2-0.6-0.3c-2.3-0.6-3-4.2-4.5-6c-1.1-1.9-1.9-4.9-1.3-7.2c0.1-0.5,1-0.3,1.5-0.5l1.1-0.9
		c0.7-0.4,1.1-0.4,1.5-1.1c0.5-0.3,0.8-0.4,1.1-0.9c-0.1-0.7-0.4-0.8-1-0.9c-0.6,0.2-1,0.4-1.4,0.9c-0.7,0.7-1.1,1.1-0.8-0.1
		c0.3-1.3,1.2-2.6,1.7-3.8c0.2-0.5,0.4-1,0.5-1.5c0.2-0.6-0.8-1.3-1.2-0.4c-0.3,0.9-0.6,1.7-1,2.6c-0.8,1.5-0.4,0.5-0.2-0.5
		c0.2-0.9,0.4-1.6,0.6-2.4c0.2-1-0.7-1.7-1.2-0.8c-0.3,1.3-0.7,2.6-1.2,3.8c-0.5,1.5-0.4,0.6-0.3-0.4c0.1-0.9,0.1-1.6,0.3-2.4
		c0.4-1.5-0.5-2-1.1-1.3c-0.3,0.3-0.2,1-0.3,1.5c-0.2,1.1-0.3,2.2-0.5,3.2c-0.3,0.5-0.2,0.5-0.5-0.1c-0.1-0.5-0.1-0.9-0.1-1.3v-0.8
		c0-1-0.8-1.3-1-0.3c0.1,0.9,0.2,2,0,2.9c-0.5,1.5-0.8,3.2-0.3,4.9c0,1.6,0.2,3.2,0.3,4.8c0.2,3.1,0.3,6,1.5,8.8
		c0.1,0.3,0.2,0.5,0.2,0.9c-2.4-2.8-5-3.6-8.3-1.5c-1.3,1.2-2,1.8-2.6,3.3c-1.2,0.8-2.2,1.5-3.2,2.6c-0.4-1.2-0.8-2.1-1.6-2.9
		c0-0.1,0-0.2,0-0.3c1-3.4,0.2-8-0.2-11.8v173.2h799.4V432.9H795.1z M479.4,447.2c-0.2,0-0.8-2.3-1-3.2c-0.1-0.3-0.2-0.6-0.2-0.9
		c0.7,1,1.3,2.1,2,3.2C479.9,446.4,479.6,446.7,479.4,447.2z M-0.4,454.3c0.2-0.5,0-0.9-0.4-1.3c-0.3-0.5-1.1-1.2-0.1-0.7
		c1,1.5,0.9,0.8,1.5,1.2c0.5,0.4,0.5,0.6,0.5,1.2C0.6,454,0.6,454.8-0.4,454.3z M1.8,456l0.2-0.3c0.1,0.4,0,0.5,0.4,0.5
		C2.4,457,1.8,456.5,1.8,456z M16.9,454.9c-0.8,0.3-0.8,0.3-1,1.1c-0.9,0.4-0.9,0.6-0.9-0.4c0.4-0.5,0.8-1,1.2-1.5
		c1.7-2.7,1.4-4.4-0.8-6.9c0.3,0.2,0.6,0.4,0.9,0.6c0.5,0.4,0.9,0.7,1.4,1c-0.1,0.9,0.2,1.8,0.2,2.7
		C17.4,452.7,17.1,453.8,16.9,454.9z M128.5,468.1c-0.1,1.2-1.9-0.2-0.8,1.9c0.2,1.7-0.8-0.7-1.9-0.1c-0.3-1-0.2-1.2-1.2-1.2
		c-0.4-0.8-0.4-1.3-1.2-1.6c-0.2-1.2-0.2-1.1-1.2-1.8c-0.2-1.9-0.5-2-0.8-2.1c1-1.1,2.1-2.2,3.2-3.2c0.5-0.2,0.6-0.2,1-0.6
		c0.5-0.2,0.9-0.5,1.4-0.8c0,0.2-0.1,0.3-0.1,0.5c-0.3,0.9-0.3,1.6-0.2,2.6c-0.1,0.2-0.3,0.9-0.3,1.6c0,0.5,0.4,0.8,0.5,1.4
		c0.2,0.9,0.3,2.2,0.6,2.5C128.1,467.8,128.7,466.4,128.5,468.1z M150.4,482.5c0,0.2-0.1,0.4-0.1,0.6c-0.1-0.1-0.1-0.2-0.2-0.2
		c-0.4-1.2-0.7-1.7-1.5-2.6c-0.6-1.2-0.7-1.2-1.9-1.8c-1.3-0.8-2.2-1-3.7-1.4c-2.6-0.9-3.2-0.7-2.9-3.6c2.4-2,0.5-2.8-1.6-2.9
		c0.7-0.8,1.1-1.7,1.3-2.6c1.1,0.1,1.1-0.3,1-1.2c0-1.7,0.9-1.5,0.7-5c-0.2-3-0.8-5.3-2-6.5c-2.3-2.3-2.2-1.2-3.2-2.2
		c-0.6-0.6-1-1.3-1.5-1.9c0.9-0.9,1.6-1.8,2.5-2.6c1-1.1,2.1-1.9,3.5-2.8c0.1,0,0.2-0.1,0.3-0.2c-0.1,2.7,0.1,4.4,1.5,6.4
		c1.2,1.7,1.7,3.8,2.7,5.9c0.5,1.1,1.2,1.6,1.9,2.7c0.9,1.7,1.6,3.9,2.3,5.5c0.8,1.5,0.3,3.4,0.2,5.7c0,1.9,0.5,4.2,0.8,5.6
		C151,478.9,150.5,479.7,150.4,482.5z M184.6,447c-1.2,0.8-0.2,0.9-0.8,1.8c-0.3,0.5-0.5-0.5-1.5,1.2c-1.2,0.8-1.9,1.3-2.2,2.8
		c-0.9,0.8-0.9,1-1.1,2.1c-1.2,0.2-1.2,0.2-1.4,1.3c-1.1-0.2-1.5-0.2-1.5,1.1c-1.1,0-1.3-0.2-1.6,0.8c-0.9,0-0.9-0.2-1.3,0.5
		c-0.9-0.2-1-0.4-1.8,0c0.1-0.3,0.1-0.9,0.1-1.2c-0.1-1.2-1.3,0.3-0.6-1.5c1.1,0.9,1-0.3,1.4-1.4c0.2-0.5,0.6-0.9,0.6-1.2
		c0.2-0.7,0-1.1-1-1c1-2.1,1.1-3.6,0.5-5.9c-0.5-1.6-1.9-2.8-3.5-3.4c-0.7-0.2-1-0.3-1.7-0.2c-1-0.3-1.4-0.2-2.5,0
		c-3.2,0.8-4.7,2.2-4.6,5.3c0,0.8-0.2,2.3,0.2,3c-1-0.1-1.2,0.6-0.8,2c0.3,1,0,1.9,0.7,2.2c0.7-0.4,0.6,0.4,0.5,0.9
		c-0.7,0-0.4,0.8-0.2,1.7c0.1,0.6-0.2,1.3-0.7,1.2c-0.4-0.1,0.3-1.5-1.9-1c-0.2-0.9-0.2-0.8-1.2-0.8c-0.5-1-0.2-1.3-1.3-0.9
		c-0.5-0.2-0.5-1.2-1.3-0.9c-0.3-1.3-0.7-2.2-1.6-3.2c-0.7-1.4-1.3-2.7-2.2-4c-0.2-0.7-0.3-1-0.9-1.2c-0.2-0.1-0.4-0.8-0.5-1
		c-0.1-0.8-0.1-0.9-0.5-1.5c-0.1-1.3,0.2-3.6-0.7-4.6c0-0.7,0-0.8-0.4-1.2c0.2-1.1,0.1-1.3-0.5-2.2c0.3-0.8,0.4-0.9,0-1.6
		c0.1-0.9,0-1.4-0.2-2.2c0.7-0.5,0.5-0.7,0.4-1.6c0.8-1-0.1-0.9-0.1-1.4s0.4-1.3,0.6-1.9c0.5-0.6,0.9-1,0.9-1.8c0.2,0,0.4,0,0.5,0
		c0.2,0.2,0.5,0.3,0.8,0.5c0.1,1.2,0.1,2.2,0,3.3c-0.6,1.5,0.1,3,0.2,4.7c0.5,2.2,2.2,3.2,3.9,4.7l1.9,1.5c0.4,0.2,1.1,0.6,1.4,0.4
		c1.5-1.2,2.9-1.9,3.8-3.3c0.7-1.1,0.9-2.3,1-3.5c0.3,0.2,0.5,0.2,0.9,0.4c1.9,1.5,3.1,1.8,5.4,2.4c2.6,0.7,4.8,1.8,7.3,2.9
		c2.2,0.9,3.1,2.2,6.6,2.6c0.6,1.5,1.9,1.5,3,2.2l0,0C184.9,445.6,184.8,446.5,184.6,447z M216.4,450c0.5-2.5-0.5-2.2-0.1-3.7
		c0.4-1.1,1.8-2.2,2.4-3.4c0.5-0.3,1-0.6,1.4-0.9c0.3,0.1,0.9-0.2,0.4,0.2c-0.5,0.2-0.5,0.3-0.5,0.9c-0.6-0.2-0.8,0.4-0.7,0.9
		c-1.1,0.1-0.6,0.8-0.1,1.7c0.4,1.2,0.4,1.4,1.5,1.6c1,0.6,2,1.4,3,2.1c-0.2,0.1-0.5,0.1-0.9,0.2c-1.5-0.2-2.4-0.2-3.9,0.1
		C218.1,449.5,217.3,449.7,216.4,450z M233.6,458.6c-0.3,0.5-1-0.7-2.2,0.9c-0.6-0.3-0.9-0.3-1.5-0.3c-1.9-2.6-2.6-0.9-3.4-1.2
		c-0.7-0.2-1-1.4-1.9,0c-0.4-0.5-0.4-0.5-1.1-0.7c-0.6-0.7-0.5-0.7-1.4-0.4c-0.2-0.2-0.3-0.8-1.2-0.6c-0.4,0.1-0.4-0.5,0-0.5
		c1.2,0.1,1.4-0.1,2.1-0.6c1.5,0.1,1.7,0.2,2.1-0.6c2.6,0.8,2,0.5,3.5-0.2c0.9,0.1,0.9,0.2,1.3-0.5c0.5,0.3,1.1,0.5,1.6,0.9
		c0.5,0.2,1.2,0.6,1.8,0.8c-0.2,0.3-0.1,0.7,0.3,1.2C233.7,457,233.8,458.4,233.6,458.6z M274.2,447.5c-0.3-0.5-0.5-1.2-0.4-2
		c0.2-0.7,0.4-1.4,0.2-2c0.6,0.5,0.7,0.5,1.2,0.2c0.5,1.4,0.9,2.2,0.9,3.7C275.2,447.1,275,447,274.2,447.5z M306.5,457.9
		c-0.8-0.5-1.5-0.8-2.2-1.1c-2.3-0.9-4,0.4-6.5,0.5c0-0.2,0.1-0.3,0.1-0.5c0-1.6,0.5-2.9,1.2-4.2c1,0.1,1.8-0.2,2.6-1.1
		c0.5-0.6,0.9-0.9,0.3-1.7c-0.1-0.5,0-0.5-0.4-0.7c0.5-0.7,1.2-1.8,1.8-2.9c1.4-1.9,2.7-4.2,4-6.3c-0.1,0.6-0.2,1.2-0.3,1.8
		c0,0.2,0,0.2,0,0.4c-0.4,0.9-0.5,1.8-0.5,3c-0.3,0.9-0.3,1.8,0,3.1c0,0.1,0,0.2,0,0.3c-0.1,0.3,0,0.6,0.1,0.9
		c0.1,0.8,0.2,1.5,0.4,2.2c0,1.1,0.2,0.9,0.7,1.8c0.2,0.8,0.5,1.5,0.9,2.3C307.6,456.6,306.9,457.1,306.5,457.9z M342,456
		c-0.2,0.2-0.4,0.5-0.6,0.8c-0.7,1-0.8,1.9-1.5,2.3l-1.2,0.6c-1.8,1-3.3,2.2-4.6,3.9c-0.2,0.1-0.5,0.5-0.9,0.7
		c-0.6,0.2-1.5,0.2-1.5-0.5c0-0.9,0.2-2.3,0.3-3.3c0.9,0.3,0.9-0.2,1.2-1c0.3-0.6,0.4-1.2,0.3-1.5c1.2-0.7,2.2-1.4,3.4-2
		c1.4-0.9,3.6-2.6,4.9-3.9c0.2,0.4,0.4,1.1,0.7,2.4c0,0,0,0.1,0.1,0.1C341.7,454.8,341.7,455.4,342,456z M415.3,422.1
		c0.2,0.8,0.2,0.8,0.9,0.8c0.1,0.2,0.1,0.5,0.2,0.5c-0.1-0.1-0.1-0.3-0.2-0.5C415.5,422.9,415.4,422.7,415.3,422.1
		c-0.3,0.1-0.5,0-0.6-0.1C414.8,422.1,415,422.1,415.3,422.1z M368.2,474.9c-0.2-0.9-0.7-1.7-1.2-2.6c-0.1-0.8-0.1-0.8-0.6-1.2
		c-0.7-1.5-1.4-2-3-2.2c-0.8-0.5-0.9-0.5-1.7-0.3c-1.7-0.5-2.7-0.8-4.9-1.8c-0.3-0.3-0.2-0.4-0.7-0.2c-0.3-0.3-0.5-0.6-0.6-0.2
		c-1.1-0.9-1.2-0.9-1.5-2.3c0.1-1.3,0-2.8,0.5-3.9c0.2-0.5,0.4-0.9,0.5-1.5c0.9,0.8,1,0,1.2-0.5c0.2-0.7,1.9-3.8-0.5-3.2
		c0.8-1.2,0.6-2.9,0.5-4.3c0.1-1.5-0.1-2.3-0.9-3.6c-1.3-1.6-2.6-2.2-4.3-2.5c-0.2-2.4-0.6-4.8-0.6-6.7v-0.1c0.2-0.5,0.5-1,1-1.4
		c1.2,2.9,2.8,5.6,4.8,8c0.3,0.7,0.5,1,1.1,1.5c2.5,4.3,2.9,6.1,7.4,12l0.5,0.8c1.2,1.4,1.9,2.5,2.6,4.2c0.7,1.3,0.9,1.9,0.5,3.2
		c-0.3,1.3-0.3,3.2-0.2,4.7c0.3,2.1,0.9,4.7,1.1,7.8C368.7,477.4,368.6,476.1,368.2,474.9z M396.2,449.8c-0.5,0.2-0.5,0.3-0.9,0.7
		c-0.6,0-0.5,0-0.9,0.5c-0.4,0.1-0.5,0-0.5,0.7c-0.4,0.2-0.4,0.2-0.5,0.6c-1.1-0.2-1.1-0.4-1.6,0.6c-0.9,0-0.8-0.1-1.2,0.7
		c-0.1,0-0.2,0.1-0.2,0.1c-0.8-0.5-1.6-1.3-3.3-2c0.4-0.5,0.5-1.2,0.4-2.3c-0.1-0.7,0-1.5-0.2-1.6c-0.1-1.9,0.2-3.3-0.5-5
		c-0.4-2.9-5.3-4.2-8.1-2.9c-0.7,0.5-0.6,0.5-1.5,0.4c-0.5-0.2-0.7-0.2-1.3-0.2c-0.5,0.1-1,0.3-1.4,0.5c-0.2-0.2-0.4-0.4-0.6-0.6
		c-0.6-0.7-0.9-1.1-1.8-0.8c-0.9,0-1.4,0.2-1.5,0.3c-0.2,0.7,1.2,0.7,0.5,1.1c-0.7,0.1-0.9,0.3-0.8,1c-0.9,0.2-1.1,0.3-0.9,1.2
		c-0.9,0.5-0.5,1.4,0.2,1.9c0.5,1.4,0.8,2.2,1.9,3.1c0.3,0.3,1.2,0.9,1.5,1.1c0.7,0.6,1.4,1.2,2.1,1.9c0.1,0.3,0.1,0.6,0.2,0.9
		c0.2,0.6,0.2,0.9,0.9,0.6c0,0.6,0.4,1.2,0.6,1.7s0.2,0.5,0.2,1.1c0,0.5,0.1,0.8-0.1,0.9s-0.6-0.1-0.5-0.5c0.1-0.3-0.7-0.5-0.7-0.5
		c-0.1-0.4-0.2-0.9-0.5-1c-0.2-0.1-0.5,0.2-0.8,0.2c-0.5,0-0.3-0.9-1.9-1.3c-0.6-0.9-0.5-0.9-1.5-0.9c-0.4-0.9-0.6-0.2-1.2-0.5
		c-0.2-1-0.8-1-1.6-1.1c-1.8-2.9-3.4-5.3-6.1-7.4c-1.3-3.6-4-6.9-6.4-9.9c0.5,0,1.2-0.1,1.8-0.3c10.7-1.5,45.6,0.1,51.2,0.7
		c-0.1,0-0.1,0.1-0.2,0.1c-2.2,2.1-4.2,4.4-5.7,7c-0.2,1.2-0.5,1.8-1.6,2.7C399.8,444,398.5,446.2,396.2,449.8z M417.3,438.1
		c-2.3,0.9-4.4,3.1-4,6.6c-0.1,1.6,0,3.2,0.2,4.8c0.4,3,1.9,1.7,1.9,4c-0.1,1.6,0.2,2.4-0.4,2.6c-0.3,0.1-0.9,0-1.5-0.2
		c-1.4-0.4-1.8-0.5-3.2-0.3c-1.4-0.6-1.7-1.3-2.6,0.1c-2.5,2.2-3.7-0.9-5.6,1c-0.6,0.2-1.2,0.1-1.6-0.2c0.3-0.4,0.6-0.9,0.9-1.2
		c0.7-1.4,1.5-2.6,2.2-3.9l1.2-2.4c0.6-1.2,1.2-2.2,2-3.2c0.5-0.4,0.5-0.4,0.6-1c2.7-2.6,4.7-6.5,6.1-9.9c0.5,0.1,0.9,0.2,1.2,0.2
		c2.9,1.1,1,0.6,0.9,1.9C415.6,437.4,417.2,437.7,417.3,438.1L417.3,438.1z M456.2,460.7c-0.6-0.2-0.6-0.2-1.2,0.2
		c-0.5-0.4-0.7-0.5-1.3-0.5c-0.8-0.9-1.1-1.1-2.2-1.4c0-0.1,0-0.1,0-0.2c1.5-1,2.9-2.3,4-3.8c0.2,0.3,0.5,0.4,1,0.1
		C456.8,456.4,457.1,459.6,456.2,460.7z M468,463.3c-0.1,0.2,0,0-0.1,0.5l0.1,1c-0.5-0.4-0.7-0.3-1.3-0.2c-0.2-0.5-0.2-0.5-0.7-0.5
		c-0.6-1.1-0.6-1.2-0.4-2.6c0.3-1.1,0.6-2.3,1-3.3c0.3-0.8,0.9-0.9,1.1-2.1c0.7,0.3,0.7,0.2,1.2-0.2c0.1,0.9,0.4,1.4,0.2,2.6
		c0,0.1,0,0.5,0.1,0.7c0.3,1.3,0.2,2.3,0.2,3.6C468.7,462.9,468.3,462.8,468,463.3z M524.8,458.8c-0.9-0.4-1.9-0.9-3-1.5
		c0-0.6,0-1.2,0.2-1.9c0-0.1,0-0.5,0-0.5c-0.1-1,0.2-1.4,0.2-2.1c0.5,0.4,0.5,0.5,1,0.2c0.1,1,0.5,1.1,0.9,1.7
		c0.3,0.8,0.5,1.8,0.8,2.7C525,458.1,525,458.3,524.8,458.8z M679.4,470.5h-2.2c0.1-1,0.2-2.1-0.1-3.2c0.2-0.9-0.1-1.9,0.2-2.3
		c0.3-0.5,0.5-0.5,2-1.2L679.4,470.5L679.4,470.5z M687,459.1c0.4-0.4,0.9-0.8,1.2-1.2c0.2,0.3,0.3,0.6,0.4,0.9
		c0.1,0.2,0.2,0.2,0.2,0.4L687,459.1L687,459.1z M763.7,469.7l0.2,2.5c-0.3,0.4-0.4,0.7-0.5,1.2c-0.7,0.9-0.6,1.1-0.6,2.2
		c-0.7,0.4-0.6,0.6-0.9,1.4c-0.5,0.6-0.4,0.7-0.2,1.5c-0.8,1.4-0.9,1.9-1,3.5l-0.3,1.9c-0.2,0.5-0.3,0.9-0.4,1.4
		c0-0.5-0.1-0.9-0.5-1.2c-0.2-0.9-0.4-1.2-0.9-1.9c-0.5-0.9-0.9-1.7-1.5-2.6c-0.1-0.6-0.1-1-0.4-1.5l-0.2-0.9
		c-2.9-5.5-5-5.9-8.4-7.2c-0.4-0.5-0.5-0.7-1.2-1c0.5-1.9,0-1.7,0.2-2.2c0.8-2.1-0.3-1.5-1.9-2.2c0.2-0.4,0.2-0.9,0.4-1.2
		c0.8,0.3,0.8-0.1,1-0.7c0.1-0.4,0.2-0.8,0.4-1.2l0.2-0.5c0.2-0.7,0.2-1.5-0.9-1.2c0.4-0.5,0.5-0.8,0.5-1.4c0.5-2.2-0.1-1.9,0-3
		c-0.3-1.2-0.6-1.8-1.5-2.7c-0.5-0.9-0.5-0.9-1.5-1.1c-0.9-0.9-1.5-0.8-2.8-0.5c-0.9-0.2-1-0.1-1.9,0.5c-0.6,0.2-0.9,0.4-1.3,0.8
		c-1.3,0.6-1.8,1.3-2.2,2.7c-0.5,0.5-0.4,0.9-0.4,1.6s0,1.5,0.2,2.3c-1,0-0.6,1.4-0.5,2c0,0.9,0,1.9,1.2,1.8l0.1,1
		c-0.5-0.1-0.6-0.2-0.8,0.4h-0.5c-0.8-0.2-1.2-0.2-1.9-0.1c-0.5-1.4-1.2,0.2-1.2-0.4c0-1.1-0.8-2.4-1.6-3.6
		c-0.2-0.9-0.2-1.9-0.5-2.7c0.6-1.2,1.2-2.5,1.9-3.7c0.2-0.4,0.4-1,0.6-1.4s0.5-0.5,0.5-0.6c0.1-0.2-0.1-0.4,0.1-0.8
		c1.4-4.6-0.4-11.5-0.5-16c0-0.3,0-0.5,0-0.7c0.6,0.4,1.2,0.7,1.8,1.1c3.7,2.4,7.5,4.6,11.9,5.3l1.5,0.1c1.3,0.4,2.9,1.1,4.3,1.4
		c1.3,0.2,2.6,0.2,3.6,0.6c1.9-0.1,1.8,1,3,1c3.3,3,4,8.1,4.7,12.4c0.2,2.3,0.5,5.5,0.8,8.1c0.1,0.4-0.5,0.7-0.7,1
		C762.3,466.3,763.4,468.1,763.7,469.7z"/>
	<path fill="#2A2F30" d="M20.5,498.5v0.2C20.5,498.5,20.5,498.5,20.5,498.5z"/>
	<path fill="#2A2F30" d="M245.1,458.1c0.4,0.2,0.7,0.3,0.9,0.7C245.9,458.9,245.6,458.4,245.1,458.1z"/>
	<path fill="#2A2F30" d="M353.3,432.6c0.1,0,0.2,0.1,0.2,0.1C353.4,432.7,353.3,432.7,353.3,432.6L353.3,432.6z"/>
	<path fill="#2A2F30" d="M551.7,448.8l0.2-0.3c0.1,0.3,0,0.5,0.4,0.4C552.4,449.7,551.8,449.4,551.7,448.8z"/>
	<path fill="#2A2F30" d="M551.2,447.7c-0.4-0.4-0.5-0.3-0.8-0.2c0.1-0.2,0.2-0.3,0.2-0.5c0.2,0.1,0.3,0.2,0.5,0.3
		C551.1,447.3,551.2,447.4,551.2,447.7z"/>
	<path fill="#2A2F30" d="M350.3,421.2C350.4,421.1,350.4,421.1,350.3,421.2C350.4,421.1,350.4,421.1,350.3,421.2z"/>
	<path fill="#2A2F30" d="M350.1,421.3c0.1,0,0.2,0,0.2-0.1C350.2,421.3,350.2,421.3,350.1,421.3z"/>
	<path fill="#2A2F30" d="M227.3,499.9c0.1,0.1,0.1,0.2,0.1,0.4c0,0.1-0.1,0.1-0.1,0.2V499.9z"/>
	<path fill="#2A2F30" d="M417.3,424.1C417.3,424.1,417.4,424.1,417.3,424.1C417.4,424.1,417.3,424.1,417.3,424.1z"/>
	<path fill="#2A2F30" d="M416.8,423.4c0,0.3,0.1,0.5,0.1,0.5C416.8,423.9,416.8,423.8,416.8,423.4c-0.2,0-0.2,0-0.3,0
		C416.5,423.5,416.6,423.5,416.8,423.4z"/>
	<path fill="#2A2F30" d="M414.6,422c-0.1,0-0.1-0.1-0.2-0.1C414.5,421.9,414.6,422,414.6,422z"/>
	<path fill="#2A2F30" d="M414.3,421.2c0,0.1,0,0.2,0,0.2s0,0,0-0.1S414.3,421.3,414.3,421.2z"/>
	<path fill="#2A2F30" d="M414.4,421.7L414.4,421.7L414.4,421.7z"/>
	<path fill="#2A2F30" d="M350.6,419.7c0,0.5,0,0.9,0,1.1C350.6,420.5,350.6,420.1,350.6,419.7z"/>
	<path fill="#2A2F30" d="M349.9,421.3c-0.2,0-0.3,0-0.5,0C349.7,421.3,349.9,421.3,349.9,421.3z"/>
	<path fill="#2A2F30" d="M346.4,422.1C346.3,422.1,346.3,422.1,346.4,422.1C346.3,422.1,346.3,422.1,346.4,422.1
		C346.3,422.1,346.4,422.1,346.4,422.1z"/>
	<path fill="#2A2F30" d="M345.9,422.1c-0.1,0.1-0.2,0.1-0.2,0.2C345.8,422.1,345.8,422.1,345.9,422.1z"/>
</g>
<g>
	<path fill="#191C1C" d="M-1.6,606h795.7V497.5c-0.9,0.3-1.8,0.8-2.9,1.5c-4.1-2.6-5.8-0.1-5.9,3.7c-3.9,2.7-1.9-0.1-3.9-0.6
		c-1.5,0.8-1.9,1-3.5,0.9c-0.1-1.6-0.6-3.5-0.4-4.9c0.2-1.6,1.8-1.9,1.5-4.7c4,0.7,3.2-5.2,3-8.6c-0.7-8.2-1.8-11.4-6-16.6
		c-6.4-5.4-15.5-5-21.3,0.5c-3.7,4.9-3.3,11-2.9,16.7c0.2,2.4,0.3,4.9,1,7.2c0.6,2.2,0.9,1.8,2.7,2.4c1.7,1.5,1.1,4.3,0.8,6.2
		l-0.4,3c-1.2-0.4-3.1-0.5-3.8,0.7c-1,1.7-0.9-2.3-4.9-2.7c-1.7-2.5-3.7-2.7-6-2.5c1.8-3.6,3.7-7.8,4.9-11.4
		c1.1-1.9,1.4-1.4,1.5-3.6c1.7-6.3,0.4-13.5-0.2-20c-0.5-3.3-1.5-7.5-1.4-11.4c0-0.4,0.5-0.7,0.6-1.2c0.2-0.5,0.1-1.3,0.1-1.9
		c0.5-2.1,0.6-5-0.5-6.5c-0.5-1.4-1.1-2-2.5-1.7c-1.2-0.9-1.2-1-2.6-0.4c-1.5-0.8-2-0.6-2.9,0.4c-1.5-0.9-3.6,0.8-2.2,2.1
		c-0.7,0.5-0.7,1-1,1.9c-0.7,2.4-0.7,2.2,1,4.1l0.8,0.9l1.2,1c0.9,0.9,0.9,1.2,1.1,2.5c0.2,5,0.5,9.6-0.5,14.5
		c-0.3,1.9-0.8,4.6-0.7,7.7c0.1,2.9,0.6,6.1,0,7.4c-0.3,0.5-1.7,1.2-3,2.3c-3.1,2.6-5.1,6-6.8,9.4c-0.2,0-0.2,0-0.4,0
		c-2-1-3.9-2.1-6.1-2.6c-1.9-1.1-3.9-2.2-5.8-3.2c-0.2-1.5-0.5-2.8-1.3-3.6c-1.7-2.9-2-4.1-5.3-4.8c-0.7-0.1-1.2-0.2-1.8-0.5
		c-1.2-2.4-2.4-4.8-3.8-6.6c-2.6-4.6-4.6-12-3.3-17.6c0.2-1.2,2.6-0.8,3.6-1.4l2.6-2.2c1.7-0.9,2.6-1,3.6-2.6c1.2-0.9,2-0.9,2.7-2.2
		c-0.2-1.7-0.9-1.9-2.4-2c-1.5,0.6-2.4,0.9-3.3,2.2c-1.7,1.7-2.8,2.7-1.8-0.2c0.9-3.2,2.9-6.3,4.2-9.3c0.4-1.1,0.9-2.4,1.2-3.9
		s-1.9-3.2-3.1-0.9c-0.9,2.1-1.5,4.3-2.5,6.3c-1.9,3.6-1,1.2-0.5-1.1c0.5-2,0.9-4,1.5-6c0.6-2.5-1.7-4.1-3-1.8
		c-0.9,3.2-1.7,6.3-3.1,9.3c-1.4,3.6-0.9,1.6-0.7-0.9c0.2-2.1,0.3-3.9,0.8-6c0.9-3.8-1.3-4.9-2.7-3.2c-0.7,0.8-0.5,2.6-0.9,3.9
		c-0.4,2.7-0.8,5.4-1.4,8c-0.8,1.2-0.6,1.1-1.2-0.2c-0.2-1.1-0.2-2.1-0.3-3.2v-1.6c0-2.4-1.9-3.2-2.5-0.8c0.2,2.3,0.5,4.9-0.1,7.2
		c-1.4,3.9-1.9,7.9-0.8,12c0,4,0.3,7.8,0.7,11.8c0.4,7.7,0.8,14.5,3.8,21.6c0.2,1,0.5,1.9,0.8,2.7c0.1,1.2,0.2,2.5,0.3,2.9
		c0.1,0.2-0.9-0.2-1.2,0.5c-0.2,0.5-0.1,1.8,0.5,3.2c0.5,1.4,0.5,2.6,2.2,1.9c0.2,2.2,0.6,5,0.6,6.7c0,1.4-1.7,1.4-2.9,0.9
		c-1-0.4-1.6-1.2-1.9-1.4c-2.6-3.2-5.7-5.6-9.3-7.7l-2.4-1.2c-1.1-0.6-1.5-1.8-2.1-3.2c0.5-1.4,0.5-2.7,0.7-4.6
		c1.9-6.9,6.1-10.4,5.3-17.6l-0.2-5.1c-0.1-3.1,0-4.7-1.3-7.6c0-2.7-1.7-2.4-0.3-5c0.8-1.3,1.8-2.4,0.3-3.6c-0.5-1-0.5-1.2-1.6-1.6
		c0.2-3.9,0.2-6,2.7-8.8c1.2-2.2,1.6-3-0.2-4.6c0.2-1.5,0.4-2.5-1.2-2.7c0.1-1.6-0.1-2.9-2-2.8c-1.2-2.5-2.8-2.3-4.9-1.2
		c-0.8,0.1-1.3,0.2-2.1,0.5c-0.9-2.5,0.5-4-0.9-6.4c-0.6-0.9-1.2-0.9-1.6-0.9c-1.5-0.1-1.6,4.3-0.7,5.6c-0.2,5-0.6,8.9,3,13
		c0.2,3.2,0.6,5.6-1.6,8c-0.2,0.5-0.7,1.9-0.2,4c0.2,1.1-1.2-0.3-1.5,2c-1.9,1.7-2.1,2.3-2.8,4.7c-0.4,0.7-0.6,1.3-0.9,1.9
		c-0.1-2.9,0.2-5.9,0.2-8.8c0.1-1.5-0.1-2.6,0.8-3.8l1-1.5c0.9-1.3,1.8-2.1,0.8-3.6c-0.7-1-1-1.5-1.3-2.7c-0.3-2.6-2.5-2.6-3.2-1.4
		c-1.4-0.4-1.4,0-2.5,1c-1.2,0.1-1.2,0.1-2,0.7c-1.6,0.2-1.7,1.1-2.1,2.5c-0.7,1.7,0.2,4.1,0.8,5.3c0,1.8,0.9,2,0.7,5.4
		c-0.1,8.3-3.3,20.9-0.9,29.5c0.1,0.3,0.1,0.5,0.1,0.7c-1.5,1.5-2.4,3.2-3.2,5.7c-2.1-2-4-3.5-6.4-5.1c-1.3-3.2-2.7-4.3-5.3-6.7
		c-5.3-3.3-9.7-3-13.7,0.2c-0.1-2.5-0.5-2.5-1-3c1.2-4.3,1.4-8.7,1.6-13.5c0.3-3.2,0.5-6.3,0.5-9.6c0.9-3.3,0.5-6.6-0.6-9.7
		c-0.4-1.9-0.2-3.9-0.1-5.8c-0.5-1.9-2-1.3-2,0.6v1.3c-0.1,0.9-0.1,1.7-0.2,2.6c-0.5,1-0.4,1.1-1,0.1c-0.5-2.2-0.9-4.3-1.2-6.6
		c-0.2-1.1-0.2-2.5-0.7-3.2c-1.2-1.3-2.9-0.4-2.2,2.6c0.4,1.6,0.5,3.2,0.6,4.9c0.2,2,0.6,3.6-0.5,0.8c-1.2-2.5-1.9-5-2.6-7.6
		c-1.1-1.9-2.9-0.5-2.4,1.5c0.5,1.6,0.8,3.2,1.2,4.9c0.4,1.9,1.2,3.8-0.4,0.9c-0.8-1.7-1.4-3.4-2-5.1c-1-1.9-2.8-0.5-2.6,0.7
		s0.6,2.2,0.9,3.1c1.1,2.6,2.7,5,3.4,7.6c0.8,2.3-0.1,1.5-1.5,0.2c-0.8-1-1.5-1.3-2.7-1.8c-1.2,0.1-1.8,0.2-1.9,1.6
		c0.5,1,1.2,1.1,2.2,1.8c0.9,1.3,1.5,1.5,2.9,2.2l2.2,1.8c0.9,0.5,2.8,0.2,2.9,1.2c1,4.6-0.5,10.6-2.7,14.3
		c-2.9,3.6-4.4,10.7-9,11.9c-0.4,0.2-0.9,0.5-1.2,0.7c-0.5-1.1-1.2-2.4-2.2-3.8c-0.5-2.3-0.9-3.1-2.5-5c-0.1-2.1,0.1-2.5-1.3-4
		c-0.1-1.9-0.1-2.3-1.2-3.9c0-4.3-0.3-4.9-3.4-5.8c-1.2-1.5-0.7-5.9-2.8-5.4c-1.2-5.3-2.6-8-1.6-11.3c0.5-1.6,1.4-1.5,1.9-2.6
		c0.5-1,0.5-3,0.5-5c-0.1-1-0.7-3.6-0.5-5.6c0.2-1.7,0.4-3.3-0.2-4.3c-1-1.5-3-1.2-2.7,1.6c0.1,0.9,0.2,3.1,0.1,3.7
		c-0.3,0.9-0.4,1.9-0.9,1.9c-1.9,0.1-4.6-2.6-5.5,1.5c-2.1-0.3-1.9,0.6-2.1,2.3c-1.1,1.2-1.3,1.9-0.5,3.2c-1.2,2.2,0.8,3.6,1.5,5.6
		c0.2,1.4,1.1,2.9,1.4,4.4c0.5,2.7,0.6,5.3,1.1,7.9c-1.9,1.8-3.9,2.5-4,3.5c0,0.4,1.2,0.8,1.9,1.9c2.9,5.1-2.2,3.8,1.2,10
		c1.3,3.7,0.8,5,4.2,10.4c1.8,3.5-0.2,3.7-0.1,6.4c-3-0.3-5.4-1.2-7.3,1.7c-3.2,0.3-3.1,3.6-3.9,2.2c-0.5-0.9-2.1-0.9-3.1-0.5
		l-0.3-2.4c-0.2-1.6-0.8-3.8,0.6-5c1.5-0.5,1.7-0.2,2.2-1.9c0.6-1.9,0.7-3.9,0.9-5.9c0.3-4.6,0.7-9.6-2.4-13.5
		c-4.7-4.5-12.1-4.9-17.3-0.5l0,0c-0.2-0.2-0.5-0.4-1-0.4c0.2-1.4-0.2-2.3-1.5-2.2c0.5-2.2-0.5-2.2-1.5-2.2c-1.5,0-1.5,1.2-2.4,2
		c-0.4,0.4-1.1,0.5-1.7,0.8c-2.4,0.9-2.3,2.2-2.9,4.3c-0.5,1.5-0.5,2.4-0.8,3.6c-0.5,1.9-5.6,5.6-7.3,7.3c-1.9,1.5-4.5,3.9-6.7,5
		c-0.9,0.4-1.7,0.8-2.4,1.2c-1.1-0.3-2.4-0.7-3.7-1c-0.3-0.7-0.9-1.4-1.6-2.1c-1.3-5.4-4.3-5.1-8.2-6.1c-0.5-1.2-1.3-2.6-2.6-4.3
		c-1.9-6-5-12.5-3.4-18.1c0.7-2.1,1.1-3.5,3-4.7c1.9-0.5,3.5-1.3,4.6-2.4c0.5-0.5,0.8-0.6,1.1-1.4c0.8-0.7,0.8-0.8,0.9-1.8
		c-0.2-1.2,0.9-1.7,1-2.1c0.2-0.7-1-0.9-1.7-0.5c-0.9,0.5-1.9,2-1.3,2.5c0.1,0.1-2.8,3.9-3.3,1.6c-0.4-1.2,0.8-1.7,1.4-2.9
		c0.8-1.6,1.6-4,2.2-5.8l0.2-1.5c0.1-1.3-0.5-1.3-0.9-1.2c-0.7,0.3-1.2,1.7-1.5,2.5c-0.5,1.7-0.9,2.8-1.7,4.4
		c-0.8,1.2-1.2,2.7-0.9,0.5c0.3-2.5,0.4-4.7,0.4-7.2c0-1.1-1.3-1.9-1.9-0.8c-0.9,1.9-0.7,4.3-1,6.3c-0.2,2.2-1.2,3.2-1.2,3.1
		c0.2-1.1-0.1-5.2-0.1-6.1l-0.1-2.8c-0.3-2.2-2.3-1.2-2.3,0.9c-0.1,2-0.2,4-0.3,6c0.1,1.3,0,3.1-0.4,3.2c-0.2,0.1-0.9-0.5-0.9-1.9
		c-0.2-1.9-0.7-3.8-0.9-5.7c-0.2-2-1.5-1.5-1.9-0.4c-0.5,1.2,0,2.9,0.2,4.3l0.3,1.8c0.4,2.2-0.9,4.6-1,7.7c-0.2,3.8,0.9,2.3,0.5,9.5
		c0.2,6.1,0.9,12.1,2.3,18c-3.9,0.9-5.6,5-6.1,9.1c-0.5,2.9-1,5.1-0.7,8c-1.9,2-1.8,1.5-1.4,5.2c-0.2,1.5-0.9,5,1.8,4.2
		c0.1,1.3,0.2,2.3,0.5,3.4c-0.5,0.3-1,0.7-1.5,1.4c-0.9,0.1-1.3,0.1-2.2,0.5c-0.9,0-1.2,0.1-1.5,0.3c-0.5-0.5-0.9-1-1.6-1.6
		c-3.4-2.4-2.9-2-5.5,1.2c-2.3-0.5-3.2-0.2-5.5,0.4c-1.1-0.5-1.9-0.8-2.6-0.8c0.3-0.5,0.5-1.2,0.7-1.8c0.4-1.5,0-2.5,0.6-2.3
		c0.1,0,1.9,1.1,1.6-1.1c3.3-1.3,5.2-0.9,2.6-3.6c1.2-3.7,2.2-8.5-2.9-10.7c-0.7-3.1-0.3-5.5-3.3-7.1c-4.3-4.6-8.3-5-13.5-1.1
		c-2.6,1.3-4,2.8-4.4,5.6c-0.2,1.4-0.5,2.5-0.7,3.2c-0.6,1.9-1.7,0.8-2.9,2.6c-0.7,1.1,0.7,4.1,0.2,5.3c-0.1,0.2-0.2,0.3-0.3,0.5
		c-3.2-2.2-6.5-4.3-9.7-6.5c0.5-2.9,1.2-5.6,2.6-8.4c2.6-5,4.3-8.8,3.7-14.8c1.8-7.2,0-7.1,0.4-10.4c0.2-1.9,1.2-3.7,1.6-5.8
		c1.2-5.6,2.7-11.8,3.2-17.3c0.7-3,1.4-6,2-9c0.8-3.1,1-6,0.8-9.2c2.4-3.8,0.1-4.1,3.2-10.2c1.9-2.7,0,0-0.1-4.4
		c1.6-3.2,1.7-5.7,1.1-9.4c-0.2-2.5,0.1-4-3-4c-1.6-1.4-2.4-2.5-4.7-2.1c-1-1-1.3-0.9-2.7-1c1-1.9-0.7-1.9-1.9-1.5
		c-3.6-3.2-6,6.3-6.6,8.3c-2.1,3.9,2.1,5.8,3.9,9.4c-2.7-0.4-2.4,1.9-2.2,4c0.6,3.5,0.5,4.9-0.5,8.3c-1.6,2.6-1.9,3.6-2.2,6.7
		c-0.8,1.8-1,3-1.2,5c-1.4,2.1-1.7,3.7-2.2,6.1c-2.8,7.2-5.4,14.4-7.6,21.7c-1.8,6.2-4.1,12-6.2,18.1c-0.2,0.5-0.5,0.9-0.7,1.2
		c-0.1-1.3,0.1-2.6,0.1-4.3c0.6-3.2,0.5-4.8-3.4-5.4c-0.8-0.9-2.2-1.5-3.4-1.3c0.6-1.3,0.4-2.5-0.2-3.9c-0.1-2.3,0.2-2.6-1.9-3.6
		c-0.8-4-3-0.9-3.3-2.2c-0.5-2.4-2.1-2.2-2.6-0.2c-4.7,0.2-2.2,2.3-4.3,2.9c-1.2,0.4,0.5-3.5-6.8-1.5c-2.6-0.3-2-1.8-5.6,0.2
		c-5.4-1.8-5.6,3.5-9.1,6.7l-0.1,0.1c-0.2-0.8-0.9-1.5-2.2-1.9c-1.9-1.5-2.9-2.4-4.1-1c-1.9-1.5-3.6,0.2-3,1.5l0.4,0.8
		c-0.9,0.8-1,0.9-0.9,2.2c-0.7,0.6-0.8,0.7-0.9,1.6c-0.4,0.7-0.5,0.9-0.4,1.6c-1.2,1.9-0.5,1.6,0.2,3.4c0.2,0.2,0.3,0.4,0.5,0.5
		c-1.5,3.2-2.4,7.7-2.8,13.1c-0.5,8.9,1.9,8.4,1.9,12.7c-0.1,2.2-0.2,3.3,2.6,3.1c0.7,2.4,1.7,4.8,3.4,6.7
		c-5.3,0.2-10.1,2.1-4.1,7.2c0.8,7.3-0.9,6.9-7.5,9.1c-3.8,0.9-6.2,1.6-9.5,3.5c-2.9,1.3-3.2,1.6-4.7,4.5c-2.1,2.3-2.7,3.6-3.8,6.6
		c-0.7,1.2-1.2,2.2-1.8,3.2c-0.2-3.7-0.7-6.9,0.6-9.3c1.4-3.2,2.9-7.5,4.6-10.9c1.2-2.2,2.6-3.3,3.6-5.5c1.9-4,3-8.2,5.3-11.7
		c2.9-4.2,3.2-7.8,2.9-13.6c0.5-7.8,1.3-15.1,0.2-23.2c-0.4-2.2,0.5-5-0.7-6.3c0-1.2-0.1-1.8-0.5-2.8c0.1-1.7,0-2.9-0.4-4.6
		c-0.8-1.3-0.5-5.6-1.6-5.1c-0.9-2.6-3.1-3.7-5.6-4.5c-1.3-0.3-1.5-0.4-1.9-1.6c-0.3-1.1-0.9-2.1-1.5-3c-0.3-0.4-0.5-0.8-0.9-1.2
		c-1-1.2-2.6-0.7-1.9,0.8c0.5,0.9,1,1.5,1.3,2.4c0.3,0.7,0.3,1.5,0.7,2.2c0.2,1.1-0.2,0.9-0.7,0.3c-0.9-1.5-1.4-2.8-1.9-4.5
		c-0.2-1-0.7-2.2-0.9-3.2c-0.2-1.6-2.7-1.1-2.2,0.5c0.5,1.5,0.8,3.1,1.1,4.7c0.5,1.8,0.3,1.3-0.7,0.2c-1.1-1.2-1.4-3.7-1.9-5.3
		c-0.5-1.7-2.6-1.1-2.2,0.2l0.3,1.2c-2.1-0.9-1.7,1.1-1.9,2.5c0,0.7,0,1.2,0.2,1.9c-3-0.1-5.5-0.5-7,2.1c-1.5,2.3-1.3,4.4-1.1,7
		c0.1,0.5-0.6,0.7-1,1.2c-4,5-7.6,9.4-8.3,13.6c-0.3,3.1-0.1,6.7,1.9,9.5c1.8,2.8,4.6,4.3,7.5,6.6c0.6,0.5,2-0.5,2.8-0.8l3.8-3.1
		c3.4-2.9,6.7-5,7.7-9.4c0.3-3.4,1.6-6.4,0.4-9.4c-0.2-2.5-0.2-4.6,0-7c0-0.6,0.1-0.9,0.2-1c0.5-0.3,0.4,0.6,2.2,0.4
		c0.1,1.6,0.9,2.3,1.9,3.6c0.3,1.3,1.1,2.9,1.2,3.9c0.1,1.1-1.7,0.9-0.2,2.8c-0.2,1.9-0.7,2.1,0.8,3.2c-0.4,1.7-0.5,2.7-0.4,4.4
		c-0.7,1.5-0.6,1.6,0,3.2c-1,1.9-1.2,2.4-0.9,4.5c-0.9,1.1-0.9,1.2-0.9,2.6c-1.8,2.1-1.2,6.6-1.3,9.2c-0.6,1.4-0.7,1.6-0.9,3.2
		c-0.3,0.5-0.5,1.9-1,2c-1.2,0.5-1.5,1-1.9,2.4c-1.6,2.6-2.9,5.3-4.3,8c-1.9,2-2.7,3.8-3.3,6.3c-1.7-0.6-1.6,1.5-2.6,1.9
		c-2.1-0.8-1.7-0.1-2.6,1.9c-1.9,0-1.9-0.3-2.2,1.5c-4.3-1-2.9,1.8-3.7,1.9c-1.1,0.2-1.6-1.2-1.4-2.4c0.3-1.9,1-3.4-0.4-3.4
		c-0.2-1.1-0.5-2.6,0.9-1.9c1.3-0.5,0.7-2.4,1.4-4.4c0.9-2.8,0.4-4.2-1.6-4.1c0.8-1.5,0.2-4.6,0.3-6.1c0.1-6.3-3-9-9.4-10.5
		c-2.1-0.5-2.9-0.5-4.9,0.1c-1.4-0.3-2-0.1-3.4,0.3c-3.2,1.2-6,3.6-7,6.9c-1.2,4.5-1,7.5,0.9,11.8c-2.1-0.2-2.3,0.5-2,1.9
		c0.2,0.7,0.9,1.5,1.3,2.5c0.9,2.2,0.7,4.5,2.9,2.8c1.5,3.6-1.2,0.9-1.2,3.1c0,0.5,0.1,1.8,0.2,2.4c-1.5-0.7-1.9-0.5-3.6,0
		c-0.9-1.5-0.9-1.2-2.6-1.2c-0.7-2.1-1.1-1.5-3.3-1.5c-0.2-2.6-0.9-2.4-3.2-2.1c-0.5-2.3-0.5-2.4-2.8-2.6c-0.5-2.2-0.5-2.7-2.2-4.2
		c-0.7-3-1.8-4.1-4.3-5.6c-2-3.5-2.4-1.4-3-2.4c-1.1-1.7,0.9-2.1-1.5-3.6c-0.9-2.5-0.5-7.5-1.9-8.1c-0.2-1.3-0.1-1.7-1.1-2.4
		c0-2.5-0.2-5-0.3-7.7c0-0.9-0.1-1.8,0.2-2.7c3.2-9.3,3.4-16.1,3.9-23l0.4-0.6c2.1-1.7,1.9-2.5,1-2.3c-0.5,0.1-1,0.3-1.2,0.3
		c0-0.5,0.1-0.9,0.1-1.3c0-0.3,0-0.5,0.1-0.9c0.7-1.9,2-4.2,1.9-5.4c-0.1-0.6-0.9-0.8-1.5,0c0.1-1.5,0.2-3.2,0.2-4.8h-7.5
		c0.1,2.1-0.4,4.3-0.9,6.4c-0.5,0.2-1.2,0.8-1.9,1.9c-1,1.9-1.4,3.1-2.3,5.5c-2.2,1.6-4.9,5.6-5.5,8.3c-2.1,0.8-0.7,2-0.5,6.2
		c0.1,1.9,0.2,3.4-0.3,5.3c-0.2,1.4,0,2.5,0.2,3.9c0.1,2.2,0.2,4.3,0.5,6.6c-1.2,5.7-0.2,10.4-0.9,11.8c-0.9,1.4-1.5,2.2-1.9,3.9
		c-1,1.1-1.1,1.2-1.1,2.6c-2.5,0.7-2.9,4.3-3.7,5c-0.5,0.5-0.5-0.5,0.2-2.4c-0.1-1.9,0.2-4.3-2.1-4.3c-0.1-1.8,0.6-2.8-0.1-4.6
		c-2.3-6.5-12.4-9.1-17.2-14.4c-1,4.6-4.1,7.9-5.2,11.6c-1.7,4.6-0.5,8.7,1.2,13c-1.9-0.4-1.2,2.2,0.2,3.6c1.2,1.2-0.2,3.1,1.6,2.8
		c1.3,1.8,2,3.3,4.2,4.5c0.2,4.7,2.8,3.9,2.2,6.7c-1.8,1.7-4,4.3-6,6.3c-3.1,3-5.6,5.6-5,9.9c-0.5,3.5-0.3,6,0.1,9.6
		c-0.3,0.9-0.5,1.7-0.5,2.6v-27.9c0.2-0.2,0.4-0.3,0.6-0.5c3.2-3.5,5.1-8.3,3.2-11.1c-1.2-1.8-4.5-3.1-7.4-4.2
		c-4.8-1.9-9.4-4.3-14.5-4.5c-3-0.7-4.7-0.6-7.8-0.2c-0.6-0.2-1.2-0.2-1.6-0.3c2-1.5,4-3,6-4.2c2.2-0.4,2.2-0.9,3-3.2
		c1.1-1.9,2-3.2-0.2-3.4c0.1-0.9-0.2-2.2-1.4-1.7c-0.1-1-0.2-1.3-1.1-1.6c-0.9-0.8,0.2-0.1,0.9-0.4c1-0.5,0.6-0.9,0.1-1.3
		c-0.3-0.2-0.6-0.5-0.9-0.5c-1.1-0.1-1.3-0.6-1.8-0.6c-0.4,0-0.9,0.4-1.8,0.9c-1.9,0.9-2,1.6-1.9,3.2c-0.5,1.2-0.6,1.5-0.5,2.9
		c0,0.9-0.2,1.1-0.9,1.5c-2.9,1.9-5.7,3.9-9,5c-1.2,0.4-2.2,0.9-3.4,1.3c-0.3-0.2-0.6-0.5-0.9-0.8c-1.5-2.2-2.9-1.5-2.8-2.5
		c0.7-5.3-2.6-10.1-6.9-12.8c0.9,0.1,0.9,0.1,1.3-0.8c1.9-1.6,1.4-3.2,1.2-5.5c0.3-2.2,0.9-1.4-1-2.4c-0.2-0.5-0.3-1.5-0.9-1.9
		s-1.5,0.2-1.8-0.3c-0.5-1.2-1.9-0.9-2.8,0.1c-1.9,0.3-3.1-0.5-4.1,0.4c-0.3,0.2-0.1,1.2-0.5,1.5c-0.7,1.8-1.3,1.9-0.7,2.8
		c0.2,0.2,0.6-0.1,0.9,0.3c0.5,1.1,0.5,0.9-0.5,1.2c-2.1,0.5-2.5,1.1-3.9,2.6c-3.6,2.3-5.6,3.6-4.9,8.8c-1.2,2.1-1.8,3.9-1.8,6.3
		c-1.6,0.7-2.7,1.9-4.1,3.1c-0.6,0.5-1.2,0.6-1.7,0.7h-0.1c-1.3-1.2-1.9-1.1-3.7-0.5c-1.2-1.6-2.2-1.5-3.6-0.5
		c-1.4-0.2-2.7-0.2-4.1-0.2c-0.6,0-1.3-0.2-1.9,0c-0.2,0.1-0.6,0.1-0.7-0.1c-0.4-0.8,0.4-3.9,0.5-4.7c0.3-0.6,0.7-1.7,0.9-2.6
		c0.2-1,0.5-1.5,0.5-1.9c0.1-0.5,0.5,0,0.9,0.1c0.2,0,0.5-0.1,0.8-0.6c0.2-0.6,0.1-1.5,0.2-2.2c0.2-0.9,0.9-3.2-0.9-3.1
		c0.5-1.9,0.5-3,0-4.9c-0.2-2.1-0.5-4-1.2-6c-1.4-3.2-2.9-4.3-5.5-4.7c-1.7-0.5-2.3-0.5-4.1-0.2c-3.1,0.2-5.1,0.5-7,3
		c-0.9,1.2-1.8,1.9-1.9,3.4c-1.4,1.2-1.1,1.1-1.5,2.6c0.1,2-0.5,3.9-0.1,5.4c0.5,1.9,0.8,2.6,0.8,2.5c-2.5-0.2-1.1,2.9-0.6,4
		c0.2,0.4,0.3,1.1,0.6,1.7c0.2,0.5,0.7,0.7,1.2,0.1c0.5-0.8,0.6,0.7,1,1.4c0.4,1.2,0.9,2.9,0.7,3.7c-0.2,1.3-1.6,0.9-0.5,3.2
		c-1.2-0.1-3.2,0.1-4.3-0.1c-2-0.3-3.1-0.9-4,0.4c-0.7,0.4-0.9,0.8-1.6,0.5c0.1-0.1,0.2-0.2,0.2-0.3c1.1-2.3,3.9-3.3,5.6-5.3
		c1.3-1.9-0.4-3.5-1.5-2c-0.9,0.9-1.8,1.7-2.6,2.6c-1.5,0.8-2.7,1.9-1.2-0.3c1.5-1.8,3.2-3.5,4.9-5.2c1.5-1.9-0.9-2.6-2-1.4
		c-1.6,1.7-3.2,3.4-4.9,5c-2.9,2.2-0.2-1.9,0.6-2.8c1.2-1.9,2.9-2.7,3.4-4.1c0.5-1.2-0.5-2-2.3-0.5c-1.6,1.5-3.2,3.2-4.6,5
		c-2.6,3.2,0-1.7,0.3-2.3c0.8-1.1,1.5-2.2,2.2-3.3c1.3-1.8-0.6-2.6-1.7-1.5c-1.9,2.2-3.6,4.9-4.9,7.5c-0.8,0.9-1.6-0.5-1.9-1.9
		c2.9-1.3,3.2-2.8,1.4-5.9c-2.8-3.7,4.6-5.2-2.8-10.4c-2.8-1.1,1.2-6.1-5.5-10.5c-7.9-6.9-16.9-1.7-19.9,7.6
		c-8.1,3.6-1.9,8.9-5.5,12.9c-2,3,1.8,4.6,4.3,5.7l1.7,0.9c0.2,1.5,0.5,2.8,1,4.3l0.1,2.8c-3.6-3-4.3,0.6-6.2-1
		c0.4-2.6-1.3-2.9-3.5-3.6c-2.2-1.1-3.9-1.6-6.3-2c-3.1-3.2-4.1-1.5-6-3.9c-1.1-1.4-2.4-2.9-3.7-4.5c0.2-0.4,0.6-0.8,0.8-1.3
		c0.2-0.9,0.1-2,0.2-2.8c0.8-3.2,1-7.6-0.6-9.8c-0.8-2.2-1.6-3.1-3.7-2.6c-1.9-1.3-1.9-1.6-4-0.7c-2.3-1.2-3-0.9-4.4,0.7
		c-0.5-0.3-1.1-0.5-1.6-0.4c-6.2-10.1-15.2-18.3-19.5-29.8c-0.5-1.3,0.4-2.4,0.8-3.7c1.7-4.9-0.1-5.3-3.2-8.7
		c1.2-1.2-0.5-2.6-1.6-2.5c-0.6,0.1-0.5,0.8-1.2,1.6c-0.3-0.9-2.6-0.9-3.2,1.1c-1.5,0-2.6-0.1-3.1,2.3c-8.3,0.8,3.6,13.5,4.3,16.4
		c5.6,12.8,13.8,33.7,19.8,38.3c3.5,4.9,6.9,10.9,10.4,15.9c-0.1,3.2-0.3,6.5-0.9,9.9c-0.5,2.8-1.2,7-1.1,11.7
		c-1.5,0.5-2.7,1.2-4.1,2c-1.1-1.9-2.4-2.9-4.4-3.7c-0.9-2.2-0.2-4.6,0.8-7.5c0.6-0.9,1.1-1.6,1.5-2.7c1.5,1.4,1.1-0.2,1.8-1.2
		c0.6-0.9,0.8-2.2,0.5-3.3c0.7-2.8,0.7-4.7,0.1-6.5c0.1-4.6-1-7.1-3.7-10.1c-4-3.6-8.4-5.3-13.1-2.5c-2.6,1.6-5.3,3.4-6,6.6
		c-1.1,1.5-0.9,4-0.5,7.7c-0.5,1.9-0.5,2.4-0.1,4.3c0,1.2-0.2,1.5,0.8,2.3c-0.2,0.9,0.6,0.9,0.5,1.4c-0.2,1.1,0.9,1.9,1.5,0.5
		c0.6,1.7,0.2,3.3-0.2,5c-0.4,1.1-0.4,3.9-1.4,3.8c-2.3-0.2-4.3,0.8-5.7,0.5c-1.9-0.3-1.6-3.7-6.3-4c-2.7,0-5.5-1.5-7.9-1.5
		c-0.9,0-1.8,0-2.6,0v15.9c0.2,0.1,0.4,0.2,0.5,0.3c-0.2,0-0.4,0-0.5,0V606H-1.6z M721.5,543.2c1.5-7.7,3.3-13,5.4-18.4
		c1.3-3.4-0.2-3.2,3-8c3.9,3.1,5.3,6.8,6.4,11.6c1.2,10.4,3.6,9.5,5,16.9c1,5.6,0.6,8.7,4,21.3c0.5,6.4-3.1,12.7,1,21.1
		c-1.2,3.8-0.7,7.5-4.1,9.7c-1.1,1.4-0.9,2.1-1,3.9c-3.2,5.1-0.1,4.2-0.5,6.7c-0.5,2.5-1.8,0.1-2.1,5.9c-1.1,0.8-1.4,1.5-1.5,2.6
		h-5.5c0-0.9,0-1.9,0-2.8c0.8-0.1,1.7,0,1.5-0.3c-0.2-0.6-0.5-2-0.8-3.3c-0.5-3.5-1.1-6.9-1.5-10.2c-0.2-1.6-0.3-2.9-0.2-4.6
		c-0.1-1.4-0.1-1.9-0.8-3.1c-0.5-3.5-1.3-6.7-2.5-10c-0.3-0.9-0.4-1.7-0.5-2.7l-0.2-2.2c-0.5-2.8-1-5-2-5.8
		c-0.1-1.5-0.7-2.3-1.5-3.4c-0.1-0.9-0.2-1.4-0.6-2.2c-0.1-0.9,0.2-1.5-0.8-1.7c-0.1-1.5-0.5-2.9-0.6-4.4
		C721.1,554,720.6,547.9,721.5,543.2z M712.4,507.4c0.4,0.3,0.9,0.5,1.2,0.8c-0.5,0.4-1,0.8-1.3,0.9
		C712.2,509.1,712.2,508.3,712.4,507.4z M703.7,602c0.2-0.1,0.3,0.6,0.5,1.8H703C703.1,603,703.2,602.3,703.7,602z M652.7,501.5
		c1.2-0.9,0.9,0.5,3-2.5c1.9-1,0.5,0.3-0.2,1.4c-0.6,1-1.1,1.5-0.7,2.6c-2,0.9-1.9-0.6-3.2,0.9C651.9,502.7,651.8,502.3,652.7,501.5
		z M650.1,505.8l0.5,0.6c-0.1,1.2-1.3,2-1.2,0.2C650.1,506.7,650,506.5,650.1,505.8z M618.9,494.4c0.5-0.3,1-0.6,1.5-0.9
		c-1.2,2.8-0.8,5.6,1.5,9.1c0.8,1,1.5,1.9,2.2,3c-0.1,1.9,0,1.6-1.7,0.8c-0.4-1.6-0.5-1.5-2-2.2c-0.3-2.2-1-4.4-1.9-6.4
		C618.6,496.7,618.8,495.6,618.9,494.4z M554.5,477.6c1-1.1,2.3-1.6,3.7-2.2c-0.1,0.5-0.2,1.1-0.2,1.7c-0.2,2.8-0.9,7.6,2.5,7
		c-0.2,2.2,1.1,2.5,1.2,3.8c0.2,1.2-0.2,2.6-0.3,3.9c-1.3,0.1-1.6-0.1-2.8-0.7c-1.6,0.5,0,2.7-3.2,0.5c-0.1-3-1.5-5.1-4.8-3
		c-1.9-1.1-2.6-1.5-4.6-1.5c-0.1-0.1-0.1-0.1-0.2-0.2C549,483.6,551.9,480.5,554.5,477.6z M529.6,502l0.7-1.3
		c0.8-0.5,1.5-0.9,2.2-1.5l0,0c1.7,1.7,3.2,2.9,4.4,4h-8C529.1,503,529.3,502.6,529.6,502z M527.1,502.9c0.2,0.2,0.3,0.3,0.5,0.5
		h-0.2v4.8c-0.5,0-0.9,0-1.3,0C525.8,505.7,526.1,505,527.1,502.9z M418.7,500.2c-2.6-1.7-5.2,4.5-4.6,0.1c2.8-5.2-1.7-1.8-2-4.8
		c-0.1-0.4-0.1-0.8-0.1-1c1.2,0.9,2.5,1.7,3.9,2.3c0.7,0.8,0.9,0.9,1.9,1.2c0.4,0.4,0.9,0.8,1.2,1.2
		C418.9,499.4,418.9,499.7,418.7,500.2z M414.7,462.5c-0.4,0.7-0.1,2.1,1,2.7c0.8,0.5,2.2-2,2.6,0.9c3.8-0.3,0.9-2.6,2.6-2.5
		c0,0,0,0,0.1,0c0.2,0.2,0.5,0.5,1,0.8c-0.2,0.9-0.6,3.2,0.2,4c0.2,0.2,0.8,0.8,1.2,0.6c0.6-0.2,1.3-0.3,1.2,0.1
		c0,1-0.3,3.7,0.1,5.3c0.8,2.1,2.1,2.9,3.9,4.7c0.5,0.5,1.1,1.2,1.6,1.8c0.1,0.4,0.1,0.9,0,1.3c-0.3,2.2-1.8-1.2-2.6,6.3
		c-1,0.7-1.5,1.2-2,1.5l0,0c-2-0.8-2.6-1.2-3.4-2.6c-1.5-1.9-3.2-3.4-5.1-4.8c-0.2-1.4-0.5-2.6-0.8-3.1c0.1-2.6,0.2-4.3-0.7-6.7
		c-1.2-6.5-4.6-10.9-4.3-10.7C413.1,463.1,414.9,462.1,414.7,462.5z M368,571.6c2.4-5.8,1.7-3.9,1.9,1.2v0.1h-2.3
		C367.7,572.5,367.8,572,368,571.6z M352.2,601.1v2.8h-0.7c-0.1-0.5-0.2-0.9-0.4-1.4C351.5,602,351.8,601.6,352.2,601.1z M235.4,575
		c0.6-0.9,1.2-1.8,1.7-2.6c3.2-4.7,6-9.8,6.2-13.8c0.2-2.3,2.4-6.3,3.2-8.8c-0.5,3.7-0.7,7.4-0.9,11.2c0.5,5.3-4.2,6.8,0.6,11.5
		c-1,1.3-1.2,1.5-1.2,3.2c-1.3,1.2-1.7,1.3-1.6,2.9H239v4.6c-0.7,0.9-1.4,1.6-2.2,2.6c-1.1,1.9-1.6,3.7,0,4.6
		c-0.2,1.5-0.8,2.6-1.5,3.5L235.4,575L235.4,575z M188.6,505.3c1.2-0.4,2.6-1.2,3.6-1.6c1.2-0.5,2.2-1,3.3-1.6
		c0.9,1.4,0.9,1.2,2.6,1.1c2.9,1.5,1.6,1.9,7,0.3c0.9,1.7,1.3,1.4,4.3,1.2c1.4,1.2,1.6,1.5,4.1,1.2c0.8-0.1,0.9,1.2,0,1.1
		c-1.9-0.2-2.2,0.9-2.5,1.3c-1.8-0.5-1.6-0.6-2.8,0.9c-1.3,0.2-1.3,0.3-2.1,1.4c-1.8-2.9-2.4-0.4-3.8,0c-1.5,0.5-3.1-2.7-6.8,2.3
		c-1.4-0.1-1.8-0.1-3,0.5c-2.3-3.1-3.6-0.8-4.3-1.7c-0.3-0.4-0.2-3.2-0.2-4C188.8,506.7,189,505.9,188.6,505.3z M165.2,510.5
		c-0.9,0.7-1.4,1.6-1.9,1.4C163.8,511.2,164.5,510.8,165.2,510.5z M105.2,481.6c0.9,0.8,1.1,0.6,2.3-0.3c-0.2,1.4,0,2.7,0.5,4.1
		c0.3,1.6-0.1,2.9-0.8,4.1c-1.5-1.1-1.9-0.8-3.9-0.4C103.4,486.2,104.3,484.5,105.2,481.6z"/>
	<path fill="#191C1C" d="M200.5,594.7c0-0.4,0.1-0.6,0.2-0.8v1C200.7,594.8,200.6,594.8,200.5,594.7z"/>
	<path fill="#191C1C" d="M449.4,503.9c0.2,0.2,0.5,0.4,0.8,0.6c-0.3-0.1-0.5-0.2-0.9-0.3C449.3,504,449.3,504,449.4,503.9z"/>
	<path fill="#191C1C" d="M444.1,529.9h-0.2c0-0.3,0-0.6-0.1-0.9C443.9,529.3,444,529.6,444.1,529.9z"/>
	<path fill="#191C1C" d="M279.1,426.7c0.4,0.3,0.9,0.5,1,0.9c0.2,0.8,0.1,1.1,0,1.9h7.7c0.1-0.7,0.2-1.4,0.6-2.1
		c0.6-3.1,1.9-7.1,0.1-9.2c-0.9-1.4-1.2-2.1-2.7-1.6c-0.9-1.3-1.4-1.3-2.7-0.6c-1.1-0.8-2.6-1.1-3.3,0.2c-2.2-0.6-2.9,1.1-2.8,3
		c0,2.3-1.7,2.2-0.4,4.7C277.4,424.8,278.2,425.7,279.1,426.7z"/>
</g>
<path d="M4.8,462.7c-0.6-0.1-1.8,0.1-2.2-0.4c-0.3-0.2-1.5-0.4-2.1-0.1V612h793.2v-87.9l-1.9,3.9c-1.2,0.5-1.5,0.8-2.2,1.6
	c-0.5-0.2-1.2-0.3-1.7-0.5c-5.7-2-3.1-2.8-14.8-10.7c-1.9-1.5-3-2.6-3.9-3.6c-0.1-0.8-0.3-1.6-0.9-2.5c-0.9-5.4-6.1-8.5-8.3-10.4
	c0.1-0.4,0.2-0.8,0.5-1.2c0.2-0.9,0.3-1.5,0.3-2.2c0.1-0.1,0.2-0.1,0.2-0.2c1.2-0.8,2.9-3.6,2.3-4.5c-1.1-1.5-1,1.2-2.6-2.2
	c0.2-1.9,0.3-1.6-1.4-2.3c-4.9-1.7-2.2-3.3-5.1-2.6c-0.5-0.2-1.7,1.4-2.2,1.6c-2.6-1.5-2.2-1.5-2.8,1.4c-2,1.2-2.6,2.1-2,4.6
	c-3,2.8-5,6.6-3.2,10.8c-3.2,2.8-5.3,5.7-5,10.3c-0.5,3.6-1,6.5,0.2,10c-2.9,1.5,0.5,3.2-0.5,7.1c-0.1,0.3,0.2,0.6,0.2,1.2
	c-0.1,1.5-0.4,3.9-0.4,4.6c0.2,3.7-0.9,4.3-0.9,8.7c-1.7-0.8-3.7-0.3-4.1,0.6c-0.4,1-0.7,2.4-0.3,3.6c0.3,1,1.3,1.9,1.2,1.7
	c-1.1-0.7-4.2,0.1-5.9,0.9c-0.6-2-1.4-0.5-3.2,0.7c-0.9,0.6-1.8-0.1-3.9,1.2c-2.9,0.2-3.3,1.5-5.7,2.2c-1.6,0.4-2-0.8-5.4,0.6
	c-1.2,0-3.2-0.4-2.9,0.7l-3.2,0.3l-3,0.9c0.9-2.9,1.8-5.9,2.9-8.7c1.2-3.2,1.5-5.3,3.2-8.4l3.8-6.7l2.7-4.9c2.2-2.2,3.3-4.2,4.3-7.3
	c1.8-3.5,2.5-6.7,3.2-10.6c1.2-3.4,1.5-6.4,1.9-10.1c0.1-1-0.2-1.5-0.5-1.8c5.4-4.7,12.5-22.9,17.5-34.2c0.6-2.7,11.4-14.2,3.9-14.9
	c-0.4-2.2-1.3-2.1-2.8-2.2c-0.5-1.8-2.7-1.8-2.9-1c-0.6-0.9-0.5-1.5-1.1-1.5c-1-0.1-2.5,1.1-1.5,2.2c-2.9,3.1-4.5,3.5-2.9,7.8
	c0.3,1.2,1.2,2.2,0.7,3.4c-4.5,12.3-15.2,20.3-20.3,31.9c-1.2,4.1-2.6,3.7-5,5.6c-2.8,2.3-5.6,5.7-7.9,8.7c-1.7,2.2-2.6,0.5-5.3,3.5
	c-2.2,0.4-3.7,0.9-5.7,1.9c-1.9,0.7-3.5,1-3.1,3.2c-1.8,1.5-2.3-1.8-5.6,0.9l0.1-2.6c0.5-1.3,0.7-2.5,0.9-3.9l1.5-0.8
	c2.3-1,5.8-2.4,3.9-5.1c-3.2-3.6,2.4-8.4-5-11.7c-2.7-8.4-10.8-13.1-17.9-6.9c-6,3.9-2.5,8.5-5,9.5c-6.7,4.6,0,6-2.6,9.4
	c-2.1,3.3-1.2,4.5,3,6c1.5,1,1.5,1.3,2.4,0.5c0.8,2.6,1.7,4.1,1.7,6.7c-1.8-0.3-2.2-0.7-3.6,0.4c-1.2,0.1-2.2,0.2-2.9,1.3
	c-1.6,0.5-2.2,0.5-2.8,1.4c0-1,0.2-2,0.2-3c0-1.6-0.1-3.5-1.5-4.4c-0.5-1.9-1.2-2-2.9-1.8c-0.1-2.2-0.9-2.2-2.8-1.8
	c-1.6-2.1-2.3-1.3-3.5,0.8c-0.3,0.1-1.3-3.9-1.8-5.4c-0.6-1.7-0.8-4.4-1.4-4.5c-0.3-0.1-1.6-0.3-1.5,1.5c0.3,2.9,0.5,5.3,1.5,8
	c0.5,3.1,1.2,5.6,2.6,8.4c0.6,2,1.4,3.4,2.6,4.8c-0.5,0.5-0.9,1.3-1.4,2.6c-4.4,1.1-9.4,2.9-12.7,6c-1.5,0.2-1.8,0.4-3,1.4
	c-0.9,0-1,0.1-1.2,0.5c-0.2-1.5-0.6-2.4-0.5-4.4c0-0.6-0.2-2.5-0.3-3.7c0-0.5,0.2-0.8,0.1-1c-0.8-3.1,1.9-4.5-0.4-5.6
	c1-2.8,0.5-5.1,0.2-8c0.3-3.6-1.4-6-3.9-8.2c1.5-3.3-0.1-6.3-2.6-8.5c0.4-1.9,0-2.7-1.6-3.6c-0.5-2.3-0.2-2.2-2.2-1.2
	c-0.5-0.2-1.4-1.4-1.8-1.3c-2.3-0.6-0.2,0.7-4.1,2.1c-1.3,0.6-1.3,0.4-1.1,1.9c-1.2,2.8-1.2,0.6-2,1.8c-0.5,0.7,0.9,3,1.9,3.6
	c0.8,0.5,1.1,0.9,1.5,1.7c0.9,1.3-6.3,3.8-7.2,9.4c-1.2,1.6-0.9,2.9-0.5,4.7v3.7c-2.2,0-1.5,2-1,3.2c0.2,0.5,0.7,1.2,0.9,1.8
	c0.5,1.3,1,2.6,2.4,1.5c0.2,2.3,0.8,7.7-0.8,9.6c-1.1-0.3-1.1-0.4-1.9,0.2c-0.9-0.6-1.2-0.8-2.2-0.8c-1.3-1.4-1.8-1.9-3.6-2.4
	c-0.2-1.8-0.1-1.6-1.9-1.9l-1,0.2c-0.9-1.2-1.2-1.5-2.6-2.2c-0.2-1.5-0.5-1.2-1.9-1.4c-0.5-0.7-0.4-0.8-1.2-0.8
	c0.2-1.2,0.1-1.2-0.9-1.2c2.4-5,4-10,3.7-14.4c1.5-2.4,1.5-3.9,1.8-6.7c2.2-6.7,6.4-10.1,5.7-17.2v-3.9c1.6-2.5,4.9-3.8,7-6
	c1.7-2.4-0.5-4.4-2-2.6c-1.2,1.1-2.3,2.2-3.5,3.2c-0.6,0.3-1.1,0.6-1.5,0.9c0-0.3-0.1-0.7-0.2-1.1c0-0.1,0.1-0.1,0.1-0.2
	c2.1-2.2,4.2-4.4,6.3-6.6c1.9-2.4-1.2-3.3-2.6-1.7c-1.5,1.6-3.2,3.1-4.7,4.6c-0.1-1-0.5-1.5-0.6-2.2c1.5-2.2,3.6-3.2,4.2-4.9
	c0.5-1.5-0.6-2.6-3.1-0.7l0,0c-0.1-0.1-0.1-0.2-0.2-0.2c-0.5-1-0.5-1.2-1.5-1.7c0.3-3.9,0.5-5.9,3-8.7c1.2-2.1,1.7-2.9-0.1-4.6
	c0.2-1.4,0.5-2.5-1.2-2.7c0.1-1.6,0-2.9-1.9-2.9c-1-2.5-2.7-2.4-4.8-1.2c-0.8,0.1-1.3,0.2-2.1,0.5c-0.8-2.5,0.7-3.9-0.6-6.4
	c-0.6-0.9-1.2-0.9-1.5-1c-1.5-0.1-1.8,4.2-0.9,5.5c-0.3,5-0.9,8.8,2.6,13c0.1,1.8,0.2,3.2-0.2,4.6c0-0.1-0.1-0.1-0.1-0.2
	c-0.5-3.6-4-1.6-3.5,0.8c-1.2-0.7-2.6-1.7-3.2-1.3c-1.1,0.8,0.7,2.2,0.8,3c0.1,0.6-1.1,0.1-1.6,0.6s-0.3,1.5-0.5,2.5
	c-1.6,2.2-1.1,6-1.8,9.4c-0.3,1.7-1.5,3.1-2.4,4.6c-2.2,4-4.7,8.1-6.9,12.3c-2.3,1.7-4.6,3.2-7.1,4.8c-1-1.7-2.2-2.8-3.9-4.5
	c-7.3-5-13.2-2.3-18.8,5.3c-3.5,3.2-5.7,5.6-6.6,8.1c-0.4,0-0.8,0-1.1,0.1c0.3-2.3,0.3-4.6-1.5-6.2l-2.6-1.9c-2.6-0.9-1.4-4-4.9-8.7
	c-0.4-2.4-0.9-3.2-2.2-5.1c0-2.1,0.2-2.5-1.2-4c0-1.9,0-2.3-1.1-3.9c0.2-4.3-0.2-4.8-3.2-5.9c-1.1-1.5-0.5-5.9-2.6-5.4
	c-1-5.3-2.3-8-1.2-11.3c0.5-1.6,1.4-1.5,1.9-2.5c0.5-0.9,0.6-2.9,0.7-4.9c0-1-0.5-3.6-0.3-5.6c0.2-1.6,0.5-3.3-0.1-4.2
	c-0.9-1.5-2.9-1.3-2.7,1.5c0.1,1,0,3.1-0.1,3.7c-0.3,0.9-0.5,1.9-0.9,1.9c-1.9,0.1-4.6-2.8-5.4,1.4c-2.1-0.4-1.9,0.5-2.2,2.2
	c-1.1,1.1-1.3,1.9-0.6,3.2c-1.3,2.2,0.7,3.6,1.3,5.6c0.2,1.4,0.9,2.9,1.2,4.4c0.5,2.7,0.5,5.3,0.9,7.9c-2,1.7-3.9,2.3-4.1,3.2
	c-0.1,0.4,1.2,0.9,1.8,1.9c2.6,5.1-2.2,3.7,0.8,10c1.2,3.7,0.6,5,3.8,10.4c2.2,4.7-2.2,3.4,0.9,10.4c0.1,0.5,0.2,0.9,0.4,1.3
	c-2-0.2-4.1-0.2-6.4,0.7c-2.2,0.8-3.9,1.6-6,2.8c-1.5-2.5-3.2-3.7-5.9-4.7c-1.2-2.7-0.3-5.9,0.9-9.4c0.9-1.2,1.4-2.1,1.9-3.4
	c1.9,1.8,1.5-0.2,2.3-1.5c0.9-1.2,1-2.8,0.7-4.3c0.9-3.5,0.9-6,0.1-8.2c0-5.9-1.4-9-5-12.8c-5.3-4.6-11.1-6.7-17.2-3
	c-3.5,2.1-7,4.3-7.9,8.4c-1.4,1.9-1.2,5-0.7,9.7c-0.6,2.3-0.8,3.1-0.1,5.3c0,1.5-0.2,1.9,1,2.9c-0.3,1.2,0.8,1.1,0.7,1.8
	c-0.3,1.4,1.2,2.3,1.9,0.7c0.9,2.2,0.3,4.2-0.2,6.3c-0.5,1.4-0.5,4.9-1.9,4.8c-3-0.3-5.7,1-7.5,0.7c-2.6-0.4-2.2-4.7-8.4-5.1
	c-1.8-0.5-3.6-1.2-5.4-1.9c0-1.3,0.1-2.2,0.5-2.9c1.9-3.2,3.6-8,3.5-12.4c1.4-1.9,2.2-3.5,2.8-5.7c0.2-0.9,0.5-1.7,0.2-2.2
	s-1.5-0.9-1.8,0.5c-0.3,1.2-0.7,2.2-1.3,3.3c-0.5,0.8-0.9,1.5-1.3,2.4c-0.5,0.7-1,0.4-1-0.4c0.9-2,1.5-4,1.9-6.2
	c0.3-1.2,0.8-2.7,0.6-3.6c-0.2-1-1.3-1.2-1.9-0.6c-0.2,0.3-0.4,0.9-0.5,1.5c-0.1,1-0.4,1.9-0.6,2.8c-0.3,1.2-0.9,2.4-1.2,3.6
	c-0.9,3-1.3,0.9-0.8-0.8c0.3-1.4,0.7-2.9,0.9-4.3c0.5-2.6,1.1-3.1,0.8-3.9c-0.3-0.9-1.9-1.1-2.2,0.2c-0.3,1.1-0.8,2.4-1.1,3.5
	c-0.2,0.5-0.7,2.2-1,3.8c-0.1,0.5-0.2,1.2-0.2,1.5c0,1.2-0.4,1.5-0.6,0.5c-0.7-2.9,0.1-6.7-0.1-8.2c-0.2-1.8-2.2-1.5-2.2,0.2
	c-0.1,1.5-0.3,3.1-0.4,3.7c-0.2,1.7-0.2,3.4,0.1,5.3c0.2,0.9-0.2,2.2-0.3,3.2c-0.2,0.5-0.6,1.8-1,2.2c-0.3,0.3-1.4-1.1-1.5-1.3
	c-1.9-4.3-5-3.9-5.3-2.8c-0.2,0.8,1.5,0.9,2,2.2c0.2,0.5,0.2,0.9,0.7,1.5c0.4,0.5,1.2,1.3,1.5,1.7c0.5,2.2,2,4.6,3.9,6.2
	c0.2,1.5,0.1,2.9-0.2,4.4c-1.9,0-3.8,0.1-5.5,0c-7.5-0.3-7.4-6.2-19.9-10.8c-3.2-7.8-8-12.3-14.4-17.6c-3.9-4.6-6.9-10.1-8.3-15.8
	c-0.2-2.4,3.1-5.6,3.3-7.3c0.2-1.3-0.1-2.8,0.3-3.5c0.3-0.6,0.8-3.5,0.2-4.8c-0.9-2.4-0.5-3.2-0.5-4.3c0.1-1.8-1.5-1.4-2.3,0.3
	c-0.9,1.7-1.2,4.9-0.8,6.7c0.5,2.5-1.6,5.1-2.3,6.2c-0.6,0.9-1.5-3.5-1.9-4.5c-1.3-5.7-2.6-9.9-4.1-12.9c-0.5-0.9-1.5-2.6-2.5-2.8
	c-2.6-0.6-0.9,3.1-0.5,4c0.9,2.2,1.7,4.3,2.2,6.5c0.8,3.9-1.2-0.2-1.9-2.3c-0.2-0.5-1.8-4-3.1-6.2c-1.2-1.9-2.7-1.3-2.6,0.2
	c0.3,3,3.8,10.2,4,10.9c0.5,2.2,1,3.6-0.5,0.6c-1.2-3.2-2.9-6.2-4.3-9.4c-0.8-1.9-3.5-1.7-2.9,0.5l1.1,3c0.7,2,1.1,3.5,2.6,7.3
	c0.6,1.5,1.6,4.1-0.9,2.4c-0.3-0.7-2-0.4-3.4-2.2c-1.8-2.3-0.9-3.8-2.7-3.6c-3.4,1.6,2.8,7.8,4.6,8.8c2.4,2.4,1.5,4.3,2.8,7.2
	l2.2,2.7c3.8,2.2,3.7,3.8,5.3,7.9c3.1,9.7,7.7,18.9,14.1,26.1c3.9,4.5,3.9,2.4,7.1,6c3,3.5,9.4,8.1,13.4,10.6c4,2.2,8.1,5,12.4,6.9
	c-0.4,0.9-0.8,1.6-1.1,2.6c-0.4,1.4-0.3,2.2-0.2,3.6c0,1.3,0.1,2.2,0.5,3.4c-0.4,0.2-0.6,0.3-0.9,0.5h-2.6v2.8
	c-0.1,0.2-0.2,0.2-0.2,0.3c-0.7,1.1-1.3,1.9-1.6,3.2c-0.9,0.7-0.9,0.7-0.9,1.8c-0.8,1.6-0.8,2.9-0.9,4.6c-2.3,2.1-3.1,2.7-3.9,4.2
	c-0.5,1,0.2,1.2-0.6,3.4c-2-0.5-1.2-0.3-2.2-0.1c-1.8-0.8-3.4,0.1-5,0.8c-2.1-0.5-2.9,0.9-3.4,0.7s0.2-1-0.2-1.4
	c-0.2-0.1-0.5-0.2-0.8-0.1c-1.2,0.3-0.5-0.2,0-0.8c2.9-3.2,2.4-6.8,2.5-10.8c-0.2-6-3-11.1-7.7-13.1c-4.7-2.1-11.5-0.6-14.6,5.6
	c-1.3,2.7-1.2,5.9-1.3,8.8c-0.1,1.2,0,1.9,0.3,3.1c0.1,1.6,0.3,5.3,1.9,5.4c0.5,0,0.5,1.1,1.1,1.2c0.4,1.9,0.1,0.7-1.3,1.2
	c-0.5,0.2-1.4,0.8-1.2,1.2c0.4,0.9,0.5,1.8-0.1,1.2c-3-2.6-2.6-1.6-4-2.4c-1.5-0.9-2-1.2-3.7-1.4c-1.2-0.1-1.1,0.1-1.9,1
	c-0.7-0.8-1-1-2-1.3c-0.2-1.1-0.7-1.9-1-3c0.3-2.7,0.2-3.5-2.4-3.8l-1-1.5c-0.8-1.4-1.1-1.9-2.4-2.8c-0.2-0.9-0.4-1.5-0.9-2.3
	c0.2-1.5,0-1.9-0.6-3.2c-0.5-1.3-1-2.4-1.6-3.6l-0.9-1.9c-0.3-1.2-0.5-1.2-1.5-1.9c0.6-1.6,1.3-2.9,0.2-4.3
	c-0.2-1.5-0.3-3.1-0.5-4.6c-0.1-1-0.1-1.6-0.5-2.6c0.1-1.2,0.2-1.5-0.6-2.4c0.5-0.9,0.4-0.9-0.2-1.7c-0.9-0.7-0.9-0.8-1.9-0.7
	c-1.9-1.5-1.2-2.4-2.4-3.1c-0.4-0.8-0.4-1.1-1.2-1.3c0.1-1.4,0.1-2.6-0.1-3.9c-0.2-0.9-0.4-1.3-0.1-2.2c0.6-0.9,1.1-1.7,1.5-2.7
	l0.8-1.2c0.4-0.6,0.5-0.9,0.6-1.7l0.2-1.2c0.2-0.7,0.3-1.5,0.6-2.1c0.4-0.7,0.6-0.6,1.2-2.2c1.5-1.5,0.7-2.5-0.5-2
	c-1.7,0.5-2.6,2-2.7,3.1c-0.6,1.8-1.6,3-2.2,3c-0.8,0-1.9-1.9-2.6-3l-0.1-0.9c-0.1-2.1,0.2-4.3,0.2-6.3c-0.1-1.4-0.1-2.8-0.1-4.2
	c-0.2-1.5-1.9-1.3-2.1-0.1c-0.1,1.4-0.2,2.9-0.3,4.2c-0.1,0.9-0.3,1.2-0.2,2.5l-0.1,1.6c-0.5,2-0.5-1.2-0.4-1.7
	c0-1.5-0.2-2.7-0.5-4.1l-0.5-2.4c-0.3-1.9-2.2-1.7-2.2-0.5c0,0.6,0,1.5,0.2,2.2c0.4,2.2,0.1,4.3,0.7,6.4c0.2,1,0.5,1.5,0.1,1.6
	s-0.7-1.4-0.9-2.6c-0.2-1.7-0.5-3.2-0.5-5c0-1.6-1.7-1.8-1.9,0c0,2.9,0,5.6,0.9,8.4c0.4,1.4,0.2,2.2-0.2,2.2
	c-0.6-0.1-2.6-4.2-2.8-4.8c-0.5-1.6-1.5-2.2-2.1-1.4c-0.5,0.9,0.5,3.5,1.8,6c0.3,0.6,0.9,1.4,1.2,2c0.5,1,0.1,1.2,0.5,2.2
	c0.5,1.8,1.8,4.4,2.9,6.2c0.5,0.9,1,1.8,1.6,2.6c0.6,1.2,0.5,2.3,0.4,3.6c-1.7,0.1-1.7,0.2-1.9,1.8c-0.2,1.1-0.2,1.8,0,2.9
	c-0.7,1.6-0.7,3.2-0.2,4.9c-0.5,1.9-0.2,3.6,0.3,5.4c0,3.1,0.2,6.3,0.9,9.3c0.3,2.3,0.7,4.5,1.2,6.7c0,1.7,0.1,2.6,0.7,4.2
	c0.2,1.4,0.4,2.1,1,3.3c0.1,1.5,0.4,2,1.2,3.3c-0.3,1.5,0.5,2.9,2.1,5.1c0.9,1.6,1.6,3.2,2.4,4.8c0.3,0.6,0.6,1.2,0.9,1.8
	c-3.2-1.1-6.7-1.7-10.3-1.4c-7-4.5-9.1-1.4-10.1-3.4c-0.7-1.5-1.2-3.3-1.6-6.5c1.5-0.9,1.6-1.9,2.2-3.4l1.5-1
	c2.4-1.4,1.9-1.9,1.9-4.7c1.4-2.4,1.5-2.6,0.8-5.6l0.3-2.7l0.5-3.6c-0.2-4-3-6.7-5.7-9c-3.2-2.6-1.7-3.4-11-3.1
	c-5.5,0.2-9.7,6.9-11.1,14.8c-0.5,2-0.8,3.6-0.9,5.7c0.1,2.9-0.2,5,2.4,6.8c0.1,1.8,0.3,2.6,1.1,4.2l0.1,3.2
	c0.2,1.5,1.4,9.4-2.2,6.1c-3.6-5.4-6.2-6.7-12.8-8.4c-2.8-0.3-3.4-0.5-5.5-2.4c-8.3-6.8-12.8-3.9-13.7-8.6c-0.3-1.5-0.9-3.1-1.4-5
	c0-0.2,0.1-0.5,0.1-0.9c1.9-7.3,0.5-15.4-0.2-22.8c0.4-2.6,1-5,2.8-7.6c2.5-3.3,4.3-6.3,6.3-10c2.5-3.9,4.4-6.6,5.3-11.2
	c7.8-0.2,6.3,9.8,16,3.1c10.8,3.2,8.1-1.9,10.5-12.1c3-4.2,5.7-0.7,9.1-4.6c6.3-1.4,6-0.6,5.7-7.1c8-7.4-5.6-5.3-4.9-8.3
	c2.5-11.3-7.4-8.2-11.6-1c-13.8-5.2-11.8-5.4-17.1,8.4c-7.5,7.7-10.8-13.1-13.1,13.4c-0.3,3.2-3.5-0.8-4.4,7.7
	c-3.9,1.8-4.3,2.6-5.4,5.8c-0.2-0.3-0.2-0.7-0.5-1c-0.5-1.6-1.2-2.3-2.9-1.9c-1.5-1-1.4-1.2-3.1-0.5c-1.8-0.9-2.3-0.7-3.4,0.5
	c-1.7-1.1-4.2,0.9-2.5,2.4c-0.9,0.6-0.9,1.2-1.2,2.2c-0.8,2.8-0.8,2.6,1.2,4.7l0.9,1l1.4,1.2c1,1.1,1,1.4,1.2,2.9
	c0.1,4,0.3,7.9,0.1,11.8c-0.3,1.2-0.6,2.3-0.9,3.5c-1.8,6-3.6,11.5-4.1,17.8c-0.1,1.3,0,2.6,0.2,3.9c-0.1,0-0.1,0.1-0.1,0.1
	c-4.1,3.6-6.7,8.1-8.8,12.9c-1.3,1.9-1.9,2.1-4,2.9c-3.6,1.2-6.7,4.6-9.4,7.2c-0.8,0.6-3.2,2.7-4.1,3.1c-0.2,0.1-0.1-1.7,0.3-3.3
	c0.5-1.9,1.1-3.7,1.2-4.1c0.2-1.2,0.6,0.3,1.4,0.1c0.5-0.2,1.3-1.5,1.6-3.1c0.7-1.5,0.8-3.8-0.8-4c0.6-1.2,0.5-1.7,0.4-3
	c0.5-3.3,0.3-6.7-1.3-8.4c-2-3.3-2.3-4.8-6.2-5.6c-2.2-0.2-3.8-1.9-4.9-0.5c-1.3-0.1-1.8-0.1-3,0.5c-3.1-0.2-4.4,1.3-5.2,3.9
	c-0.9,0.9-2.7,2.2-1.9,2.4c-0.3,0.6-0.3,0.8-0.2,1.5c-0.6,1.3-1.7,2.6-0.9,3.4c0,1.2,0.2,4.1,0.4,4.9c0.1,0.2-1-0.2-1.4,0.5
	c-0.2,0.5-0.2,2.1,0.7,3.7c0.6,1.6,0.5,2.9,2.6,2.2c0.2,2.5,0.7,5.8,0.7,7.8c0,1.6-1.9,1.6-3.4,1.1c-1.2-0.5-1.9-1.4-2.2-1.6
	c-2.6-3.2-5.5-5.6-8.7-7.7c0.3-1.9,0.2-3.6,0.1-5.8c0.3-3.5,0.7-6.5,0-9.9c1.4-4.3,0.3-10,0.8-14.6c0.4-2,0.5-2.2-0.5-4
	c-1.4-2.3,0.2-5.2-2.6-6.2c0.2-2.6-0.2-4.2,0.9-6.5c0.8-3.6,2.1-8.3,0.1-10.7c-0.9-1.6-1.4-2.4-3.2-1.9c-1.1-1.5-1.6-1.5-3.2-0.8
	c-1.2-0.9-2.9-1.2-3.8,0.2c-2.6-0.7-3.3,1.2-3.2,3.5c0,2.7-2,2.6-0.5,5.4c1,1.1,1.9,2.2,2.9,3.3c0.5,0.4,1,0.5,1.2,1.1
	c0.5,1.5-0.4,1.6-0.1,5.3c-0.9,0.8-1.2,1.2-1.6,2.3c-1,0.4-0.8,0.5-0.9,1.5c-1.4,0.4-1.5,0.6-2.3,1.8c-1.6,1.2-0.7,2-0.9,3.5
	c-0.1,0.7-0.6,0.8-0.8,1.4c-0.2,0.9,0.1,2.2,0,2.9c0.2,1.2,0.2,1.6-0.1,2.9c-0.7,1.9-1,3.7-1.3,5.6c-0.3-0.2-0.4-0.2-0.3-0.7
	c0.2-2.5,0.1-5.2,0.1-7.7c-0.2-3.9-0.8-8-1.5-11.5c-0.9-5-0.2-10-0.2-15c0.1-1.6-0.1-2.9,0.8-4.3c1.8-0.9,2.8-2.2,3.6-4.6
	c1.4-1.3,2.6-2.3,0.8-4.1c0.5-1.4,0.7-2.2-1-2.8c-0.1-1.2-0.1-1.5-0.8-2.4c2.4,0,1.7-1.2-0.3-1.9c-1.5-0.9-1.4-0.9-2.8,0.2
	c-2.6,1-4.2,2.6-5.3,5.2c-0.2,0.3-0.2,0.5-0.2,0.9c-1.4,0.1-1.3,0.1-2.2,0.9c-1.9,0.2-1.9,1.2-2.4,2.9c-0.2,0.5-0.3,1.1-0.3,1.6
	c-6.3,2.9-12.6,5.1-19.6,6.3c-4.8,0.5-8.2,1.2-12.6,3.4c-4.3-0.6-8.1-0.4-12.4,0.4c-1.9-0.8-2.4-0.7-4.4-0.4c-1.2-1.4-1.2-1.2-3-0.9
	c-2-1.5-2.4-1.9-4.9-1.8l-2.1-0.8l-4-1.3c-4.4-1.7-1.7,2.2-6.8,0.1c-0.5-1.7-1.4-1.4-3.2-1.8c-1.2-2.9,2.2-5,2.2-8.2
	c0.9,0.4,1.2,0.2,1.6-0.5c2.5-4.2,7,1.6,4.5-9c0.9-4.2,1.5-7-2.4-10.1c-7.3-4.6,0.4-9.7-15.6-10.2c-6.1,0.6-9.6,1-10.9,8.1
	c0.1,3-0.2,3-2.3,5.1c-1.3,2.4,1.1,6.7-1.9,7.5c-5.5,1.7-1.8,7,3.2,8.3c2.7,0.1,2.1,3.2,2,5.6c0.2,5.7-1.3-1-5.3,2.6l-0.7-1.7
	c-1.5-2.6-3.6-7.2-7.3-4.6c-1.5-0.4-2.7-0.7-3.9-0.9c0.1-2.2,0-4.3-0.2-6.4l-0.3-4c0.3-1.6,0.3-3.1,0.4-4.7c-0.1,0-0.4-0.5-0.8-0.8
	c-0.2-0.2-0.7-0.1-0.7-0.1c-0.2-0.1-0.6-10.6-0.5-12.4c0.4-0.9,0.7-1.8,1-2.8c0.2-0.7,0.5-1.5,0.8-2c0.2-0.4,0.4-1.2,0.5-1.5
	c0.4,0,1-0.2,1.2-0.7c0.1-1.5-0.2-2.9,0.3-3.6c1-1.5,2.4-2.9,2.1-4c-0.1-0.5-0.9-0.5-0.9-0.9c0-0.2-0.1-1.2,0.2-1
	c6.4,2.9,12.4,5.3,18.6,6.9c2.6,0.6,5.3,0.8,8,1c2.9,0.3,5.6,1,8.7,1.2c0.7,0.2,1.4-0.1,2.2,0.2c1.5,0.5,3.1,0.9,4.7,1.2
	c1.9,0.1,3.8,0.8,5.8,1.2c3.7,0.9,7.1,0.9,7.3-0.5c0.1-0.4-0.2-0.9,0-1.5c0.2-0.5-0.2-1.1-0.2-1.8c0.1-1.3-0.2-2.9-0.2-4.6
	c0-3.8,0.5-8,0.7-10.7c0.3-2.5,0.8-4.4,0.1-4.9c-0.5-0.3-1.5,0.1-3.5,0.2c-0.5,0-1-0.2-1.5-0.2c-8,0.2-16.1,0.4-24.1,0.5h-5.2
	c-8.1-0.1-16.2-0.6-24.4-0.6c-3.6,0.3-6,0.5-8.3,1.2c-0.5,0.2-0.5,0.7-0.9,0.9c-1.1,0.4-1.8,1.5-3.6,3.5c-0.2,0.7-0.6,1.2-0.5,1.6
	c0.4,0.9,0.6,1-0.7,1.1l-2.2,1.9c-1,1.2-2.6,2.3-2.9,3.6c-0.2,0.8,0.1,1.6-0.2,1.9c-0.5,0.6-2.6,1.7-0.9,1c0.4,0.4,0.9,0.5,0.9,0.9
	c0,0.3-1.2,1.7-2.1,2.7c-0.5,0.5-0.7,1.1-0.5,1.2c0.3,0.3,1.4,0.1,1.8,0.5c0.6,0.8-0.9,1.3-1.4,2.2c-0.2,0.2,1,0.1,0.6,0.3
	c-0.1,0.1,0.5,0.5,0.5,1.1c0,0.5,0.5,1.2,0.9,1.5c0.2,0.1,0.3,0.9-0.1,1.5c-0.2,0.3,0.7,0.4,0.7,0.4c0.3,0.1,1.3,1.8,1.3,1.8
	c-0.1-0.1,0.2-0.4,0.5-0.2c1.1,0.9-0.2,1.3,1.6,0.6c0.1,0,1.1,0.5,1.2,0.2c0.2-0.7,0.6,0.4,0.9-1c0.2,0.9,0.1,0.9,0.8,0.2
	c1-1,0.4,0.4,1.2-0.2l1.2-1.8l-0.2,1.5l0.1,5.6l-0.3,3.6c-0.2,0.2-0.7,0.1-0.8,0.5c-0.4,3.1-0.2,6.7-1.7,9.4
	c-1.2,1.4-1.4,3.1-0.5,4.4c0,0,0,0,0,0.1c-0.7-0.2-1.3-0.2-2.7,0.3l-0.8-1.4c-3.7-2.6-7.4-5.1-11.4-7.3c-3.4-4.3-6.3-6.8-10.6-10.1
	c-4.1-2.6-8.4-5.1-11.8-8c-2.9-2.6-5-5.6-8-8.7c-1.5-1.6-4.3-3.6-3.7-6c0.5-1.9,0.9-3.5,1.1-5.4c0.2-2.1-1.8-3.7-3.2-5
	c-0.5-0.8-0.9-1.9-1.5-2.1v25c1,1.1,1.9,2.2,2.9,3.2c2.9,3.9,5.9,7.7,8.9,11.6c5.8,7.6,11.7,11.8,19.8,16.9
	c3.1,3.8,6.7,6.7,10.4,9.9c1.1,1,2.1,1.9,3.2,2.8c-0.2,0.2-0.4,0.2-0.5,0.5c-0.4,0.4-2.3,0-3.9,0.5c-1.9,0.5-2.1,3-3.9,3
	c-1.4,0.9-2.2,1.7-3.3,2.1c-1.3,0.5-2.5,0-3.1,0.4c-1.1,0.7-2.2,2.1-3.1,1.9s-1.8,0.4-2.5,0.7c-1.4,0.6-3.4,0.2-5,0.5
	c-0.5,0.4-1.5,0.9-2.2,1.5c-0.5,0.5-0.5,1.5-1,1.2c-0.6-0.3-0.6,0.3-1.1,0.6c-0.5,0.5-0.8,1.1-0.9,1c-0.5-0.3-0.9-1.2-1.4-1.4
	c-0.5-0.2-1-0.1-1.5-0.5c-0.9-0.9-1.4-2.2-0.9-3.2c0.5-1.2,2.5-3.9,2-5c-0.2-0.5-0.8,0.3-0.8-0.8c1.5,0.9,2.3-2.2,2.5-4.7
	c0.1-1.2-0.1-4.2-1.6-2.2C15.9,472,12.6,464.4,4.8,462.7z M765.9,531.2c1,0.8,1.6,0.5,2.1-0.1c2.6,3.2,5.4,6,8.7,8.1
	c0,0.1,0,0.2,0,0.3c-2.3,0.6-2.9,1.2-4.6,3c-1.4,0.1-1.7,0.2-2.8,1c-1.2-0.8-1.2-0.7-2.5-0.3C764.9,541,765.6,534.2,765.9,531.2z
	 M739.1,539.7c0.1-0.2,0-1.2,0.1-1.4c-0.2-2.7,0.4-3.8,0.5-5.6c1.3,1.1,1.2,1.2,2.7,0.5c0.2,2.6,1.5,2.9,2.2,4.5
	c0.9,2.2,1.5,4.9,2.2,7.1c0.5,2.7,0.5,3-0.9,5.4c-1.1,0-1,0-1.5,1c-1.4-0.2-1.6-0.2-2.8,0.5l0.2-2.1c-0.2-0.9,0-0.6-0.2-0.9
	c-0.6-1-1.6-0.8-3.2-1.5C738.8,544.7,738.5,542.4,739.1,539.7z M720.2,505.7c-0.2,0.7-0.3,1.4-0.5,1.9c-0.5,1.9-1.8,6.9-2.2,6.8
	c-0.5-0.9-1-1.7-1.5-2.1C717.4,510.2,718.8,507.9,720.2,505.7z M620.7,536.1c0.5-1.9,1-4,1.7-5.7c0.5-1.3,1.6-1.5,1.8-3.6
	c1.2,0.5,1.1,0.5,2.2-0.5c0.2,1.5,0.6,2.3,0.5,4.5c0.1,0.2,0,1,0.1,1.2c0.3,1.4,0.3,2.7,0.3,3.9c-2.3,1.3-4.5,2.3-6.5,3.2
	C620.3,538.3,620.5,537.7,620.7,536.1z M564.7,514.4c0.3-0.2,0.6-0.4,0.9-0.6c0.2,0.4,0.2,0.7,0.4,1.1c-0.5-0.2-0.8-0.2-1.6,0.5
	C564.6,515,564.6,514.7,564.7,514.4z M562.2,518.1c0.8,0.2,0.5-0.2,0.8-0.9l0.4,0.6C563.2,519.1,561.9,519.9,562.2,518.1z
	 M291.4,550c3.4,1.2,3.7,1.4,4.3,2.4c0.8,1.1,0.2,3.1,0.5,5c-0.5,2.5-0.5,4.6-0.2,6.8h-4.7L291.4,550L291.4,550z M271.7,539.1
	c0.3-0.5,0.6-1.2,0.9-1.8c0.9,0.9,1.7,1.8,2.6,2.6h-3.9C271.4,539.6,271.6,539.4,271.7,539.1z M112.7,532.6c1.5-9,3-19.9,10.1-26.3
	c2.6,0.1,2.4-2.3,6.4-2.1c2.2-1,5-0.8,7.8-1.3c3.2-0.6,6.4-2.1,9.3-3l3.2-0.2c9.4-1.6,17.4-6.4,25.4-11.4c1.3-0.8,2.6-1.5,3.9-2.2
	c0,0.5,0,0.9-0.1,1.5c-0.1,9.6-3.9,24.2-1,34.2c0.2,0.9,0,1.3,0.2,1.7s0.7,0.6,1.2,1.4c0.5,0.9,1,2.2,1.4,3c1.3,2.6,2.6,5.3,3.9,7.9
	c-0.7,1.9-0.9,3.9-1.2,5.8c-1.8,2.6-3.5,5.4-3.4,7.7c0.1,1.2-1.3-2.2-2.6,0.8c-1.6-0.2-2.6-0.2-4.2,0.2l-1-0.1
	c-0.3-1.2-0.5-0.9-1.6-0.8l0.2-2.1c2.6,0.2,2.5-2,2.5-3.8c0.4-1.4,1.2-4.4-1-4.3c0.2-1.7,0.3-3.2,0.3-5c0-1.5,0.5-2.4-0.8-3.4
	c-1-3.1-1.9-4.5-4.8-5.8c-1-0.9-1.5-1.3-2.9-1.7c-1.8-1.1-1.9-1.2-3.9-0.9c-2.7-0.6-3.9-0.7-6,1.1c-2.2,0.5-2.3,0.3-3.2,2.2
	c-2,1.9-2.7,3.1-3.4,5.7c0.2,2.3-1,1.8,0,6.4c0.2,1.3,0.4,1.9,1.2,3c-2.3-0.6-2.2,0.9-1.8,2.5l0.5,1.2c0.4,0.9,0.6,1.6,0.9,2.5
	c0.5,1.4,0.5,2.2,2.2,1.5c0.2,0.8,0.5,1.9,0.8,2.6c-3.6,1.5-5.7,0.3-4.2,4.7c0.5,1.2-0.5,0.9,0.4,4.8c-1.2,0.7-1.7,0.9-2.5,2.2
	c-7.3,2.7-11.5,3.5-17.8,15.2l-0.5,1.8c-0.5,1.2-0.6,2-0.8,3.3c-1.2,1.8-2.2,3.6-3.2,5.4c-1.1,1.5-1.6,2.2-1.9,4.2
	c-0.7,0.8-0.9,1.6-0.9,2.6c-0.2-1-0.5-1.9-0.9-3l-0.7-3.9c-0.2-3.3-0.5-4.6-2.1-7.5c0.4-1.7,0.7-1.8-0.5-3.1
	c-0.5-1.6-0.3-2.2-1.9-2.9c0.1-2.4,0.1-2.7-1.3-4.6c-0.3-1.1-0.5-1.6-1.2-2.5l0.3-5.3c0.6-3.6,2.9-7.3,0.9-10.4
	c-0.5-0.7-1.6-1.3-1.5-2.2C111.6,544.4,112.3,537.6,112.7,532.6z"/>
<path d="M315.5,377.7c1.7,1.7,3,2,5.4,2.6c8.8,9.8,18.3,21.7,30.2,28.1l3.8,3.1c6.6,5.4,11.8,12.1,18.6,17.2
	c0.2,1.9,0.6,2.2,2.7,2.5c3.1,2,4.3,3.2,6.3,6.3c2.7,5.3,3.3,10.8,3.8,17.2c-0.2,1.6-0.1,3.7,0.5,6.5c0.1,5.7,0,11.5-0.1,17.2
	c-1,2.4-1.1,4.7-1.2,7.2c-1.5,5.2-1.9,5.8,4.8,6c-0.5,1.9-0.9,3.3-1,5.3c-0.9,1.9-1.2,3-1.5,5.1c-1,2.8-1.3,5.5-1.6,8.4
	c-2.6,15.3-3.2,30.6-3.3,46.1c-0.5,3.8-1.2,4.6,2.8,6c0,4.1,0.9,8.5,0.6,13.1c-0.7,1.9-0.8,3.1-0.8,5.2c-3.1,6.6-2.5,15.4-1.3,24.4
	h15.9c0.6-3.4,1-6.5,1-9.1c-0.1-2-0.2-5-0.4-7.8c-0.2-3.2-0.5-6.4,0.3-8.4c3-5.6,3.9-9.8,3.5-16c5,0.1,8.9,1.1,8.5-4.3
	c-0.1-3.8,0.1-2.6,1.9-0.1c-0.2,2.2-0.6,3.6-0.4,5.7c-1.2,7.5,3,13.2,2.2,20c-1.9,6.7-2,13.1-1.4,19.9H431
	c1.8-8.7,2.9-17.9,0.6-25.1c0.6-0.9,0.1-2.6-0.5-5.3c0.3-1.5,2.7-5,2.9-8.1c0.3-5.1,0.9-5.3,2.5-5.3c5.1-0.2,1.5-52-0.3-60.9
	c-0.2-1.7-0.6-2.2-1.6-3.7c0.2-3.1-0.3-6.6,2-5.1c3,0.6,2.4-1.7,1.7-4.9c-0.6-3-1.3-6.7-1.7-8.4c1.6-6.3,2-12.4,2.5-18.8
	c0.9-5.3,2.5-7.3,3.7-11.8c1.2-4.1,1.8-7.7,3.3-9.2c2-0.5,1.9-0.6,2.9-2.5c2.4,0,2.6,0.3,4.1-1.6c8.9-4.4,16.7-9.7,24.5-15.9
	c2.8-0.8,5.3-2.2,8-3.6c7.1-3.9,11.9-8.7,17.2-13.4c3.2-2.9,6.6-4.5,8.5-7.3c3-1,5.3-2.9,8.1-4.8c1.9-1.9,3.6-3.5,1.5-6
	c0.9-1.1,2.2-2.8,1-4.3c0.7-1.7,0.9-2.9,0.1-4.6c-0.2-1.2,0.6-6-1.8-4.5l5.2-86.9l-205.8-11.6l-4.1,84.1c-2.7-1-1.5,4-0.1,4.3
	l0.1,0.6c-0.9-0.2-1.1-0.2-1.9,0.1c-2.4,0.9-1.5,2.3-0.8,4.3l0.4,0.6c-1.1,1.7-0.9,2.2-0.5,4.3C311.3,373.2,312,376.3,315.5,377.7z
	 M506.4,387.2l0.9,0.1l-2,1.8c-3.9,3-8.9,6.5-13.4,8.4c-7.8,3.1-14.6,5.6-20.6,11.2c-6.7,1.8-12.3,5.2-18.8,7.7
	c-1,0.3-0.6,1.3-2,0.9c-1.2-0.6-1.1-0.5-2.1,0.3c-2.2,0.2-4.3,0.2-6.3,1c-3.2,0.3-5.1,0.8-8.4,2.6c-3-0.4-4.8-1.2-7.3,0.5
	c-1.9-1-2.3-1.2-4.4-1c-0.1-3.5,0.4-6.7,1.1-10.1c4.2,2.1,6.5-13.8,1.3-7.7c0.6-2.6,1-4.9,1.2-7.5c-0.4-15.9-25.5-16.9-24.4,1.7
	l0.3,4.2c-4.9-1.9-1.6,9,1,8.7c0.7,3.1,2.2,6.5,2.6,9.4c-1.1,0.9-1.1,1.1-1.5,2.5c-0.7-1.5-1-1.9-2.3-2.9c-1.3-0.7-5-3.7-5-0.6
	c-4.1-2.5-6.5-3.4-10.1-3.5c-0.7-0.9-0.5-1.1-1.6-0.6c-2.4-0.8-3.2-1.1-5.5-2.2c-0.9-1.4-1.4-1.9-2.6-1.7c-4.6-3.6-9.6-6.4-15.1-8.7
	c-4.6-5.8-10.8-9.7-18.2-13.9c-3.6-2.2-6.7-4.3-9.7-7.1l-3.3-3L506.4,387.2z"/>
<g>
	<path fill="#292D2D" d="M344,304.6v-0.1c0.4-11.1,9.5-19.5,21.3-19.1c6.7,0.3,11.4,2.5,15.3,6.2l-6.5,7.2c-2.6-2.4-5.3-3.8-9.1-4
		c-5.5-0.2-9.9,4.3-10.2,10.1v0.1c-0.2,6.2,3.9,10.8,10,11c2.6,0.1,4.5-0.4,6.2-1.4l0.2-4.6l-7.5-0.3l0.3-7.8l17.6,0.7l-0.7,17.2
		c-4.2,3.2-9.9,5.5-16.8,5.3C352.1,324.7,343.6,316.2,344,304.6z"/>
	<path fill="#292D2D" d="M387.1,295.7l10.4,0.4l-0.2,5.9c1.8-4,4.7-6.5,9.6-6.1l-0.4,10.9h-0.9c-5.4-0.2-8.6,2.8-8.8,9.6l-0.3,9.2
		l-10.4-0.4L387.1,295.7z"/>
	<path fill="#292D2D" d="M408.1,311.4v-0.1c0.3-8.6,6.8-15.2,15.5-14.9c10.2,0.4,14.6,8,14.3,16.7c0,0.7-0.1,1.4-0.1,2.1l-19.8-0.7
		c0.7,3.2,3,5,6.2,5.1c2.5,0.1,4.5-0.8,6.7-2.8l5.6,5c-3,3.5-7.2,5.7-13.1,5.5C414.1,327,407.8,320.6,408.1,311.4z M428.3,309.6
		c-0.3-3.3-2.1-5.4-4.9-5.5c-2.7-0.1-4.7,2-5.3,5.2L428.3,309.6z"/>
	<path fill="#292D2D" d="M440.6,318.8v-0.1c0.2-6.1,5-9.1,11.9-8.8c2.7,0.1,5.4,0.8,7.1,1.4v-0.5c0.1-3.1-1.7-4.9-5.7-5
		c-3.1-0.1-5.5,0.4-8.2,1.3l-1.9-7.4c3.4-1.2,7-2,12-1.8c5.3,0.2,8.8,1.6,11.1,4c2.2,2.3,3,5.4,2.8,9.5l-0.6,17l-10.3-0.4l0.1-3.1
		c-2.1,2.2-4.9,3.5-8.8,3.4C444.6,328.1,440.4,324.7,440.6,318.8z M459.5,317.3l0.1-1.4c-1-0.5-2.5-0.9-4-0.9
		c-3-0.1-4.8,1.3-4.9,3.5v0.1c-0.1,2,1.4,3.3,3.5,3.4C457.2,322,459.4,320.2,459.5,317.3z"/>
	<path fill="#292D2D" d="M476.3,319.4l0.5-12l-3.5-0.1l0.3-8.3l3.5,0.1l0.3-7.5l10.4,0.4l-0.3,7.5l6.9,0.3l-0.3,8.3l-6.9-0.3
		l-0.4,10c-0.1,2.1,0.8,3,2.7,3.1c1.4,0.1,2.7-0.3,4-0.8l-0.3,8.1c-1.9,1-4.4,1.5-7.3,1.4C479.7,329.3,476.1,326.5,476.3,319.4z"/>
	<path fill="#292D2D" d="M349.1,354.8L349.1,354.8c0.3-7.5,6.2-13.1,13.9-12.8c5.2,0.2,8.5,2.5,10.6,5.7l-5.5,3.9
		c-1.4-1.9-3-3.1-5.5-3.2c-3.6-0.1-6.2,2.8-6.3,6.5v0.1c-0.1,3.8,2.3,6.9,5.8,7c2.7,0.1,4.3-1.1,5.9-2.9l5.2,4
		c-2.5,3.2-5.9,5.5-11.5,5.3C354.5,368.2,348.8,362.4,349.1,354.8z"/>
	<path fill="#292D2D" d="M376.7,342l6.9,0.3l-0.4,9.6c1.3-1.6,3.2-3,6-2.9c4.2,0.2,6.6,3,6.4,7.5l-0.5,12.9l-6.9-0.3l0.4-10.7
		c0.1-2.1-1-3.4-2.6-3.4c-1.7-0.1-3,1.1-3,3.2l-0.4,10.7l-6.9-0.3L376.7,342z"/>
	<path fill="#292D2D" d="M398.3,359.6L398.3,359.6c0.2-5.7,5-10.2,11.3-10s10.7,5,10.5,10.6v0.1c-0.2,5.6-5,10.1-11.3,9.9
		C402.4,370,398.1,365.2,398.3,359.6z M413.3,360.2L413.3,360.2c0.1-2.5-1.6-4.6-4-4.7c-2.5-0.1-4.2,1.8-4.3,4.2v0.1
		c-0.1,2.4,1.6,4.5,4,4.6C411.5,364.5,413.2,362.6,413.3,360.2z"/>
	<path fill="#292D2D" d="M423.5,350.6l6.9,0.3l-0.7,19.7l-6.9-0.3L423.5,350.6z M423.6,343.7l7.2,0.3l-0.2,5.1l-7.2-0.3L423.6,343.7
		z"/>
	<path fill="#292D2D" d="M433.1,360.9L433.1,360.9c0.2-5.6,4.7-10.2,10.9-9.9c4,0.2,6.7,2,8.2,4.7l-4.8,3.3
		c-0.9-1.3-1.9-2.2-3.6-2.2c-2.2-0.1-3.9,1.8-4,4.2v0.1c-0.1,2.5,1.4,4.5,3.8,4.6c1.6,0.1,2.7-0.7,3.9-1.9l4.5,3.5
		c-1.9,2.6-4.6,4.3-8.9,4.2C437,371.3,432.9,366.5,433.1,360.9z"/>
	<path fill="#292D2D" d="M453.2,361.7L453.2,361.7c0.2-5.8,4.5-10.2,10.3-10c6.8,0.3,9.7,5.4,9.5,11.1c0,0.4,0,0.9-0.1,1.4
		l-13.2-0.5c0.5,2.2,2,3.3,4.1,3.4c1.6,0.1,3-0.5,4.4-1.8l3.7,3.3c-2,2.3-4.8,3.8-8.7,3.7C457.2,372.1,453,367.8,453.2,361.7z
		 M466.7,360.5c-0.2-2.2-1.4-3.6-3.3-3.7c-1.8-0.1-3.1,1.3-3.6,3.4L466.7,360.5z"/>
	<path fill="#292D2D" d="M476.3,366.1l7.2,0.3l-0.2,6.2l-7.2-0.3L476.3,366.1z M476.6,349.9l0.1-3.1l7.9,0.3l-0.1,3.1l-2.6,14
		l-3.6-0.1L476.6,349.9z"/>
</g>
</svg>
