<?xml version="1.0" encoding="utf-8"?>
<!-- Generator: Adobe Illustrator 18.1.0, SVG Export Plug-In . SVG Version: 6.00 Build 0)  -->
<!DOCTYPE svg PUBLIC "-//W3C//DTD SVG 1.1//EN" "http://www.w3.org/Graphics/SVG/1.1/DTD/svg11.dtd">
<svg version="1.1" id="Layer_1" xmlns="http://www.w3.org/2000/svg" xmlns:xlink="http://www.w3.org/1999/xlink" x="0px" y="0px"
	 viewBox="0 0 1024 768" enable-background="new 0 0 1024 768" xml:space="preserve">
<g>
	<rect x="46.7" y="179.2" fill="#81BD30" width="928.5" height="406.2"/>
	<rect x="46.7" y="179.2" fill="#8DCA35" width="77.4" height="406.2"/>
	<rect x="201.4" y="179.2" fill="#8DCA35" width="77.4" height="406.2"/>
	<rect x="356.2" y="179.2" fill="#8DCA35" width="77.4" height="406.2"/>
	<rect x="510.9" y="179.2" fill="#8DCA35" width="77.4" height="406.2"/>
	<rect x="665.7" y="179.2" fill="#8DCA35" width="77.4" height="406.2"/>
	<rect x="820.5" y="179.2" fill="#8DCA35" width="77.4" height="406.2"/>
	<line fill="none" stroke="#FFFFFF" stroke-width="0.75" x1="124.1" y1="179.2" x2="124.1" y2="585.4"/>
	<line fill="none" stroke="#FFFFFF" stroke-width="0.75" x1="201.4" y1="179.2" x2="201.4" y2="585.4"/>
	<line fill="none" stroke="#FFFFFF" stroke-width="0.75" x1="278.8" y1="179.2" x2="278.8" y2="585.4"/>
	<line fill="none" stroke="#FFFFFF" stroke-width="0.75" x1="356.2" y1="179.2" x2="356.2" y2="585.4"/>
	<line fill="none" stroke="#FFFFFF" stroke-width="0.75" x1="433.6" y1="179.2" x2="433.6" y2="585.4"/>
	<line fill="none" stroke="#FFFFFF" stroke-width="0.75" x1="510.9" y1="179.2" x2="510.9" y2="585.4"/>
	<line fill="none" stroke="#FFFFFF" stroke-width="0.75" x1="588.3" y1="179.2" x2="588.3" y2="585.4"/>
	<line fill="none" stroke="#FFFFFF" stroke-width="0.75" x1="665.7" y1="179.2" x2="665.7" y2="585.4"/>
	<line fill="none" stroke="#FFFFFF" stroke-width="0.75" x1="743.1" y1="179.2" x2="743.1" y2="585.4"/>
	<line fill="none" stroke="#FFFFFF" stroke-width="0.75" x1="820.5" y1="179.2" x2="820.5" y2="585.4"/>
	<line fill="none" stroke="#FFFFFF" stroke-width="0.75" x1="162.8" y1="179.2" x2="162.8" y2="585.4"/>
	<line fill="none" stroke="#FFFFFF" stroke-width="0.75" x1="240.1" y1="179.2" x2="240.1" y2="585.4"/>
	<line fill="none" stroke="#FFFFFF" stroke-width="0.75" x1="317.5" y1="179.2" x2="317.5" y2="585.4"/>
	<line fill="none" stroke="#FFFFFF" stroke-width="0.75" x1="394.9" y1="179.2" x2="394.9" y2="585.4"/>
	<line fill="none" stroke="#FFFFFF" stroke-width="0.75" x1="472.3" y1="179.2" x2="472.3" y2="585.4"/>
	<line fill="none" stroke="#FFFFFF" stroke-width="0.75" x1="549.6" y1="179.2" x2="549.6" y2="585.4"/>
	<line fill="none" stroke="#FFFFFF" stroke-width="0.75" x1="627" y1="179.2" x2="627" y2="585.4"/>
	<line fill="none" stroke="#FFFFFF" stroke-width="0.75" x1="704.4" y1="179.2" x2="704.4" y2="585.4"/>
	<line fill="none" stroke="#FFFFFF" stroke-width="0.75" x1="781.8" y1="179.2" x2="781.8" y2="585.4"/>
	<line fill="none" stroke="#FFFFFF" stroke-width="0.75" x1="859.1" y1="179.2" x2="859.1" y2="585.4"/>
	<line fill="none" stroke="#FFFFFF" stroke-width="0.75" x1="897.8" y1="179.2" x2="897.8" y2="585.4"/>
	<g>
		<g>
			<line fill="none" stroke="#FFFFFF" stroke-width="0.75" x1="131.8" y1="183.8" x2="131.8" y2="196.2"/>
			<line fill="none" stroke="#FFFFFF" stroke-width="0.75" x1="139.5" y1="183.8" x2="139.5" y2="196.2"/>
			<line fill="none" stroke="#FFFFFF" stroke-width="0.75" x1="147.3" y1="183.8" x2="147.3" y2="196.2"/>
			<line fill="none" stroke="#FFFFFF" stroke-width="0.75" x1="155" y1="183.8" x2="155" y2="196.2"/>
		</g>
		<g>
			<line fill="none" stroke="#FFFFFF" stroke-width="0.75" x1="170.5" y1="183.8" x2="170.5" y2="196.2"/>
			<line fill="none" stroke="#FFFFFF" stroke-width="0.75" x1="178.2" y1="183.8" x2="178.2" y2="196.2"/>
			<line fill="none" stroke="#FFFFFF" stroke-width="0.75" x1="186" y1="183.8" x2="186" y2="196.2"/>
			<line fill="none" stroke="#FFFFFF" stroke-width="0.75" x1="193.7" y1="183.8" x2="193.7" y2="196.2"/>
		</g>
		<g>
			<line fill="none" stroke="#FFFFFF" stroke-width="0.75" x1="209.2" y1="183.8" x2="209.2" y2="196.2"/>
			<line fill="none" stroke="#FFFFFF" stroke-width="0.75" x1="216.9" y1="183.8" x2="216.9" y2="196.2"/>
			<line fill="none" stroke="#FFFFFF" stroke-width="0.75" x1="224.7" y1="183.8" x2="224.7" y2="196.2"/>
			<line fill="none" stroke="#FFFFFF" stroke-width="0.75" x1="232.4" y1="183.8" x2="232.4" y2="196.2"/>
		</g>
		<g>
			<line fill="none" stroke="#FFFFFF" stroke-width="0.75" x1="247.9" y1="183.8" x2="247.9" y2="196.2"/>
			<line fill="none" stroke="#FFFFFF" stroke-width="0.75" x1="255.6" y1="183.8" x2="255.6" y2="196.2"/>
			<line fill="none" stroke="#FFFFFF" stroke-width="0.75" x1="263.3" y1="183.8" x2="263.3" y2="196.2"/>
			<line fill="none" stroke="#FFFFFF" stroke-width="0.75" x1="271.1" y1="183.8" x2="271.1" y2="196.2"/>
		</g>
		<g>
			<line fill="none" stroke="#FFFFFF" stroke-width="0.75" x1="286.6" y1="183.8" x2="286.6" y2="196.2"/>
			<line fill="none" stroke="#FFFFFF" stroke-width="0.75" x1="294.3" y1="183.8" x2="294.3" y2="196.2"/>
			<line fill="none" stroke="#FFFFFF" stroke-width="0.75" x1="302" y1="183.8" x2="302" y2="196.2"/>
			<line fill="none" stroke="#FFFFFF" stroke-width="0.75" x1="309.8" y1="183.8" x2="309.8" y2="196.2"/>
		</g>
		<g>
			<line fill="none" stroke="#FFFFFF" stroke-width="0.75" x1="325.2" y1="183.8" x2="325.2" y2="196.2"/>
			<line fill="none" stroke="#FFFFFF" stroke-width="0.75" x1="333" y1="183.8" x2="333" y2="196.2"/>
			<line fill="none" stroke="#FFFFFF" stroke-width="0.75" x1="340.7" y1="183.8" x2="340.7" y2="196.2"/>
			<line fill="none" stroke="#FFFFFF" stroke-width="0.75" x1="348.5" y1="183.8" x2="348.5" y2="196.2"/>
		</g>
		<g>
			<line fill="none" stroke="#FFFFFF" stroke-width="0.75" x1="363.9" y1="183.8" x2="363.9" y2="196.2"/>
			<line fill="none" stroke="#FFFFFF" stroke-width="0.75" x1="371.7" y1="183.8" x2="371.7" y2="196.2"/>
			<line fill="none" stroke="#FFFFFF" stroke-width="0.75" x1="379.4" y1="183.8" x2="379.4" y2="196.2"/>
			<line fill="none" stroke="#FFFFFF" stroke-width="0.75" x1="387.1" y1="183.8" x2="387.1" y2="196.2"/>
		</g>
		<g>
			<line fill="none" stroke="#FFFFFF" stroke-width="0.75" x1="402.6" y1="183.8" x2="402.6" y2="196.2"/>
			<line fill="none" stroke="#FFFFFF" stroke-width="0.75" x1="410.4" y1="183.8" x2="410.4" y2="196.2"/>
			<line fill="none" stroke="#FFFFFF" stroke-width="0.75" x1="418.1" y1="183.8" x2="418.1" y2="196.2"/>
			<line fill="none" stroke="#FFFFFF" stroke-width="0.75" x1="425.8" y1="183.8" x2="425.8" y2="196.2"/>
		</g>
		<g>
			<line fill="none" stroke="#FFFFFF" stroke-width="0.75" x1="441.3" y1="183.8" x2="441.3" y2="196.2"/>
			<line fill="none" stroke="#FFFFFF" stroke-width="0.75" x1="449" y1="183.8" x2="449" y2="196.2"/>
			<line fill="none" stroke="#FFFFFF" stroke-width="0.75" x1="456.8" y1="183.8" x2="456.8" y2="196.2"/>
			<line fill="none" stroke="#FFFFFF" stroke-width="0.75" x1="464.5" y1="183.8" x2="464.5" y2="196.2"/>
		</g>
		<g>
			<line fill="none" stroke="#FFFFFF" stroke-width="0.75" x1="480" y1="183.8" x2="480" y2="196.2"/>
			<line fill="none" stroke="#FFFFFF" stroke-width="0.75" x1="487.7" y1="183.8" x2="487.7" y2="196.2"/>
			<line fill="none" stroke="#FFFFFF" stroke-width="0.75" x1="495.5" y1="183.8" x2="495.5" y2="196.2"/>
			<line fill="none" stroke="#FFFFFF" stroke-width="0.75" x1="503.2" y1="183.8" x2="503.2" y2="196.2"/>
		</g>
		<g>
			<line fill="none" stroke="#FFFFFF" stroke-width="0.75" x1="518.7" y1="183.8" x2="518.7" y2="196.2"/>
			<line fill="none" stroke="#FFFFFF" stroke-width="0.75" x1="526.4" y1="183.8" x2="526.4" y2="196.2"/>
			<line fill="none" stroke="#FFFFFF" stroke-width="0.75" x1="534.2" y1="183.8" x2="534.2" y2="196.2"/>
			<line fill="none" stroke="#FFFFFF" stroke-width="0.75" x1="541.9" y1="183.8" x2="541.9" y2="196.2"/>
		</g>
		<g>
			<line fill="none" stroke="#FFFFFF" stroke-width="0.75" x1="557.4" y1="183.8" x2="557.4" y2="196.2"/>
			<line fill="none" stroke="#FFFFFF" stroke-width="0.75" x1="565.1" y1="183.8" x2="565.1" y2="196.2"/>
			<line fill="none" stroke="#FFFFFF" stroke-width="0.75" x1="572.8" y1="183.8" x2="572.8" y2="196.2"/>
			<line fill="none" stroke="#FFFFFF" stroke-width="0.75" x1="580.6" y1="183.8" x2="580.6" y2="196.2"/>
		</g>
		<g>
			<line fill="none" stroke="#FFFFFF" stroke-width="0.75" x1="596.1" y1="183.8" x2="596.1" y2="196.2"/>
			<line fill="none" stroke="#FFFFFF" stroke-width="0.75" x1="603.8" y1="183.8" x2="603.8" y2="196.2"/>
			<line fill="none" stroke="#FFFFFF" stroke-width="0.75" x1="611.5" y1="183.8" x2="611.5" y2="196.2"/>
			<line fill="none" stroke="#FFFFFF" stroke-width="0.75" x1="619.3" y1="183.8" x2="619.3" y2="196.2"/>
		</g>
		<g>
			<line fill="none" stroke="#FFFFFF" stroke-width="0.75" x1="634.7" y1="183.8" x2="634.7" y2="196.2"/>
			<line fill="none" stroke="#FFFFFF" stroke-width="0.75" x1="642.5" y1="183.8" x2="642.5" y2="196.2"/>
			<line fill="none" stroke="#FFFFFF" stroke-width="0.75" x1="650.2" y1="183.8" x2="650.2" y2="196.2"/>
			<line fill="none" stroke="#FFFFFF" stroke-width="0.75" x1="658" y1="183.8" x2="658" y2="196.2"/>
		</g>
		<g>
			<line fill="none" stroke="#FFFFFF" stroke-width="0.75" x1="673.4" y1="183.8" x2="673.4" y2="196.2"/>
			<line fill="none" stroke="#FFFFFF" stroke-width="0.75" x1="681.2" y1="183.8" x2="681.2" y2="196.2"/>
			<line fill="none" stroke="#FFFFFF" stroke-width="0.75" x1="688.9" y1="183.8" x2="688.9" y2="196.2"/>
			<line fill="none" stroke="#FFFFFF" stroke-width="0.75" x1="696.7" y1="183.8" x2="696.7" y2="196.2"/>
		</g>
		<g>
			<line fill="none" stroke="#FFFFFF" stroke-width="0.75" x1="712.1" y1="183.8" x2="712.1" y2="196.2"/>
			<line fill="none" stroke="#FFFFFF" stroke-width="0.75" x1="719.9" y1="183.8" x2="719.9" y2="196.2"/>
			<line fill="none" stroke="#FFFFFF" stroke-width="0.75" x1="727.6" y1="183.8" x2="727.6" y2="196.2"/>
			<line fill="none" stroke="#FFFFFF" stroke-width="0.75" x1="735.3" y1="183.8" x2="735.3" y2="196.2"/>
		</g>
		<g>
			<line fill="none" stroke="#FFFFFF" stroke-width="0.75" x1="750.8" y1="183.8" x2="750.8" y2="196.2"/>
			<line fill="none" stroke="#FFFFFF" stroke-width="0.75" x1="758.6" y1="183.8" x2="758.6" y2="196.2"/>
			<line fill="none" stroke="#FFFFFF" stroke-width="0.75" x1="766.3" y1="183.8" x2="766.3" y2="196.2"/>
			<line fill="none" stroke="#FFFFFF" stroke-width="0.75" x1="774" y1="183.8" x2="774" y2="196.2"/>
		</g>
		<g>
			<line fill="none" stroke="#FFFFFF" stroke-width="0.75" x1="789.5" y1="183.8" x2="789.5" y2="196.2"/>
			<line fill="none" stroke="#FFFFFF" stroke-width="0.75" x1="797.2" y1="183.8" x2="797.2" y2="196.2"/>
			<line fill="none" stroke="#FFFFFF" stroke-width="0.75" x1="805" y1="183.8" x2="805" y2="196.2"/>
			<line fill="none" stroke="#FFFFFF" stroke-width="0.75" x1="812.7" y1="183.8" x2="812.7" y2="196.2"/>
		</g>
		<g>
			<line fill="none" stroke="#FFFFFF" stroke-width="0.75" x1="828.2" y1="183.8" x2="828.2" y2="196.2"/>
			<line fill="none" stroke="#FFFFFF" stroke-width="0.75" x1="835.9" y1="183.8" x2="835.9" y2="196.2"/>
			<line fill="none" stroke="#FFFFFF" stroke-width="0.75" x1="843.7" y1="183.8" x2="843.7" y2="196.2"/>
			<line fill="none" stroke="#FFFFFF" stroke-width="0.75" x1="851.4" y1="183.8" x2="851.4" y2="196.2"/>
		</g>
		<g>
			<line fill="none" stroke="#FFFFFF" stroke-width="0.75" x1="866.9" y1="183.8" x2="866.9" y2="196.2"/>
			<line fill="none" stroke="#FFFFFF" stroke-width="0.75" x1="874.6" y1="183.8" x2="874.6" y2="196.2"/>
			<line fill="none" stroke="#FFFFFF" stroke-width="0.75" x1="882.4" y1="183.8" x2="882.4" y2="196.2"/>
			<line fill="none" stroke="#FFFFFF" stroke-width="0.75" x1="890.1" y1="183.8" x2="890.1" y2="196.2"/>
		</g>
	</g>
	<g>
		<g>
			<line fill="none" stroke="#FFFFFF" stroke-width="0.75" x1="131.8" y1="331.3" x2="131.8" y2="343.6"/>
			<line fill="none" stroke="#FFFFFF" stroke-width="0.75" x1="139.5" y1="331.3" x2="139.5" y2="343.6"/>
			<line fill="none" stroke="#FFFFFF" stroke-width="0.75" x1="147.3" y1="331.3" x2="147.3" y2="343.6"/>
			<line fill="none" stroke="#FFFFFF" stroke-width="0.75" x1="155" y1="331.3" x2="155" y2="343.6"/>
		</g>
		<g>
			<line fill="none" stroke="#FFFFFF" stroke-width="0.75" x1="170.5" y1="331.3" x2="170.5" y2="343.6"/>
			<line fill="none" stroke="#FFFFFF" stroke-width="0.75" x1="178.2" y1="331.3" x2="178.2" y2="343.6"/>
			<line fill="none" stroke="#FFFFFF" stroke-width="0.75" x1="186" y1="331.3" x2="186" y2="343.6"/>
			<line fill="none" stroke="#FFFFFF" stroke-width="0.75" x1="193.7" y1="331.3" x2="193.7" y2="343.6"/>
		</g>
		<g>
			<line fill="none" stroke="#FFFFFF" stroke-width="0.75" x1="209.2" y1="331.3" x2="209.2" y2="343.6"/>
			<line fill="none" stroke="#FFFFFF" stroke-width="0.75" x1="216.9" y1="331.3" x2="216.9" y2="343.6"/>
			<line fill="none" stroke="#FFFFFF" stroke-width="0.75" x1="224.7" y1="331.3" x2="224.7" y2="343.6"/>
			<line fill="none" stroke="#FFFFFF" stroke-width="0.75" x1="232.4" y1="331.3" x2="232.4" y2="343.6"/>
		</g>
		<g>
			<line fill="none" stroke="#FFFFFF" stroke-width="0.75" x1="247.9" y1="331.3" x2="247.9" y2="343.6"/>
			<line fill="none" stroke="#FFFFFF" stroke-width="0.75" x1="255.6" y1="331.3" x2="255.6" y2="343.6"/>
			<line fill="none" stroke="#FFFFFF" stroke-width="0.75" x1="263.3" y1="331.3" x2="263.3" y2="343.6"/>
			<line fill="none" stroke="#FFFFFF" stroke-width="0.75" x1="271.1" y1="331.3" x2="271.1" y2="343.6"/>
		</g>
		<g>
			<line fill="none" stroke="#FFFFFF" stroke-width="0.75" x1="286.6" y1="331.3" x2="286.6" y2="343.6"/>
			<line fill="none" stroke="#FFFFFF" stroke-width="0.75" x1="294.3" y1="331.3" x2="294.3" y2="343.6"/>
			<line fill="none" stroke="#FFFFFF" stroke-width="0.75" x1="302" y1="331.3" x2="302" y2="343.6"/>
			<line fill="none" stroke="#FFFFFF" stroke-width="0.75" x1="309.8" y1="331.3" x2="309.8" y2="343.6"/>
		</g>
		<g>
			<line fill="none" stroke="#FFFFFF" stroke-width="0.75" x1="325.2" y1="331.3" x2="325.2" y2="343.6"/>
			<line fill="none" stroke="#FFFFFF" stroke-width="0.75" x1="333" y1="331.3" x2="333" y2="343.6"/>
			<line fill="none" stroke="#FFFFFF" stroke-width="0.75" x1="340.7" y1="331.3" x2="340.7" y2="343.6"/>
			<line fill="none" stroke="#FFFFFF" stroke-width="0.75" x1="348.5" y1="331.3" x2="348.5" y2="343.6"/>
		</g>
		<g>
			<line fill="none" stroke="#FFFFFF" stroke-width="0.75" x1="363.9" y1="331.3" x2="363.9" y2="343.6"/>
			<line fill="none" stroke="#FFFFFF" stroke-width="0.75" x1="371.7" y1="331.3" x2="371.7" y2="343.6"/>
			<line fill="none" stroke="#FFFFFF" stroke-width="0.75" x1="379.4" y1="331.3" x2="379.4" y2="343.6"/>
			<line fill="none" stroke="#FFFFFF" stroke-width="0.75" x1="387.1" y1="331.3" x2="387.1" y2="343.6"/>
		</g>
		<g>
			<line fill="none" stroke="#FFFFFF" stroke-width="0.75" x1="402.6" y1="331.3" x2="402.6" y2="343.6"/>
			<line fill="none" stroke="#FFFFFF" stroke-width="0.75" x1="410.4" y1="331.3" x2="410.4" y2="343.6"/>
			<line fill="none" stroke="#FFFFFF" stroke-width="0.75" x1="418.1" y1="331.3" x2="418.1" y2="343.6"/>
			<line fill="none" stroke="#FFFFFF" stroke-width="0.75" x1="425.8" y1="331.3" x2="425.8" y2="343.6"/>
		</g>
		<g>
			<line fill="none" stroke="#FFFFFF" stroke-width="0.75" x1="441.3" y1="331.3" x2="441.3" y2="343.6"/>
			<line fill="none" stroke="#FFFFFF" stroke-width="0.75" x1="449" y1="331.3" x2="449" y2="343.6"/>
			<line fill="none" stroke="#FFFFFF" stroke-width="0.75" x1="456.8" y1="331.3" x2="456.8" y2="343.6"/>
			<line fill="none" stroke="#FFFFFF" stroke-width="0.75" x1="464.5" y1="331.3" x2="464.5" y2="343.6"/>
		</g>
		<g>
			<line fill="none" stroke="#FFFFFF" stroke-width="0.75" x1="480" y1="331.3" x2="480" y2="343.6"/>
			<line fill="none" stroke="#FFFFFF" stroke-width="0.75" x1="487.7" y1="331.3" x2="487.7" y2="343.6"/>
			<line fill="none" stroke="#FFFFFF" stroke-width="0.75" x1="495.5" y1="331.3" x2="495.5" y2="343.6"/>
			<line fill="none" stroke="#FFFFFF" stroke-width="0.75" x1="503.2" y1="331.3" x2="503.2" y2="343.6"/>
		</g>
		<g>
			<line fill="none" stroke="#FFFFFF" stroke-width="0.75" x1="518.7" y1="331.3" x2="518.7" y2="343.6"/>
			<line fill="none" stroke="#FFFFFF" stroke-width="0.75" x1="526.4" y1="331.3" x2="526.4" y2="343.6"/>
			<line fill="none" stroke="#FFFFFF" stroke-width="0.75" x1="534.2" y1="331.3" x2="534.2" y2="343.6"/>
			<line fill="none" stroke="#FFFFFF" stroke-width="0.75" x1="541.9" y1="331.3" x2="541.9" y2="343.6"/>
		</g>
		<g>
			<line fill="none" stroke="#FFFFFF" stroke-width="0.75" x1="557.4" y1="331.3" x2="557.4" y2="343.6"/>
			<line fill="none" stroke="#FFFFFF" stroke-width="0.75" x1="565.1" y1="331.3" x2="565.1" y2="343.6"/>
			<line fill="none" stroke="#FFFFFF" stroke-width="0.75" x1="572.8" y1="331.3" x2="572.8" y2="343.6"/>
			<line fill="none" stroke="#FFFFFF" stroke-width="0.75" x1="580.6" y1="331.3" x2="580.6" y2="343.6"/>
		</g>
		<g>
			<line fill="none" stroke="#FFFFFF" stroke-width="0.75" x1="596.1" y1="331.3" x2="596.1" y2="343.6"/>
			<line fill="none" stroke="#FFFFFF" stroke-width="0.75" x1="603.8" y1="331.3" x2="603.8" y2="343.6"/>
			<line fill="none" stroke="#FFFFFF" stroke-width="0.75" x1="611.5" y1="331.3" x2="611.5" y2="343.6"/>
			<line fill="none" stroke="#FFFFFF" stroke-width="0.75" x1="619.3" y1="331.3" x2="619.3" y2="343.6"/>
		</g>
		<g>
			<line fill="none" stroke="#FFFFFF" stroke-width="0.75" x1="634.7" y1="331.3" x2="634.7" y2="343.6"/>
			<line fill="none" stroke="#FFFFFF" stroke-width="0.75" x1="642.5" y1="331.3" x2="642.5" y2="343.6"/>
			<line fill="none" stroke="#FFFFFF" stroke-width="0.75" x1="650.2" y1="331.3" x2="650.2" y2="343.6"/>
			<line fill="none" stroke="#FFFFFF" stroke-width="0.75" x1="658" y1="331.3" x2="658" y2="343.6"/>
		</g>
		<g>
			<line fill="none" stroke="#FFFFFF" stroke-width="0.75" x1="673.4" y1="331.3" x2="673.4" y2="343.6"/>
			<line fill="none" stroke="#FFFFFF" stroke-width="0.75" x1="681.2" y1="331.3" x2="681.2" y2="343.6"/>
			<line fill="none" stroke="#FFFFFF" stroke-width="0.75" x1="688.9" y1="331.3" x2="688.9" y2="343.6"/>
			<line fill="none" stroke="#FFFFFF" stroke-width="0.75" x1="696.7" y1="331.3" x2="696.7" y2="343.6"/>
		</g>
		<g>
			<line fill="none" stroke="#FFFFFF" stroke-width="0.75" x1="712.1" y1="331.3" x2="712.1" y2="343.6"/>
			<line fill="none" stroke="#FFFFFF" stroke-width="0.75" x1="719.9" y1="331.3" x2="719.9" y2="343.6"/>
			<line fill="none" stroke="#FFFFFF" stroke-width="0.75" x1="727.6" y1="331.3" x2="727.6" y2="343.6"/>
			<line fill="none" stroke="#FFFFFF" stroke-width="0.75" x1="735.3" y1="331.3" x2="735.3" y2="343.6"/>
		</g>
		<g>
			<line fill="none" stroke="#FFFFFF" stroke-width="0.75" x1="750.8" y1="331.3" x2="750.8" y2="343.6"/>
			<line fill="none" stroke="#FFFFFF" stroke-width="0.75" x1="758.6" y1="331.3" x2="758.6" y2="343.6"/>
			<line fill="none" stroke="#FFFFFF" stroke-width="0.75" x1="766.3" y1="331.3" x2="766.3" y2="343.6"/>
			<line fill="none" stroke="#FFFFFF" stroke-width="0.75" x1="774" y1="331.3" x2="774" y2="343.6"/>
		</g>
		<g>
			<line fill="none" stroke="#FFFFFF" stroke-width="0.75" x1="789.5" y1="331.3" x2="789.5" y2="343.6"/>
			<line fill="none" stroke="#FFFFFF" stroke-width="0.75" x1="797.2" y1="331.3" x2="797.2" y2="343.6"/>
			<line fill="none" stroke="#FFFFFF" stroke-width="0.75" x1="805" y1="331.3" x2="805" y2="343.6"/>
			<line fill="none" stroke="#FFFFFF" stroke-width="0.75" x1="812.7" y1="331.3" x2="812.7" y2="343.6"/>
		</g>
		<g>
			<line fill="none" stroke="#FFFFFF" stroke-width="0.75" x1="828.2" y1="331.3" x2="828.2" y2="343.6"/>
			<line fill="none" stroke="#FFFFFF" stroke-width="0.75" x1="835.9" y1="331.3" x2="835.9" y2="343.6"/>
			<line fill="none" stroke="#FFFFFF" stroke-width="0.75" x1="843.7" y1="331.3" x2="843.7" y2="343.6"/>
			<line fill="none" stroke="#FFFFFF" stroke-width="0.75" x1="851.4" y1="331.3" x2="851.4" y2="343.6"/>
		</g>
		<g>
			<line fill="none" stroke="#FFFFFF" stroke-width="0.75" x1="866.9" y1="331.3" x2="866.9" y2="343.6"/>
			<line fill="none" stroke="#FFFFFF" stroke-width="0.75" x1="874.6" y1="331.3" x2="874.6" y2="343.6"/>
			<line fill="none" stroke="#FFFFFF" stroke-width="0.75" x1="882.4" y1="331.3" x2="882.4" y2="343.6"/>
			<line fill="none" stroke="#FFFFFF" stroke-width="0.75" x1="890.1" y1="331.3" x2="890.1" y2="343.6"/>
		</g>
	</g>
	<g>
		<g>
			<line fill="none" stroke="#FFFFFF" stroke-width="0.75" x1="131.8" y1="421" x2="131.8" y2="433.4"/>
			<line fill="none" stroke="#FFFFFF" stroke-width="0.75" x1="139.5" y1="421" x2="139.5" y2="433.4"/>
			<line fill="none" stroke="#FFFFFF" stroke-width="0.75" x1="147.3" y1="421" x2="147.3" y2="433.4"/>
			<line fill="none" stroke="#FFFFFF" stroke-width="0.75" x1="155" y1="421" x2="155" y2="433.4"/>
		</g>
		<g>
			<line fill="none" stroke="#FFFFFF" stroke-width="0.75" x1="170.5" y1="421" x2="170.5" y2="433.4"/>
			<line fill="none" stroke="#FFFFFF" stroke-width="0.75" x1="178.2" y1="421" x2="178.2" y2="433.4"/>
			<line fill="none" stroke="#FFFFFF" stroke-width="0.75" x1="186" y1="421" x2="186" y2="433.4"/>
			<line fill="none" stroke="#FFFFFF" stroke-width="0.75" x1="193.7" y1="421" x2="193.7" y2="433.4"/>
		</g>
		<g>
			<line fill="none" stroke="#FFFFFF" stroke-width="0.75" x1="209.2" y1="421" x2="209.2" y2="433.4"/>
			<line fill="none" stroke="#FFFFFF" stroke-width="0.75" x1="216.9" y1="421" x2="216.9" y2="433.4"/>
			<line fill="none" stroke="#FFFFFF" stroke-width="0.75" x1="224.7" y1="421" x2="224.7" y2="433.4"/>
			<line fill="none" stroke="#FFFFFF" stroke-width="0.75" x1="232.4" y1="421" x2="232.4" y2="433.4"/>
		</g>
		<g>
			<line fill="none" stroke="#FFFFFF" stroke-width="0.75" x1="247.9" y1="421" x2="247.9" y2="433.4"/>
			<line fill="none" stroke="#FFFFFF" stroke-width="0.75" x1="255.6" y1="421" x2="255.6" y2="433.4"/>
			<line fill="none" stroke="#FFFFFF" stroke-width="0.75" x1="263.3" y1="421" x2="263.3" y2="433.4"/>
			<line fill="none" stroke="#FFFFFF" stroke-width="0.75" x1="271.1" y1="421" x2="271.1" y2="433.4"/>
		</g>
		<g>
			<line fill="none" stroke="#FFFFFF" stroke-width="0.75" x1="286.6" y1="421" x2="286.6" y2="433.4"/>
			<line fill="none" stroke="#FFFFFF" stroke-width="0.75" x1="294.3" y1="421" x2="294.3" y2="433.4"/>
			<line fill="none" stroke="#FFFFFF" stroke-width="0.75" x1="302" y1="421" x2="302" y2="433.4"/>
			<line fill="none" stroke="#FFFFFF" stroke-width="0.75" x1="309.8" y1="421" x2="309.8" y2="433.4"/>
		</g>
		<g>
			<line fill="none" stroke="#FFFFFF" stroke-width="0.75" x1="325.2" y1="421" x2="325.2" y2="433.4"/>
			<line fill="none" stroke="#FFFFFF" stroke-width="0.75" x1="333" y1="421" x2="333" y2="433.4"/>
			<line fill="none" stroke="#FFFFFF" stroke-width="0.75" x1="340.7" y1="421" x2="340.7" y2="433.4"/>
			<line fill="none" stroke="#FFFFFF" stroke-width="0.75" x1="348.5" y1="421" x2="348.5" y2="433.4"/>
		</g>
		<g>
			<line fill="none" stroke="#FFFFFF" stroke-width="0.75" x1="363.9" y1="421" x2="363.9" y2="433.4"/>
			<line fill="none" stroke="#FFFFFF" stroke-width="0.75" x1="371.7" y1="421" x2="371.7" y2="433.4"/>
			<line fill="none" stroke="#FFFFFF" stroke-width="0.75" x1="379.4" y1="421" x2="379.4" y2="433.4"/>
			<line fill="none" stroke="#FFFFFF" stroke-width="0.75" x1="387.1" y1="421" x2="387.1" y2="433.4"/>
		</g>
		<g>
			<line fill="none" stroke="#FFFFFF" stroke-width="0.75" x1="402.6" y1="421" x2="402.6" y2="433.4"/>
			<line fill="none" stroke="#FFFFFF" stroke-width="0.75" x1="410.4" y1="421" x2="410.4" y2="433.4"/>
			<line fill="none" stroke="#FFFFFF" stroke-width="0.75" x1="418.1" y1="421" x2="418.1" y2="433.4"/>
			<line fill="none" stroke="#FFFFFF" stroke-width="0.75" x1="425.8" y1="421" x2="425.8" y2="433.4"/>
		</g>
		<g>
			<line fill="none" stroke="#FFFFFF" stroke-width="0.75" x1="441.3" y1="421" x2="441.3" y2="433.4"/>
			<line fill="none" stroke="#FFFFFF" stroke-width="0.75" x1="449" y1="421" x2="449" y2="433.4"/>
			<line fill="none" stroke="#FFFFFF" stroke-width="0.75" x1="456.8" y1="421" x2="456.8" y2="433.4"/>
			<line fill="none" stroke="#FFFFFF" stroke-width="0.75" x1="464.5" y1="421" x2="464.5" y2="433.4"/>
		</g>
		<g>
			<line fill="none" stroke="#FFFFFF" stroke-width="0.75" x1="480" y1="421" x2="480" y2="433.4"/>
			<line fill="none" stroke="#FFFFFF" stroke-width="0.75" x1="487.7" y1="421" x2="487.7" y2="433.4"/>
			<line fill="none" stroke="#FFFFFF" stroke-width="0.75" x1="495.5" y1="421" x2="495.5" y2="433.4"/>
			<line fill="none" stroke="#FFFFFF" stroke-width="0.75" x1="503.2" y1="421" x2="503.2" y2="433.4"/>
		</g>
		<g>
			<line fill="none" stroke="#FFFFFF" stroke-width="0.75" x1="518.7" y1="421" x2="518.7" y2="433.4"/>
			<line fill="none" stroke="#FFFFFF" stroke-width="0.75" x1="526.4" y1="421" x2="526.4" y2="433.4"/>
			<line fill="none" stroke="#FFFFFF" stroke-width="0.75" x1="534.2" y1="421" x2="534.2" y2="433.4"/>
			<line fill="none" stroke="#FFFFFF" stroke-width="0.75" x1="541.9" y1="421" x2="541.9" y2="433.4"/>
		</g>
		<g>
			<line fill="none" stroke="#FFFFFF" stroke-width="0.75" x1="557.4" y1="421" x2="557.4" y2="433.4"/>
			<line fill="none" stroke="#FFFFFF" stroke-width="0.75" x1="565.1" y1="421" x2="565.1" y2="433.4"/>
			<line fill="none" stroke="#FFFFFF" stroke-width="0.75" x1="572.8" y1="421" x2="572.8" y2="433.4"/>
			<line fill="none" stroke="#FFFFFF" stroke-width="0.75" x1="580.6" y1="421" x2="580.6" y2="433.4"/>
		</g>
		<g>
			<line fill="none" stroke="#FFFFFF" stroke-width="0.75" x1="596.1" y1="421" x2="596.1" y2="433.4"/>
			<line fill="none" stroke="#FFFFFF" stroke-width="0.75" x1="603.8" y1="421" x2="603.8" y2="433.4"/>
			<line fill="none" stroke="#FFFFFF" stroke-width="0.75" x1="611.5" y1="421" x2="611.5" y2="433.4"/>
			<line fill="none" stroke="#FFFFFF" stroke-width="0.75" x1="619.3" y1="421" x2="619.3" y2="433.4"/>
		</g>
		<g>
			<line fill="none" stroke="#FFFFFF" stroke-width="0.75" x1="634.7" y1="421" x2="634.7" y2="433.4"/>
			<line fill="none" stroke="#FFFFFF" stroke-width="0.75" x1="642.5" y1="421" x2="642.5" y2="433.4"/>
			<line fill="none" stroke="#FFFFFF" stroke-width="0.75" x1="650.2" y1="421" x2="650.2" y2="433.4"/>
			<line fill="none" stroke="#FFFFFF" stroke-width="0.75" x1="658" y1="421" x2="658" y2="433.4"/>
		</g>
		<g>
			<line fill="none" stroke="#FFFFFF" stroke-width="0.75" x1="673.4" y1="421" x2="673.4" y2="433.4"/>
			<line fill="none" stroke="#FFFFFF" stroke-width="0.75" x1="681.2" y1="421" x2="681.2" y2="433.4"/>
			<line fill="none" stroke="#FFFFFF" stroke-width="0.75" x1="688.9" y1="421" x2="688.9" y2="433.4"/>
			<line fill="none" stroke="#FFFFFF" stroke-width="0.75" x1="696.7" y1="421" x2="696.7" y2="433.4"/>
		</g>
		<g>
			<line fill="none" stroke="#FFFFFF" stroke-width="0.75" x1="712.1" y1="421" x2="712.1" y2="433.4"/>
			<line fill="none" stroke="#FFFFFF" stroke-width="0.75" x1="719.9" y1="421" x2="719.9" y2="433.4"/>
			<line fill="none" stroke="#FFFFFF" stroke-width="0.75" x1="727.6" y1="421" x2="727.6" y2="433.4"/>
			<line fill="none" stroke="#FFFFFF" stroke-width="0.75" x1="735.3" y1="421" x2="735.3" y2="433.4"/>
		</g>
		<g>
			<line fill="none" stroke="#FFFFFF" stroke-width="0.75" x1="750.8" y1="421" x2="750.8" y2="433.4"/>
			<line fill="none" stroke="#FFFFFF" stroke-width="0.75" x1="758.6" y1="421" x2="758.6" y2="433.4"/>
			<line fill="none" stroke="#FFFFFF" stroke-width="0.75" x1="766.3" y1="421" x2="766.3" y2="433.4"/>
			<line fill="none" stroke="#FFFFFF" stroke-width="0.75" x1="774" y1="421" x2="774" y2="433.4"/>
		</g>
		<g>
			<line fill="none" stroke="#FFFFFF" stroke-width="0.75" x1="789.5" y1="421" x2="789.5" y2="433.4"/>
			<line fill="none" stroke="#FFFFFF" stroke-width="0.75" x1="797.2" y1="421" x2="797.2" y2="433.4"/>
			<line fill="none" stroke="#FFFFFF" stroke-width="0.75" x1="805" y1="421" x2="805" y2="433.4"/>
			<line fill="none" stroke="#FFFFFF" stroke-width="0.75" x1="812.7" y1="421" x2="812.7" y2="433.4"/>
		</g>
		<g>
			<line fill="none" stroke="#FFFFFF" stroke-width="0.75" x1="828.2" y1="421" x2="828.2" y2="433.4"/>
			<line fill="none" stroke="#FFFFFF" stroke-width="0.75" x1="835.9" y1="421" x2="835.9" y2="433.4"/>
			<line fill="none" stroke="#FFFFFF" stroke-width="0.75" x1="843.7" y1="421" x2="843.7" y2="433.4"/>
			<line fill="none" stroke="#FFFFFF" stroke-width="0.75" x1="851.4" y1="421" x2="851.4" y2="433.4"/>
		</g>
		<g>
			<line fill="none" stroke="#FFFFFF" stroke-width="0.75" x1="866.9" y1="421" x2="866.9" y2="433.4"/>
			<line fill="none" stroke="#FFFFFF" stroke-width="0.75" x1="874.6" y1="421" x2="874.6" y2="433.4"/>
			<line fill="none" stroke="#FFFFFF" stroke-width="0.75" x1="882.4" y1="421" x2="882.4" y2="433.4"/>
			<line fill="none" stroke="#FFFFFF" stroke-width="0.75" x1="890.1" y1="421" x2="890.1" y2="433.4"/>
		</g>
	</g>
	<g>
		<g>
			<line fill="none" stroke="#FFFFFF" stroke-width="0.75" x1="131.8" y1="568.2" x2="131.8" y2="580.6"/>
			<line fill="none" stroke="#FFFFFF" stroke-width="0.75" x1="139.5" y1="568.2" x2="139.5" y2="580.6"/>
			<line fill="none" stroke="#FFFFFF" stroke-width="0.75" x1="147.3" y1="568.2" x2="147.3" y2="580.6"/>
			<line fill="none" stroke="#FFFFFF" stroke-width="0.75" x1="155" y1="568.2" x2="155" y2="580.6"/>
		</g>
		<g>
			<line fill="none" stroke="#FFFFFF" stroke-width="0.75" x1="170.5" y1="568.2" x2="170.5" y2="580.6"/>
			<line fill="none" stroke="#FFFFFF" stroke-width="0.75" x1="178.2" y1="568.2" x2="178.2" y2="580.6"/>
			<line fill="none" stroke="#FFFFFF" stroke-width="0.75" x1="186" y1="568.2" x2="186" y2="580.6"/>
			<line fill="none" stroke="#FFFFFF" stroke-width="0.75" x1="193.7" y1="568.2" x2="193.7" y2="580.6"/>
		</g>
		<g>
			<line fill="none" stroke="#FFFFFF" stroke-width="0.75" x1="209.2" y1="568.2" x2="209.2" y2="580.6"/>
			<line fill="none" stroke="#FFFFFF" stroke-width="0.75" x1="216.9" y1="568.2" x2="216.9" y2="580.6"/>
			<line fill="none" stroke="#FFFFFF" stroke-width="0.75" x1="224.7" y1="568.2" x2="224.7" y2="580.6"/>
			<line fill="none" stroke="#FFFFFF" stroke-width="0.75" x1="232.4" y1="568.2" x2="232.4" y2="580.6"/>
		</g>
		<g>
			<line fill="none" stroke="#FFFFFF" stroke-width="0.75" x1="247.9" y1="568.2" x2="247.9" y2="580.6"/>
			<line fill="none" stroke="#FFFFFF" stroke-width="0.75" x1="255.6" y1="568.2" x2="255.6" y2="580.6"/>
			<line fill="none" stroke="#FFFFFF" stroke-width="0.75" x1="263.3" y1="568.2" x2="263.3" y2="580.6"/>
			<line fill="none" stroke="#FFFFFF" stroke-width="0.75" x1="271.1" y1="568.2" x2="271.1" y2="580.6"/>
		</g>
		<g>
			<line fill="none" stroke="#FFFFFF" stroke-width="0.75" x1="286.6" y1="568.2" x2="286.6" y2="580.6"/>
			<line fill="none" stroke="#FFFFFF" stroke-width="0.75" x1="294.3" y1="568.2" x2="294.3" y2="580.6"/>
			<line fill="none" stroke="#FFFFFF" stroke-width="0.75" x1="302" y1="568.2" x2="302" y2="580.6"/>
			<line fill="none" stroke="#FFFFFF" stroke-width="0.75" x1="309.8" y1="568.2" x2="309.8" y2="580.6"/>
		</g>
		<g>
			<line fill="none" stroke="#FFFFFF" stroke-width="0.75" x1="325.2" y1="568.2" x2="325.2" y2="580.6"/>
			<line fill="none" stroke="#FFFFFF" stroke-width="0.75" x1="333" y1="568.2" x2="333" y2="580.6"/>
			<line fill="none" stroke="#FFFFFF" stroke-width="0.75" x1="340.7" y1="568.2" x2="340.7" y2="580.6"/>
			<line fill="none" stroke="#FFFFFF" stroke-width="0.75" x1="348.5" y1="568.2" x2="348.5" y2="580.6"/>
		</g>
		<g>
			<line fill="none" stroke="#FFFFFF" stroke-width="0.75" x1="363.9" y1="568.2" x2="363.9" y2="580.6"/>
			<line fill="none" stroke="#FFFFFF" stroke-width="0.75" x1="371.7" y1="568.2" x2="371.7" y2="580.6"/>
			<line fill="none" stroke="#FFFFFF" stroke-width="0.75" x1="379.4" y1="568.2" x2="379.4" y2="580.6"/>
			<line fill="none" stroke="#FFFFFF" stroke-width="0.75" x1="387.1" y1="568.2" x2="387.1" y2="580.6"/>
		</g>
		<g>
			<line fill="none" stroke="#FFFFFF" stroke-width="0.75" x1="402.6" y1="568.2" x2="402.6" y2="580.6"/>
			<line fill="none" stroke="#FFFFFF" stroke-width="0.75" x1="410.4" y1="568.2" x2="410.4" y2="580.6"/>
			<line fill="none" stroke="#FFFFFF" stroke-width="0.75" x1="418.1" y1="568.2" x2="418.1" y2="580.6"/>
			<line fill="none" stroke="#FFFFFF" stroke-width="0.75" x1="425.8" y1="568.2" x2="425.8" y2="580.6"/>
		</g>
		<g>
			<line fill="none" stroke="#FFFFFF" stroke-width="0.75" x1="441.3" y1="568.2" x2="441.3" y2="580.6"/>
			<line fill="none" stroke="#FFFFFF" stroke-width="0.75" x1="449" y1="568.2" x2="449" y2="580.6"/>
			<line fill="none" stroke="#FFFFFF" stroke-width="0.75" x1="456.8" y1="568.2" x2="456.8" y2="580.6"/>
			<line fill="none" stroke="#FFFFFF" stroke-width="0.75" x1="464.5" y1="568.2" x2="464.5" y2="580.6"/>
		</g>
		<g>
			<line fill="none" stroke="#FFFFFF" stroke-width="0.75" x1="480" y1="568.2" x2="480" y2="580.6"/>
			<line fill="none" stroke="#FFFFFF" stroke-width="0.75" x1="487.7" y1="568.2" x2="487.7" y2="580.6"/>
			<line fill="none" stroke="#FFFFFF" stroke-width="0.75" x1="495.5" y1="568.2" x2="495.5" y2="580.6"/>
			<line fill="none" stroke="#FFFFFF" stroke-width="0.75" x1="503.2" y1="568.2" x2="503.2" y2="580.6"/>
		</g>
		<g>
			<line fill="none" stroke="#FFFFFF" stroke-width="0.75" x1="518.7" y1="568.2" x2="518.7" y2="580.6"/>
			<line fill="none" stroke="#FFFFFF" stroke-width="0.75" x1="526.4" y1="568.2" x2="526.4" y2="580.6"/>
			<line fill="none" stroke="#FFFFFF" stroke-width="0.75" x1="534.2" y1="568.2" x2="534.2" y2="580.6"/>
			<line fill="none" stroke="#FFFFFF" stroke-width="0.75" x1="541.9" y1="568.2" x2="541.9" y2="580.6"/>
		</g>
		<g>
			<line fill="none" stroke="#FFFFFF" stroke-width="0.75" x1="557.4" y1="568.2" x2="557.4" y2="580.6"/>
			<line fill="none" stroke="#FFFFFF" stroke-width="0.75" x1="565.1" y1="568.2" x2="565.1" y2="580.6"/>
			<line fill="none" stroke="#FFFFFF" stroke-width="0.75" x1="572.8" y1="568.2" x2="572.8" y2="580.6"/>
			<line fill="none" stroke="#FFFFFF" stroke-width="0.75" x1="580.6" y1="568.2" x2="580.6" y2="580.6"/>
		</g>
		<g>
			<line fill="none" stroke="#FFFFFF" stroke-width="0.75" x1="596.1" y1="568.2" x2="596.1" y2="580.6"/>
			<line fill="none" stroke="#FFFFFF" stroke-width="0.75" x1="603.8" y1="568.2" x2="603.8" y2="580.6"/>
			<line fill="none" stroke="#FFFFFF" stroke-width="0.75" x1="611.5" y1="568.2" x2="611.5" y2="580.6"/>
			<line fill="none" stroke="#FFFFFF" stroke-width="0.75" x1="619.3" y1="568.2" x2="619.3" y2="580.6"/>
		</g>
		<g>
			<line fill="none" stroke="#FFFFFF" stroke-width="0.75" x1="634.7" y1="568.2" x2="634.7" y2="580.6"/>
			<line fill="none" stroke="#FFFFFF" stroke-width="0.75" x1="642.5" y1="568.2" x2="642.5" y2="580.6"/>
			<line fill="none" stroke="#FFFFFF" stroke-width="0.75" x1="650.2" y1="568.2" x2="650.2" y2="580.6"/>
			<line fill="none" stroke="#FFFFFF" stroke-width="0.75" x1="658" y1="568.2" x2="658" y2="580.6"/>
		</g>
		<g>
			<line fill="none" stroke="#FFFFFF" stroke-width="0.75" x1="673.4" y1="568.2" x2="673.4" y2="580.6"/>
			<line fill="none" stroke="#FFFFFF" stroke-width="0.75" x1="681.2" y1="568.2" x2="681.2" y2="580.6"/>
			<line fill="none" stroke="#FFFFFF" stroke-width="0.75" x1="688.9" y1="568.2" x2="688.9" y2="580.6"/>
			<line fill="none" stroke="#FFFFFF" stroke-width="0.75" x1="696.7" y1="568.2" x2="696.7" y2="580.6"/>
		</g>
		<g>
			<line fill="none" stroke="#FFFFFF" stroke-width="0.75" x1="712.1" y1="568.2" x2="712.1" y2="580.6"/>
			<line fill="none" stroke="#FFFFFF" stroke-width="0.75" x1="719.9" y1="568.2" x2="719.9" y2="580.6"/>
			<line fill="none" stroke="#FFFFFF" stroke-width="0.75" x1="727.6" y1="568.2" x2="727.6" y2="580.6"/>
			<line fill="none" stroke="#FFFFFF" stroke-width="0.75" x1="735.3" y1="568.2" x2="735.3" y2="580.6"/>
		</g>
		<g>
			<line fill="none" stroke="#FFFFFF" stroke-width="0.75" x1="750.8" y1="568.2" x2="750.8" y2="580.6"/>
			<line fill="none" stroke="#FFFFFF" stroke-width="0.75" x1="758.6" y1="568.2" x2="758.6" y2="580.6"/>
			<line fill="none" stroke="#FFFFFF" stroke-width="0.75" x1="766.3" y1="568.2" x2="766.3" y2="580.6"/>
			<line fill="none" stroke="#FFFFFF" stroke-width="0.75" x1="774" y1="568.2" x2="774" y2="580.6"/>
		</g>
		<g>
			<line fill="none" stroke="#FFFFFF" stroke-width="0.75" x1="789.5" y1="568.2" x2="789.5" y2="580.6"/>
			<line fill="none" stroke="#FFFFFF" stroke-width="0.75" x1="797.2" y1="568.2" x2="797.2" y2="580.6"/>
			<line fill="none" stroke="#FFFFFF" stroke-width="0.75" x1="805" y1="568.2" x2="805" y2="580.6"/>
			<line fill="none" stroke="#FFFFFF" stroke-width="0.75" x1="812.7" y1="568.2" x2="812.7" y2="580.6"/>
		</g>
		<g>
			<line fill="none" stroke="#FFFFFF" stroke-width="0.75" x1="828.2" y1="568.2" x2="828.2" y2="580.6"/>
			<line fill="none" stroke="#FFFFFF" stroke-width="0.75" x1="835.9" y1="568.2" x2="835.9" y2="580.6"/>
			<line fill="none" stroke="#FFFFFF" stroke-width="0.75" x1="843.7" y1="568.2" x2="843.7" y2="580.6"/>
			<line fill="none" stroke="#FFFFFF" stroke-width="0.75" x1="851.4" y1="568.2" x2="851.4" y2="580.6"/>
		</g>
		<g>
			<line fill="none" stroke="#FFFFFF" stroke-width="0.75" x1="866.9" y1="568.2" x2="866.9" y2="580.6"/>
			<line fill="none" stroke="#FFFFFF" stroke-width="0.75" x1="874.6" y1="568.2" x2="874.6" y2="580.6"/>
			<line fill="none" stroke="#FFFFFF" stroke-width="0.75" x1="882.4" y1="568.2" x2="882.4" y2="580.6"/>
			<line fill="none" stroke="#FFFFFF" stroke-width="0.75" x1="890.1" y1="568.2" x2="890.1" y2="580.6"/>
		</g>
	</g>
	<g>
		<line fill="none" stroke="#FFFFFF" stroke-width="0.75" x1="159.4" y1="342.8" x2="166.2" y2="342.8"/>
		<line fill="none" stroke="#FFFFFF" stroke-width="0.75" x1="198.1" y1="342.8" x2="204.9" y2="342.8"/>
		<line fill="none" stroke="#FFFFFF" stroke-width="0.75" x1="236.8" y1="342.8" x2="243.6" y2="342.8"/>
		<line fill="none" stroke="#FFFFFF" stroke-width="0.75" x1="275.5" y1="342.8" x2="282.3" y2="342.8"/>
		<line fill="none" stroke="#FFFFFF" stroke-width="0.75" x1="314.1" y1="342.8" x2="321" y2="342.8"/>
		<line fill="none" stroke="#FFFFFF" stroke-width="0.75" x1="352.8" y1="342.8" x2="359.7" y2="342.8"/>
		<line fill="none" stroke="#FFFFFF" stroke-width="0.75" x1="391.5" y1="342.8" x2="398.3" y2="342.8"/>
		<line fill="none" stroke="#FFFFFF" stroke-width="0.75" x1="430.2" y1="342.8" x2="437" y2="342.8"/>
		<line fill="none" stroke="#FFFFFF" stroke-width="0.75" x1="468.9" y1="342.8" x2="475.7" y2="342.8"/>
		<line fill="none" stroke="#FFFFFF" stroke-width="0.75" x1="507.6" y1="342.8" x2="514.4" y2="342.8"/>
		<line fill="none" stroke="#FFFFFF" stroke-width="0.75" x1="546.2" y1="342.8" x2="553.1" y2="342.8"/>
		<line fill="none" stroke="#FFFFFF" stroke-width="0.75" x1="584.9" y1="342.8" x2="591.8" y2="342.8"/>
		<line fill="none" stroke="#FFFFFF" stroke-width="0.75" x1="623.6" y1="342.8" x2="630.4" y2="342.8"/>
		<line fill="none" stroke="#FFFFFF" stroke-width="0.75" x1="662.3" y1="342.8" x2="669.1" y2="342.8"/>
		<line fill="none" stroke="#FFFFFF" stroke-width="0.75" x1="701" y1="342.8" x2="707.8" y2="342.8"/>
		<line fill="none" stroke="#FFFFFF" stroke-width="0.75" x1="739.7" y1="342.8" x2="746.5" y2="342.8"/>
		<line fill="none" stroke="#FFFFFF" stroke-width="0.75" x1="778.3" y1="342.8" x2="785.2" y2="342.8"/>
		<line fill="none" stroke="#FFFFFF" stroke-width="0.75" x1="817" y1="342.8" x2="823.9" y2="342.8"/>
		<line fill="none" stroke="#FFFFFF" stroke-width="0.75" x1="855.7" y1="342.8" x2="862.5" y2="342.8"/>
	</g>
	<g>
		<line fill="none" stroke="#FFFFFF" stroke-width="0.75" x1="159.4" y1="422.1" x2="166.2" y2="422.1"/>
		<line fill="none" stroke="#FFFFFF" stroke-width="0.75" x1="198.1" y1="422.1" x2="204.9" y2="422.1"/>
		<line fill="none" stroke="#FFFFFF" stroke-width="0.75" x1="236.8" y1="422.1" x2="243.6" y2="422.1"/>
		<line fill="none" stroke="#FFFFFF" stroke-width="0.75" x1="275.5" y1="422.1" x2="282.3" y2="422.1"/>
		<line fill="none" stroke="#FFFFFF" stroke-width="0.75" x1="314.1" y1="422.1" x2="321" y2="422.1"/>
		<line fill="none" stroke="#FFFFFF" stroke-width="0.75" x1="352.8" y1="422.1" x2="359.7" y2="422.1"/>
		<line fill="none" stroke="#FFFFFF" stroke-width="0.75" x1="391.5" y1="422.1" x2="398.3" y2="422.1"/>
		<line fill="none" stroke="#FFFFFF" stroke-width="0.75" x1="430.2" y1="422.1" x2="437" y2="422.1"/>
		<line fill="none" stroke="#FFFFFF" stroke-width="0.75" x1="468.9" y1="422.1" x2="475.7" y2="422.1"/>
		<line fill="none" stroke="#FFFFFF" stroke-width="0.75" x1="507.6" y1="422.1" x2="514.4" y2="422.1"/>
		<line fill="none" stroke="#FFFFFF" stroke-width="0.75" x1="546.2" y1="422.1" x2="553.1" y2="422.1"/>
		<line fill="none" stroke="#FFFFFF" stroke-width="0.75" x1="584.9" y1="422.1" x2="591.8" y2="422.1"/>
		<line fill="none" stroke="#FFFFFF" stroke-width="0.75" x1="623.6" y1="422.1" x2="630.4" y2="422.1"/>
		<line fill="none" stroke="#FFFFFF" stroke-width="0.75" x1="662.3" y1="422.1" x2="669.1" y2="422.1"/>
		<line fill="none" stroke="#FFFFFF" stroke-width="0.75" x1="701" y1="422.1" x2="707.8" y2="422.1"/>
		<line fill="none" stroke="#FFFFFF" stroke-width="0.75" x1="739.7" y1="422.1" x2="746.5" y2="422.1"/>
		<line fill="none" stroke="#FFFFFF" stroke-width="0.75" x1="778.3" y1="422.1" x2="785.2" y2="422.1"/>
		<line fill="none" stroke="#FFFFFF" stroke-width="0.75" x1="817" y1="422.1" x2="823.9" y2="422.1"/>
		<line fill="none" stroke="#FFFFFF" stroke-width="0.75" x1="855.7" y1="422.1" x2="862.5" y2="422.1"/>
	</g>
	<g>
		<line fill="none" stroke="#FFFFFF" stroke-width="0.76" x1="123.6" y1="180.1" x2="48.1" y2="234.1"/>
		<line fill="none" stroke="#FFFFFF" stroke-width="0.76" x1="86.8" y1="179.4" x2="48.1" y2="207.1"/>
		<line fill="none" stroke="#FFFFFF" stroke-width="0.76" x1="123.6" y1="234" x2="48.1" y2="288"/>
		<line fill="none" stroke="#FFFFFF" stroke-width="0.76" x1="123.6" y1="207.1" x2="48.1" y2="261.1"/>
		<line fill="none" stroke="#FFFFFF" stroke-width="0.76" x1="123.6" y1="288" x2="48.1" y2="342"/>
		<line fill="none" stroke="#FFFFFF" stroke-width="0.76" x1="123.6" y1="261" x2="48.1" y2="315"/>
		<line fill="none" stroke="#FFFFFF" stroke-width="0.76" x1="123.6" y1="341.9" x2="48.1" y2="395.9"/>
		<line fill="none" stroke="#FFFFFF" stroke-width="0.76" x1="123.6" y1="315" x2="48.1" y2="369"/>
		<line fill="none" stroke="#FFFFFF" stroke-width="0.76" x1="123.6" y1="395.9" x2="48.1" y2="449.9"/>
		<line fill="none" stroke="#FFFFFF" stroke-width="0.76" x1="123.6" y1="368.9" x2="48.1" y2="422.9"/>
		<line fill="none" stroke="#FFFFFF" stroke-width="0.76" x1="123.6" y1="449.8" x2="48.1" y2="503.8"/>
		<line fill="none" stroke="#FFFFFF" stroke-width="0.76" x1="123.6" y1="422.9" x2="48.1" y2="476.9"/>
		<line fill="none" stroke="#FFFFFF" stroke-width="0.76" x1="123.6" y1="503.8" x2="48.1" y2="557.8"/>
		<line fill="none" stroke="#FFFFFF" stroke-width="0.76" x1="123.6" y1="476.8" x2="48.1" y2="530.8"/>
		<line fill="none" stroke="#FFFFFF" stroke-width="0.76" x1="123.6" y1="557.8" x2="85" y2="585.3"/>
		<line fill="none" stroke="#FFFFFF" stroke-width="0.76" x1="123.6" y1="530.8" x2="48.1" y2="584.8"/>
	</g>
	<g>
		<line fill="none" stroke="#FFFFFF" stroke-width="0.76" x1="973.6" y1="180.1" x2="898.2" y2="234.1"/>
		<line fill="none" stroke="#FFFFFF" stroke-width="0.76" x1="936.9" y1="179.4" x2="898.2" y2="207.1"/>
		<line fill="none" stroke="#FFFFFF" stroke-width="0.76" x1="973.6" y1="234" x2="898.2" y2="288"/>
		<line fill="none" stroke="#FFFFFF" stroke-width="0.76" x1="973.6" y1="207.1" x2="898.2" y2="261.1"/>
		<line fill="none" stroke="#FFFFFF" stroke-width="0.76" x1="973.6" y1="288" x2="898.2" y2="342"/>
		<line fill="none" stroke="#FFFFFF" stroke-width="0.76" x1="973.6" y1="261" x2="898.2" y2="315"/>
		<line fill="none" stroke="#FFFFFF" stroke-width="0.76" x1="973.6" y1="341.9" x2="898.2" y2="395.9"/>
		<line fill="none" stroke="#FFFFFF" stroke-width="0.76" x1="973.6" y1="315" x2="898.2" y2="369"/>
		<line fill="none" stroke="#FFFFFF" stroke-width="0.76" x1="973.6" y1="395.9" x2="898.2" y2="449.9"/>
		<line fill="none" stroke="#FFFFFF" stroke-width="0.76" x1="973.6" y1="368.9" x2="898.2" y2="422.9"/>
		<line fill="none" stroke="#FFFFFF" stroke-width="0.76" x1="973.6" y1="449.8" x2="898.2" y2="503.8"/>
		<line fill="none" stroke="#FFFFFF" stroke-width="0.76" x1="973.6" y1="422.9" x2="898.2" y2="476.9"/>
		<line fill="none" stroke="#FFFFFF" stroke-width="0.76" x1="973.6" y1="503.8" x2="898.2" y2="557.8"/>
		<line fill="none" stroke="#FFFFFF" stroke-width="0.76" x1="973.6" y1="476.8" x2="898.2" y2="530.8"/>
		<line fill="none" stroke="#FFFFFF" stroke-width="0.76" x1="973.6" y1="557.8" x2="935.1" y2="585.3"/>
		<line fill="none" stroke="#FFFFFF" stroke-width="0.76" x1="973.6" y1="530.8" x2="898.2" y2="584.8"/>
	</g>
	<path fill="#FFFFFF" d="M704.4,169.5v-9.7H317.5v9.7H38.3v425.6l279.4,0v9.7h386.9v-9.7h279.2V169.5L704.4,169.5z M49.2,584.3v-404
		h923.8v404H49.2z"/>
	<g>
		<line fill="none" stroke="#FFEB00" stroke-width="1.5" stroke-linecap="round" x1="48.9" y1="343.6" x2="48.9" y2="421"/>
		<circle fill="#F50A14" cx="41" cy="382.3" r="3.8"/>
		<line fill="none" stroke="#FFEB00" stroke-width="1.5" stroke-linecap="round" x1="48.2" y1="382.3" x2="41" y2="382.3"/>
	</g>
	<rect x="122.3" y="180.4" fill="#F50A14" width="2.7" height="2.7"/>
	<rect x="49.1" y="180.4" fill="#F50A14" width="2.7" height="2.7"/>
	<rect x="122.3" y="581.7" fill="#F50A14" width="2.7" height="2.7"/>
	<rect x="49.1" y="581.7" fill="#F50A14" width="2.7" height="2.7"/>
	<g>
		<line fill="none" stroke="#FFEB00" stroke-width="1.5" stroke-linecap="round" x1="973.2" y1="343.6" x2="973.2" y2="421"/>
		<circle fill="#F50A14" cx="981.1" cy="382.3" r="3.8"/>
		<line fill="none" stroke="#FFEB00" stroke-width="1.5" stroke-linecap="round" x1="973.9" y1="382.3" x2="981.1" y2="382.3"/>
	</g>
	<rect x="897.1" y="180.4" fill="#F50A14" width="2.7" height="2.7"/>
	<rect x="970.3" y="180.4" fill="#F50A14" width="2.7" height="2.7"/>
	<rect x="897.1" y="581.7" fill="#F50A14" width="2.7" height="2.7"/>
	<rect x="970.3" y="581.7" fill="#F50A14" width="2.7" height="2.7"/>
	<g>
		<g>
			<path fill="#FFFFFF" d="M188.4,204.1c1.4-0.1,2.5-0.3,3.4-0.5c0.9-0.3,1.9-0.6,2.8-1.2h0.9v15.9c0,0.3,0.1,0.6,0.3,0.7
				c0.2,0.2,0.4,0.3,0.7,0.3h2.4v1.2h-10.1v-1.2h1.9c0.5,0,0.8-0.1,1-0.3c0.2-0.2,0.3-0.6,0.3-1v-11.8c0-0.3-0.1-0.5-0.3-0.6
				c-0.2-0.1-0.4-0.2-0.8-0.2h-2.7V204.1z"/>
			<path fill="#FFFFFF" d="M211.5,201.9c1.1,0,2.1,0.3,3,1c0.9,0.7,1.7,1.7,2.3,3.2c0.6,1.5,0.9,3.2,0.9,5.2c0,2-0.3,3.7-0.9,5.2
				c-0.6,1.5-1.4,2.5-2.3,3.2c-0.9,0.7-2,1-3.1,1c-1.7,0-3.1-0.7-4.2-2.2c-1.4-1.8-2.1-4.2-2.1-7.1c0-2.1,0.3-3.8,0.9-5.3
				c0.6-1.5,1.4-2.6,2.3-3.2C209.2,202.3,210.3,201.9,211.5,201.9z M213.7,211.9c0-3.8-0.3-6.3-0.8-7.5c-0.4-0.9-0.9-1.3-1.5-1.3
				c-0.8,0-1.4,0.6-1.7,1.9c-0.4,1.2-0.6,3.6-0.6,7.2c0,3,0.3,5.1,0.8,6.3c0.3,0.8,0.8,1.1,1.4,1.1c0.4,0,0.8-0.2,1.1-0.5
				c0.3-0.3,0.6-1.1,0.8-2.2C213.5,215.3,213.7,213.7,213.7,211.9z"/>
		</g>
		<g>
			<path fill="#FFFFFF" d="M807,204.1c1.4-0.1,2.5-0.3,3.4-0.5c0.9-0.3,1.9-0.6,2.8-1.2h0.9v15.9c0,0.3,0.1,0.6,0.3,0.7
				c0.2,0.2,0.4,0.3,0.7,0.3h2.4v1.2h-10.1v-1.2h1.9c0.5,0,0.8-0.1,1-0.3c0.2-0.2,0.3-0.6,0.3-1v-11.8c0-0.3-0.1-0.5-0.3-0.6
				c-0.2-0.1-0.4-0.2-0.8-0.2H807V204.1z"/>
			<path fill="#FFFFFF" d="M830.1,201.9c1.1,0,2.1,0.3,3,1c0.9,0.7,1.7,1.7,2.3,3.2c0.6,1.5,0.9,3.2,0.9,5.2c0,2-0.3,3.7-0.9,5.2
				c-0.6,1.5-1.4,2.5-2.3,3.2c-0.9,0.7-2,1-3.1,1c-1.7,0-3.1-0.7-4.2-2.2c-1.4-1.8-2.1-4.2-2.1-7.1c0-2.1,0.3-3.8,0.9-5.3
				c0.6-1.5,1.4-2.6,2.3-3.2C827.9,202.3,829,201.9,830.1,201.9z M832.4,211.9c0-3.8-0.3-6.3-0.8-7.5c-0.4-0.9-0.9-1.3-1.5-1.3
				c-0.8,0-1.4,0.6-1.7,1.9c-0.4,1.2-0.6,3.6-0.6,7.2c0,3,0.3,5.1,0.8,6.3c0.3,0.8,0.8,1.1,1.4,1.1c0.4,0,0.8-0.2,1.1-0.5
				c0.3-0.3,0.6-1.1,0.8-2.2C832.2,215.3,832.4,213.7,832.4,211.9z"/>
		</g>
		<polygon fill="#FFFFFF" points="185.2,216.4 172.6,212.1 185.2,207.8 		"/>
		<g>
			<path fill="#FFFFFF" d="M266.6,217.1h6c0.6,0,1-0.2,1.3-0.6c0.3-0.4,0.6-1.2,0.8-2.4h1.3l-0.4,6.3h-11.8v-1.1
				c0.6-1,1.9-2.6,3.8-4.6c1.7-1.9,2.7-3.2,3.2-4.2c0.7-1.2,1-2.5,1-3.8c0-1.1-0.2-1.9-0.7-2.5c-0.5-0.6-1.2-0.9-2-0.9
				c-0.9,0-1.6,0.2-2.1,0.7c-0.6,0.5-0.9,0.9-0.9,1.4c0,0.2,0.1,0.4,0.2,0.5c0.1,0.1,0.4,0.2,0.9,0.4c1,0.3,1.6,0.9,1.6,1.7
				c0,0.6-0.2,1.1-0.6,1.5c-0.4,0.4-0.9,0.6-1.5,0.6c-0.6,0-1.2-0.3-1.6-0.8c-0.4-0.5-0.6-1.3-0.6-2.3c0-1.3,0.4-2.5,1.3-3.4
				c1.1-1.1,2.6-1.7,4.4-1.7c1.7,0,3,0.5,4,1.4c1,0.9,1.5,2.1,1.5,3.4c0,0.7-0.1,1.4-0.4,2c-0.3,0.8-0.8,1.6-1.4,2.2
				c-0.6,0.6-1.5,1.4-2.9,2.4c-1.5,1-2.5,1.8-3,2.3C267.5,216.1,267,216.6,266.6,217.1z"/>
			<path fill="#FFFFFF" d="M287.8,201.9c1.1,0,2.1,0.3,3,1c0.9,0.7,1.7,1.7,2.3,3.2c0.6,1.5,0.9,3.2,0.9,5.2c0,2-0.3,3.7-0.9,5.2
				c-0.6,1.5-1.4,2.5-2.3,3.2c-0.9,0.7-2,1-3.1,1c-1.7,0-3.1-0.7-4.2-2.2c-1.4-1.8-2.1-4.2-2.1-7.1c0-2.1,0.3-3.8,0.9-5.3
				c0.6-1.5,1.4-2.6,2.3-3.2C285.6,202.3,286.7,201.9,287.8,201.9z M290.1,211.9c0-3.8-0.3-6.3-0.8-7.5c-0.4-0.9-0.9-1.3-1.5-1.3
				c-0.8,0-1.4,0.6-1.7,1.9c-0.4,1.2-0.6,3.6-0.6,7.2c0,3,0.3,5.1,0.8,6.3c0.3,0.8,0.8,1.1,1.4,1.1c0.4,0,0.8-0.2,1.1-0.5
				c0.3-0.3,0.6-1.1,0.8-2.2C289.9,215.3,290.1,213.7,290.1,211.9z"/>
		</g>
		<g>
			<path fill="#FFFFFF" d="M730.7,217.1h6c0.6,0,1-0.2,1.3-0.6c0.3-0.4,0.6-1.2,0.8-2.4h1.3l-0.4,6.3h-11.8v-1.1
				c0.6-1,1.9-2.6,3.8-4.6c1.7-1.9,2.7-3.2,3.2-4.2c0.7-1.2,1-2.5,1-3.8c0-1.1-0.2-1.9-0.7-2.5c-0.5-0.6-1.2-0.9-2-0.9
				c-0.9,0-1.6,0.2-2.1,0.7c-0.6,0.5-0.9,0.9-0.9,1.4c0,0.2,0.1,0.4,0.2,0.5c0.1,0.1,0.4,0.2,0.9,0.4c1,0.3,1.6,0.9,1.6,1.7
				c0,0.6-0.2,1.1-0.6,1.5c-0.4,0.4-0.9,0.6-1.5,0.6c-0.6,0-1.2-0.3-1.6-0.8c-0.4-0.5-0.6-1.3-0.6-2.3c0-1.3,0.4-2.5,1.3-3.4
				c1.1-1.1,2.6-1.7,4.4-1.7c1.7,0,3,0.5,4,1.4c1,0.9,1.5,2.1,1.5,3.4c0,0.7-0.1,1.4-0.4,2c-0.3,0.8-0.8,1.6-1.4,2.2
				c-0.6,0.6-1.5,1.4-2.9,2.4c-1.5,1-2.5,1.8-3,2.3C731.6,216.1,731.1,216.6,730.7,217.1z"/>
			<path fill="#FFFFFF" d="M751.9,201.9c1.1,0,2.1,0.3,3,1c0.9,0.7,1.7,1.7,2.3,3.2c0.6,1.5,0.9,3.2,0.9,5.2c0,2-0.3,3.7-0.9,5.2
				c-0.6,1.5-1.4,2.5-2.3,3.2c-0.9,0.7-2,1-3.1,1c-1.7,0-3.1-0.7-4.2-2.2c-1.4-1.8-2.1-4.2-2.1-7.1c0-2.1,0.3-3.8,0.9-5.3
				c0.6-1.5,1.4-2.6,2.3-3.2C749.7,202.3,750.8,201.9,751.9,201.9z M754.2,211.9c0-3.8-0.3-6.3-0.8-7.5c-0.4-0.9-0.9-1.3-1.5-1.3
				c-0.8,0-1.4,0.6-1.7,1.9c-0.4,1.2-0.6,3.6-0.6,7.2c0,3,0.3,5.1,0.8,6.3c0.3,0.8,0.8,1.1,1.4,1.1c0.4,0,0.8-0.2,1.1-0.5
				c0.3-0.3,0.6-1.1,0.8-2.2C754,215.3,754.2,213.7,754.2,211.9z"/>
		</g>
		<polygon fill="#FFFFFF" points="261.1,216.4 248.5,212.1 261.1,207.8 		"/>
		<g>
			<path fill="#FFFFFF" d="M349.1,210.7c1.4,0.4,2.5,1,3.2,1.9c0.7,0.9,1.1,1.9,1.1,3.1c0,1.6-0.6,2.8-1.7,3.8
				c-1.1,1-2.7,1.4-4.7,1.4c-1.8,0-3.2-0.4-4.1-1.3s-1.5-1.9-1.5-3.2c0-0.8,0.2-1.4,0.6-1.9c0.4-0.4,0.9-0.7,1.5-0.7
				c0.6,0,1,0.2,1.4,0.5c0.4,0.4,0.5,0.8,0.5,1.3c0,0.7-0.4,1.3-1.1,1.7c-0.3,0.2-0.5,0.3-0.6,0.4c-0.1,0.1-0.1,0.2-0.1,0.3
				c0,0.3,0.2,0.6,0.6,0.9c0.6,0.4,1.3,0.6,2,0.6c1,0,1.7-0.3,2.3-1c0.6-0.7,0.8-1.7,0.8-3.1c0-1.4-0.3-2.4-0.8-3
				c-0.5-0.7-1.2-1-2-1c-0.2,0-0.4,0-0.8,0.1c-0.3,0.1-0.5,0.1-0.7,0.1c-0.2,0-0.4-0.1-0.6-0.2c-0.1-0.1-0.2-0.3-0.2-0.6
				c0-0.3,0.1-0.5,0.2-0.6c0.1-0.1,0.4-0.2,0.7-0.2c0.1,0,0.3,0,0.5,0c0.3,0,0.5,0.1,0.7,0.1c0.8,0,1.4-0.3,1.8-0.8
				c0.4-0.5,0.6-1.4,0.6-2.6c0-1.2-0.2-2.1-0.7-2.7c-0.5-0.6-1.2-0.8-2.1-0.8c-0.6,0-1.1,0.1-1.4,0.3c-0.3,0.2-0.5,0.4-0.5,0.6
				c0,0.1,0,0.2,0.1,0.3c0,0.1,0.2,0.2,0.4,0.3c0.4,0.3,0.7,0.6,0.8,0.9c0.1,0.2,0.2,0.5,0.2,0.8c0,0.5-0.2,1-0.5,1.3
				s-0.8,0.5-1.3,0.5c-0.6,0-1-0.2-1.4-0.6c-0.4-0.4-0.6-1-0.6-1.6c0-1,0.4-1.8,1.1-2.6c0.9-1,2.2-1.5,4-1.5c1.2,0,2.2,0.2,3,0.6
				s1.5,0.9,1.9,1.6c0.4,0.7,0.7,1.4,0.7,2.3c0,0.9-0.3,1.7-0.8,2.4C351.3,209.6,350.4,210.2,349.1,210.7z"/>
			<path fill="#FFFFFF" d="M365.2,201.9c1.1,0,2.1,0.3,3,1c0.9,0.7,1.7,1.7,2.3,3.2c0.6,1.5,0.9,3.2,0.9,5.2c0,2-0.3,3.7-0.9,5.2
				c-0.6,1.5-1.4,2.5-2.3,3.2c-0.9,0.7-2,1-3.1,1c-1.7,0-3.1-0.7-4.2-2.2c-1.4-1.8-2.1-4.2-2.1-7.1c0-2.1,0.3-3.8,0.9-5.3
				c0.6-1.5,1.4-2.6,2.3-3.2C363,202.3,364,201.9,365.2,201.9z M367.5,211.9c0-3.8-0.3-6.3-0.8-7.5c-0.4-0.9-0.9-1.3-1.5-1.3
				c-0.8,0-1.4,0.6-1.7,1.9c-0.4,1.2-0.6,3.6-0.6,7.2c0,3,0.3,5.1,0.8,6.3c0.3,0.8,0.8,1.1,1.4,1.1c0.4,0,0.8-0.2,1.1-0.5
				c0.3-0.3,0.6-1.1,0.8-2.2C367.3,215.3,367.5,213.7,367.5,211.9z"/>
		</g>
		<g>
			<path fill="#FFFFFF" d="M658.8,210.7c1.4,0.4,2.5,1,3.2,1.9c0.7,0.9,1.1,1.9,1.1,3.1c0,1.6-0.6,2.8-1.7,3.8
				c-1.1,1-2.7,1.4-4.7,1.4c-1.8,0-3.2-0.4-4.1-1.3c-1-0.8-1.5-1.9-1.5-3.2c0-0.8,0.2-1.4,0.6-1.9c0.4-0.4,0.9-0.7,1.5-0.7
				c0.6,0,1,0.2,1.4,0.5c0.4,0.4,0.5,0.8,0.5,1.3c0,0.7-0.4,1.3-1.1,1.7c-0.3,0.2-0.5,0.3-0.6,0.4c-0.1,0.1-0.1,0.2-0.1,0.3
				c0,0.3,0.2,0.6,0.6,0.9c0.6,0.4,1.3,0.6,2,0.6c1,0,1.7-0.3,2.3-1c0.6-0.7,0.8-1.7,0.8-3.1c0-1.4-0.3-2.4-0.8-3
				c-0.5-0.7-1.2-1-2-1c-0.2,0-0.4,0-0.8,0.1c-0.3,0.1-0.5,0.1-0.7,0.1c-0.2,0-0.4-0.1-0.6-0.2c-0.1-0.1-0.2-0.3-0.2-0.6
				c0-0.3,0.1-0.5,0.2-0.6c0.1-0.1,0.4-0.2,0.7-0.2c0.1,0,0.3,0,0.5,0c0.3,0,0.5,0.1,0.7,0.1c0.8,0,1.4-0.3,1.8-0.8
				c0.4-0.5,0.6-1.4,0.6-2.6c0-1.2-0.2-2.1-0.7-2.7s-1.2-0.8-2.1-0.8c-0.6,0-1.1,0.1-1.4,0.3c-0.3,0.2-0.5,0.4-0.5,0.6
				c0,0.1,0,0.2,0.1,0.3c0,0.1,0.2,0.2,0.4,0.3c0.4,0.3,0.7,0.6,0.8,0.9c0.1,0.2,0.2,0.5,0.2,0.8c0,0.5-0.2,1-0.5,1.3
				c-0.4,0.3-0.8,0.5-1.3,0.5c-0.6,0-1-0.2-1.4-0.6c-0.4-0.4-0.6-1-0.6-1.6c0-1,0.4-1.8,1.1-2.6c0.9-1,2.2-1.5,4-1.5
				c1.2,0,2.2,0.2,3,0.6c0.8,0.4,1.5,0.9,1.9,1.6c0.4,0.7,0.7,1.4,0.7,2.3c0,0.9-0.3,1.7-0.8,2.4C661,209.6,660.1,210.2,658.8,210.7
				z"/>
			<path fill="#FFFFFF" d="M674.9,201.9c1.1,0,2.1,0.3,3,1c0.9,0.7,1.7,1.7,2.3,3.2c0.6,1.5,0.9,3.2,0.9,5.2c0,2-0.3,3.7-0.9,5.2
				c-0.6,1.5-1.4,2.5-2.3,3.2c-0.9,0.7-2,1-3.1,1c-1.7,0-3.1-0.7-4.2-2.2c-1.4-1.8-2.1-4.2-2.1-7.1c0-2.1,0.3-3.8,0.9-5.3
				c0.6-1.5,1.4-2.6,2.3-3.2C672.7,202.3,673.7,201.9,674.9,201.9z M677.1,211.9c0-3.8-0.3-6.3-0.8-7.5c-0.4-0.9-0.9-1.3-1.5-1.3
				c-0.8,0-1.4,0.6-1.7,1.9c-0.4,1.2-0.6,3.6-0.6,7.2c0,3,0.3,5.1,0.8,6.3c0.3,0.8,0.8,1.1,1.4,1.1c0.4,0,0.8-0.2,1.1-0.5
				c0.3-0.3,0.6-1.1,0.8-2.2C677,215.3,677.1,213.7,677.1,211.9z"/>
		</g>
		<polygon fill="#FFFFFF" points="338.2,216.4 325.6,212.1 338.2,207.8 		"/>
		<g>
			<path fill="#FFFFFF" d="M427,202h1.2v12.5h2.6v1.4h-2.6v2.2c0,0.4,0.1,0.6,0.3,0.8c0.2,0.2,0.5,0.3,1,0.3h0.7v1.2h-8.1v-1.2h1.3
				c0.5,0,0.9-0.1,1.1-0.3c0.2-0.3,0.4-0.6,0.4-1.2V216h-6.7v-1.8L427,202z M424.8,207.1l-5.4,7.4h5.4V207.1z"/>
			<path fill="#FFFFFF" d="M442.5,201.9c1.1,0,2.1,0.3,3,1c0.9,0.7,1.7,1.7,2.3,3.2c0.6,1.5,0.9,3.2,0.9,5.2c0,2-0.3,3.7-0.9,5.2
				c-0.6,1.5-1.4,2.5-2.3,3.2c-0.9,0.7-2,1-3.1,1c-1.7,0-3.1-0.7-4.2-2.2c-1.4-1.8-2.1-4.2-2.1-7.1c0-2.1,0.3-3.8,0.9-5.3
				c0.6-1.5,1.4-2.6,2.3-3.2C440.3,202.3,441.3,201.9,442.5,201.9z M444.8,211.9c0-3.8-0.3-6.3-0.8-7.5c-0.4-0.9-0.9-1.3-1.5-1.3
				c-0.8,0-1.4,0.6-1.7,1.9c-0.4,1.2-0.6,3.6-0.6,7.2c0,3,0.3,5.1,0.8,6.3c0.3,0.8,0.8,1.1,1.4,1.1c0.4,0,0.8-0.2,1.1-0.5
				c0.3-0.3,0.6-1.1,0.8-2.2C444.6,215.3,444.8,213.7,444.8,211.9z"/>
		</g>
		<g>
			<path fill="#FFFFFF" d="M581.8,202h1.2v12.5h2.6v1.4H583v2.2c0,0.4,0.1,0.6,0.3,0.8c0.2,0.2,0.5,0.3,1,0.3h0.7v1.2h-8.1v-1.2h1.3
				c0.5,0,0.9-0.1,1.1-0.3c0.2-0.3,0.4-0.6,0.4-1.2V216h-6.7v-1.8L581.8,202z M579.6,207.1l-5.4,7.4h5.4V207.1z"/>
			<path fill="#FFFFFF" d="M597.3,201.9c1.1,0,2.1,0.3,3,1c0.9,0.7,1.7,1.7,2.3,3.2c0.6,1.5,0.9,3.2,0.9,5.2c0,2-0.3,3.7-0.9,5.2
				c-0.6,1.5-1.4,2.5-2.3,3.2c-0.9,0.7-2,1-3.1,1c-1.7,0-3.1-0.7-4.2-2.2c-1.4-1.8-2.1-4.2-2.1-7.1c0-2.1,0.3-3.8,0.9-5.3
				c0.6-1.5,1.4-2.6,2.3-3.2C595,202.3,596.1,201.9,597.3,201.9z M599.5,211.9c0-3.8-0.3-6.3-0.8-7.5c-0.4-0.9-0.9-1.3-1.5-1.3
				c-0.8,0-1.4,0.6-1.7,1.9c-0.4,1.2-0.6,3.6-0.6,7.2c0,3,0.3,5.1,0.8,6.3c0.3,0.8,0.8,1.1,1.4,1.1c0.4,0,0.8-0.2,1.1-0.5
				c0.3-0.3,0.6-1.1,0.8-2.2C599.4,215.3,599.5,213.7,599.5,211.9z"/>
		</g>
		<g>
			<path fill="#FFFFFF" d="M498,201.9c1.9,0.4,3.7,0.6,5.2,0.6c1.2,0,2.2-0.1,2.9-0.4c0.3-0.1,0.5-0.2,0.5-0.2
				c0.1,0,0.2,0.1,0.2,0.3c0,0.6-0.2,1.2-0.7,1.8c-0.4,0.7-1,1.1-1.7,1.5c-0.7,0.3-1.6,0.5-2.7,0.5c-0.8,0-1.8-0.1-2.8-0.3l-0.3,3.6
				c0.6-0.3,1.3-0.5,1.8-0.7c0.6-0.1,1.1-0.2,1.6-0.2c1.7,0,3.1,0.5,4.3,1.6c1.2,1.1,1.8,2.6,1.8,4.4c0,1.9-0.6,3.4-1.8,4.6
				c-1.2,1.2-2.8,1.8-4.8,1.8c-1.6,0-2.9-0.4-3.8-1.2c-1-0.8-1.4-1.8-1.4-3c0-0.8,0.2-1.4,0.6-1.8c0.4-0.5,1-0.7,1.6-0.7
				c0.6,0,1,0.2,1.4,0.5c0.4,0.4,0.6,0.8,0.6,1.3c0,0.4-0.1,0.7-0.3,1c-0.2,0.3-0.6,0.5-1.1,0.8c-0.4,0.2-0.6,0.4-0.6,0.6
				c0,0.3,0.2,0.6,0.6,0.8c0.6,0.3,1.2,0.5,2,0.5c1,0,1.7-0.4,2.3-1.2c0.6-0.8,0.8-2.1,0.8-4c0-1.6-0.3-2.7-0.8-3.5
				c-0.5-0.7-1.2-1.1-2.1-1.1c-0.4,0-0.8,0.1-1.3,0.2c-0.5,0.1-0.9,0.4-1.5,0.7c0,0.7-0.1,1.1-0.3,1.4c-0.2,0.3-0.4,0.4-0.7,0.4
				c-0.3,0-0.5-0.1-0.6-0.2c-0.2-0.1-0.2-0.3-0.2-0.5c0-0.3,0.2-0.8,0.7-1.5L498,201.9z"/>
			<path fill="#FFFFFF" d="M520.2,201.9c1.1,0,2.1,0.3,3,1c0.9,0.7,1.7,1.7,2.3,3.2c0.6,1.5,0.9,3.2,0.9,5.2c0,2-0.3,3.7-0.9,5.2
				c-0.6,1.5-1.4,2.5-2.3,3.2c-0.9,0.7-2,1-3.1,1c-1.7,0-3.1-0.7-4.2-2.2c-1.4-1.8-2.1-4.2-2.1-7.1c0-2.1,0.3-3.8,0.9-5.3
				c0.6-1.5,1.4-2.6,2.3-3.2C518,202.3,519,201.9,520.2,201.9z M522.4,211.9c0-3.8-0.3-6.3-0.8-7.5c-0.4-0.9-0.9-1.3-1.5-1.3
				c-0.8,0-1.4,0.6-1.7,1.9c-0.4,1.2-0.6,3.6-0.6,7.2c0,3,0.3,5.1,0.8,6.3c0.3,0.8,0.8,1.1,1.4,1.1c0.4,0,0.8-0.2,1.1-0.5
				c0.3-0.3,0.6-1.1,0.8-2.2C522.3,215.3,522.4,213.7,522.4,211.9z"/>
		</g>
		<polygon fill="#FFFFFF" points="414.8,216.4 402.1,212.1 414.8,207.8 		"/>
		<polygon fill="#FFFFFF" points="839.5,216.4 852.1,212.1 839.5,207.8 		"/>
		<polygon fill="#FFFFFF" points="761,216.4 773.7,212.1 761,207.8 		"/>
		<polygon fill="#FFFFFF" points="684,216.4 696.6,212.1 684,207.8 		"/>
		<polygon fill="#FFFFFF" points="606.7,216.4 619.3,212.1 606.7,207.8 		"/>
	</g>
	<g>
		<g>
			<path fill="#FFFFFF" d="M833.4,555.9c-1.4,0.1-2.5,0.3-3.4,0.5c-0.9,0.3-1.9,0.6-2.8,1.2h-0.9v-15.9c0-0.3-0.1-0.6-0.3-0.7
				c-0.2-0.2-0.4-0.3-0.7-0.3h-2.4v-1.2h10.1v1.2H831c-0.5,0-0.8,0.1-1,0.3c-0.2,0.2-0.3,0.6-0.3,1v11.8c0,0.3,0.1,0.5,0.3,0.6
				c0.2,0.1,0.4,0.2,0.8,0.2h2.7V555.9z"/>
			<path fill="#FFFFFF" d="M810.3,558c-1.1,0-2.1-0.3-3-1c-0.9-0.7-1.7-1.7-2.3-3.2c-0.6-1.5-0.9-3.2-0.9-5.2c0-2,0.3-3.7,0.9-5.2
				c0.6-1.5,1.4-2.5,2.3-3.2c0.9-0.7,2-1,3.1-1c1.7,0,3.1,0.7,4.2,2.2c1.4,1.8,2.1,4.2,2.1,7.1c0,2.1-0.3,3.8-0.9,5.3
				c-0.6,1.5-1.4,2.6-2.3,3.2C812.5,557.7,811.5,558,810.3,558z M808.1,548c0,3.8,0.3,6.3,0.8,7.5c0.4,0.9,0.9,1.3,1.5,1.3
				c0.8,0,1.4-0.6,1.7-1.9c0.4-1.2,0.6-3.6,0.6-7.2c0-3-0.3-5.1-0.8-6.3c-0.3-0.8-0.8-1.1-1.4-1.1c-0.4,0-0.8,0.2-1.1,0.5
				c-0.3,0.3-0.6,1.1-0.8,2.2C808.2,544.6,808.1,546.3,808.1,548z"/>
		</g>
		<g>
			<path fill="#FFFFFF" d="M214.7,555.9c-1.4,0.1-2.5,0.3-3.4,0.5c-0.9,0.3-1.9,0.6-2.8,1.2h-0.9v-15.9c0-0.3-0.1-0.6-0.3-0.7
				c-0.2-0.2-0.4-0.3-0.7-0.3h-2.4v-1.2h10.1v1.2h-1.9c-0.5,0-0.8,0.1-1,0.3c-0.2,0.2-0.3,0.6-0.3,1v11.8c0,0.3,0.1,0.5,0.3,0.6
				c0.2,0.1,0.4,0.2,0.8,0.2h2.7V555.9z"/>
			<path fill="#FFFFFF" d="M191.6,558c-1.1,0-2.1-0.3-3-1c-0.9-0.7-1.7-1.7-2.3-3.2c-0.6-1.5-0.9-3.2-0.9-5.2c0-2,0.3-3.7,0.9-5.2
				c0.6-1.5,1.4-2.5,2.3-3.2c0.9-0.7,2-1,3.1-1c1.7,0,3.1,0.7,4.2,2.2c1.4,1.8,2.1,4.2,2.1,7.1c0,2.1-0.3,3.8-0.9,5.3
				c-0.6,1.5-1.4,2.6-2.3,3.2C193.8,557.7,192.8,558,191.6,558z M189.4,548c0,3.8,0.3,6.3,0.8,7.5c0.4,0.9,0.9,1.3,1.5,1.3
				c0.8,0,1.4-0.6,1.7-1.9c0.4-1.2,0.6-3.6,0.6-7.2c0-3-0.3-5.1-0.8-6.3c-0.3-0.8-0.8-1.1-1.4-1.1c-0.4,0-0.8,0.2-1.1,0.5
				c-0.3,0.3-0.6,1.1-0.8,2.2C189.5,544.6,189.4,546.3,189.4,548z"/>
		</g>
		<polygon fill="#FFFFFF" points="836.5,543.5 849.1,547.8 836.5,552.2 		"/>
		<g>
			<path fill="#FFFFFF" d="M755.2,542.9h-6c-0.6,0-1,0.2-1.3,0.6c-0.3,0.4-0.6,1.2-0.8,2.4h-1.3l0.4-6.3H758v1.1
				c-0.6,1-1.9,2.6-3.8,4.6c-1.7,1.9-2.7,3.2-3.2,4.2c-0.7,1.2-1,2.5-1,3.8c0,1.1,0.2,1.9,0.7,2.5c0.5,0.6,1.2,0.9,2,0.9
				c0.9,0,1.6-0.2,2.1-0.7c0.6-0.5,0.9-0.9,0.9-1.4c0-0.2-0.1-0.4-0.2-0.5c-0.1-0.1-0.4-0.2-0.9-0.4c-1-0.3-1.6-0.9-1.6-1.7
				c0-0.6,0.2-1.1,0.6-1.5c0.4-0.4,0.9-0.6,1.5-0.6c0.6,0,1.2,0.3,1.6,0.8c0.4,0.5,0.6,1.3,0.6,2.3c0,1.3-0.4,2.5-1.3,3.4
				c-1.1,1.1-2.6,1.7-4.4,1.7c-1.7,0-3-0.5-4-1.4c-1-0.9-1.5-2.1-1.5-3.4c0-0.7,0.1-1.4,0.4-2c0.3-0.8,0.8-1.6,1.4-2.2
				c0.6-0.6,1.5-1.4,2.9-2.4c1.5-1,2.5-1.8,3-2.3C754.2,543.9,754.7,543.4,755.2,542.9z"/>
			<path fill="#FFFFFF" d="M733.9,558c-1.1,0-2.1-0.3-3-1c-0.9-0.7-1.7-1.7-2.3-3.2c-0.6-1.5-0.9-3.2-0.9-5.2c0-2,0.3-3.7,0.9-5.2
				c0.6-1.5,1.4-2.5,2.3-3.2c0.9-0.7,2-1,3.1-1c1.7,0,3.1,0.7,4.2,2.2c1.4,1.8,2.1,4.2,2.1,7.1c0,2.1-0.3,3.8-0.9,5.3
				c-0.6,1.5-1.4,2.6-2.3,3.2C736.1,557.7,735.1,558,733.9,558z M731.7,548c0,3.8,0.3,6.3,0.8,7.5c0.4,0.9,0.9,1.3,1.5,1.3
				c0.8,0,1.4-0.6,1.7-1.9c0.4-1.2,0.6-3.6,0.6-7.2c0-3-0.3-5.1-0.8-6.3c-0.3-0.8-0.8-1.1-1.4-1.1c-0.4,0-0.8,0.2-1.1,0.5
				c-0.3,0.3-0.6,1.1-0.8,2.2C731.8,544.6,731.7,546.3,731.7,548z"/>
		</g>
		<g>
			<path fill="#FFFFFF" d="M291.1,542.9h-6c-0.6,0-1,0.2-1.3,0.6c-0.3,0.4-0.6,1.2-0.8,2.4h-1.3l0.4-6.3h11.8v1.1
				c-0.6,1-1.9,2.6-3.8,4.6c-1.7,1.9-2.7,3.2-3.2,4.2c-0.7,1.2-1,2.5-1,3.8c0,1.1,0.2,1.9,0.7,2.5c0.5,0.6,1.2,0.9,2,0.9
				c0.9,0,1.6-0.2,2.1-0.7c0.6-0.5,0.9-0.9,0.9-1.4c0-0.2-0.1-0.4-0.2-0.5c-0.1-0.1-0.4-0.2-0.9-0.4c-1-0.3-1.6-0.9-1.6-1.7
				c0-0.6,0.2-1.1,0.6-1.5s0.9-0.6,1.5-0.6c0.6,0,1.2,0.3,1.6,0.8c0.4,0.5,0.6,1.3,0.6,2.3c0,1.3-0.4,2.5-1.3,3.4
				c-1.1,1.1-2.6,1.7-4.4,1.7c-1.7,0-3-0.5-4-1.4c-1-0.9-1.5-2.1-1.5-3.4c0-0.7,0.1-1.4,0.4-2c0.3-0.8,0.8-1.6,1.4-2.2
				c0.6-0.6,1.5-1.4,2.9-2.4c1.5-1,2.5-1.8,3-2.3C290.1,543.9,290.6,543.4,291.1,542.9z"/>
			<path fill="#FFFFFF" d="M269.8,558c-1.1,0-2.1-0.3-3-1c-0.9-0.7-1.7-1.7-2.3-3.2c-0.6-1.5-0.9-3.2-0.9-5.2c0-2,0.3-3.7,0.9-5.2
				c0.6-1.5,1.4-2.5,2.3-3.2c0.9-0.7,2-1,3.1-1c1.7,0,3.1,0.7,4.2,2.2c1.4,1.8,2.1,4.2,2.1,7.1c0,2.1-0.3,3.8-0.9,5.3
				c-0.6,1.5-1.4,2.6-2.3,3.2C272,557.7,271,558,269.8,558z M267.6,548c0,3.8,0.3,6.3,0.8,7.5c0.4,0.9,0.9,1.3,1.5,1.3
				c0.8,0,1.4-0.6,1.7-1.9c0.4-1.2,0.6-3.6,0.6-7.2c0-3-0.3-5.1-0.8-6.3c-0.3-0.8-0.8-1.1-1.4-1.1c-0.4,0-0.8,0.2-1.1,0.5
				c-0.3,0.3-0.6,1.1-0.8,2.2C267.7,544.6,267.6,546.3,267.6,548z"/>
		</g>
		<polygon fill="#FFFFFF" points="760.6,543.5 773.3,547.8 760.6,552.2 		"/>
		<g>
			<path fill="#FFFFFF" d="M672.7,549.2c-1.4-0.4-2.5-1-3.2-1.9c-0.7-0.9-1.1-1.9-1.1-3.1c0-1.6,0.6-2.8,1.7-3.8
				c1.1-1,2.7-1.4,4.7-1.4c1.8,0,3.2,0.4,4.1,1.3c1,0.8,1.5,1.9,1.5,3.2c0,0.8-0.2,1.4-0.6,1.9c-0.4,0.4-0.9,0.7-1.5,0.7
				c-0.6,0-1-0.2-1.4-0.5c-0.4-0.4-0.5-0.8-0.5-1.3c0-0.7,0.4-1.3,1.1-1.7c0.3-0.2,0.5-0.3,0.6-0.4c0.1-0.1,0.1-0.2,0.1-0.3
				c0-0.3-0.2-0.6-0.6-0.9c-0.6-0.4-1.3-0.6-2-0.6c-1,0-1.7,0.3-2.3,1c-0.6,0.7-0.8,1.7-0.8,3.1c0,1.4,0.3,2.4,0.8,3
				c0.5,0.7,1.2,1,2,1c0.2,0,0.4,0,0.8-0.1c0.3-0.1,0.5-0.1,0.7-0.1c0.2,0,0.4,0.1,0.6,0.2c0.1,0.1,0.2,0.3,0.2,0.6
				c0,0.3-0.1,0.5-0.2,0.6c-0.1,0.1-0.4,0.2-0.7,0.2c-0.1,0-0.3,0-0.5,0c-0.3,0-0.5-0.1-0.7-0.1c-0.8,0-1.4,0.3-1.8,0.8
				c-0.4,0.5-0.6,1.4-0.6,2.6s0.2,2.1,0.7,2.7c0.5,0.6,1.2,0.8,2.1,0.8c0.6,0,1.1-0.1,1.4-0.3c0.3-0.2,0.5-0.4,0.5-0.6
				c0-0.1,0-0.2-0.1-0.3c0-0.1-0.2-0.2-0.4-0.3c-0.4-0.3-0.7-0.6-0.8-0.9c-0.1-0.2-0.2-0.5-0.2-0.8c0-0.5,0.2-1,0.5-1.3
				c0.4-0.3,0.8-0.5,1.3-0.5c0.6,0,1,0.2,1.4,0.6c0.4,0.4,0.6,1,0.6,1.6c0,1-0.3,1.8-1.1,2.6c-0.9,1-2.2,1.5-4,1.5
				c-1.2,0-2.2-0.2-3-0.6s-1.5-0.9-1.9-1.6c-0.4-0.7-0.7-1.4-0.7-2.3c0-0.9,0.3-1.7,0.8-2.4C670.5,550.4,671.4,549.8,672.7,549.2z"
				/>
			<path fill="#FFFFFF" d="M656.5,558c-1.1,0-2.1-0.3-3-1c-0.9-0.7-1.7-1.7-2.3-3.2c-0.6-1.5-0.9-3.2-0.9-5.2c0-2,0.3-3.7,0.9-5.2
				c0.6-1.5,1.4-2.5,2.3-3.2c0.9-0.7,2-1,3.1-1c1.7,0,3.1,0.7,4.2,2.2c1.4,1.8,2.1,4.2,2.1,7.1c0,2.1-0.3,3.8-0.9,5.3
				c-0.6,1.5-1.4,2.6-2.3,3.2C658.8,557.7,657.7,558,656.5,558z M654.3,548c0,3.8,0.3,6.3,0.8,7.5c0.4,0.9,0.9,1.3,1.5,1.3
				c0.8,0,1.4-0.6,1.7-1.9c0.4-1.2,0.6-3.6,0.6-7.2c0-3-0.3-5.1-0.8-6.3c-0.3-0.8-0.8-1.1-1.4-1.1c-0.4,0-0.8,0.2-1.1,0.5
				c-0.3,0.3-0.6,1.1-0.8,2.2C654.4,544.6,654.3,546.3,654.3,548z"/>
		</g>
		<g>
			<path fill="#FFFFFF" d="M363,549.2c-1.4-0.4-2.5-1-3.2-1.9c-0.7-0.9-1.1-1.9-1.1-3.1c0-1.6,0.6-2.8,1.7-3.8
				c1.1-1,2.7-1.4,4.7-1.4c1.8,0,3.2,0.4,4.1,1.3c1,0.8,1.5,1.9,1.5,3.2c0,0.8-0.2,1.4-0.6,1.9c-0.4,0.4-0.9,0.7-1.5,0.7
				c-0.6,0-1-0.2-1.4-0.5s-0.5-0.8-0.5-1.3c0-0.7,0.4-1.3,1.1-1.7c0.3-0.2,0.5-0.3,0.6-0.4c0.1-0.1,0.1-0.2,0.1-0.3
				c0-0.3-0.2-0.6-0.6-0.9c-0.6-0.4-1.3-0.6-2-0.6c-1,0-1.7,0.3-2.3,1c-0.6,0.7-0.8,1.7-0.8,3.1c0,1.4,0.3,2.4,0.8,3
				c0.5,0.7,1.2,1,2,1c0.2,0,0.4,0,0.8-0.1c0.3-0.1,0.5-0.1,0.7-0.1c0.2,0,0.4,0.1,0.6,0.2c0.1,0.1,0.2,0.3,0.2,0.6
				c0,0.3-0.1,0.5-0.2,0.6c-0.1,0.1-0.4,0.2-0.7,0.2c-0.1,0-0.3,0-0.5,0c-0.3,0-0.5-0.1-0.7-0.1c-0.8,0-1.4,0.3-1.8,0.8
				c-0.4,0.5-0.6,1.4-0.6,2.6s0.2,2.1,0.7,2.7c0.5,0.6,1.2,0.8,2.1,0.8c0.6,0,1.1-0.1,1.4-0.3c0.3-0.2,0.5-0.4,0.5-0.6
				c0-0.1,0-0.2-0.1-0.3c0-0.1-0.2-0.2-0.4-0.3c-0.4-0.3-0.7-0.6-0.8-0.9c-0.1-0.2-0.2-0.5-0.2-0.8c0-0.5,0.2-1,0.5-1.3
				c0.4-0.3,0.8-0.5,1.3-0.5c0.6,0,1,0.2,1.4,0.6c0.4,0.4,0.6,1,0.6,1.6c0,1-0.4,1.8-1.1,2.6c-0.9,1-2.2,1.5-4,1.5
				c-1.2,0-2.2-0.2-3-0.6s-1.5-0.9-1.9-1.6c-0.4-0.7-0.7-1.4-0.7-2.3c0-0.9,0.3-1.7,0.8-2.4C360.8,550.4,361.7,549.8,363,549.2z"/>
			<path fill="#FFFFFF" d="M346.8,558c-1.1,0-2.1-0.3-3-1c-0.9-0.7-1.7-1.7-2.3-3.2c-0.6-1.5-0.9-3.2-0.9-5.2c0-2,0.3-3.7,0.9-5.2
				c0.6-1.5,1.4-2.5,2.3-3.2c0.9-0.7,2-1,3.1-1c1.7,0,3.1,0.7,4.2,2.2c1.4,1.8,2.1,4.2,2.1,7.1c0,2.1-0.3,3.8-0.9,5.3
				c-0.6,1.5-1.4,2.6-2.3,3.2C349.1,557.7,348,558,346.8,558z M344.6,548c0,3.8,0.3,6.3,0.8,7.5c0.4,0.9,0.9,1.3,1.5,1.3
				c0.8,0,1.4-0.6,1.7-1.9c0.4-1.2,0.6-3.6,0.6-7.2c0-3-0.3-5.1-0.8-6.3c-0.3-0.8-0.8-1.1-1.4-1.1c-0.4,0-0.8,0.2-1.1,0.5
				c-0.3,0.3-0.6,1.1-0.8,2.2C344.7,544.6,344.6,546.3,344.6,548z"/>
		</g>
		<polygon fill="#FFFFFF" points="683.5,543.5 696.2,547.8 683.5,552.2 		"/>
		<g>
			<path fill="#FFFFFF" d="M594.7,557.9h-1.2v-12.5h-2.6V544h2.6v-2.2c0-0.4-0.1-0.6-0.3-0.8c-0.2-0.2-0.5-0.3-1-0.3h-0.7v-1.2h8.1
				v1.2h-1.3c-0.5,0-0.9,0.1-1.1,0.3c-0.2,0.3-0.4,0.6-0.4,1.2v1.8h6.7v1.8L594.7,557.9z M596.9,552.8l5.4-7.4h-5.4V552.8z"/>
			<path fill="#FFFFFF" d="M579.2,558c-1.1,0-2.1-0.3-3-1c-0.9-0.7-1.7-1.7-2.3-3.2c-0.6-1.5-0.9-3.2-0.9-5.2c0-2,0.3-3.7,0.9-5.2
				c0.6-1.5,1.4-2.5,2.3-3.2c0.9-0.7,2-1,3.1-1c1.7,0,3.1,0.7,4.2,2.2c1.4,1.8,2.1,4.2,2.1,7.1c0,2.1-0.3,3.8-0.9,5.3
				c-0.6,1.5-1.4,2.6-2.3,3.2C581.5,557.7,580.4,558,579.2,558z M577,548c0,3.8,0.3,6.3,0.8,7.5c0.4,0.9,0.9,1.3,1.5,1.3
				c0.8,0,1.4-0.6,1.7-1.9c0.4-1.2,0.6-3.6,0.6-7.2c0-3-0.3-5.1-0.8-6.3c-0.3-0.8-0.8-1.1-1.4-1.1c-0.4,0-0.8,0.2-1.1,0.5
				c-0.3,0.3-0.6,1.1-0.8,2.2C577.1,544.6,577,546.3,577,548z"/>
		</g>
		<g>
			<path fill="#FFFFFF" d="M440,557.9h-1.2v-12.5h-2.6V544h2.6v-2.2c0-0.4-0.1-0.6-0.3-0.8c-0.2-0.2-0.5-0.3-1-0.3h-0.7v-1.2h8.1
				v1.2h-1.3c-0.5,0-0.9,0.1-1.1,0.3c-0.2,0.3-0.4,0.6-0.4,1.2v1.8h6.7v1.8L440,557.9z M442.2,552.8l5.4-7.4h-5.4V552.8z"/>
			<path fill="#FFFFFF" d="M424.5,558c-1.1,0-2.1-0.3-3-1c-0.9-0.7-1.7-1.7-2.3-3.2c-0.6-1.5-0.9-3.2-0.9-5.2c0-2,0.3-3.7,0.9-5.2
				c0.6-1.5,1.4-2.5,2.3-3.2c0.9-0.7,2-1,3.1-1c1.7,0,3.1,0.7,4.2,2.2c1.4,1.8,2.1,4.2,2.1,7.1c0,2.1-0.3,3.8-0.9,5.3
				c-0.6,1.5-1.4,2.6-2.3,3.2C426.7,557.7,425.6,558,424.5,558z M422.2,548c0,3.8,0.3,6.3,0.8,7.5c0.4,0.9,0.9,1.3,1.5,1.3
				c0.8,0,1.4-0.6,1.7-1.9c0.4-1.2,0.6-3.6,0.6-7.2c0-3-0.3-5.1-0.8-6.3c-0.3-0.8-0.8-1.1-1.4-1.1c-0.4,0-0.8,0.2-1.1,0.5
				c-0.3,0.3-0.6,1.1-0.8,2.2C422.4,544.6,422.2,546.3,422.2,548z"/>
		</g>
		<g>
			<path fill="#FFFFFF" d="M523.8,558c-1.9-0.4-3.7-0.6-5.2-0.6c-1.2,0-2.2,0.1-2.9,0.4c-0.3,0.1-0.5,0.2-0.5,0.2
				c-0.1,0-0.2-0.1-0.2-0.3c0-0.6,0.2-1.2,0.7-1.8c0.4-0.7,1-1.1,1.7-1.5c0.7-0.3,1.6-0.5,2.7-0.5c0.8,0,1.8,0.1,2.8,0.3l0.3-3.6
				c-0.6,0.3-1.3,0.5-1.8,0.7c-0.6,0.1-1.1,0.2-1.6,0.2c-1.7,0-3.1-0.5-4.3-1.6c-1.2-1.1-1.8-2.6-1.8-4.4c0-1.9,0.6-3.4,1.8-4.6
				c1.2-1.2,2.8-1.8,4.8-1.8c1.6,0,2.9,0.4,3.8,1.2c1,0.8,1.4,1.8,1.4,3c0,0.8-0.2,1.4-0.6,1.8c-0.4,0.5-1,0.7-1.6,0.7
				c-0.6,0-1-0.2-1.4-0.5c-0.4-0.4-0.6-0.8-0.6-1.3c0-0.4,0.1-0.7,0.3-1c0.2-0.3,0.6-0.5,1.1-0.8c0.4-0.2,0.6-0.4,0.6-0.6
				c0-0.3-0.2-0.6-0.6-0.8c-0.6-0.3-1.2-0.5-2-0.5c-0.9,0-1.7,0.4-2.3,1.2c-0.6,0.8-0.8,2.1-0.8,4c0,1.6,0.3,2.7,0.8,3.5
				c0.5,0.7,1.2,1.1,2.1,1.1c0.4,0,0.8-0.1,1.3-0.2c0.4-0.1,0.9-0.4,1.5-0.7c0-0.7,0.1-1.1,0.3-1.4c0.2-0.3,0.4-0.4,0.7-0.4
				c0.3,0,0.5,0.1,0.6,0.2s0.2,0.3,0.2,0.5c0,0.3-0.2,0.8-0.7,1.5L523.8,558z"/>
			<path fill="#FFFFFF" d="M501.6,558c-1.1,0-2.1-0.3-3-1c-0.9-0.7-1.7-1.7-2.3-3.2c-0.6-1.5-0.9-3.2-0.9-5.2c0-2,0.3-3.7,0.9-5.2
				c0.6-1.5,1.4-2.5,2.3-3.2c0.9-0.7,2-1,3.1-1c1.7,0,3.1,0.7,4.2,2.2c1.4,1.8,2.1,4.2,2.1,7.1c0,2.1-0.3,3.8-0.9,5.3
				c-0.6,1.5-1.4,2.6-2.3,3.2C503.8,557.7,502.7,558,501.6,558z M499.3,548c0,3.8,0.3,6.3,0.8,7.5c0.4,0.9,0.9,1.3,1.5,1.3
				c0.8,0,1.4-0.6,1.7-1.9c0.4-1.2,0.6-3.6,0.6-7.2c0-3-0.3-5.1-0.8-6.3c-0.3-0.8-0.8-1.1-1.4-1.1c-0.4,0-0.8,0.2-1.1,0.5
				c-0.3,0.3-0.6,1.1-0.8,2.2C499.5,544.6,499.3,546.3,499.3,548z"/>
		</g>
		<polygon fill="#FFFFFF" points="607,543.5 619.6,547.8 607,552.2 		"/>
		<polygon fill="#FFFFFF" points="182.2,543.5 169.6,547.8 182.2,552.2 		"/>
		<polygon fill="#FFFFFF" points="260.7,543.5 248.1,547.8 260.7,552.2 		"/>
		<polygon fill="#FFFFFF" points="337.8,543.5 325.1,547.8 337.8,552.2 		"/>
		<polygon fill="#FFFFFF" points="415.1,543.5 402.4,547.8 415.1,552.2 		"/>
	</g>
</g>
</svg>
