<?xml version="1.0" encoding="utf-8"?>
<!-- Generator: Adobe Illustrator 18.1.0, SVG Export Plug-In . SVG Version: 6.00 Build 0)  -->
<!DOCTYPE svg PUBLIC "-//W3C//DTD SVG 1.1//EN" "http://www.w3.org/Graphics/SVG/1.1/DTD/svg11.dtd">
<svg version="1.1" id="Layer_1" xmlns="http://www.w3.org/2000/svg" xmlns:xlink="http://www.w3.org/1999/xlink" x="0px" y="0px"
	 viewBox="0 0 300 449.8" enable-background="new 0 0 300 449.8" xml:space="preserve">
<g>
	<g>
		<path fill="#722A06" d="M72.9,437.9c3.7-1,11.5-6.8,16.4-20.2c5.5-15.1,0.1-35.8-6.6-43.7c-6.7-7.9-12.4-11.4-18.9-11.6
			c-9-0.3-17.6,16.9-19.1,24.3c-1.2,5.8-4.3,22.3,7.6,37.7C60.8,435.7,69.5,438.8,72.9,437.9z"/>
		<path fill="#722A06" d="M68.9,432.1c2-0.6,6.3-3.9,8.9-11.4c2.9-8.5-0.4-19.9-4.2-24.2c-3.8-4.3-7-6.2-10.7-6.2
			c-5-0.1-9.6,9.6-10.3,13.7c-0.6,3.2-2.1,12.4,4.6,20.9C62.2,431,67,432.6,68.9,432.1z"/>
		<path fill="#722A06" d="M64.9,426.2c0.4-0.2,1.1-1,1.4-2.6c0.3-1.8-0.8-4-1.7-4.7c-0.9-0.7-1.6-1-2.4-0.9c-1,0.2-1.6,2.3-1.6,3.1
			c0,0.7,0,2.6,1.7,4C63.5,426.2,64.5,426.4,64.9,426.2z"/>
	</g>
	<path fill="#571202" d="M69.1,363.4c7.8,5.3,13.2,14.8,15.3,27.6c2,12.5,0.7,27.2-3.4,37.5c0,0,0,0,0,0c-1.2,3-2.6,5.5-4,7.2
		c0.8-0.6,1.7-1.3,2.6-2.2c0.8-1.4,1.6-2.9,2.3-4.7c0,0,0,0,0,0c4.1-10.4,5.5-25.3,3.4-37.9c-1.2-7.3-3.4-13.5-6.6-18.6
		c-1.7-2.7-3.7-5.1-5.9-7.1C71.6,364.4,70.4,363.9,69.1,363.4z"/>
	<path fill="#571202" d="M52.5,377c0.6-1.5,1.2-2.9,1.8-4.1c0.2-0.6,0.5-1.1,0.7-1.6c1.6-3.8,3.1-6.2,4.4-7.8
		c-0.7,0.4-1.4,0.9-2.1,1.4c-1.1,1.6-2.1,3.6-3.1,6c-0.2,0.5-0.5,1-0.7,1.6c-0.6,1.2-1.2,2.6-1.8,4.2c-1.6,3.9-3.6,10.1-3.2,18.7
		c0.5,9.1,3.6,19.4,9.5,30.6c2.1,4.1,4.7,7.7,7.3,10.2c1,0.5,2,0.9,2.9,1.2c-2.9-2.1-6.4-6.1-9.4-11.8
		C45.9,400.9,48.7,386.7,52.5,377z"/>
	<g>
		<path fill="#3B2314" d="M81.6,428.7c-0.7,1.7-1.4,3.3-2.2,4.6c-0.3,0.3-0.7,0.7-1.1,1c1.1-1.6,2-3.5,2.9-5.7
			c4.1-10.3,5.4-25.1,3.4-37.6c-1.9-11.9-6.7-21-13.7-26.5c0.6,0.3,1.1,0.6,1.7,0.9c2.2,2,4.1,4.3,5.8,7c3.1,5.1,5.3,11.3,6.5,18.5
			C87.1,403.5,85.7,418.3,81.6,428.7L81.6,428.7z"/>
		<path fill="#3B2314" d="M66.6,436.5c-0.4-0.2-0.8-0.4-1.2-0.6c-2.6-2.5-5.1-6.1-7.2-10.1c-5.8-11.2-9-21.4-9.4-30.5
			c-0.4-8.5,1.6-14.7,3.1-18.6c0.6-1.5,1.2-2.9,1.8-4.1c0.3-0.6,0.5-1.1,0.7-1.6c1-2.3,2.1-4.3,3.1-6c0.3-0.2,0.6-0.5,0.9-0.7
			c-1.2,1.7-2.5,4-3.7,6.8c-0.2,0.5-0.5,1.1-0.7,1.6c-0.6,1.2-1.2,2.6-1.8,4.1c-3.8,9.7-6.6,24,6.3,48.7
			C60.9,430.2,63.8,434.1,66.6,436.5L66.6,436.5z"/>
	</g>
	<circle fill="#571202" cx="56.1" cy="415.9" r="1.5"/>
	<circle fill="#571202" cx="54.2" cy="407.9" r="1.5"/>
	<circle fill="#571202" cx="52.6" cy="399.7" r="1.5"/>
	<circle fill="#571202" cx="52.3" cy="391.4" r="1.5"/>
	<circle fill="#571202" cx="53.4" cy="383.5" r="1.5"/>
	<circle fill="#571202" cx="50.9" cy="417.1" r="1.4"/>
	<circle fill="#571202" cx="48.6" cy="409" r="1.4"/>
	<circle fill="#571202" cx="47.5" cy="400.2" r="1.4"/>
	<circle fill="#571202" cx="47" cy="392" r="1.4"/>
	<circle fill="#3B2314" cx="47.7" cy="384.3" r="1.4"/>
	<g>
		<g>
			<path fill="#FFFFFF" d="M51.1,372.1c-1,1.5-1.8,3-2.6,4.5c2-1.2,4.2-2,7-3.2c8.1-3.5,19-2.3,26.2-0.6c0,0,0,0,0,0
				c-0.2-0.2-0.3-0.4-0.5-0.5c0,0,0,0-0.1-0.1c-0.2-0.2-0.3-0.3-0.5-0.5c0,0,0,0-0.1-0.1c-1-1.1-2.1-2.1-3.1-3c0,0,0,0,0,0
				C68.3,365.8,58.7,367.3,51.1,372.1z"/>
			<path fill="#FFFFFF" d="M89.6,416.9c0.1-0.2,0.1-0.4,0.2-0.7c0,0,0,0,0,0c0.2-0.5,0.3-1,0.4-1.5c-3.8,4.5-6.7,7.1-11.4,9.1
				c-9,3.9-19,3.1-26.7,0.7c0,0,0,0,0,0.1c0.3,0.4,0.7,0.9,1,1.3c0,0,0,0,0,0c0.1,0.1,0.2,0.3,0.3,0.4c0,0,0,0,0.1,0.1
				c0.1,0.1,0.2,0.3,0.3,0.4c0,0,0,0,0,0.1c0.1,0.1,0.2,0.3,0.3,0.4c0,0,0,0,0,0c0.1,0.1,0.2,0.3,0.3,0.4c0,0,0,0,0,0
				c0.1,0.1,0.2,0.3,0.4,0.4c0.4,0.2,0.8,0.3,1.1,0.5c10.1,4,21.1,2.5,29.5-3.2c0.3-0.5,0.6-1.1,0.9-1.7c0,0,0,0,0,0
				c0.1-0.3,0.3-0.6,0.4-0.9c0,0,0,0,0-0.1c0.1-0.3,0.3-0.6,0.4-0.9c0,0,0,0,0,0c0.1-0.3,0.3-0.6,0.4-0.9c0,0,0,0,0,0
				c0.1-0.3,0.3-0.6,0.4-0.9c0,0,0-0.1,0.1-0.1c0.1-0.3,0.2-0.6,0.4-0.9c0,0,0-0.1,0.1-0.2c0.1-0.3,0.2-0.6,0.4-1
				c0.1-0.2,0.2-0.5,0.3-0.7C89.6,416.9,89.6,416.9,89.6,416.9z"/>
		</g>
	</g>
	<path fill="#929497" d="M60.1,429.7c-0.8-1.2-1.5-2.5-2.2-3.8c0,0,0-0.1-0.1-0.1c0.4,0.1,0.7,0.1,1.1,0.2c0.8,1.4,1.6,2.8,2.4,4
		C61,429.9,60.6,429.8,60.1,429.7z M53.7,374.2c0.2-0.4,0.4-0.9,0.6-1.3c0.2-0.6,0.5-1.1,0.7-1.6c0.2-0.6,0.5-1.1,0.7-1.6
		c-0.4,0.2-0.8,0.4-1.2,0.5c-0.1,0.2-0.2,0.5-0.3,0.7c-0.2,0.5-0.5,1-0.7,1.6c-0.3,0.7-0.6,1.4-0.9,2.1
		C52.9,374.5,53.3,374.3,53.7,374.2z M83.2,421.4c-0.5,2.3-1.2,4.4-2,6.4c0.4-0.2,0.8-0.4,1.1-0.6c0.7-2.1,1.4-4.3,1.9-6.7
		C84,420.9,83.6,421.2,83.2,421.4z M75.7,368.1c-0.5-0.1-1-0.2-1.5-0.3c1.2,1.3,2.3,2.7,3.3,4.2c0.4,0.1,0.8,0.1,1.2,0.2
		C77.7,370.7,76.8,369.4,75.7,368.1z"/>
	<g>
		<path fill="#6D6E70" d="M54.4,371.1c-0.2,0.5-0.4,1-0.7,1.6c-0.3,0.6-0.5,1.2-0.8,1.9c0.2-0.1,0.3-0.1,0.5-0.2
			c0.2-0.5,0.5-1,0.7-1.5c0.2-0.5,0.5-1.1,0.7-1.6c0.2-0.5,0.4-0.9,0.6-1.4c-0.2,0.1-0.4,0.2-0.5,0.2
			C54.7,370.4,54.5,370.7,54.4,371.1z"/>
		<path fill="#6D6E70" d="M84,420.9c-0.2,0.1-0.3,0.2-0.5,0.3c-0.5,2.3-1.2,4.5-1.9,6.5c0.2-0.1,0.3-0.2,0.5-0.2
			C82.8,425.4,83.5,423.2,84,420.9z"/>
		<path fill="#6D6E70" d="M60.5,429.8c0.2,0,0.4,0.1,0.5,0.1c-0.8-1.2-1.6-2.6-2.3-4c-0.2,0-0.3,0-0.5-0.1
			C58.9,427.3,59.7,428.6,60.5,429.8z"/>
		<path fill="#6D6E70" d="M78.3,372.1c-0.9-1.5-2-2.9-3-4.1c-0.2-0.1-0.4-0.1-0.7-0.1c1.1,1.3,2.2,2.7,3.2,4.2
			C78,372.1,78.1,372.1,78.3,372.1z"/>
	</g>
	<g>
		<path fill="#FFFFFF" d="M55,418.1c-0.1,0.1-0.2,0.3-0.3,0.3c-0.3,0.1-0.7,0-0.8-0.3c-1.1-2.6-3.2-8.9-4.4-15.9
			c-1-5.9-1.8-14.1,0.5-20c0-0.1,0.1-0.2,0.1-0.3c0.1-0.3,0.5-0.5,0.8-0.3c0.3,0.1,0.5,0.5,0.3,0.8c-2.3,5.6-1.6,13.7-0.6,19.6
			c1.2,6.9,3.3,13.1,4.3,15.6C55.1,417.8,55.1,417.9,55,418.1L55,418.1z"/>
	</g>
	<path fill="#A6A8AB" d="M50.4,381.6c0.1,0,0.3,0,0.4,0c0.3,0.1,0.5,0.5,0.3,0.8c-2.3,5.6-1.6,13.7-0.6,19.6
		c1.2,6.9,3.3,13.1,4.3,15.6c0.1,0.2,0.1,0.3,0,0.5c-0.1,0.1-0.2,0.3-0.3,0.3c0,0,0,0,0.1,0c0.2-0.1,0.3-0.2,0.3-0.3
		c0.1-0.2,0.1-0.3,0-0.5c-1.1-2.5-3.1-8.7-4.3-15.6c-1-5.8-1.8-14,0.6-19.6c0.1-0.3,0-0.7-0.3-0.8C50.7,381.6,50.5,381.6,50.4,381.6
		z"/>
	<path fill="#D0D2D3" d="M54.1,418.1c-1.1-2.6-3.2-8.9-4.4-15.8c-1.1-5.9-1.8-14.1,0.5-20c0-0.1,0.1-0.2,0.1-0.3
		c0.1-0.2,0.3-0.3,0.5-0.4c-0.3-0.1-0.6,0.1-0.7,0.4c0,0.1-0.1,0.2-0.1,0.3c-2.3,5.9-1.6,14.1-0.5,20c1.2,7,3.3,13.3,4.4,15.9
		c0.1,0.3,0.4,0.4,0.7,0.4C54.3,418.4,54.1,418.3,54.1,418.1z"/>
	<g>
		<path fill="#FFFFFF" d="M57,416.3c-0.1,0.3-0.4,0.6-0.8,0.6c0,0-0.1,0-0.3,0.1c-2.7,0.8-4,1.1-4.6,1.1c-0.6,0-1.2-0.6-1.1-1.2
			c0-0.6,0.6-1,1.2-1.1c0.2,0,0.9-0.1,3.8-1c0.3-0.1,0.3-0.1,0.4-0.1c0.6-0.2,1.3,0.2,1.5,0.8C57.1,415.8,57.1,416.1,57,416.3
			L57,416.3z"/>
		<path fill="#FFFFFF" d="M56.4,416.1c-0.1,0.1-0.2,0.2-0.3,0.3c-0.1,0-0.1,0-0.2,0.1l-0.1,0c-1.8,0.6-3.7,1.1-4.4,1.1
			c-0.3,0-0.6-0.3-0.6-0.5c0,0,0-0.1,0-0.1c0.1-0.2,0.3-0.3,0.6-0.3c0.5,0,1.8-0.4,4-1c0.3-0.1,0.3-0.1,0.4-0.1
			c0.3-0.1,0.6,0.1,0.7,0.4C56.4,415.9,56.4,416,56.4,416.1L56.4,416.1z"/>
	</g>
	<g>
		<path fill="#FFFFFF" d="M55,408.4c-0.3,0.8-0.9,0.9-2.9,1.2c-1.1,0.2-2.3,0.4-2.9,0.5c-0.7,0.1-1.3-0.4-1.4-1.1
			c-0.1-0.7,0.5-1.1,1.2-1.2c1.3-0.2,3.7-0.9,4.3-1.1c0.3-0.2,0.7-0.2,1.1-0.1C54.9,407,55.3,407.7,55,408.4L55,408.4z"/>
	</g>
	<g>
		<path fill="#FFFFFF" d="M53.3,400.2c-0.2,0.5-0.7,0.8-1.2,0.8c-1.6,0-3.3,0.1-3.7,0.2c-0.6,0.4-1.3,0.2-1.7-0.4
			c-0.4-0.6-0.3-1.2,0.3-1.6c0.9-0.6,3.3-0.8,5.2-0.8c0.7,0,1.2,0.6,1.2,1.3C53.4,399.9,53.4,400,53.3,400.2L53.3,400.2z"/>
	</g>
	<g>
		<path fill="#FFFFFF" d="M53.1,391.9c-0.2,0.4-0.6,0.7-1,0.8l-4.6,0.5c-0.7,0.1-1.3-0.4-1.4-1.1c-0.1-0.7,0.4-1.1,1.1-1.1l4.6-0.7
			c0.7-0.1,1.3,0.4,1.4,1.1C53.2,391.5,53.1,391.7,53.1,391.9L53.1,391.9z"/>
	</g>
	<g>
		<path fill="#FFFFFF" d="M54.3,383.9c-0.1,0.3-0.3,0.5-0.6,0.6c-0.4,0.2-0.8,0.2-1.1,0c-0.9,0-3.5,0.4-4,0.7
			c-0.6,0.3-1.4,0.1-1.7-0.5c-0.3-0.6-0.1-1.2,0.5-1.6c0.7-0.4,2-0.8,3-1c1.5-0.2,2.5-0.3,3-0.1c0.5,0.2,0.8,0.5,0.9,0.7
			C54.4,383.2,54.4,383.6,54.3,383.9L54.3,383.9z"/>
	</g>
	<path fill="#BBBDBF" d="M56.9,416.2c-0.1,0.3-0.4,0.5-0.7,0.6c0,0-0.1,0-0.3,0.1c-2.6,0.8-3.9,1.1-4.5,1.1c-0.5,0-1-0.4-1.1-0.9
		c0.1,0.5,0.5,1,1.1,1c0.6,0,1.9-0.3,4.5-1.1c0.1,0,0.2-0.1,0.3-0.1C56.5,416.9,56.8,416.6,56.9,416.2c0.1-0.1,0.1-0.3,0.1-0.5
		C57,415.9,56.9,416.1,56.9,416.2z"/>
	<path fill="#BBBDBF" d="M54.8,408.3c-0.3,0.7-0.8,0.8-2.9,1.2c-1,0.2-2.2,0.4-2.8,0.5c-0.2,0-0.4,0-0.6-0.1
		c0.2,0.1,0.4,0.1,0.7,0.1c0.6-0.1,1.8-0.3,2.8-0.5c2-0.4,2.6-0.5,2.9-1.2c0.2-0.6-0.1-1.3-0.7-1.6c0,0,0,0-0.1,0
		C54.8,407,55.1,407.7,54.8,408.3z"/>
	<path fill="#D0D2D3" d="M53.3,399.6c0,0.1,0,0.3-0.1,0.4c-0.2,0.5-0.6,0.8-1.2,0.8c-1.5,0-3.2,0.1-3.6,0.2
		c-0.6,0.3-1.3,0.2-1.7-0.3c0-0.1-0.1-0.1-0.1-0.2c0,0.1,0.1,0.2,0.2,0.3c0.4,0.5,1.1,0.7,1.7,0.3c0.4-0.2,2.1-0.3,3.6-0.2
		c0.5,0,1-0.3,1.2-0.8c0.1-0.1,0.1-0.3,0.1-0.4c0-0.2,0-0.4-0.1-0.6C53.3,399.3,53.3,399.5,53.3,399.6z"/>
	<path fill="#D0D2D3" d="M53,391.2c0,0.2,0,0.4-0.1,0.6c-0.2,0.4-0.5,0.7-1,0.8l-4.4,0.5c-0.5,0.1-1-0.2-1.2-0.7
		c0.2,0.5,0.7,0.8,1.3,0.8l4.4-0.5c0.5-0.1,0.8-0.4,1-0.8c0.1-0.2,0.1-0.4,0.1-0.6c0-0.1-0.1-0.3-0.1-0.4
		C52.9,391,52.9,391.1,53,391.2z"/>
	<path fill="#D0D2D3" d="M54.1,383.8c-0.1,0.3-0.3,0.5-0.6,0.6c-0.3,0.2-0.7,0.2-1,0c-0.8,0-3.4,0.4-3.9,0.7
		c-0.6,0.3-1.3,0.1-1.6-0.4c0,0,0-0.1,0-0.1c0,0.1,0,0.1,0.1,0.2c0.3,0.6,1.1,0.8,1.6,0.4c0.5-0.3,3.1-0.7,3.9-0.7
		c0.3,0.1,0.7,0.1,1,0C53.9,384.4,54.1,384.2,54.1,383.8c0.2-0.2,0.2-0.6,0-0.9C54.2,383.2,54.2,383.5,54.1,383.8z"/>
	<path fill="#D8D8D8" d="M50.3,417.2c0-0.6,0.6-1,1.2-1.1c0.2,0,0.9-0.1,3.8-1c0.3-0.1,0.3-0.1,0.4-0.1c0.5-0.1,0.9,0.1,1.2,0.4
		c-0.2-0.5-0.8-0.8-1.4-0.7c-0.1,0-0.1,0-0.4,0.1c-2.9,0.9-3.6,1-3.8,1c-0.6,0-1.2,0.4-1.2,1.1c0,0.3,0.1,0.6,0.3,0.8
		C50.4,417.6,50.3,417.4,50.3,417.2z"/>
	<path fill="#D0D2D3" d="M48.1,409.2c-0.1-0.7,0.5-1.1,1.2-1.2c1.3-0.2,3.7-0.9,4.3-1.1c0.3-0.2,0.7-0.2,1.1-0.1c0,0,0,0,0,0
		c-0.1-0.1-0.2-0.1-0.3-0.2c-0.4-0.1-0.7-0.1-1.1,0.1c-0.6,0.2-3,0.9-4.3,1.1c-0.7,0.1-1.3,0.5-1.2,1.2c0.1,0.4,0.4,0.8,0.7,1
		C48.3,409.8,48.1,409.5,48.1,409.2z"/>
	<path fill="#BBBDBF" d="M52.2,398.4c-1.9-0.1-4.3,0.2-5.2,0.8c-0.5,0.4-0.7,1-0.4,1.5c-0.1-0.5,0-0.9,0.5-1.2
		c0.9-0.6,3.3-0.8,5.2-0.8c0.5,0,0.8,0.3,1.1,0.6C53.2,398.8,52.8,398.4,52.2,398.4z"/>
	<path fill="#BBBDBF" d="M51.7,390.1l-4.6,0.7c-0.7,0.1-1.1,0.4-1.1,1.1c0,0.2,0.1,0.3,0.2,0.5c0-0.1,0-0.2,0-0.2
		c-0.1-0.7,0.4-1.1,1.1-1.1l4.6-0.7c0.5-0.1,1,0.2,1.2,0.6C52.9,390.5,52.4,390.1,51.7,390.1z"/>
	<path fill="#BBBDBF" d="M53.4,382.2c-0.5-0.1-1.5-0.1-3,0.1c-1,0.2-2.3,0.6-3,1c-0.6,0.3-0.9,0.9-0.5,1.5c-0.2-0.5,0.1-1,0.6-1.3
		c0.7-0.4,1.9-0.8,3-1c1.5-0.2,2.5-0.3,3-0.1c0.5,0.1,0.8,0.5,0.9,0.7c0-0.1,0-0.1-0.1-0.2C54.2,382.7,53.9,382.3,53.4,382.2z"/>
</g>
<path fill-rule="evenodd" clip-rule="evenodd" d="M281.4,152.3c0,0-2,0-3.6,0c-1.6,0-4.1,0.2-5.1,0.9c-0.9,0.7-4.1,1.4-5.6,2.2
	c-1.4,0.7-2.5,1.6-4.1,1.6c-1.6,0-4.7-1.4-6.3-2.7c-1.6-1.3-10.1-8.3-13.7-12.8c-3.6-4.5-7.9-7.6-14.1-8.5c0,0-12.3-1.4-16.1-12.1
	c0,0,2-0.7,2.5-1.8c0.5-1.1,2.5-0.5,2.5-2.7c0-2.2-2-7.4-2-10.3c0-2.9,0-3.2-0.7-5.8c-0.7-2.5-2-4.1-2.9-6.3
	c-0.9-2.2-5.6-5.6-8.5-7.6c-2.9-2-5.6-0.9-7.8-3.8c-2.2-2.9-5.1-3.6-8.5-3.6h-11.5c0.1-1.5,0.1-3.6-0.3-4c-0.5-0.5-1.3-1.8-1.3-2.3
	c0-0.5,0.4-1.3,0.9-1.3s0.5-1.8,0.5-2.3c0-0.5-0.2-3.1,0-4.5c0.2-1.4,1.8-5.4,1.8-5.4l1.6-4c3.1-3.2,1.6-6.3,1.6-6.3
	c-2.3-29.4-18.6-33.4-18.6-33.4l-0.9-0.9c-4.7-2.9-17.1-2.3-17.1-2.3l-1.4,1.1C124.3,18.1,119.6,36,119.6,36l-1.8,7.6
	c-2.3,4.1,1.4,7.6,1.4,7.6s1.1,8.7,0,10.1c-1.1,1.4,0.9,5.2,0.5,6.3c-0.3,0.9-0.1,7,0,9c-3.3,1.1-8,0.8-11.5,0.8h-7.8
	c-0.5,0-3.8-0.5-4.7-0.5c-0.9,0-4-1.6-8.7,2.9c-4.7,4.5-9.6,8.7-10.3,11.5c-0.7,2.9-3.8,11.4-2.5,14.4c1.3,3.1-1.6,2.7,0,7.8
	c1.6,5.1,0.7,10.3,0.7,10.8c0,0.5-1.1,3.6-1.1,3.6s-9.2,9.7-9.7,12.1c-0.5,2.3-9.7,13.9-9.9,14.4c-0.2,0.5-7,8.5-6.9,10.3
	c0.2,1.8-4.3,9-4.3,9s-5.4,1.4-14.4,38.8l-1.3,7.2c0,0-1.8,4.1-3.2,5.6c-1.4,1.4-1.8,4.7-1.8,4.7l-4.7,6.3c0,0-3.4,6.3-3.4,7.2
	c0,0.9-1.3,11-0.7,12.6c0.5,1.6,1.1,5.8,2,6.1c0.9,0.4,1.8,0.7,2.5-0.2c0.7-0.9,3.1,3.6,3.1,3.6s2.5,1.1,3.4,0c0,0,3.1,1.4,4.7,0
	c1.6-1.4,1.6-3.1,1.6-3.1l0.7-6.5c0,0,2.2-1.8,2.7-2.3c0.5-0.5,2.9,3.4,3.1,4.3c0.2,0.9-0.5,4,0.4,4.5c0.9,0.5,0.2,3.1,0.2,3.1
	s-3.4,13.7-1.4,16.2c0,0,0.2,1.3-0.5,2.3c-0.7,1.1-2.2,1.3-1.6,4.9c0.5,3.6-0.4,3.6-0.2,8.1c0.2,4.5,6.1,14.8,16.2,11.4
	c0,0,8.1-1.8,10.5-3.1c2.3-1.3,6-2.5,8.7-5.8c2.7-3.2,3.2-6.9,9.2-9.9c6-3.1,24.9-13.2,30.1-16.4c5.2-3.2,8.1-2.7,8.3,0
	c0.2,2.7,5.1,22.4,7.9,26.5c2.9,4.1,5.2,9.9,6.5,12.8c1.3,2.9,2.9,6.1,2.2,8.1c-0.7,2-1.4,5.1-1.4,6.1c0,1.1-3.8,9-3.8,9
	s-13.3,18.2-10.3,27.8c0,0,1.3,8.8,0.9,13c-0.4,4.1-0.7,6-1.4,8.3c-0.7,2.3-0.7,7.9-2,10.6c-1.3,2.7-3.2,4.7-4,6.7
	c-0.7,2-3.1,5.6-4.5,8.5c-1.4,2.9-2.5,3.6-3.4,5.4c-0.9,1.8-3.8,3.4-2.9,6.1c0.9,2.7,0,5.4,1.6,6.3c1.6,0.9,3.2,2.5,4,3.8
	c0.7,1.3,2.5,4.8,4.4,3.9c0,0,1.7,0.5,4.1-1.2c2.4-1.7,3.4-1.9,6.3-3.1c2.9-1.2,2.4-3.6,5.8-4.6c3.4-1,6.7-1.7,10.3-3.6
	c3.6-1.9,16.6-6.5,19-12.5c0,0,5.8-6.7,7.5-12c0,0,5.1-16.1-11.5-15.9c0,0-8.2,1.9-8.9,2.6c-0.7,0.7-3.6,2.6-3.6,2.6
	s16.6-25.5,16.8-35.8c0,0,2.4-10.6,3.1-16.4c0.7-5.8,7.7-15.9,8.4-18.3c0.7-2.4,2.2-1.7,3.1-6.5c1-4.8,7.9-9.4,7.9-20.4
	c0,0,1.2-6.5,1.2-10.6c0-4.1-1.9-9.9-1.9-9.9s1-5.1,0-8.7c-1-3.6-2.2-6.7-2.2-9.1c0-2.4,1.9-8.7,1.2-12c-0.7-3.4-0.7-7-2.2-9.1
	c-1.4-2.2,0.5-4.1,2.6-6c2.2-1.9,1.7-7.5,1.2-11.8c-0.5-4.3-1-10.3-0.5-13.7c0.5-3.4,2.4-9.6,2.4-12.5c0-2.9,1.4-4.6,2.6-9.1
	c1.2-4.6,2.4-8.4,2.4-11.3c0-2.9-0.2-5.8,1.9-10.3c2.2-4.6,3.4-10.1,5.8-10.6c2.4-0.5,7.5-1,9.9,0.5c2.4,1.4,8.2,4.6,10.6,5.8
	c2.4,1.2,11.8,7.7,16.1,9.6c4.3,1.9,7.9,1.9,11.8,3.4c3.8,1.4,10.8,4.1,14.2,5.3c3.4,1.2,4.8,1.7,8.4,1.7c3.6,0,5.7,1.6,5.7,1.6
	s-0.2,1.8,0.9,1.8c1.1,0,4.9-0.2,4.9-0.2s0.5,0.7,2.2,1.1c1.6,0.4,3.2,0.9,4.7-0.7c1.4-1.6,3.1-3.6,4.1-4.3c1.1-0.7,2.7-7,2.7-7
	S290.1,158.1,281.4,152.3z M43.3,251.7c0,0-1.6-3.4-2-4.3c-0.4-0.9,0.9-1.9,1.2-7.3c0-0.2,0-0.3,0-0.3c0,0.1,0,0.2,0,0.3
	c-0.1,0.9-0.1,3.7,0.9,4.5c1.3,1.1,2,3.6,2,3.6L43.3,251.7z M87.6,157.8c-1.8,1.5-2.3,3-3.3,6.1c-1,3-2.8,4.8-1,11.7
	c1.8,6.8-0.5,13.4,1,17.5c1.5,4.1,3.8,5.6,0.5,7.4c-3.3,1.8-5.6,4.3-7.1,4.6c-1.5,0.3-1.5-2-3.8-0.8c-2.3,1.3-5.3,3.8-5.3,3.8
	s-2.8,1.3-6.1,3.3c-3.3,2-9.1,7.6-11.7,10.1c-2.5,2.5-6.6,4.6-7.4,6.6c-0.8,2-0.7-2.8,0.5-4.5c1.2-1.7,0.5-2.6,2.4-6.3
	c1.9-3.6,5.5-23.1,13.9-33.4l2.9-4.6c0,0,14.2-10.4,25.4-25.5C88.6,153.8,89.3,156.3,87.6,157.8z"/>
</svg>
