<?xml version="1.0" encoding="utf-8"?>
<!-- Generator: Adobe Illustrator 18.1.0, SVG Export Plug-In . SVG Version: 6.00 Build 0)  -->
<!DOCTYPE svg PUBLIC "-//W3C//DTD SVG 1.1//EN" "http://www.w3.org/Graphics/SVG/1.1/DTD/svg11.dtd">
<svg version="1.1" id="Layer_1" xmlns="http://www.w3.org/2000/svg" xmlns:xlink="http://www.w3.org/1999/xlink" x="0px" y="0px"
	 viewBox="0 0 306.6 443.9" enable-background="new 0 0 306.6 443.9" xml:space="preserve">
<path fill-rule="evenodd" clip-rule="evenodd" d="M295.1,422.2c-0.7-1.5-15.7-10.3-23-13c-7.3-2.7-8.3-7.3-10.8-12.2
	c-2.4-4.9-5.9-3.9-6.8-4.4c-1-0.5-5.1-1-7.8-1.7c-2.7-0.7-2.9-2.2-3.2-3.2c-0.2-1-3.4-2.7-5.4-3.7c-2-1-4.2-7.3-4.9-8.1
	c-0.7-0.7-9.5-14.4-9.5-14.4c-6.4-12.7-22.7-20.8-22.7-20.8s0.7-5.4-1.2-13c-2-7.6-22-24.2-24.2-26.9c-2.2-2.7-4.4-3.2-5.1-7.1
	c-0.7-3.9-5.1-9.3-3.4-11c1.7-1.7,0.7-15.4,0.5-20.1c-0.2-4.6-1.5-7.3-2-12c-0.5-4.6-0.5-8.1,0.7-13.2c1.2-5.1,1.2-8.1,1.7-10.5
	c0.5-2.4-2-11.5-2.4-13.2c-0.5-1.7-2-3.4-2-5.9c0-2.4,1.7-4.6,3.4-5.9c1.7-1.2,1.2-4.4,1.2-7.3s0-2.9,0-2.9s1.5-1.7,3.2-1.5
	c1.7,0.2,7.3,0.7,9.8,0.7c2.4,0,17.6,0.5,17.6,0.5c17.1,2,23-6.1,23-6.1c8.3-13.5-0.2-24.2-3.7-26.4c-3.4-2.2-6.6-8.3-6.8-9.8
	c-0.2-1.5-8.6-14.7-9.3-14.9c-0.7-0.2-7.1-10.3-7.1-12c0-1.7,2.4-3.4,6.4-5.1c3.9-1.7,3.4-4.2,6.1-8.8c2.7-4.6-1.5-4.9-2-8.8
	c-0.5-3.9-1-5.1-1.2-7.8c-0.2-2.7-1-5.9-3.4-6.6c-2.4-0.7-1.2-6.6-2.9-10.8c-1.7-4.2-3.4-7.6-4.9-8.1c-1.5-0.5-12-3.9-16.9-6.8
	c-4.9-2.9-10-1-14.7-1.5c-4.6-0.5-7.1,0-9,1c-1.4,0.7-8.1,2.9-11.5,4c1.4-3.7,3.2-8,3.1-9.2c-0.2-2,0.1-12.6,0.1-12.6
	s1.5-30.3-32.5-34.7c0,0-38.6-4.6-40.4,40.6l-0.3,0.9C70.1,48,70,48.2,70,48.2c-2.1,3.4,0.2,8.5,0.2,9.1c0,0.7,0,4,0.3,4.6
	c0.2,0.4,0.4,2.3,0.5,3.2l-9-1c-11.1,0.5-29.2,10.1-32.8,12.7c-3.7,2.6-7.5,9-11.4,17.1c-3.9,8.1-2.4,9.2-2.9,12.8
	c-0.6,3.7-2.4,9.2-2.2,10.3c0.2,1.1,4.6,5.9,5.5,9.9c0.9,4,8.6,6.6,7.2,9.9c-1.5,3.3-12.5,29.2-12.5,29.2
	c-3.3,11.7-3.3,37.2-2.6,41.1c0.7,3.9,0.7,30.6,0.7,31.9c0,1.3-0.9,6.4-2,10.5c-1.1,4-0.4,6.1-0.6,6.6c-0.2,0.6-0.5,5.9-1.7,7.9
	c-1.1,2-2.8,11.4-2.8,11.4c-0.6,3.3,2.4,1.3,2.4,1.3s1.1-3.1,1.7-4.6c0.6-1.5,2.6-3.1,2.6-3.1l-1.1,6.1L9.4,283
	c1.1,2.6,2.4-0.2,2.4-0.2l0.9-3.9c0,0,1.7-6.8,2-8.4c0.4-1.7,2.2-2.8,2.4-0.6s1.5,5.5,1.5,5.5l0.9,9.5c0.9,3.7,2.8,0.7,2.8,0.7
	l0.2-9.2l0.4-4l0.9,3.5l0.7,9.2c1.5,2.9,3.1,0.5,3.1,0.5l0.5-2.8l0.9-6.8c0,0-0.4-8.6-0.4-10.3c0-1.7,0-7,0-7s1.1-1.8,1.7-1.8
	c0.5,0,1.7,1.5,1.8,2.9c0.2,1.5,2.4,6.1,2.4,6.1c2.9,5.3,5.7,2.2,5.7,2.2c1.5-0.4-1.3-7-1.3-7c-2.2-2.7-1.8-8.7-1.8-8.7
	c0.7-1.6-1.3-4.9-1.3-4.9s-5.5-8.8-6.8-10.6c-1.3-1.8-2-18.5-1.7-24.1c0.2-5.6,2.9-13.9,2.9-13.9c2.4-5.1,5.6-27.9,5.6-27.9
	c2.2-2,13.5-22.5,15.9-24.2c2.4-1.7,5.9-0.2,9.5,0.2c3.7,0.5,3.9,2.9,4.4,5.1c0.5,2.2,3.7,9.8,4.2,11c0.5,1.2-1.2,5.9-0.5,9.5
	c0.7,3.7,0.5,7.8,1.2,12.2c0.7,4.4-0.5,4.6-1.2,7.1c-0.7,2.4-1.1,7.3,0,8.9c1.1,1.7,5.3,13.2,5,16.7c-0.4,3.5-2.4,4.8-2.6,9
	c-0.2,4.2,1.8,3.9,0.9,5.9c-0.9,2-1.3,10.1-1.3,10.1c-1.3,9.9,10.6,27.9,14.5,35.6c3.9,7.7,24.8,14.3,17.6,13.8
	c-7.2-0.5-15.4,4.2-15.4,4.2c-6.4,0-24,6.6-25.7,7.3c-1.7,0.7-7-0.5-9.7-1.1c-2.8-0.6-2.6-1.1-2.6-2c0-0.9,0.2-2.2,1.1-2.8
	c0.9-0.5-3.3-1.8-4-1.8c-0.7,0-3.9,0.2-5.5-1.1c-1.7-1.3-1.8-0.7-4.6-1.7c-2.8-0.9-4.4-0.9-5.7-1.5c-1.3-0.5-2.6-1.5-5.1-1.5
	c-2.6,0-4.2-0.4-4.2-0.4l-2.8,2.9l0.7,2l-2.6,3.1l-2.8,1.3l-0.6,3.1l2.4,1.3c0,0,0.5,2.4-0.6,3.1c-1.1,0.7-0.4,4.4-0.4,4.4l2,2.2
	l-1.3,1.8l0.7,3.3l2.6-0.4c0,0,1.1,1.5,2.9,3.5c1.8,2-0.6,11.4-0.6,11.4l-1.7,0.2l-0.5,2.8l2.6,0.9l-0.4,3.9l-2.6,0.6v2.6l2.6,0.5
	l0.9,4.6l-2.6,1.8l0.9,2l3.3,1.7l0.9,1.7l-2.2,2.6l1.5,0.9l3,0.4l2.4,3.4c6.4,3.7,12.2-1.7,13.2-2.7c1-1,2.4-14.2,2.7-18.1
	c0.2-3.9,2-4.6,3.2-6.6c1.2-2,2.4-3.2,6.6-3.2s6.4-1,6.8-1.7c0.5-0.7,0.7-3.7,2.2-5.4c1.5-1.7,13-2,14.7-2c1.7,0,29.3,1.5,29.3,1.5
	c11.7,23.2,33,10.5,35,9.8c2-0.7,6.1-6.4,8.6-6.4c2.4,0,14.4,14.4,14.7,15.2c0.2,0.7,4.9,4.6,4.9,7.1c0,2.4,2.2,4.4,2.2,4.4
	c3.2,17.9,25.7,28.4,25.7,28.4c6.1,1.5,30.1,19.1,30.1,19.1s5.1,3.7,5.9,4.4c0.7,0.7,1.5,5.6,2.9,8.1c1.5,2.4,9.5,11.5,12.2,13.2
	c2.7,1.7,4.9,6.1,8.1,7.6c3.2,1.5,8.8,3.2,13.7,2.7c4.9-0.5,9-0.5,9-0.5C306.3,438.8,295.8,423.7,295.1,422.2z"/>
<g>
	<g>
		<path fill="#722A06" d="M129.8,156.3c0,3.7,3.4,12.6,14.7,20.7c12.8,9.1,33.7,9.4,42.8,5.1c9.2-4.3,13.9-8.7,15.8-14.8
			c2.6-8.4-11.3-21-17.9-24.3c-5.1-2.6-19.8-9.8-37.5-2.7C135,145.6,129.8,152.9,129.8,156.3z"/>
		<path fill="#722A06" d="M136.3,154.1c0,2.1,2,7,8.4,11.3c7.2,4.9,18.8,4.8,23.8,2.3c5-2.5,7.7-5,8.6-8.4
			c1.4-4.7-6.5-11.5-10.2-13.3c-2.9-1.4-11.1-5.2-20.9-1C139.1,148.1,136.3,152.2,136.3,154.1z"/>
		<path fill="#722A06" d="M142.8,151.9c0.1,0.4,0.7,1.3,2.1,2c1.6,0.7,4,0.3,4.9-0.4c0.9-0.7,1.4-1.3,1.4-2c0.1-1-1.7-2.1-2.5-2.3
			c-0.6-0.2-2.4-0.6-4.2,0.6C143.2,150.5,142.7,151.5,142.8,151.9z"/>
	</g>
	<path fill="#571202" d="M200.8,172.1c-7,6-17.4,8.5-29.9,7.2c-12.3-1.3-25.7-6.4-34.4-12.9c0,0,0,0,0,0c-2.5-1.9-4.5-3.8-5.8-5.7
		c0.4,0.9,0.8,2,1.4,3c1.1,1.1,2.4,2.2,3.8,3.3c0,0,0,0,0,0c8.7,6.6,22.4,11.7,34.8,13c7.1,0.8,13.6,0.3,19.2-1.3
		c3-0.9,5.8-2.1,8.2-3.7C199.2,174.2,200,173.2,200.8,172.1z"/>
	<path fill="#571202" d="M192.3,152.9c1.3,1,2.4,1.9,3.4,2.7c0.5,0.4,0.9,0.7,1.3,1.1c3.1,2.5,5,4.6,6.2,6.2
		c-0.2-0.8-0.4-1.6-0.8-2.3c-1.3-1.4-2.9-2.9-4.8-4.5c-0.4-0.3-0.8-0.7-1.3-1.1c-1-0.8-2.2-1.8-3.4-2.8c-3.3-2.5-8.6-6-16.7-7.8
		c-8.7-1.9-19.2-1.6-31.2,1c-4.4,0.9-8.4,2.4-11.5,4.2c-0.8,0.8-1.4,1.6-1.9,2.4c2.7-2.2,7.4-4.5,13.6-5.8
		C171.6,140.6,184.2,146.8,192.3,152.9z"/>
	<g>
		<path fill="#3B2314" d="M136.1,166.9c-1.4-1.1-2.7-2.2-3.8-3.3c-0.2-0.4-0.4-0.8-0.6-1.2c1.2,1.4,2.8,2.8,4.6,4.2
			c8.7,6.5,22.2,11.6,34.5,12.9c11.7,1.2,21.5-0.8,28.5-6c-0.4,0.5-0.8,0.9-1.3,1.4c-2.4,1.5-5.1,2.8-8.1,3.6
			c-5.6,1.6-12,2.1-19.1,1.3C158.4,178.6,144.8,173.5,136.1,166.9L136.1,166.9z"/>
		<path fill="#3B2314" d="M132.7,150.8c0.3-0.3,0.6-0.7,0.9-1c3-1.8,7-3.3,11.4-4.2c12-2.6,22.5-2.9,31.1-1
			c8.1,1.8,13.4,5.3,16.7,7.8c1.3,1,2.4,1.9,3.4,2.8c0.5,0.4,0.9,0.7,1.3,1.1c1.9,1.6,3.5,3.1,4.8,4.5c0.1,0.3,0.3,0.7,0.4,1
			c-1.3-1.6-3.1-3.3-5.4-5.2c-0.4-0.3-0.9-0.7-1.3-1.1c-1-0.8-2.2-1.8-3.4-2.7c-8.1-6.1-20.8-12.4-47.5-6.7
			C140.1,147,135.7,148.8,132.7,150.8L132.7,150.8z"/>
	</g>
	<circle fill="#571202" cx="154.8" cy="146.3" r="1.4"/>
	<circle fill="#571202" cx="162.8" cy="146.5" r="1.4"/>
	<circle fill="#571202" cx="170.9" cy="147.2" r="1.4"/>
	<circle fill="#571202" cx="178.8" cy="149" r="1.4"/>
	<circle fill="#571202" cx="186" cy="152.1" r="1.4"/>
	<circle fill="#571202" cx="155.1" cy="141.1" r="1.3"/>
	<circle fill="#571202" cx="163.3" cy="141" r="1.3"/>
	<circle fill="#571202" cx="171.8" cy="142.2" r="1.3"/>
	<circle fill="#571202" cx="179.7" cy="143.9" r="1.3"/>
	<circle fill="#3B2314" cx="186.7" cy="146.5" r="1.3"/>
	<g>
		<g>
			<path fill="#FFFFFF" d="M197.3,152.9c-1.1-1.3-2.3-2.5-3.6-3.6c0.6,2.2,0.8,4.4,1.2,7.4c1.2,8.5-2.8,18.4-6.2,24.8c0,0,0,0,0,0
				c0.2-0.1,0.4-0.2,0.6-0.3c0,0,0.1,0,0.1,0c0.2-0.1,0.4-0.2,0.6-0.3c0,0,0,0,0.1,0c1.3-0.7,2.5-1.4,3.6-2.1c0,0,0,0,0,0
				C198.8,170.7,199.8,161.3,197.3,152.9z"/>
			<path fill="#FFFFFF" d="M145.2,177.5c0.2,0.1,0.4,0.2,0.6,0.4c0,0,0,0,0,0c0.4,0.3,0.9,0.5,1.3,0.8c-3.3-4.7-5-8.2-5.6-13.1
				c-1.3-9.4,2-18.7,6.3-25.2c0,0,0,0-0.1,0c-0.5,0.2-1,0.4-1.5,0.6c0,0,0,0,0,0c-0.2,0.1-0.3,0.1-0.5,0.2c0,0,0,0-0.1,0
				c-0.1,0.1-0.3,0.1-0.4,0.2c0,0,0,0-0.1,0c-0.2,0.1-0.3,0.1-0.4,0.2c0,0,0,0,0,0c-0.2,0.1-0.3,0.1-0.5,0.2c0,0,0,0,0,0
				c-0.2,0.1-0.3,0.2-0.5,0.2c-0.3,0.3-0.5,0.6-0.7,0.9c-6.4,8.5-7.8,19.2-4.6,28.6c0.4,0.4,0.9,0.9,1.4,1.3c0,0,0,0,0,0
				c0.2,0.2,0.5,0.4,0.7,0.6c0,0,0,0,0.1,0.1c0.2,0.2,0.5,0.4,0.7,0.6c0,0,0,0,0,0c0.2,0.2,0.5,0.4,0.7,0.6c0,0,0,0,0,0
				c0.2,0.2,0.5,0.4,0.7,0.6c0,0,0.1,0.1,0.1,0.1c0.2,0.2,0.5,0.4,0.7,0.6c0,0,0.1,0.1,0.1,0.1c0.3,0.2,0.5,0.4,0.8,0.6
				C144.7,177.1,144.9,177.3,145.2,177.5C145.1,177.5,145.2,177.5,145.2,177.5z"/>
		</g>
	</g>
	<path fill="#929497" d="M140.7,146.5c1.3-0.4,2.7-0.8,4.1-1.1c0,0,0.1,0,0.1,0c-0.2,0.3-0.3,0.6-0.4,1c-1.6,0.4-3,0.8-4.4,1.2
		C140.3,147.2,140.5,146.8,140.7,146.5z M194.7,154.8c0.4,0.3,0.7,0.6,1,0.9c0.5,0.4,0.9,0.7,1.3,1.1c0.5,0.4,0.9,0.8,1.3,1.1
		c-0.1-0.4-0.1-0.9-0.2-1.3c-0.2-0.2-0.4-0.3-0.6-0.5c-0.4-0.3-0.8-0.7-1.3-1.1c-0.5-0.5-1.1-0.9-1.8-1.4
		C194.6,154,194.6,154.4,194.7,154.8z M142.6,170.3c-2-1.1-3.8-2.3-5.5-3.5c0.1,0.4,0.1,0.8,0.2,1.2c1.8,1.2,3.7,2.4,5.8,3.5
		C142.9,171.2,142.7,170.8,142.6,170.3z M194.6,177.1c0.3-0.4,0.5-0.9,0.7-1.3c-1.5,0.8-3.1,1.4-4.8,2c-0.2,0.4-0.3,0.7-0.5,1.1
		C191.7,178.3,193.2,177.7,194.6,177.1z"/>
	<g>
		<path fill="#6D6E70" d="M197.4,156.3c-0.4-0.3-0.8-0.7-1.3-1.1c-0.5-0.4-1-0.8-1.5-1.3c0,0.2,0,0.4,0.1,0.5c0.4,0.4,0.8,0.7,1.2,1
			c0.4,0.4,0.9,0.7,1.3,1.1c0.4,0.3,0.8,0.6,1.1,0.9c0-0.2-0.1-0.4-0.1-0.6C198,156.7,197.7,156.5,197.4,156.3z"/>
		<path fill="#6D6E70" d="M142.9,171.2c-0.1-0.2-0.1-0.4-0.2-0.5c-2-1.1-3.9-2.3-5.6-3.5c0,0.2,0.1,0.3,0.1,0.5
			C139,168.9,140.9,170.1,142.9,171.2z"/>
		<path fill="#6D6E70" d="M140.6,146.8c-0.1,0.2-0.2,0.3-0.3,0.5c1.4-0.4,2.8-0.8,4.3-1.2c0.1-0.1,0.1-0.3,0.2-0.4
			C143.4,146,141.9,146.3,140.6,146.8z"/>
		<path fill="#6D6E70" d="M190.2,178.5c1.6-0.5,3.2-1.1,4.7-1.8c0.1-0.2,0.2-0.4,0.3-0.6c-1.5,0.7-3.1,1.4-4.8,1.9
			C190.3,178.2,190.3,178.3,190.2,178.5z"/>
	</g>
	<g>
		<path fill="#FFFFFF" d="M153,144.6c-0.1-0.1-0.2-0.2-0.2-0.4c0-0.3,0.2-0.6,0.5-0.7c2.7-0.4,9.2-0.7,16.1-0.1
			c5.8,0.5,13.8,2,18.7,5.7c0.1,0.1,0.2,0.1,0.2,0.2c0.3,0.2,0.3,0.6,0.1,0.9c-0.2,0.3-0.6,0.3-0.9,0.1c-4.6-3.6-12.5-5.1-18.3-5.6
			c-6.8-0.6-13.1-0.3-15.8,0C153.3,144.8,153.2,144.7,153,144.6L153,144.6z"/>
	</g>
	<path fill="#A6A8AB" d="M188.5,149.7c0,0.1,0,0.3-0.1,0.4c-0.2,0.3-0.6,0.3-0.9,0.1c-4.7-3.6-12.5-5.1-18.3-5.6
		c-6.8-0.6-13.1-0.3-15.8,0.1c-0.2,0-0.3,0-0.5-0.1c-0.1-0.1-0.2-0.2-0.2-0.4c0,0,0,0,0,0.1c0,0.2,0.1,0.3,0.2,0.4
		c0.1,0.1,0.3,0.1,0.5,0.1c2.6-0.4,9-0.7,15.8,0c5.8,0.5,13.6,2,18.3,5.6c0.3,0.2,0.7,0.2,0.9-0.1
		C188.5,150.1,188.5,149.9,188.5,149.7z"/>
	<path fill="#D0D2D3" d="M153.2,143.8c2.7-0.4,9.2-0.7,16.1-0.1c5.8,0.5,13.8,2,18.7,5.7c0.1,0.1,0.2,0.1,0.2,0.2
		c0.2,0.1,0.3,0.4,0.2,0.6c0.1-0.3,0.1-0.6-0.2-0.8c-0.1-0.1-0.2-0.1-0.2-0.2c-4.9-3.7-12.8-5.1-18.7-5.7
		c-6.9-0.6-13.4-0.3-16.1,0.1c-0.3,0-0.5,0.3-0.5,0.5C152.9,143.9,153,143.8,153.2,143.8z"/>
	<g>
		<path fill="#FFFFFF" d="M154.2,147c-0.3-0.2-0.4-0.5-0.4-0.9c0,0,0-0.2,0-0.3c-0.1-2.7,0-4,0.2-4.7c0.2-0.6,0.8-0.9,1.4-0.8
			c0.6,0.2,0.8,0.8,0.7,1.4c0,0.2-0.1,0.9-0.1,3.8c0,0.3,0,0.4,0,0.4c0,0.6-0.5,1.1-1.1,1.2C154.6,147.2,154.4,147.1,154.2,147
			L154.2,147z"/>
		<path fill="#FFFFFF" d="M154.6,146.5c-0.1-0.1-0.2-0.2-0.2-0.4c0-0.1,0-0.1,0-0.2l0-0.1c-0.1-1.8-0.1-3.8,0.1-4.4
			c0.1-0.3,0.4-0.5,0.7-0.4c0,0,0.1,0,0.1,0.1c0.1,0.1,0.2,0.3,0.1,0.6c-0.1,0.5-0.1,1.8-0.1,4c0,0.3,0,0.3,0,0.4
			c0,0.3-0.3,0.6-0.5,0.6C154.7,146.6,154.6,146.5,154.6,146.5L154.6,146.5z"/>
	</g>
	<g>
		<path fill="#FFFFFF" d="M162.2,147.2c-0.6-0.5-0.6-1-0.4-3.1c0.1-1.1,0.2-2.2,0.3-2.8c0.1-0.7,0.7-1.2,1.4-1.1
			c0.7,0.1,0.9,0.7,0.8,1.4c-0.2,1.2-0.1,3.7-0.1,4.3c0.1,0.3,0,0.7-0.2,1C163.5,147.5,162.7,147.6,162.2,147.2L162.2,147.2z"/>
	</g>
	<g>
		<path fill="#FFFFFF" d="M170.3,147.7c-0.4-0.3-0.6-0.8-0.4-1.3c0.4-1.5,0.8-3.1,0.7-3.6c-0.2-0.6,0.2-1.3,0.8-1.5
			c0.6-0.2,1.2,0.1,1.4,0.7c0.4,1-0.1,3.3-0.6,5.1c-0.2,0.7-0.9,1-1.5,0.8C170.6,147.9,170.4,147.8,170.3,147.7L170.3,147.7z"/>
	</g>
	<g>
		<path fill="#FFFFFF" d="M178.2,149.6c-0.4-0.3-0.5-0.7-0.5-1.2l0.7-4.4c0.1-0.7,0.7-1.1,1.4-1c0.7,0.1,0.9,0.6,0.8,1.3l-0.5,4.6
			c-0.1,0.7-0.7,1.1-1.4,1C178.5,149.8,178.3,149.7,178.2,149.6L178.2,149.6z"/>
	</g>
	<g>
		<path fill="#FFFFFF" d="M185.3,152.9c-0.2-0.2-0.4-0.4-0.5-0.7c-0.1-0.4,0-0.8,0.2-1c0.3-0.8,0.5-3.4,0.4-4
			c-0.2-0.7,0.2-1.3,0.9-1.5c0.7-0.2,1.2,0.2,1.3,0.9c0.2,0.7,0.3,2,0.1,3c-0.2,1.5-0.4,2.4-0.7,2.9c-0.3,0.5-0.7,0.6-0.9,0.6
			C186,153.2,185.6,153.1,185.3,152.9L185.3,152.9z"/>
	</g>
	<path fill="#BBBDBF" d="M154.3,146.9c-0.3-0.2-0.4-0.5-0.4-0.9c0,0,0-0.1,0-0.3c-0.1-2.7,0-3.9,0.2-4.5c0.2-0.5,0.7-0.8,1.2-0.8
		c-0.5-0.1-1,0.3-1.2,0.8c-0.2,0.6-0.2,1.9-0.2,4.5c0,0.1,0,0.2,0,0.3C153.8,146.4,154,146.7,154.3,146.9c0.1,0.1,0.3,0.2,0.5,0.2
		C154.6,147.1,154.4,147,154.3,146.9z"/>
	<path fill="#BBBDBF" d="M162.3,147c-0.6-0.5-0.6-1-0.4-3c0.1-1,0.2-2.2,0.3-2.7c0-0.2,0.1-0.4,0.2-0.5c-0.1,0.2-0.2,0.4-0.3,0.6
		c-0.1,0.6-0.2,1.7-0.3,2.7C161.6,146.1,161.6,146.6,162.3,147c0.5,0.5,1.2,0.4,1.6-0.1c0,0,0,0,0,0
		C163.5,147.3,162.8,147.4,162.3,147z"/>
	<path fill="#D0D2D3" d="M170.8,147.8c-0.1,0-0.3-0.1-0.4-0.2c-0.4-0.3-0.6-0.8-0.4-1.3c0.4-1.4,0.8-3,0.7-3.5
		c-0.2-0.6,0.1-1.3,0.8-1.5c0.1,0,0.1,0,0.2-0.1c-0.1,0-0.2,0-0.3,0.1c-0.6,0.2-0.9,0.9-0.8,1.5c0,0.4-0.3,2-0.7,3.5
		c-0.2,0.5,0,1,0.4,1.3c0.1,0.1,0.2,0.1,0.4,0.2c0.2,0.1,0.4,0.1,0.6,0C171.2,147.9,171,147.9,170.8,147.8z"/>
	<path fill="#D0D2D3" d="M178.9,149.7c-0.2,0-0.4-0.1-0.5-0.2c-0.3-0.3-0.5-0.7-0.5-1.1l0.7-4.3c0.1-0.5,0.5-0.9,0.9-1
		c-0.5,0-1,0.4-1.1,1l-0.7,4.3c-0.1,0.4,0.1,0.9,0.5,1.1c0.1,0.1,0.3,0.2,0.5,0.2c0.1,0,0.3,0,0.4,0
		C179.1,149.7,179,149.7,178.9,149.7z"/>
	<path fill="#D0D2D3" d="M185.5,152.7c-0.2-0.2-0.4-0.4-0.4-0.7c-0.1-0.4,0-0.7,0.2-1c0.2-0.8,0.5-3.3,0.4-3.8
		c-0.2-0.6,0.2-1.3,0.8-1.4c0,0,0.1,0,0.1,0c-0.1,0-0.1,0-0.2,0c-0.6,0.2-1,0.8-0.8,1.4c0.1,0.5-0.1,3.1-0.4,3.8
		c-0.2,0.3-0.3,0.6-0.2,1C185,152.3,185.2,152.6,185.5,152.7c0.2,0.2,0.5,0.3,0.8,0.2C186,153,185.7,152.9,185.5,152.7z"/>
	<path fill="#D8D8D8" d="M155,140.5c0.6,0.2,0.8,0.8,0.7,1.4c0,0.2-0.1,0.9-0.1,3.8c0,0.3,0,0.4,0,0.4c0,0.5-0.3,0.8-0.7,1
		c0.6-0.1,1-0.6,1-1.1c0-0.1,0-0.1,0-0.4c-0.1-2.9,0-3.7,0.1-3.8c0.1-0.6-0.1-1.2-0.7-1.4c-0.3-0.1-0.6,0-0.8,0.1
		C154.7,140.4,154.9,140.4,155,140.5z"/>
	<path fill="#D0D2D3" d="M163.2,140.4c0.7,0.1,0.9,0.7,0.8,1.4c-0.2,1.2-0.1,3.7-0.1,4.3c0.1,0.3,0,0.7-0.2,1c0,0,0,0,0,0
		c0.1-0.1,0.2-0.2,0.3-0.3c0.2-0.3,0.3-0.7,0.2-1c0-0.6,0-3.1,0.1-4.3c0.1-0.7-0.1-1.3-0.8-1.4c-0.4-0.1-0.9,0.1-1.1,0.5
		C162.6,140.5,162.9,140.4,163.2,140.4z"/>
	<path fill="#BBBDBF" d="M172.2,147.1c0.5-1.7,1-4.1,0.6-5.1c-0.2-0.6-0.7-0.9-1.3-0.7c0.5,0,0.9,0.3,1,0.8c0.4,1-0.1,3.3-0.6,5.1
		c-0.1,0.4-0.5,0.7-0.9,0.8C171.6,148,172.1,147.6,172.2,147.1z"/>
	<path fill="#BBBDBF" d="M180.1,148.8l0.5-4.6c0.1-0.7-0.1-1.2-0.8-1.3c-0.2,0-0.3,0-0.5,0c0.1,0,0.2,0,0.2,0
		c0.7,0.1,0.9,0.6,0.8,1.3l-0.5,4.6c-0.1,0.5-0.5,0.9-0.9,1C179.5,149.9,180.1,149.4,180.1,148.8z"/>
	<path fill="#BBBDBF" d="M187.2,152.4c0.3-0.5,0.5-1.4,0.7-2.9c0.1-1,0-2.3-0.1-3c-0.2-0.6-0.7-1.1-1.3-0.9c0.5,0,0.9,0.4,1.1,0.9
		c0.2,0.7,0.3,2,0.1,3c-0.2,1.5-0.4,2.4-0.7,2.9c-0.3,0.4-0.6,0.6-0.9,0.6c0.1,0,0.1,0,0.2,0C186.6,153,186.9,152.9,187.2,152.4z"/>
</g>
<path fill-rule="evenodd" clip-rule="evenodd" d="M164.3,189.4c0,0-3.5,0.4-6.2-0.2c-2.6-0.7-8.4-0.7-11.2-0.7
	c-2.9,0-6.2-1.1-7.7-1.5c-1.5-0.4-2.9-4.2-4.4-5.3c-1.5-1.1-4.8-3.7-6.2-5.5c-1.3-1.8-0.4-3.5,0.7-3.5c1.1,0-4.2-2.4-0.9-4
	c0,0,1.8-1.1,3.5-1.1c1.8,0,17.8,0,18.7,0c0.9,0,7.5-0.2,8.1-1.1c0.7-0.9,6.4-7,5.3-8.1c-1.1-1.1-1.8-1.8-2.6-3.1
	c-0.9-1.3-4.2-4.2-4.2-7.7c0,0,0.4-3.5,4.2-2c0,0,1.8,2.6,3.3,3.5c1.5,0.9,4.2,3.7,4.2,3.7s3.3,3.5,3.5,4.4c0.2,0.9,3.1,4.2,3.3,4.8
	c0.2,0.7,1.3,2.6,3.1,3.5c1.8,0.9,2.9,4.6,7.5,4.6c4.6,0,7-2.2,7-2.2s2.2-4.6,1.8-9c-0.4-4.4,25.1,8.1,19.4,23.3l-4.6,7.5
	C209.8,189.9,189.6,192.7,164.3,189.4z"/>
</svg>
