<?xml version="1.0" encoding="utf-8"?>
<!-- Generator: Adobe Illustrator 18.1.0, SVG Export Plug-In . SVG Version: 6.00 Build 0)  -->
<!DOCTYPE svg PUBLIC "-//W3C//DTD SVG 1.1//EN" "http://www.w3.org/Graphics/SVG/1.1/DTD/svg11.dtd">
<svg version="1.1" id="Layer_1" xmlns="http://www.w3.org/2000/svg" xmlns:xlink="http://www.w3.org/1999/xlink" x="0px" y="0px"
	 viewBox="0 0 533.1 446.9" enable-background="new 0 0 533.1 446.9" xml:space="preserve">
<g>
	<g>
		<g>
			<path fill="#722A06" d="M27.3,166.9c2.5,2.2,10.5,5.1,22.6,2.3c13.7-3.2,26.2-17.2,28.7-25.8c2.5-8.7,2.4-14.5-0.6-19.4
				c-4.1-6.7-20.8-4.8-26.9-2.3c-4.8,1.9-18.3,7.5-23.9,23.7C23.1,157,25,164.8,27.3,166.9z"/>
			<path fill="#722A06" d="M29.6,161.2c1.4,1.2,5.9,2.7,12.6,1c7.6-1.9,14.4-9.8,15.7-14.7c1.3-4.9,1.2-8.1-0.6-10.8
				c-2.4-3.7-11.6-2.4-15-1c-2.6,1.1-10.1,4.4-13,13.4C27.2,155.7,28.3,160.1,29.6,161.2z"/>
			<path fill="#722A06" d="M31.9,155.5c0.3,0.2,1.3,0.3,2.6-0.3c1.5-0.7,2.5-2.5,2.6-3.5c0.1-1-0.1-1.7-0.5-2.2
				c-0.6-0.7-2.4-0.1-3.1,0.4c-0.5,0.3-1.9,1.3-2.1,3.2C31.3,154.5,31.6,155.3,31.9,155.5z"/>
		</g>
		<path fill="#571202" d="M79.9,128.4c-0.1,8.2-4.5,16.8-12.8,24.4c-8.1,7.5-19.5,13.6-29,15.6c0,0,0,0,0,0
			c-2.8,0.6-5.2,0.7-7.2,0.5c0.8,0.3,1.8,0.6,2.9,0.8c1.4-0.1,2.9-0.3,4.5-0.6c0,0,0,0,0,0c9.6-2,21.1-8.2,29.4-15.7
			c4.7-4.4,8.3-9,10.5-13.7c1.2-2.6,2-5.1,2.4-7.7C80.3,130.7,80.2,129.5,79.9,128.4z"/>
		<path fill="#571202" d="M61.9,122.7c1.4-0.3,2.7-0.5,3.9-0.7c0.5-0.1,1-0.2,1.5-0.2c3.5-0.6,6-0.7,7.8-0.5c-0.6-0.3-1.3-0.6-2-0.9
			c-1.7,0-3.7,0.2-5.9,0.6c-0.5,0.1-1,0.2-1.5,0.2c-1.2,0.2-2.5,0.4-3.9,0.7c-3.6,0.7-9.1,2.3-15.2,6.7c-6.4,4.7-12.4,12-17.8,21.6
			c-2,3.5-3.3,7.1-3.9,10.2c0.1,1,0.3,1.9,0.5,2.7c0.1-3.1,1.4-7.6,4.1-12.5C41.3,129.4,53.1,124.6,61.9,122.7z"/>
		<g>
			<path fill="#3B2314" d="M38.1,168.9c-1.6,0.3-3.1,0.5-4.5,0.6c-0.4-0.1-0.8-0.2-1.2-0.3c1.7,0,3.5-0.2,5.6-0.6
				c9.5-2,20.9-8.1,29.1-15.6c7.7-7.1,12.2-15,12.8-22.7c0.1,0.6,0.1,1.1,0.1,1.7c-0.4,2.5-1.2,5.1-2.3,7.6
				c-2.2,4.7-5.7,9.3-10.4,13.7C59.2,160.7,47.7,166.9,38.1,168.9L38.1,168.9z"/>
			<path fill="#3B2314" d="M25.3,161.7c-0.1-0.4-0.1-0.8-0.2-1.2c0.6-3.1,2-6.7,3.9-10.1c5.4-9.6,11.3-16.9,17.8-21.5
				c6-4.4,11.5-5.9,15.1-6.6c1.4-0.3,2.7-0.5,3.9-0.7c0.5-0.1,1-0.2,1.5-0.2c2.2-0.4,4.2-0.6,5.8-0.6c0.3,0.1,0.6,0.2,0.9,0.3
				c-1.9-0.1-4.1,0.1-6.7,0.6c-0.5,0.1-1,0.2-1.5,0.2c-1.2,0.2-2.5,0.4-3.9,0.7c-8.9,1.8-20.7,6.7-32.6,28
				C27.1,154.4,25.7,158.4,25.3,161.7L25.3,161.7z"/>
		</g>
		<circle fill="#571202" cx="35.3" cy="144.1" r="1.3"/>
		<circle fill="#571202" cx="40.2" cy="138.8" r="1.3"/>
		<circle fill="#571202" cx="45.4" cy="133.8" r="1.3"/>
		<circle fill="#571202" cx="51.4" cy="129.5" r="1.3"/>
		<circle fill="#571202" cx="57.7" cy="126.5" r="1.3"/>
		<circle fill="#571202" cx="31.9" cy="140.8" r="1.2"/>
		<circle fill="#571202" cx="36.7" cy="135.3" r="1.2"/>
		<circle fill="#571202" cx="42.6" cy="130.2" r="1.2"/>
		<circle fill="#571202" cx="48.4" cy="125.9" r="1.2"/>
		<circle fill="#3B2314" cx="54.3" cy="122.7" r="1.2"/>
		<g>
			<g>
				<path fill="#FFFFFF" d="M64.9,119.3c-1.5,0-3.1,0.1-4.6,0.3c1.8,0.9,3.5,2.1,5.7,3.6c6.5,4.2,10.8,12.8,13,18.8c0,0,0,0,0,0
					c0.1-0.2,0.1-0.4,0.2-0.6c0,0,0-0.1,0-0.1c0.1-0.2,0.1-0.4,0.1-0.6c0,0,0,0,0-0.1c0.3-1.3,0.6-2.5,0.7-3.7c0,0,0,0,0,0
					C77.8,128.9,72.1,122.6,64.9,119.3z"/>
				<path fill="#FFFFFF" d="M50.6,169c0.2-0.1,0.4-0.1,0.6-0.2c0,0,0,0,0,0c0.4-0.1,0.9-0.3,1.3-0.4c-5.1-0.6-8.4-1.5-12.1-3.9
					c-7.1-4.7-11.4-12.4-13.3-19.2c0,0,0,0,0,0.1c-0.2,0.5-0.3,0.9-0.5,1.4c0,0,0,0,0,0c0,0.1-0.1,0.3-0.1,0.4c0,0,0,0,0,0.1
					c0,0.1-0.1,0.3-0.1,0.4c0,0,0,0,0,0.1c0,0.1-0.1,0.3-0.1,0.4c0,0,0,0,0,0c0,0.1-0.1,0.3-0.1,0.4c0,0,0,0,0,0
					c0,0.2-0.1,0.3-0.1,0.5c0.1,0.4,0.1,0.7,0.2,1.1c1.9,9.3,8.3,16.6,16.5,20c0.5,0,1.1-0.1,1.7-0.1c0,0,0,0,0,0
					c0.3,0,0.6-0.1,0.8-0.1c0,0,0,0,0.1,0c0.3,0,0.6-0.1,0.8-0.1c0,0,0,0,0,0c0.3,0,0.6-0.1,0.9-0.1c0,0,0,0,0,0
					c0.3,0,0.6-0.1,0.8-0.2c0,0,0.1,0,0.1,0c0.3-0.1,0.6-0.1,0.8-0.2c0,0,0.1,0,0.1,0c0.3-0.1,0.6-0.1,0.9-0.2
					C50.1,169.2,50.3,169.1,50.6,169C50.6,169,50.6,169,50.6,169z"/>
			</g>
		</g>
		<path fill="#929497" d="M27.1,153.7c0.5-1.1,1.1-2.3,1.7-3.4c0,0,0-0.1,0-0.1c0.1,0.3,0.3,0.6,0.4,0.9c-0.7,1.3-1.3,2.5-1.8,3.7
			C27.3,154.4,27.2,154,27.1,153.7z M64.6,122.3c0.4-0.1,0.8-0.1,1.2-0.2c0.5-0.1,1-0.2,1.5-0.2c0.5-0.1,1.1-0.2,1.5-0.2
			c-0.3-0.2-0.7-0.4-1-0.6c-0.2,0-0.5,0.1-0.7,0.1c-0.5,0.1-1,0.2-1.5,0.2c-0.6,0.1-1.3,0.2-2,0.3C64,121.8,64.3,122,64.6,122.3z
			 M44.3,166.6c-1.9,0.7-3.8,1.2-5.6,1.6c0.3,0.2,0.6,0.4,1,0.6c1.9-0.5,3.8-1.1,5.8-1.8C45,166.8,44.6,166.7,44.3,166.6z
			 M79.6,135.4c-0.1-0.4-0.3-0.9-0.5-1.3c-0.4,1.5-0.9,2.9-1.5,4.4c0.1,0.3,0.3,0.7,0.4,1C78.7,138.2,79.2,136.8,79.6,135.4z"/>
		<g>
			<path fill="#6D6E70" d="M67.2,121.3c-0.5,0.1-1,0.2-1.5,0.2c-0.6,0.1-1.2,0.2-1.8,0.3c0.1,0.1,0.3,0.2,0.4,0.3
				c0.5-0.1,1-0.2,1.4-0.2c0.5-0.1,1-0.2,1.5-0.2c0.4-0.1,0.9-0.1,1.3-0.2c-0.1-0.1-0.3-0.2-0.4-0.3
				C67.8,121.2,67.5,121.2,67.2,121.3z"/>
			<path fill="#6D6E70" d="M45.1,166.9c-0.2-0.1-0.3-0.1-0.5-0.2c-1.9,0.7-3.8,1.3-5.7,1.7c0.1,0.1,0.3,0.2,0.4,0.2
				C41.2,168.2,43.1,167.6,45.1,166.9z"/>
			<path fill="#6D6E70" d="M27.2,154c0.1,0.2,0.1,0.3,0.2,0.4c0.5-1.2,1.1-2.4,1.8-3.6c-0.1-0.1-0.1-0.3-0.2-0.4
				C28.3,151.6,27.7,152.8,27.2,154z"/>
			<path fill="#6D6E70" d="M77.9,139.3c0.6-1.4,1.1-2.8,1.5-4.2c-0.1-0.2-0.1-0.4-0.2-0.6c-0.4,1.4-0.9,2.9-1.5,4.3
				C77.8,139,77.9,139.1,77.9,139.3z"/>
		</g>
		<g>
			<path fill="#FFFFFF" d="M33.1,144.3c-0.1,0-0.3,0-0.4-0.1c-0.3-0.2-0.3-0.5-0.2-0.8c1.3-2,5-6.6,9.5-10.9
				c3.8-3.6,9.5-8.1,14.9-9.2c0.1,0,0.2,0,0.3-0.1c0.3-0.1,0.6,0.1,0.6,0.4c0.1,0.3-0.1,0.6-0.4,0.6c-5.2,1-10.8,5.4-14.6,9
				c-4.4,4.2-8,8.7-9.3,10.7C33.4,144.2,33.3,144.3,33.1,144.3L33.1,144.3z"/>
		</g>
		<path fill="#A6A8AB" d="M57.5,123.4c0.1,0.1,0.2,0.2,0.2,0.3c0.1,0.3-0.1,0.6-0.4,0.6c-5.2,1-10.8,5.4-14.6,9
			c-4.4,4.2-8,8.7-9.3,10.7c-0.1,0.1-0.2,0.2-0.3,0.2c-0.1,0-0.3,0-0.4-0.1c0,0,0,0,0,0c0.1,0.1,0.3,0.1,0.4,0.1
			c0.1,0,0.3-0.1,0.3-0.2c1.3-2,4.9-6.5,9.3-10.7c3.8-3.6,9.4-8,14.6-9c0.3-0.1,0.5-0.3,0.4-0.6C57.8,123.6,57.7,123.5,57.5,123.4z"
			/>
		<path fill="#D0D2D3" d="M32.7,143.7c1.3-2,5-6.6,9.5-10.9c3.8-3.6,9.5-8.1,14.9-9.2c0.1,0,0.2,0,0.3-0.1c0.2,0,0.4,0,0.5,0.2
			c-0.1-0.3-0.3-0.4-0.6-0.4c-0.1,0-0.2,0-0.3,0.1c-5.4,1.1-11,5.6-14.9,9.2c-4.5,4.3-8.1,8.8-9.5,10.9c-0.1,0.2-0.1,0.5,0,0.7
			C32.6,144,32.6,143.8,32.7,143.7z"/>
		<g>
			<path fill="#FFFFFF" d="M35.4,144.9c-0.3,0.1-0.6,0-0.8-0.2c0,0-0.1-0.1-0.2-0.2c-1.9-1.6-2.7-2.4-3-2.9
				c-0.3-0.5-0.1-1.1,0.3-1.4c0.5-0.3,1-0.1,1.3,0.4c0.1,0.1,0.5,0.6,2.6,2.3c0.2,0.2,0.2,0.2,0.3,0.2c0.4,0.4,0.5,1,0.1,1.5
				C35.8,144.8,35.6,144.9,35.4,144.9L35.4,144.9z"/>
			<path fill="#FFFFFF" d="M35.3,144.4c-0.1,0-0.3,0-0.4-0.1c0,0-0.1-0.1-0.2-0.1l-0.1-0.1c-1.3-1-2.6-2.2-2.9-2.7
				c-0.1-0.2-0.1-0.5,0.1-0.7c0,0,0.1,0,0.1,0c0.2,0,0.4,0.1,0.5,0.3c0.2,0.3,1.1,1.2,2.6,2.4c0.2,0.1,0.2,0.2,0.3,0.2
				c0.2,0.2,0.2,0.5,0.1,0.7C35.4,144.3,35.4,144.3,35.3,144.4L35.3,144.4z"/>
		</g>
		<g>
			<path fill="#FFFFFF" d="M40.2,139.7c-0.7,0.1-1-0.2-2.3-1.6c-0.7-0.7-1.4-1.5-1.7-1.9c-0.4-0.5-0.4-1.2,0.1-1.6
				c0.5-0.4,1-0.2,1.4,0.3c0.7,0.8,2.4,2.3,2.8,2.6c0.3,0.1,0.5,0.4,0.5,0.7C41.2,138.9,40.8,139.5,40.2,139.7L40.2,139.7z"/>
		</g>
		<g>
			<path fill="#FFFFFF" d="M45.4,134.5c-0.4,0.1-0.9-0.1-1.2-0.5c-0.7-1.2-1.6-2.4-2-2.6c-0.5-0.2-0.8-0.9-0.6-1.4
				c0.2-0.6,0.8-0.8,1.3-0.5c0.9,0.4,2.2,2,3.1,3.4c0.3,0.5,0.2,1.2-0.4,1.5C45.7,134.4,45.6,134.5,45.4,134.5L45.4,134.5z"/>
		</g>
		<g>
			<path fill="#FFFFFF" d="M51.4,130.3c-0.4,0.1-0.8-0.1-1.1-0.4l-2.6-3.1c-0.4-0.5-0.3-1.2,0.2-1.6c0.5-0.4,0.9-0.2,1.3,0.2l2.8,3
				c0.4,0.5,0.3,1.2-0.2,1.6C51.7,130.2,51.5,130.3,51.4,130.3L51.4,130.3z"/>
		</g>
		<g>
			<path fill="#FFFFFF" d="M57.8,127.4c-0.2,0.1-0.5,0-0.8-0.1c-0.3-0.2-0.5-0.5-0.6-0.8c-0.4-0.6-2-2.4-2.4-2.6
				c-0.5-0.3-0.8-0.9-0.5-1.5c0.3-0.5,0.8-0.6,1.4-0.4c0.6,0.3,1.5,1,2.1,1.7c0.9,1,1.4,1.7,1.5,2.2c0.1,0.5,0,0.8-0.1,1
				C58.4,127.1,58.1,127.3,57.8,127.4L57.8,127.4z"/>
		</g>
		<path fill="#BBBDBF" d="M35.4,144.8c-0.3,0.1-0.6,0-0.8-0.2c0,0-0.1-0.1-0.2-0.2c-1.8-1.5-2.7-2.3-2.9-2.8
			c-0.2-0.4-0.2-0.9,0.1-1.2c-0.4,0.3-0.4,0.9-0.2,1.3c0.3,0.5,1.1,1.3,2.9,2.8c0.1,0.1,0.2,0.1,0.2,0.2
			C34.8,144.8,35.1,144.9,35.4,144.8c0.1,0,0.3-0.1,0.4-0.2C35.7,144.7,35.5,144.8,35.4,144.8z"/>
		<path fill="#BBBDBF" d="M40.2,139.5c-0.7,0.1-1-0.2-2.3-1.5c-0.6-0.7-1.3-1.4-1.7-1.8c-0.1-0.1-0.2-0.3-0.2-0.4
			c0,0.2,0.1,0.4,0.3,0.5c0.3,0.4,1,1.1,1.7,1.8C39.2,139.4,39.5,139.7,40.2,139.5c0.6,0,1-0.6,0.9-1.2c0,0,0,0,0,0
			C41.1,138.8,40.7,139.4,40.2,139.5z"/>
		<path fill="#D0D2D3" d="M45.8,134.2c-0.1,0.1-0.2,0.1-0.3,0.1c-0.4,0.1-0.9-0.1-1.1-0.5c-0.7-1.1-1.6-2.3-1.9-2.5
			c-0.5-0.2-0.8-0.8-0.5-1.4c0-0.1,0-0.1,0.1-0.2c-0.1,0.1-0.1,0.2-0.1,0.3c-0.2,0.5,0,1.1,0.5,1.4c0.3,0.2,1.2,1.4,1.9,2.5
			c0.2,0.4,0.7,0.6,1.1,0.5C45.5,134.4,45.6,134.4,45.8,134.2c0.1,0,0.2-0.1,0.3-0.3C46,134,45.9,134.1,45.8,134.2z"/>
		<path fill="#D0D2D3" d="M51.8,129.9c-0.1,0.1-0.3,0.2-0.5,0.2c-0.4,0.1-0.8,0-1-0.4l-2.5-3c-0.3-0.4-0.3-0.8-0.1-1.2
			c-0.3,0.4-0.3,0.9,0,1.3l2.5,3c0.3,0.3,0.7,0.4,1,0.4C51.5,130.2,51.6,130.1,51.8,129.9c0,0,0.1-0.1,0.2-0.2
			C51.9,129.8,51.9,129.8,51.8,129.9z"/>
		<path fill="#D0D2D3" d="M57.8,127.2c-0.2,0-0.5,0-0.7-0.1c-0.3-0.2-0.5-0.4-0.5-0.7c-0.4-0.6-1.9-2.3-2.3-2.5
			c-0.5-0.3-0.7-0.9-0.5-1.4c0,0,0,0,0-0.1c0,0-0.1,0.1-0.1,0.1c-0.3,0.5-0.1,1.2,0.5,1.4c0.4,0.2,2,1.9,2.3,2.5
			c0.1,0.3,0.2,0.6,0.5,0.7C57.2,127.3,57.5,127.3,57.8,127.2c0.2,0,0.5-0.2,0.6-0.4C58.2,127,58,127.2,57.8,127.2z"/>
		<path fill="#D8D8D8" d="M31.5,140.5c0.5-0.3,1-0.1,1.3,0.4c0.1,0.1,0.5,0.6,2.6,2.3c0.2,0.2,0.2,0.2,0.3,0.2
			c0.3,0.3,0.4,0.7,0.3,1.1c0.3-0.4,0.2-1-0.2-1.4c0,0-0.1-0.1-0.3-0.2c-2-1.7-2.5-2.2-2.6-2.3c-0.3-0.4-0.9-0.6-1.3-0.4
			c-0.2,0.1-0.4,0.3-0.4,0.6C31.3,140.7,31.4,140.6,31.5,140.5z"/>
		<path fill="#D0D2D3" d="M36.3,135c0.5-0.4,1-0.2,1.4,0.3c0.7,0.8,2.4,2.3,2.8,2.6c0.3,0.1,0.5,0.4,0.6,0.7c0,0,0,0,0,0
			c0-0.1,0-0.2,0-0.3c-0.1-0.3-0.3-0.6-0.5-0.7c-0.4-0.4-2.1-1.8-2.8-2.6c-0.4-0.5-1-0.7-1.4-0.3c-0.3,0.3-0.4,0.7-0.4,1
			C36,135.4,36.1,135.2,36.3,135z"/>
		<path fill="#BBBDBF" d="M46.2,132.8c-0.9-1.4-2.2-3.1-3.1-3.4c-0.5-0.2-1,0-1.3,0.5c0.3-0.3,0.7-0.4,1.1-0.2
			c0.9,0.4,2.2,2,3.1,3.4c0.2,0.3,0.2,0.7,0,1.1C46.4,133.8,46.4,133.2,46.2,132.8z"/>
		<path fill="#BBBDBF" d="M52,128.5l-2.8-3c-0.4-0.5-0.9-0.6-1.3-0.2c-0.1,0.1-0.2,0.2-0.3,0.4c0-0.1,0.1-0.1,0.1-0.1
			c0.5-0.4,0.9-0.2,1.3,0.2l2.8,3c0.3,0.3,0.3,0.8,0.1,1.2C52.3,129.5,52.3,128.9,52,128.5z"/>
		<path fill="#BBBDBF" d="M58.6,125.9c-0.1-0.5-0.7-1.2-1.5-2.2c-0.6-0.7-1.5-1.4-2.1-1.7c-0.5-0.3-1.1-0.2-1.4,0.3
			c0.3-0.4,0.8-0.4,1.3-0.2c0.6,0.3,1.5,1,2.1,1.7c0.9,1,1.4,1.7,1.5,2.2c0.1,0.4,0,0.8-0.1,0.9c0,0,0.1-0.1,0.1-0.1
			C58.6,126.7,58.8,126.3,58.6,125.9z"/>
	</g>
	<path fill-rule="evenodd" clip-rule="evenodd" d="M138.8,46.8l6.5,12.6c0,0-1.9,0.8-2.3,0.5C142.5,59.7,138.2,55,138.8,46.8z"/>
	<polygon fill-rule="evenodd" clip-rule="evenodd" points="143.3,61.7 145.6,61 146.1,63.2 144.3,63.5 	"/>
	<path fill-rule="evenodd" clip-rule="evenodd" d="M304.8,402.9c-4.4-5.1-12-11.3-14.6-13.5c-2.6-2.2-9.8-9.8-10.9-12.4
		c-1.1-2.5-6.2-13.5-8-16c-1.8-2.5-12-23.7-12-26.2c0-2.6-6.2-17.8-6.2-17.8c-2.2-7.3-12.7-17.5-14.9-18.6c-2.2-1.1-4.7-7.3-6.2-9.5
		c-1.5-2.2-0.4-3.3-0.4-5.8c0-2.5,0.4-6.6,0.4-6.6c10.6-17.1,9.5-47,9.8-49.9c0.4-2.9,0.4-5.1,0.4-6.2c0-1.1,1.5-7.3,0.7-8.7
		c-0.7-1.5,0-4.4,0.7-5.5c0.7-1.1,0-4-1.1-8c-1.1-4-1.8-9.5-1.8-16.4c0-6.9,1.8-4.4,2.9-8.7c1.1-4.4,2.2-6.9,2.2-9.8
		c0-2.9-2.2-11.3-3.6-15.7c-1.5-4.4-3.6-7.3-3.6-8.7c0-1.5,1.1-3.6-0.4-7.6c-1.5-4-3.3-6.9-2.9-10.9c0.4-4,1.5-7.3,1.1-11.7
		c-0.4-4.4-1.1-6.6-1.1-8.4c0-1.8-1.1-9.8-2.2-13.1c-1.1-3.3-1.5-9.1-0.4-12.7c1.1-3.6,0-5.1-1.8-6.9c-1.8-1.8-5.5-5.1-8-6.6
		c-2.5-1.5-8-1.5-9.8-1.5s-9.5-0.7-13.8,1.1c-1.2,0.5-2.7,0.9-4.2,1.1c-0.2-0.9-0.5-1.7-0.8-1.9c-0.6-0.4-1.6-1.4-1.7-1.8
		c-0.1-0.5,0-1.2,0.5-1.3c0.5-0.1,0.1-1.7,0-2.2c-0.1-0.5-0.9-2.7-1-4c-0.2-1.3,0.4-5.2,0.4-5.2l0.6-3.9c2.1-3.5,0-6,0-6
		c-8.9-25.9-24.6-26.1-24.6-26.1l-1-0.6c-5-1.6-16.2,1.4-16.2,1.4l-1.1,1.3c-16.1,8.1-16.3,25-16.3,25l0.1,7.2
		c-1.2,4.2,3.1,6.5,3.1,6.5s3,7.6,2.3,9.1c-0.7,1.5,2,4.5,1.9,5.6c-0.1,1,2.2,8.6,2.2,8.6s6.2-1,6.3,0c0,0.3,0.2,0.7,0.5,1.3
		c-2.6,1.1-4.3,1.8-4.5,1.8c-1.1,0.4-3.6,1.1-8.2,3.5c-4.6,2.4-6.4,4.9-8.6,7.8c-2.2,2.9-9.1,8.9-11.1,9.1c-2,0.2-6.2-1.8-7.3-2
		c-1.1-0.2-2.7-0.7-5.8-1.6c-3.1-0.9-6.7-3.1-6.7-3.1C95,89.3,89,84.6,89,84.6c-3.3-0.2-2.4,2.5-2.4,2.5l2.9,4.7l-4.7-1.1
		c-3.6,0-2.9,2.7-2.9,2.7c-0.2,3.1,14.8,7.3,13.8,7.6c-0.9,0.4-2.9,1.5-2.9,1.5l-6,0.5c-2.5,1.8,0.9,4.2,0.9,4.2
		c8.7,2.4,17.3-2,18-1.6c0.7,0.4,3.6,2.7,3.8,3.3c0.2,0.5,0,4.7-0.7,5.5c-0.7,0.7-3.1,1.3-3.1,1.3c-2.4,0.4-6.6,5.1-6.6,5.1
		c-2.5,6.4,4.4,4,4.4,4l6.2-3.8l4-2c1.8,0.7,7.5,0.2,7.5,0.2s-2.2,3.8-3.5,5.1c-1.3,1.3-6.6,3.3-7.5,3.3c-0.9,0-7.3,0.7-8.9,0.7
		S86,124.9,84,124.9c-2,0-3.8-2.1-3.8-2.1c-4.6-4.9-9-8-10-8c-1,0-7.3,0.4-9.5,0.4c-2.2,0-6.2,0.7-7.4,1.2c-1.2,0.5-8.9,4.6-8.9,4.6
		c-2.1,4.4,1.3,4,1.3,4l2.5-1.3c-0.6,4.9,3.2,2.2,3.2,2.2s2.3-2.4,3-3c0.7-0.6,5.6-1.7,6.3-1.9c0.7-0.2,1.1,0.4,1.1,0.4
		c-1.2,7,3.9,3.4,4.9,2.1c1-1.3,3.8-0.5,3.8-0.5c6.4,0.5,7.9,4,7.9,4c3.3,9.2-1.4,19.8-1.4,19.8c4.7-2.5,3.9-3.4,3.9-3.4l1.9,0.8
		c6.6,3.6,22.3,10.1,22.3,10.1c11.8,2.2,17.1-1.5,17.1-1.5c4.4-0.7,16.3-13,16.3-13s3.6-3.8,3.6-0.8c0,3,3.3,5.5,5.5,8.2
		c2.2,2.7,0.5,3.8-1.1,6.6c-1.6,2.7,1.1,6,1.6,11.7c0.5,5.7,1.6,3.8,1.1,5.7c-0.5,1.9,0.3,6,0.3,9c0,3,3.3,3.6,4.4,5.7
		c1.1,2.2-0.3,2.7-0.3,4.1c0,1.4,1.9,2.2,1.4,5.7c-0.5,3.6-1.1,2.7-2.5,4.1c-1.4,1.4-1.4,3.6-1.9,6.8c-0.5,3.3-2.5,4.4-3.8,5.5
		c-1.4,1.1-3.8,4.9-7.4,7.1c-3.6,2.2-24.3,25.1-26,27.3c-1.6,2.2-3,7.4-4.9,10.7c-1.9,3.3-3.3,7.9-6.6,12c-3.3,4.1-2.5,5.5-6.3,10.1
		c-3.8,4.6-1.1,4.4-3,6.3c-1.9,1.9-4.1,7.4-4.1,7.4s-4.9,6.8-5.7,7.6c-0.8,0.8-3,6.8-4.4,8.7c-1.4,1.9-7.6,9.3-7.6,9.3
		c-1.9,0.5-7.4,18.6-7.9,21.9c-0.5,3.3-13.9,39.6-13.9,39.6s0,1.4-1.9,2.2c-1.9,0.8-2.7,4.4-4.1,6.3c-1.4,1.9-5.2,6.3-7.6,7.1
		c-2.5,0.8-7.1,2.7-8.2,3.3c-1.1,0.5-10.7,4.4-10.7,4.4c-6.3,3.8-5.5,5.5-4.6,8.5c0.8,3,35.8,0.3,35.8,0.3c23.2,0.8,19.1-3,19.1-3
		s-0.5-1.9-1.1-3.8c-0.5-1.9-0.3-4.1-0.5-6c-0.3-1.9,0.5-3.3-0.3-7.1c-0.8-3.8,10.7-19.7,12.6-23.5c1.9-3.8,7.2-11.1,7.2-11.1
		c10.2-5.8,12-13.5,12-14.9c0-1.5,1.8-7.6,2.9-8.4c1.1-0.7,1.5-3.6,1.5-3.6s1.8-4.7,1.8-6.6c0-1.8,1.8-3.3,1.8-3.3s4.7-6.6,7.3-8.4
		c2.5-1.8,3.6-3.3,5.1-5.5c1.5-2.2,12.7-10.9,13.8-11.7c1.1-0.7,20-13.5,23.3-14.6s7.6-6.6,9.1-7.3c1.5-0.7,12.4-7.6,13.8-10.6
		s5.5-4,9.8-4.7c4.4-0.7,5.1,0.4,6.6,4.4s0,9.1-0.7,13.5c-0.7,4.4,0.4,6.6,1.1,9.8c0.7,3.3,2.9,5.8,4,7.3c1.1,1.5,4.7,5.8,4.7,5.8
		s3.6,5.1,4,6.6c0.4,1.5,7.6,9.1,8.4,10.6c0.7,1.5,7.3,14.2,7.3,14.2c2.2,4.7,15.3,21.1,15.3,21.1c9.8,8.4,20.4,28.8,21.9,31
		c1.5,2.2,1.1,5.8,1.1,5.8s-0.4,2.5,0.7,4c1.1,1.5,3.6,9.1,5.5,10.6c1.8,1.5,11.7,11.3,11.7,11.3c12.7,6.6,23.3,3.3,23.3,3.3
		C305.9,413.9,309.1,408,304.8,402.9z"/>
</g>
<path fill="#383435" d="M133.3,184.2c2.1,6.6,1.9,2.2,2.5,0.9c0.6-1.3-1.8-5.6-1.8-5.6c1.8-2.9,6.1,1.8,6.1,1.8
	c1.1-2.4,3.6,0.9,3.6,0.9c2.1,0.5,4.3,4.7,4.3,4.7l2.8-0.4c2.3-1.1,1.6,5.1,5.2,2.6c3.6-2.5,16.3-3.3,16.3-3.3
	c4.8-2.3,14.8-4.2,14.8-4.2l3.2-1.1c2.6-2.1,14.7-5.8,14.7-5.8s0.6-3.1,1.1-4.2c0.5-1.1-0.6-4.4-0.3-5.2c0.3-0.8,2.5-5.6,3.1-7.3
	c0.6-1.7,3.7-6.8,3.7-6.8c1.9-2.7,5.4-4.9,8.9-6.6c-0.3-3.6-0.5-7.2-0.5-7.2l1-1.6l0.1-1.5l1.3-2.6c0.7-1.4,2.1-8.2,2.1-8.8
	c-0.1-0.6,0.7-2.3,0.7-2.3l3.6,1.1l0.5-0.5c-0.5-0.6-0.7-1.2-0.7-1.7l-0.7-0.6c-0.1-1.4,0.7-1.4,1.3-1.3l3.2-5.7
	c24.8-36.3,51.4-7.5,51.4-7.5c13.4,20.5,4.1,36.7,1.2,40.9l3.1,0.4c11.8,3.3,12.9,9.3,12.9,9.3c5.6,8.6,4.1,25,4.1,25
	c2,3.9,3,4.4,7.6,12.5c4.6,8,1.2,2.5,10.8,9.9c9.6,7.3,5.6,5.7,11.2,12.8c5.5,7.1,2,4.6,3.3,5.6c1.3,1,3,0.6,3,0.6
	c13.5,2.6,17.5,7.4,17.5,7.4c18.3,13.5,23.9,27.7,23.9,27.7c16.5,11.1,25.5,31.1,27.3,33.2c1.8,2.1,2.9,1.8,4.3,2.1s1.1-0.8,2.3-0.9
	c1.2,0,4.5-1.8,4.5-1.8c15.8-9.6,24.3-6,25.6-5.5c1.3,0.5,13.5-1.2,13.5-1.2s2.8-0.5,7.5-1.2c4.8-0.6,3.9-3,5.8-3.9
	c1.9-0.9,4.5-2.8,5.4-3c0.9-0.3,2.1-4.1,5.3-8.8c3.1-4.7,7.5-2.6,7.5-2.6l3.7,0.2l3.1,1.6c0,0,0.6,1.1,0.8,2.7
	c0.2,1.6,2.1,2.3,2.1,2.3l1.5-0.1l1.3,1.4c0,0,0,1.9,1,5.3c1,3.4,5.4,11,5.4,11l2,0.5l2.1,0.7l0,1.6l2.3,2.9l2.3,1l1,1.2
	c0,0-1,1.9,0.2,2.8c1.2,0.9,3.7,11.1,3.7,11.1c3.7,10.7-4.9,12.9-4.9,12.9c-3.7,2.7-15.8-9.2-19.4-12.6c-3.6-3.4-14.2-9.1-14.8-8.9
	c-0.6,0.2-3.4,0.1-6.3,1.1c-3,1.1-2.1,1.2-4.4,2.4c-2.3,1.1-8.8,1.2-8.8,1.2c-3.4,2.6-35.8,11.7-35.8,11.7l-5.4,2.3l-1.1,3.9
	c-13.7,9.6-37.6-8.7-37.6-8.7l-4.5-0.3c-4.1-0.5-25.8-15.4-31.7-21.1c-5.9-5.7-4.5-2.5-5.5,2.5c-0.9,5-3.3,13.1-4.9,13.6
	c-1.6,0.5-10.6,15.7-11.9,19c-1.3,3.3-2.4,17.2-2.4,17.2l5.2,1.6c12,6.7,14.3,14,16.5,16.4c2.2,2.4,9.9,6.4,12.4,7.8
	c2.5,1.4,5.6,2.6,5.6,2.6l1-1.6c0,0,5,2.8,6.8,3.5c1.8,0.7,3.3,0.6,7.7,2.3c4.4,1.7,5.5,10.3,6.3,14.5c0.8,4.2-8.2,18-8.2,18
	l1.2,0.9l-0.8,2l-3.2,2.6l-2.8,4.6l1.2,1.9c0,0-0.5,2.5-1.1,2c-0.6-0.5-3.8,4.2-3.8,4.2c-7,14.3-15.6,10.6-15.6,10.6
	c-5.1-6-3.1-16.6-2.1-18.7c0.9-2.2,2.2-8,3.2-8.9c1.1-1,2.7-11.5,1.9-12.8c-0.8-1.3-2.7-1.7-4.2-2.9c-1.6-1.2,1.3-2.2,0.1-3.5
	c-1.2-1.3-11.1-6-11.1-6c-5.7-1.5-26.8-12.6-27.5-13.1c-0.7-0.5-7.9-4.2-7.9-4.2c-6.1,1-10.3-1.4-10.3-1.4
	c-10.6-8.1-7.1-35.7-6.7-37.2c0.4-1.5-1.1-6.5-1.1-6.5c-1.9-0.4-2.6-4.1-1.6-4.4c1-0.3-1.2-5.5-1.2-5.5c-1.3-2.5,0.8-5.8,0.8-5.8
	l-0.4-3.2c-0.9-2.5,0.5-5.3,1-6c0.5-0.7-1.1-5.1-1.1-5.1c-0.8-2.7,3-15.2,3-15.2s0.5-3.9,0.9-5.4c0.4-1.5,1.4-2.8,1.7-4.1
	c0.2-1.2,3.2-6.1,3.2-6.1s-1.2-0.2-5-2.4c-3.7-2.1-4.4-5.9-6.7-7.6c-2.3-1.7-10.4-7.9-12.5-11.7c-2.1-3.8-6.2-5-10.8-9.7
	c-4.7-4.6-4.4-2.2-8.1-4.4c-3.7-2.1-5-2.8-5-2.8c-4.9,0.9-19.8-6.8-19.8-6.8c-4.4-2.2-18.1-17-18.1-17c-17.6,5.8-24.5,4.5-24.5,4.5
	c-6,3.6-20.1,2.5-20.1,2.5l-6.3-3c0,0-2.4-1.1-6-0.6c-3.6,0.5-9.2-2-9.2-2c-1.9-0.8-8-8.2-8-8.2l-2.5-5.1c-1.2-1.3-1.7-3.8-1.7-3.8
	C129.8,180.4,133.3,184.2,133.3,184.2z"/>
</svg>
