<?xml version="1.0" encoding="utf-8"?>
<!-- Generator: Adobe Illustrator 18.1.1, SVG Export Plug-In . SVG Version: 6.00 Build 0)  -->
<svg version="1.1" id="Layer_1" xmlns="http://www.w3.org/2000/svg" xmlns:xlink="http://www.w3.org/1999/xlink" x="0px" y="0px"
	 viewBox="0 0 792 612" enable-background="new 0 0 792 612" xml:space="preserve">
<g>
	<g>
		<g>
			<path fill="#722A06" d="M68.4,261.5c3.4,3,14.4,7,30.9,3.1c18.8-4.4,35.9-23.6,39.3-35.3c3.4-11.9,3.3-19.9-0.8-26.6
				c-5.6-9.2-28.5-6.6-36.8-3.1c-6.6,2.6-25.1,10.3-32.7,32.5C62.6,248,65.2,258.6,68.4,261.5z"/>
			<path fill="#722A06" d="M71.5,253.7c1.9,1.6,8.1,3.7,17.3,1.4c10.4-2.6,19.7-13.4,21.5-20.1c1.8-6.7,1.6-11.1-0.8-14.8
				c-3.3-5.1-15.9-3.3-20.5-1.4c-3.6,1.5-13.8,6-17.8,18.4C68.2,246.2,69.7,252.2,71.5,253.7z"/>
			<path fill="#722A06" d="M74.7,245.9c0.4,0.3,1.8,0.4,3.6-0.4c2.1-1,3.4-3.4,3.6-4.8c0.1-1.4-0.1-2.3-0.7-3
				c-0.8-1-3.3-0.1-4.2,0.5c-0.7,0.4-2.6,1.8-2.9,4.4C73.8,244.5,74.3,245.6,74.7,245.9z"/>
		</g>
		<path fill="#571202" d="M140.4,208.8c-0.1,11.2-6.2,23-17.5,33.4c-11.1,10.3-26.7,18.6-39.7,21.4l0,0c-3.8,0.8-7.1,1-9.9,0.7
			c1.1,0.4,2.5,0.8,4,1.1c1.9-0.1,4-0.4,6.2-0.8l0,0c13.1-2.7,28.9-11.2,40.3-21.5c6.4-6,11.4-12.3,14.4-18.8
			c1.6-3.6,2.7-7,3.3-10.5C140.9,211.9,140.8,210.3,140.4,208.8z"/>
		<path fill="#571202" d="M115.7,201c1.9-0.4,3.7-0.7,5.3-1c0.7-0.1,1.4-0.3,2.1-0.3c4.8-0.8,8.2-1,10.7-0.7
			c-0.8-0.4-1.8-0.8-2.7-1.2c-2.3,0-5.1,0.3-8.1,0.8c-0.7,0.1-1.4,0.3-2.1,0.3c-1.6,0.3-3.4,0.5-5.3,1c-4.9,1-12.5,3.1-20.8,9.2
			c-8.8,6.4-17,16.4-24.4,29.6c-2.7,4.8-4.5,9.7-5.3,14c0.1,1.4,0.4,2.6,0.7,3.7c0.1-4.2,1.9-10.4,5.6-17.1
			C87.5,210.2,103.7,203.6,115.7,201z"/>
		<g>
			<path fill="#3B2314" d="M83.2,264.3c-2.2,0.4-4.2,0.7-6.2,0.8c-0.5-0.1-1.1-0.3-1.6-0.4c2.3,0,4.8-0.3,7.7-0.8
				c13-2.7,28.6-11.1,39.9-21.4c10.5-9.7,16.7-20.5,17.5-31.1c0.1,0.8,0.1,1.5,0.1,2.3c-0.5,3.4-1.6,7-3.1,10.4
				c-3,6.4-7.8,12.7-14.2,18.8C112,253,96.3,261.5,83.2,264.3L83.2,264.3z"/>
			<path fill="#3B2314" d="M65.6,254.4c-0.1-0.5-0.1-1.1-0.3-1.6c0.8-4.2,2.7-9.2,5.3-13.8c7.4-13.1,15.5-23.1,24.4-29.4
				c8.2-6,15.7-8.1,20.7-9c1.9-0.4,3.7-0.7,5.3-1c0.7-0.1,1.4-0.3,2.1-0.3c3-0.5,5.8-0.8,7.9-0.8c0.4,0.1,0.8,0.3,1.2,0.4
				c-2.6-0.1-5.6,0.1-9.2,0.8c-0.7,0.1-1.4,0.3-2.1,0.3c-1.6,0.3-3.4,0.5-5.3,1c-12.2,2.5-28.3,9.2-44.6,38.3
				C68.1,244.4,66.2,249.9,65.6,254.4L65.6,254.4z"/>
		</g>
		<circle fill="#571202" cx="79.3" cy="230.3" r="1.8"/>
		<circle fill="#571202" cx="86" cy="223" r="1.8"/>
		<circle fill="#571202" cx="93.1" cy="216.2" r="1.8"/>
		<circle fill="#571202" cx="101.4" cy="210.3" r="1.8"/>
		<circle fill="#571202" cx="110" cy="206.2" r="1.8"/>
		<circle fill="#571202" cx="74.7" cy="225.8" r="1.6"/>
		<circle fill="#571202" cx="81.2" cy="218.2" r="1.6"/>
		<circle fill="#571202" cx="89.3" cy="211.3" r="1.6"/>
		<circle fill="#571202" cx="97.3" cy="205.4" r="1.6"/>
		<circle fill="#3B2314" cx="105.3" cy="201" r="1.6"/>
		<g>
			<g>
				<path fill="#FFFFFF" d="M119.9,196.3c-2.1,0-4.2,0.1-6.3,0.4c2.5,1.2,4.8,2.9,7.8,4.9c8.9,5.8,14.8,17.5,17.8,25.7l0,0
					c0.1-0.3,0.1-0.5,0.3-0.8v-0.1c0.1-0.3,0.1-0.5,0.1-0.8c0,0,0,0,0-0.1c0.4-1.8,0.8-3.4,1-5.1l0,0
					C137.5,209.5,129.7,200.8,119.9,196.3z"/>
				<path fill="#FFFFFF" d="M100.3,264.4c0.3-0.1,0.5-0.1,0.8-0.3l0,0c0.5-0.1,1.2-0.4,1.8-0.5c-7-0.8-11.5-2.1-16.6-5.3
					c-9.7-6.4-15.6-17-18.2-26.3c0,0,0,0,0,0.1c-0.3,0.7-0.4,1.2-0.7,1.9l0,0c0,0.1-0.1,0.4-0.1,0.5c0,0,0,0,0,0.1s-0.1,0.4-0.1,0.5
					c0,0,0,0,0,0.1c0,0.1-0.1,0.4-0.1,0.5l0,0c0,0.1-0.1,0.4-0.1,0.5l0,0c0,0.3-0.1,0.4-0.1,0.7c0.1,0.5,0.1,1,0.3,1.5
					c2.6,12.7,11.4,22.7,22.6,27.4c0.7,0,1.5-0.1,2.3-0.1l0,0c0.4,0,0.8-0.1,1.1-0.1c0,0,0,0,0.1,0c0.4,0,0.8-0.1,1.1-0.1l0,0
					c0.4,0,0.8-0.1,1.2-0.1l0,0c0.4,0,0.8-0.1,1.1-0.3h0.1c0.4-0.1,0.8-0.1,1.1-0.3h0.1c0.4-0.1,0.8-0.1,1.2-0.3
					C99.6,264.7,99.9,264.5,100.3,264.4L100.3,264.4z"/>
			</g>
		</g>
		<path fill="#929497" d="M68.1,243.4c0.7-1.5,1.5-3.1,2.3-4.7v-0.1c0.1,0.4,0.4,0.8,0.5,1.2c-1,1.8-1.8,3.4-2.5,5.1
			C68.4,244.4,68.2,243.8,68.1,243.4z M119.4,200.4c0.5-0.1,1.1-0.1,1.6-0.3c0.7-0.1,1.4-0.3,2.1-0.3c0.7-0.1,1.5-0.3,2.1-0.3
			c-0.4-0.3-1-0.5-1.4-0.8c-0.3,0-0.7,0.1-1,0.1c-0.7,0.1-1.4,0.3-2.1,0.3c-0.8,0.1-1.8,0.3-2.7,0.4
			C118.6,199.8,119,200,119.4,200.4z M91.6,261.1c-2.6,1-5.2,1.6-7.7,2.2c0.4,0.3,0.8,0.5,1.4,0.8c2.6-0.7,5.2-1.5,7.9-2.5
			C92.6,261.4,92.1,261.2,91.6,261.1z M140,218.4c-0.1-0.5-0.4-1.2-0.7-1.8c-0.5,2.1-1.2,4-2.1,6c0.1,0.4,0.4,1,0.5,1.4
			C138.8,222.2,139.4,220.3,140,218.4z"/>
		<g>
			<path fill="#6D6E70" d="M123,199.1c-0.7,0.1-1.4,0.3-2.1,0.3c-0.8,0.1-1.6,0.3-2.5,0.4c0.1,0.1,0.4,0.3,0.5,0.4
				c0.7-0.1,1.4-0.3,1.9-0.3c0.7-0.1,1.4-0.3,2.1-0.3c0.5-0.1,1.2-0.1,1.8-0.3c-0.1-0.1-0.4-0.3-0.5-0.4
				C123.8,198.9,123.4,198.9,123,199.1z"/>
			<path fill="#6D6E70" d="M92.7,261.5c-0.3-0.1-0.4-0.1-0.7-0.3c-2.6,1-5.2,1.8-7.8,2.3c0.1,0.1,0.4,0.3,0.5,0.3
				C87.4,263.3,90,262.5,92.7,261.5z"/>
			<path fill="#6D6E70" d="M68.2,243.8c0.1,0.3,0.1,0.4,0.3,0.5c0.7-1.6,1.5-3.3,2.5-4.9c-0.1-0.1-0.1-0.4-0.3-0.5
				C69.7,240.6,68.9,242.2,68.2,243.8z"/>
			<path fill="#6D6E70" d="M137.7,223.7c0.8-1.9,1.5-3.8,2.1-5.8c-0.1-0.3-0.1-0.5-0.3-0.8c-0.5,1.9-1.2,4-2.1,5.9
				C137.5,223.3,137.7,223.4,137.7,223.7z"/>
		</g>
		<g>
			<path fill="#FFFFFF" d="M76.3,230.6c-0.1,0-0.4,0-0.5-0.1c-0.4-0.3-0.4-0.7-0.3-1.1c1.8-2.7,6.8-9,13-14.9
				c5.2-4.9,13-11.1,20.4-12.6c0.1,0,0.3,0,0.4-0.1c0.4-0.1,0.8,0.1,0.8,0.5c0.1,0.4-0.1,0.8-0.5,0.8c-7.1,1.4-14.8,7.4-20,12.3
				c-6,5.8-11,11.9-12.7,14.7C76.7,230.4,76.6,230.6,76.3,230.6L76.3,230.6z"/>
		</g>
		<path fill="#A6A8AB" d="M109.7,201.9c0.1,0.1,0.3,0.3,0.3,0.4c0.1,0.4-0.1,0.8-0.5,0.8c-7.1,1.4-14.8,7.4-20,12.3
			c-6,5.8-11,11.9-12.7,14.7c-0.1,0.1-0.3,0.3-0.4,0.3c-0.1,0-0.4,0-0.5-0.1l0,0c0.1,0.1,0.4,0.1,0.5,0.1c0.1,0,0.4-0.1,0.4-0.3
			c1.8-2.7,6.7-8.9,12.7-14.7c5.2-4.9,12.9-11,20-12.3c0.4-0.1,0.7-0.4,0.5-0.8C110.1,202.2,110,202.1,109.7,201.9z"/>
		<path fill="#D0D2D3" d="M75.8,229.7c1.8-2.7,6.8-9,13-14.9c5.2-4.9,13-11.1,20.4-12.6c0.1,0,0.3,0,0.4-0.1c0.3,0,0.5,0,0.7,0.3
			c-0.1-0.4-0.4-0.5-0.8-0.5c-0.1,0-0.3,0-0.4,0.1c-7.4,1.5-15.1,7.7-20.4,12.6c-6.2,5.9-11.1,12.1-13,14.9c-0.1,0.3-0.1,0.7,0,1
			C75.6,230.2,75.6,229.9,75.8,229.7z"/>
		<g>
			<path fill="#FFFFFF" d="M79.5,231.4c-0.4,0.1-0.8,0-1.1-0.3c0,0-0.1-0.1-0.3-0.3c-2.6-2.2-3.7-3.3-4.1-4
				c-0.4-0.7-0.1-1.5,0.4-1.9c0.7-0.4,1.4-0.1,1.8,0.5c0.1,0.1,0.7,0.8,3.6,3.1c0.3,0.3,0.3,0.3,0.4,0.3c0.5,0.5,0.7,1.4,0.1,2.1
				C80,231.2,79.7,231.4,79.5,231.4L79.5,231.4z"/>
			<path fill="#FFFFFF" d="M79.3,230.7c-0.1,0-0.4,0-0.5-0.1c0,0-0.1-0.1-0.3-0.1l-0.1-0.1c-1.8-1.4-3.6-3-4-3.7
				c-0.1-0.3-0.1-0.7,0.1-1h0.1c0.3,0,0.5,0.1,0.7,0.4c0.3,0.4,1.5,1.6,3.6,3.3c0.3,0.1,0.3,0.3,0.4,0.3c0.3,0.3,0.3,0.7,0.1,1
				C79.5,230.6,79.5,230.6,79.3,230.7L79.3,230.7z"/>
		</g>
		<g>
			<path fill="#FFFFFF" d="M86,224.3c-1,0.1-1.4-0.3-3.1-2.2c-1-1-1.9-2.1-2.3-2.6c-0.5-0.7-0.5-1.6,0.1-2.2s1.4-0.3,1.9,0.4
				c1,1.1,3.3,3.1,3.8,3.6c0.4,0.1,0.7,0.5,0.7,1C87.4,223.2,86.9,224,86,224.3L86,224.3z"/>
		</g>
		<g>
			<path fill="#FFFFFF" d="M93.1,217.1c-0.5,0.1-1.2-0.1-1.6-0.7c-1-1.6-2.2-3.3-2.7-3.6c-0.7-0.3-1.1-1.2-0.8-1.9
				c0.3-0.8,1.1-1.1,1.8-0.7c1.2,0.5,3,2.7,4.2,4.7c0.4,0.7,0.3,1.6-0.5,2.1C93.6,217,93.4,217.1,93.1,217.1L93.1,217.1z"/>
		</g>
		<g>
			<path fill="#FFFFFF" d="M101.4,211.4c-0.5,0.1-1.1-0.1-1.5-0.5l-3.6-4.2c-0.5-0.7-0.4-1.6,0.3-2.2c0.7-0.5,1.2-0.3,1.8,0.3
				l3.8,4.1c0.5,0.7,0.4,1.6-0.3,2.2C101.8,211.3,101.5,211.4,101.4,211.4L101.4,211.4z"/>
		</g>
		<g>
			<path fill="#FFFFFF" d="M110.1,207.4c-0.3,0.1-0.7,0-1.1-0.1c-0.4-0.3-0.7-0.7-0.8-1.1c-0.5-0.8-2.7-3.3-3.3-3.6
				c-0.7-0.4-1.1-1.2-0.7-2.1c0.4-0.7,1.1-0.8,1.9-0.5c0.8,0.4,2.1,1.4,2.9,2.3c1.2,1.4,1.9,2.3,2.1,3c0.1,0.7,0,1.1-0.1,1.4
				C111,207,110.5,207.3,110.1,207.4L110.1,207.4z"/>
		</g>
		<path fill="#BBBDBF" d="M79.5,231.2c-0.4,0.1-0.8,0-1.1-0.3c0,0-0.1-0.1-0.3-0.3c-2.5-2.1-3.7-3.1-4-3.8c-0.3-0.5-0.3-1.2,0.1-1.6
			c-0.5,0.4-0.5,1.2-0.3,1.8c0.4,0.7,1.5,1.8,4,3.8c0.1,0.1,0.3,0.1,0.3,0.3C78.6,231.2,79,231.4,79.5,231.2c0.1,0,0.4-0.1,0.5-0.3
			C79.9,231.1,79.6,231.2,79.5,231.2z"/>
		<path fill="#BBBDBF" d="M86,224c-1,0.1-1.4-0.3-3.1-2.1c-0.8-1-1.8-1.9-2.3-2.5c-0.1-0.1-0.3-0.4-0.3-0.5c0,0.3,0.1,0.5,0.4,0.7
			c0.4,0.5,1.4,1.5,2.3,2.5C84.7,223.9,85.1,224.3,86,224c0.8,0,1.4-0.8,1.2-1.6l0,0C87.3,223,86.7,223.9,86,224z"/>
		<path fill="#D0D2D3" d="M93.7,216.7c-0.1,0.1-0.3,0.1-0.4,0.1c-0.5,0.1-1.2-0.1-1.5-0.7c-1-1.5-2.2-3.1-2.6-3.4
			c-0.7-0.3-1.1-1.1-0.7-1.9c0-0.1,0-0.1,0.1-0.3c-0.1,0.1-0.1,0.3-0.1,0.4c-0.3,0.7,0,1.5,0.7,1.9c0.4,0.3,1.6,1.9,2.6,3.4
			c0.3,0.5,1,0.8,1.5,0.7C93.3,217,93.4,217,93.7,216.7c0.1,0,0.3-0.1,0.4-0.4C94,216.5,93.8,216.6,93.7,216.7z"/>
		<path fill="#D0D2D3" d="M101.9,210.8c-0.1,0.1-0.4,0.3-0.7,0.3c-0.5,0.1-1.1,0-1.4-0.5l-3.4-4.1c-0.4-0.5-0.4-1.1-0.1-1.6
			c-0.4,0.5-0.4,1.2,0,1.8l3.4,4.1c0.4,0.4,1,0.5,1.4,0.5C101.5,211.3,101.6,211.1,101.9,210.8c0,0,0.1-0.1,0.3-0.3
			C102.1,210.7,102.1,210.7,101.9,210.8z"/>
		<path fill="#D0D2D3" d="M110.1,207.1c-0.3,0-0.7,0-1-0.1c-0.4-0.3-0.7-0.5-0.7-1c-0.5-0.8-2.6-3.1-3.1-3.4c-0.7-0.4-1-1.2-0.7-1.9
			c0,0,0,0,0-0.1l-0.1,0.1c-0.4,0.7-0.1,1.6,0.7,1.9c0.5,0.3,2.7,2.6,3.1,3.4c0.1,0.4,0.3,0.8,0.7,1
			C109.3,207.3,109.7,207.3,110.1,207.1c0.3,0,0.7-0.3,0.8-0.5C110.7,206.9,110.4,207.1,110.1,207.1z"/>
		<path fill="#D8D8D8" d="M74.1,225.4c0.7-0.4,1.4-0.1,1.8,0.5c0.1,0.1,0.7,0.8,3.6,3.1c0.3,0.3,0.3,0.3,0.4,0.3
			c0.4,0.4,0.5,1,0.4,1.5c0.4-0.5,0.3-1.4-0.3-1.9c0,0-0.1-0.1-0.4-0.3c-2.7-2.3-3.4-3-3.6-3.1c-0.4-0.5-1.2-0.8-1.8-0.5
			c-0.3,0.1-0.5,0.4-0.5,0.8C73.8,225.6,74,225.5,74.1,225.4z"/>
		<path fill="#D0D2D3" d="M80.7,217.8c0.7-0.5,1.4-0.3,1.9,0.4c1,1.1,3.3,3.1,3.8,3.6c0.4,0.1,0.7,0.5,0.8,1l0,0c0-0.1,0-0.3,0-0.4
			c-0.1-0.4-0.4-0.8-0.7-1c-0.5-0.5-2.9-2.5-3.8-3.6c-0.5-0.7-1.4-1-1.9-0.4c-0.4,0.4-0.5,1-0.5,1.4
			C80.3,218.4,80.4,218.1,80.7,217.8z"/>
		<path fill="#BBBDBF" d="M94.2,214.8c-1.2-1.9-3-4.2-4.2-4.7c-0.7-0.3-1.4,0-1.8,0.7c0.4-0.4,1-0.5,1.5-0.3c1.2,0.5,3,2.7,4.2,4.7
			c0.3,0.4,0.3,1,0,1.5C94.5,216.2,94.5,215.4,94.2,214.8z"/>
		<path fill="#BBBDBF" d="M102.2,208.9l-3.8-4.1c-0.5-0.7-1.2-0.8-1.8-0.3c-0.1,0.1-0.3,0.3-0.4,0.5c0-0.1,0.1-0.1,0.1-0.1
			c0.7-0.5,1.2-0.3,1.8,0.3l3.8,4.1c0.4,0.4,0.4,1.1,0.1,1.6C102.6,210.3,102.6,209.5,102.2,208.9z"/>
		<path fill="#BBBDBF" d="M111.2,205.4c-0.1-0.7-1-1.6-2.1-3c-0.8-1-2.1-1.9-2.9-2.3c-0.7-0.4-1.5-0.3-1.9,0.4
			c0.4-0.5,1.1-0.5,1.8-0.3c0.8,0.4,2.1,1.4,2.9,2.3c1.2,1.4,1.9,2.3,2.1,3c0.1,0.5,0,1.1-0.1,1.2l0.1-0.1
			C111.2,206.5,111.5,205.9,111.2,205.4z"/>
	</g>
	<path d="M221.1,97l8.9,17.3c0,0-2.6,1.1-3.1,0.7C226.1,114.7,220.2,108.3,221.1,97z"/>
	<polygon points="227.2,117.4 230.4,116.5 231.1,119.5 228.6,119.9 	"/>
	<path d="M448.4,584.7c-6-7-16.4-15.5-20-18.5c-3.6-3-13.4-13.4-14.9-17c-1.5-3.4-8.5-18.5-11-21.9s-16.4-32.5-16.4-35.9
		c0-3.6-8.5-24.4-8.5-24.4c-3-10-17.4-24-20.4-25.5c-3-1.5-6.4-10-8.5-13c-2.1-3-0.5-4.5-0.5-7.9s0.5-9,0.5-9
		c14.5-23.4,13-64.4,13.4-68.3c0.5-4,0.5-7,0.5-8.5s2.1-10,1-11.9c-1-2.1,0-6,1-7.5c1-1.5,0-5.5-1.5-11c-1.5-5.5-2.5-13-2.5-22.5
		c0-9.4,2.5-6,4-11.9c1.5-6,3-9.4,3-13.4c0-4-3-15.5-4.9-21.5c-2.1-6-4.9-10-4.9-11.9c0-2.1,1.5-4.9-0.5-10.4
		c-2.1-5.5-4.5-9.4-4-14.9c0.5-5.5,2.1-10,1.5-16s-1.5-9-1.5-11.5c0-2.5-1.5-13.4-3-17.9s-2.1-12.5-0.5-17.4s0-7-2.5-9.4
		c-2.5-2.5-7.5-7-11-9c-3.4-2.1-11-2.1-13.4-2.1s-13-1-18.9,1.5c-1.6,0.7-3.7,1.2-5.8,1.5c-0.3-1.2-0.7-2.3-1.1-2.6
		c-0.8-0.5-2.2-1.9-2.3-2.5c-0.1-0.7,0-1.6,0.7-1.8s0.1-2.3,0-3s-1.2-3.7-1.4-5.5c-0.3-1.8,0.5-7.1,0.5-7.1l0.8-5.3
		c2.9-4.8,0-8.2,0-8.2c-12.2-35.5-33.7-35.7-33.7-35.7l-1.4-0.8c-6.8-2.2-22.2,1.9-22.2,1.9l-1.5,1.8c-22,11.1-22.3,34.2-22.3,34.2
		l0.1,9.9c-1.6,5.8,4.2,8.9,4.2,8.9s4.1,10.4,3.1,12.5c-1,2.1,2.7,6.2,2.6,7.7c-0.1,1.4,3,11.8,3,11.8s8.5-1.4,8.6,0
		c0,0.4,0.3,1,0.7,1.8c-3.6,1.5-5.9,2.5-6.2,2.5c-1.5,0.5-4.9,1.5-11.2,4.8c-6.3,3.3-8.8,6.7-11.8,10.7c-3,4-12.5,12.2-15.2,12.5
		c-2.7,0.3-8.5-2.5-10-2.7s-3.7-1-7.9-2.2c-4.2-1.2-9.2-4.2-9.2-4.2c-4.2-1.2-12.5-7.7-12.5-7.7c-4.5-0.3-3.3,3.4-3.3,3.4l4,6.4
		l-6.4-1.5c-4.9,0-4,3.7-4,3.7c-0.3,4.2,20.3,10,18.9,10.4c-1.2,0.5-4,2.1-4,2.1l-8.2,0.7c-3.4,2.5,1.2,5.8,1.2,5.8
		c11.9,3.3,23.7-2.7,24.6-2.2s4.9,3.7,5.2,4.5c0.3,0.7,0,6.4-1,7.5c-1,1-4.2,1.8-4.2,1.8c-3.3,0.5-9,7-9,7c-3.4,8.8,6,5.5,6,5.5
		l8.5-5.2l5.5-2.7c2.5,1,10.3,0.3,10.3,0.3s-3,5.2-4.8,7c-1.8,1.8-9,4.5-10.3,4.5c-1.2,0-10,1-12.2,1c-2.2,0-21-4.7-23.7-4.7
		c-2.7,0-5.2-2.9-5.2-2.9c-6.3-6.7-12.3-11-13.7-11c-1.4,0-10,0.5-13,0.5s-8.5,1-10.1,1.6c-1.6,0.7-12.2,6.3-12.2,6.3
		c-2.9,6,1.8,5.5,1.8,5.5l3.4-1.8c-0.8,6.7,4.4,3,4.4,3s3.1-3.3,4.1-4.1c1-0.8,7.7-2.3,8.6-2.6s1.5,0.5,1.5,0.5
		c-1.6,9.6,5.3,4.7,6.7,2.9c1.4-1.8,5.2-0.7,5.2-0.7c8.8,0.7,10.8,5.5,10.8,5.5c4.5,12.6-1.9,27.1-1.9,27.1c6.4-3.4,5.3-4.7,5.3-4.7
		l2.6,1.1c9,4.9,30.5,13.8,30.5,13.8c16.2,3,23.4-2.1,23.4-2.1c6-1,22.3-17.8,22.3-17.8s4.9-5.2,4.9-1.1c0,4.1,4.5,7.5,7.5,11.2
		c3,3.7,0.7,5.2-1.5,9c-2.2,3.7,1.5,8.2,2.2,16c0.7,7.8,2.2,5.2,1.5,7.8c-0.7,2.6,0.4,8.2,0.4,12.3s4.5,4.9,6,7.8
		c1.5,3-0.4,3.7-0.4,5.6s2.6,3,1.9,7.8c-0.7,4.9-1.5,3.7-3.4,5.6c-1.9,1.9-1.9,4.9-2.6,9.3c-0.7,4.5-3.4,6-5.2,7.5
		c-1.9,1.5-5.2,6.7-10.1,9.7c-4.9,3-33.3,34.4-35.6,37.4c-2.2,3-4.1,10.1-6.7,14.7c-2.6,4.5-4.5,10.8-9,16.4
		c-4.5,5.6-3.4,7.5-8.6,13.8c-5.2,6.3-1.5,6-4.1,8.6c-2.6,2.6-5.6,10.1-5.6,10.1s-6.7,9.3-7.8,10.4c-1.1,1.1-4.1,9.3-6,11.9
		c-1.9,2.6-10.4,12.7-10.4,12.7c-2.6,0.7-10.1,25.5-10.8,30c-0.7,4.5-19,54.2-19,54.2s0,1.9-2.6,3c-2.6,1.1-3.7,6-5.6,8.6
		c-1.9,2.6-7.1,8.6-10.4,9.7c-3.4,1.1-9.7,3.7-11.2,4.5c-1.5,0.7-14.7,6-14.7,6c-8.6,5.2-7.5,7.5-6.3,11.6c1.1,4.1,49,0.4,49,0.4
		c31.8,1.1,26.2-4.1,26.2-4.1s-0.7-2.6-1.5-5.2c-0.7-2.6-0.4-5.6-0.7-8.2c-0.4-2.6,0.7-4.5-0.4-9.7c-1.1-5.2,14.7-27,17.3-32.2
		c2.6-5.2,9.9-15.2,9.9-15.2c14-7.9,16.4-18.5,16.4-20.4c0-2.1,2.5-10.4,4-11.5c1.5-1,2.1-4.9,2.1-4.9s2.5-6.4,2.5-9
		c0-2.5,2.5-4.5,2.5-4.5s6.4-9,10-11.5c3.4-2.5,4.9-4.5,7-7.5c2.1-3,17.4-14.9,18.9-16c1.5-1,27.4-18.5,31.9-20s10.4-9,12.5-10
		c2.1-1,17-10.4,18.9-14.5c1.9-4.1,7.5-5.5,13.4-6.4c6-1,7,0.5,9,6c2.1,5.5,0,12.5-1,18.5c-1,6,0.5,9,1.5,13.4c1,4.5,4,7.9,5.5,10
		c1.5,2.1,6.4,7.9,6.4,7.9s4.9,7,5.5,9c0.5,2.1,10.4,12.5,11.5,14.5c1,2.1,10,19.4,10,19.4c3,6.4,21,28.9,21,28.9
		c13.4,11.5,27.9,39.4,30,42.5c2.1,3,1.5,7.9,1.5,7.9s-0.5,3.4,1,5.5c1.5,2.1,4.9,12.5,7.5,14.5c2.5,2.1,16,15.5,16,15.5
		c17.4,9,31.9,4.5,31.9,4.5C449.9,599.8,454.3,591.7,448.4,584.7z"/>
</g>
<path fill="#00192D" d="M213.5,260.2c2.9,9,2.6,3,3.4,1.2c0.8-1.8-2.5-7.7-2.5-7.7c2.5-4,8.4,2.5,8.4,2.5c1.5-3.3,4.9,1.2,4.9,1.2
	c2.9,0.7,5.9,6.4,5.9,6.4l3.8-0.5c3.1-1.5,2.2,7,7.1,3.6c4.9-3.4,22.3-4.5,22.3-4.5c6.6-3.1,20.3-5.8,20.3-5.8l4.4-1.5
	c3.6-2.9,20.1-7.9,20.1-7.9s0.8-4.2,1.5-5.8c0.7-1.5-0.8-6-0.4-7.1c0.4-1.1,3.4-7.7,4.2-10c0.8-2.3,5.1-9.3,5.1-9.3
	c2.6-3.7,7.4-6.7,12.2-9c-0.4-4.9-0.7-9.9-0.7-9.9l1.4-2.2l0.1-2.1l1.8-3.6c1-1.9,2.9-11.2,2.9-12.1c-0.1-0.8,1-3.1,1-3.1l4.9,1.5
	l0.7-0.7c-0.7-0.8-1-1.6-1-2.3l-1-0.8c-0.1-1.9,1-1.9,1.8-1.8l4.4-7.8c34-49.7,70.4-10.3,70.4-10.3c18.4,28.1,5.6,50.3,1.6,56
	l4.2,0.5c16.2,4.5,17.7,12.7,17.7,12.7c7.7,11.8,5.6,34.2,5.6,34.2c2.7,5.3,4.1,6,10.4,17.1c6.3,11,1.6,3.4,14.8,13.6
	c13.1,10,7.7,7.8,15.3,17.5c7.5,9.7,2.7,6.3,4.5,7.7c1.8,1.4,4.1,0.8,4.1,0.8c18.5,3.6,24,10.1,24,10.1
	c25.1,18.5,32.7,37.9,32.7,37.9c22.6,15.2,34.9,42.6,37.4,45.5s4,2.5,5.9,2.9c1.9,0.4,1.5-1.1,3.1-1.2c1.6,0,6.2-2.5,6.2-2.5
	c21.6-13.1,33.3-8.2,35.1-7.5c1.8,0.7,18.5-1.6,18.5-1.6s3.8-0.7,10.3-1.6c6.6-0.8,5.3-4.1,7.9-5.3s6.2-3.8,7.4-4.1
	c1.2-0.4,2.9-5.6,7.3-12.1c4.2-6.4,10.3-3.6,10.3-3.6l5.1,0.3l4.2,2.2c0,0,0.8,1.5,1.1,3.7c0.3,2.2,2.9,3.1,2.9,3.1l2.1-0.1l1.8,1.9
	c0,0,0,2.6,1.4,7.3c1.4,4.7,7.4,15.1,7.4,15.1l2.7,0.7l2.9,1v2.2l3.1,4l3.1,1.4l1.4,1.6c0,0-1.4,2.6,0.3,3.8
	c1.6,1.2,5.1,15.2,5.1,15.2c5.1,14.7-6.7,17.7-6.7,17.7c-5.1,3.7-21.6-12.6-26.6-17.3c-4.9-4.7-19.4-12.5-20.3-12.2
	c-0.8,0.3-4.7,0.1-8.6,1.5c-4.1,1.5-2.9,1.6-6,3.3c-3.1,1.5-12.1,1.6-12.1,1.6c-4.7,3.6-49,16-49,16l-7.4,3.1l-1.5,5.3
	c-18.8,13.1-51.5-11.9-51.5-11.9l-6.2-0.4c-5.6-0.7-35.3-21.1-43.4-28.9c-8.1-7.8-6.2-3.4-7.5,3.4c-1.2,6.8-4.5,17.9-6.7,18.6
	c-2.2,0.7-14.5,21.5-16.3,26s-3.3,23.6-3.3,23.6l7.1,2.2c16.4,9.2,19.6,19.2,22.6,22.5c3,3.3,13.6,8.8,17,10.7
	c3.4,1.9,7.7,3.6,7.7,3.6l1.4-2.2c0,0,6.8,3.8,9.3,4.8s4.5,0.8,10.5,3.1c6,2.3,7.5,14.1,8.6,19.9c1.1,5.8-11.2,24.6-11.2,24.6
	l1.6,1.2l-1.1,2.7l-4.4,3.6l-3.8,6.3l1.6,2.6c0,0-0.7,3.4-1.5,2.7c-0.8-0.7-5.2,5.8-5.2,5.8c-9.6,19.6-21.4,14.5-21.4,14.5
	c-7-8.2-4.2-22.7-2.9-25.6c1.2-3,3-11,4.4-12.2c1.5-1.4,3.7-15.7,2.6-17.5c-1.1-1.8-3.7-2.3-5.8-4c-2.2-1.6,1.8-3,0.1-4.8
	c-1.6-1.8-15.2-8.2-15.2-8.2c-7.8-2.1-36.7-17.3-37.7-17.9c-1-0.7-10.8-5.8-10.8-5.8c-8.4,1.4-14.1-1.9-14.1-1.9
	c-14.5-11.1-9.7-48.9-9.2-50.9c0.5-2.1-1.5-8.9-1.5-8.9c-2.6-0.5-3.6-5.6-2.2-6c1.4-0.4-1.6-7.5-1.6-7.5c-1.8-3.4,1.1-7.9,1.1-7.9
	l-0.5-4.4c-1.2-3.4,0.7-7.3,1.4-8.2c0.7-1-1.5-7-1.5-7c-1.1-3.7,4.1-20.8,4.1-20.8s0.7-5.3,1.2-7.4s1.9-3.8,2.3-5.6
	c0.3-1.6,4.4-8.4,4.4-8.4s-1.6-0.3-6.8-3.3c-5.1-2.9-6-8.1-9.2-10.4c-3.1-2.3-14.2-10.8-17.1-16c-2.9-5.2-8.5-6.8-14.8-13.3
	c-6.4-6.3-6-3-11.1-6c-5.1-2.9-6.8-3.8-6.8-3.8c-6.7,1.2-27.1-9.3-27.1-9.3c-6-3-24.8-23.3-24.8-23.3c-24.1,7.9-33.6,6.2-33.6,6.2
	c-8.2,4.9-27.5,3.4-27.5,3.4l-8.6-4.1c0,0-3.3-1.5-8.2-0.8c-4.9,0.7-12.6-2.7-12.6-2.7c-2.6-1.1-11-11.2-11-11.2l-3.4-7
	c-1.6-1.8-2.3-5.2-2.3-5.2C208.7,255,213.5,260.2,213.5,260.2z"/>
</svg>
