<?xml version="1.0" encoding="utf-8"?>
<!-- Generator: Adobe Illustrator 18.1.0, SVG Export Plug-In . SVG Version: 6.00 Build 0)  -->
<!DOCTYPE svg PUBLIC "-//W3C//DTD SVG 1.1//EN" "http://www.w3.org/Graphics/SVG/1.1/DTD/svg11.dtd">
<svg version="1.1" id="Layer_1" xmlns="http://www.w3.org/2000/svg" xmlns:xlink="http://www.w3.org/1999/xlink" x="0px" y="0px"
	 viewBox="0 0 1024 768" enable-background="new 0 0 1024 768" xml:space="preserve">
<g>
	<path fill-rule="evenodd" clip-rule="evenodd" fill="#E6E7E8" d="M72.4,513.5h5c-0.1-0.5-0.2-0.8,0-1.2c0.1-0.3,0.4-0.4,0.7-0.6
		c0.5-0.6,1.1-1.2,1.6-1.9c0.8-1.6-0.3-1.5-0.3-3c0.1-1.3-0.4-2.3-1.8-1.9c-0.5-0.8-1.4-0.6-2.1-0.1c-0.8-0.4-1.1-0.4-1.8,0.4
		c-1-0.3-1.2,0.2-1.8,1.1c-1.1,1.3-0.4,3.9,0.1,6C72.2,512.6,72.4,513,72.4,513.5z"/>
	<path fill-rule="evenodd" clip-rule="evenodd" fill="#E6E7E8" d="M1027.4,545.2C1027.4,545.2,1027.3,545.2,1027.4,545.2
		c-0.1-0.1-0.2-0.2-0.4-0.3c0.1-0.1,0.2-0.2,0.4-0.3v-11.8c-0.9,0.6-1.9,1.3-2.8,1.9l-0.5,0.8c-0.8-0.3-1.2-0.4-1.6-0.2c0,0,0,0,0,0
		c0.5-0.8,0.4-1.8-0.3-2.7c-0.9-1.7-0.8-3.8-1-5.7c0-0.2-0.3-0.2-0.5-0.3l-0.2-2.1l0-3.4l-0.1-0.9l0.7,1.1c0.4,0.3,0.1-0.5,0.7,0.1
		c0.4,0.4,0.3,0.4,0.5-0.1c0.2,0.8,0.4,0.2,0.6,0.6c0.1,0.2,0.7-0.1,0.7-0.1c1.1,0.4,0.4,0.1,1-0.4c0.2-0.1,0.4,0.1,0.3,0.1
		c0,0,0.6-1,0.8-1.1c0,0,0.5-0.1,0.4-0.3c-0.2-0.3-0.1-0.8,0-0.9c0.3-0.2,0.6-0.6,0.6-0.9c0-0.4,0.3-0.6,0.3-0.6
		c-0.2-0.1,0.5-0.1,0.4-0.2c-0.3-0.5-1.3-0.9-0.9-1.3c0.2-0.3,0.8-0.2,1-0.3v-0.4c-0.1-0.1-0.1-0.2-0.2-0.3
		c-0.5-0.6-1.3-1.4-1.3-1.6c0-0.2,0.3-0.3,0.6-0.5c1.1,0.4-0.2-0.2-0.5-0.6c-0.2-0.2,0-0.7-0.1-1.2c-0.2-0.8-1.1-1.5-1.7-2.2
		l-1.3-1.2c-0.8-0.1-0.7-0.2-0.4-0.7c0.1-0.2-0.1-0.6-0.3-1c-1.1-1.2-1.5-1.9-2.2-2.1c-0.2-0.1-0.3-0.4-0.6-0.5
		c-1.4-0.5-2.8-0.6-5-0.8c-4.9,0-9.9,0.3-14.8,0.3l-3.2,0c-4.9-0.1-9.8-0.3-14.6-0.3c-0.3,0-0.7,0.1-0.9,0.1
		c-1.2-0.1-1.8-0.3-2.1-0.1c-0.4,0.3-0.1,1.4,0.1,2.9c0.1,1.6,0.4,4.2,0.4,6.5c0,1-0.1,2-0.1,2.8c0,0.4-0.2,0.8-0.1,1.1
		c0.1,0.4,0,0.7,0,0.9c0.1,0.8,2.2,0.8,4.4,0.3c1.2-0.3,2.4-0.7,3.5-0.7c1-0.2,1.9-0.4,2.8-0.8c0.5-0.2,0.9,0,1.3-0.1
		c1.9-0.1,3.5-0.5,5.3-0.7c1.7-0.2,3.2-0.2,4.8-0.6c3.8-0.9,7.4-2.4,11.3-4.2c0.2-0.1,0.2,0.5,0.2,0.6c0,0.2-0.5,0.3-0.6,0.6
		c-0.2,0.7,0.7,1.6,1.3,2.5c0.3,0.5,0.1,1.3,0.2,2.2c0.2,0.3,0.6,0.4,0.8,0.4c0.1,0.3,0.2,0.7,0.3,1c0.1,0.3,0.3,0.8,0.5,1.2
		c0.2,0.6,0.4,1.2,0.6,1.7c0.1,1-0.2,7.4-0.3,7.5c0,0-0.3-0.1-0.4,0c-0.2,0.1-0.4,0.5-0.5,0.5c0,1,0,1.9,0.2,2.9l-0.2,2.4
		c-0.1,1.3-0.2,2.6-0.1,3.9c-0.7,0.1-1.4,0.3-2.3,0.6c-2.3-1.6-3.5,1.2-4.5,2.8l-0.9,1.5c-2.4-2.2-3.3,1.9-3.2-1.6
		c0-1.4-0.4-3.3,1.2-3.4c3.1-0.8,5.3-4,2-5c-1.8-0.5-0.4-3.1-1.2-4.6c-1.3-1.3-1.4-1.3-1.4-3.1c-0.8-4.3-2.9-4.6-6.6-4.9
		c-9.7,0.3-5,3.3-9.5,6.2c-2.4,1.8-1.9,3.6-1.4,6.1c-1.6,6.5,1.2,2.9,2.7,5.5c0.3,0.4,0.4,0.5,1,0.3c0,1.9,2.1,3.2,1.4,5
		c-1.1,0.2-1.6,0-1.9,1.1c-3.1,1.3-1.5-1.1-4.1,0l-2.4,0.8l-1.3,0.5c-1.5,0-1.7,0.2-3,1.1c-1.1-0.2-1.1-0.3-1.8,0.6
		c-1.2-0.2-1.6-0.2-2.7,0.2c-2.6-0.5-4.9-0.6-7.5-0.2c-2.7-1.3-4.7-1.8-7.7-2.1c-4.3-0.8-8.1-2.1-11.9-3.9c0-0.3-0.1-0.7-0.2-1
		c-0.3-1-0.3-1.6-1.4-1.7c-0.6-0.4-0.5-0.4-1.4-0.5c0-0.1-0.1-0.3-0.1-0.5c-0.7-1.6-1.7-2.5-3.2-3.1c-0.9-0.7-0.8-0.6-1.7-0.1
		c-1.2,0.4-1.6,1.1-0.2,1.1c-0.4,0.6-0.5,0.7-0.5,1.5c-1,0.4-0.9,0.9-0.6,1.7c-1.1,1.1-0.4,1.7,0.5,2.5c0.5,1.5,1.1,2.3,2.2,2.8
		c0.5,0.8,0.4,1.6,0.5,2.6c0,3.1,0.5,6.1-0.1,9.1c-0.4,2.2-0.8,4.6-0.9,7c0,1.5-0.1,3.2,0.1,4.6c0,0.3,0,0.3-0.2,0.4
		c-0.1-1.1-0.4-2.3-0.8-3.4c-0.2-0.7-0.2-1,0-1.7c0-0.4,0.1-1.2,0-1.7c-0.1-0.4-0.4-0.4-0.5-0.8c-0.1-0.9,0.4-1.4-0.6-2.1
		c-0.5-0.7-0.6-0.9-1.4-1.1c-0.1-0.6,0.1-0.7-0.5-1c-0.3-0.7-0.5-0.9-1-1.4c0.2-2.3-0.3-2.3,0-3.2c0.1-0.3,0.5-0.4,0.7-0.7
		c0.6-0.7,1.2-1.4,1.8-2c0.9-1.7-0.3-1.7-0.3-3.3c0.1-1.4-0.4-2.5-2-2.1c-0.5-0.9-1.6-0.7-2.3-0.1c-0.9-0.5-1.2-0.4-1.9,0.5
		c-1.1-0.3-1.4,0.2-1.9,1.2c-1.2,1.5-0.4,4.3,0.1,6.5c0.7,1.4,0.4,2.4,0.5,4c-1.7,0.6-0.7,2.4-1.6,3.8c-0.6,1.1-0.6,1.2-0.3,2.4
		c0.3,2.8-0.4,6.2,0.5,8.9c-0.4,2.1-0.2,3.9,0,6c0,1.4-0.1,2.4,0.1,3.5c-2,1.3-3.8,2.7-5.3,4.6c-0.2,0.2-0.6,0.7-1.3,1
		c-0.9,0.3-2.1,0.3-2.1-0.7c0-1.2,0.3-3.2,0.4-4.7c1.2,0.4,1.2-0.4,1.6-1.4c0.5-1,0.6-1.9,0.4-2.2c-0.2-0.5-0.9-0.2-0.9-0.3
		c0.1-0.5,0.3-2.2,0.3-3c0.5-0.5-0.2-1.3-0.6-2.1c0.1-0.4,0.1-0.5-0.1-0.9c0.5-0.1-0.6-0.9-1.1-1.5c-0.5-1.6-1.3-2.5-3.1-2.4
		c-0.7-0.3-1-0.4-1.8-0.3c-0.6-0.9-1.6,0.2-3,0.3c-2.3,0.5-2.5,1.3-3.7,3.4c-1,1-1.1,3.1-0.8,5.1c0,0.8-0.1,1.1,0.2,1.8
		c-0.9,0.1-0.9,1.5-0.5,2.4c0.2,1,0.7,1.8,1,1.9c0.5,0.2,0.7-0.7,0.8,0c0,0.2,0.4,1.3,0.7,2.5c0.2,1,0.3,2.1,0.2,2
		c-0.5-0.2-2-1.5-2.5-1.9c-1.7-1.5-3.5-3.6-5.7-4.4c-1.3-0.5-1.7-0.7-2.5-1.8c-1.3-2.9-2.9-5.7-5.4-7.9l-0.1-0.1
		c0.1-0.8,0.2-1.6,0.1-2.4c-0.3-3.8-1.4-7.2-2.5-10.8c-0.2-0.7-0.4-1.4-0.6-2.1c-0.1-2.4,0-4.7,0-7.2c0.1-0.9,0.2-1.1,0.8-1.7
		l0.8-0.7l0.6-0.6c1.2-1.3,1.2-1.2,0.7-2.9c-0.2-0.6-0.2-0.9-0.7-1.3c1-0.9-0.5-2.1-1.5-1.5c-0.7-0.7-1-0.9-2.1-0.3
		c-1-0.4-1-0.3-1.9,0.3c-1-0.3-1.4,0.2-1.7,1.2c-0.1,0.2-0.2,0.4-0.3,0.6c-0.6-1.9-0.9-2.4-3.3-3.5c-0.6-5.1-2.5-2.7-2.7-4.7
		c-1.4-16.1-3.4-3.5-8-8.1c-3.2-8.4-2-8.2-10.4-5.1c-2.6-4.4-8.5-6.2-7,0.6c0.4,1.8-7.9,0.5-3,5c-0.1,3.9-0.4,3.5,3.5,4.3
		c2.1,2.4,3.7,0.3,5.6,2.8c1.5,6.2-0.2,9.3,6.4,7.4c5.9,4.1,5-2,9.7-1.9c0.5,2.8,1.7,4.4,3.2,6.8c1.1,2.2,2.3,4.1,3.8,6.1
		c1.1,1.6,1.4,3,1.7,4.6c-0.4,4.5-1.3,9.5-0.1,13.9c0,0.2,0,0.4,0,0.6c-0.3,1.2-0.7,2.1-0.9,3c-0.5,2.9-3.3,1.1-8.3,5.2
		c-1.3,1.1-1.6,1.2-3.3,1.4c-4,1-5.5,1.8-7.8,5.1c-2.2,2-1.4-2.8-1.3-3.7l0.1-2c0.5-1,0.6-1.5,0.6-2.5c1.6-1.1,1.4-2.4,1.4-4.1
		c0-1.3-0.2-2.2-0.5-3.5c-0.9-4.8-3.4-8.9-6.8-9c-5.6-0.2-4.7,0.3-6.7,1.9c-1.6,1.3-3.4,3-3.5,5.4l0.3,2.2l0.2,1.6
		c-0.4,1.8-0.4,1.9,0.5,3.4c0.1,1.7-0.3,2,1.2,2.9l0.9,0.6c0.3,0.9,0.4,1.6,1.3,2.1c-0.2,1.9-0.5,3-1,3.9c-0.6,1.2-1.9-0.6-6.1,2.1
		c-2.2-0.2-4.3,0.2-6.2,0.8c0.2-0.3,0.4-0.7,0.5-1.1c0.5-1,0.9-2,1.4-2.9c1-1.4,1.4-2.2,1.3-3.1c0.5-0.8,0.7-1.1,0.8-2
		c0.4-0.7,0.5-1.2,0.6-2c0.4-0.9,0.4-1.5,0.4-2.5c0.3-1.4,0.6-2.7,0.7-4.1c0.5-1.8,0.5-3.8,0.6-5.6c0.3-1.1,0.5-2.1,0.2-3.3
		c0.3-1,0.3-2-0.2-2.9c0.1-0.7,0.1-1.1,0-1.8c-0.1-0.9-0.1-1.1-1.1-1.1c-0.1-0.8-0.1-1.5,0.2-2.2c0.4-0.5,0.7-1,1-1.6
		c0.7-1.1,1.4-2.7,1.8-3.8c0.2-0.6,0-0.7,0.3-1.3c0.2-0.4,0.5-0.8,0.7-1.2c0.7-1.5,1.4-3.1,1.1-3.6c-0.3-0.5-0.9-0.1-1.3,0.9
		c-0.2,0.4-1.3,2.8-1.7,2.9c-0.2,0-0.3-0.5-0.1-1.3c0.5-1.7,0.5-3.4,0.5-5.1c-0.1-1.1-1.2-1-1.2,0c0,1-0.2,2-0.3,3
		c-0.1,0.8-0.3,1.6-0.5,1.6c-0.2,0,0-0.4,0-1c0.3-1.3,0.2-2.6,0.4-3.9c0.1-0.4,0.1-1,0.1-1.4c0-0.7-1.2-0.8-1.3,0.4l-0.3,1.5
		c-0.2,0.9-0.3,1.6-0.3,2.5c0,0.3,0.1,2.2-0.2,1l-0.1-1c0.1-0.8-0.1-1-0.1-1.5c-0.1-0.8-0.1-1.7-0.2-2.5c-0.1-0.8-1.1-0.9-1.3,0
		c0,0.8,0,1.7-0.1,2.5c0,1.3,0.2,2.6,0.2,3.8l0,0.6c-0.4,0.7-1.1,1.8-1.6,1.8c-0.3,0-0.9-0.7-1.3-1.8c0-0.7-0.6-1.5-1.6-1.9
		c-0.8-0.3-1.3,0.3-0.3,1.2c0.4,1,0.6,0.9,0.8,1.3c0.2,0.3,0.3,0.8,0.4,1.3l0.1,0.8c0.1,0.5,0.1,0.7,0.4,1l0.5,0.7
		c0.3,0.6,0.6,1.1,0.9,1.6c0.2,0.5,0.1,0.8-0.1,1.3c-0.1,0.8-0.1,1.5,0,2.4c-0.5,0.1-0.5,0.3-0.7,0.8c-0.8,0.4-0.3,1-1.5,1.9
		c-0.6,0-0.7,0-1.2,0.4c-0.4,0.5-0.4,0.5-0.1,1c-0.5,0.5-0.4,0.7-0.4,1.4c-0.3,0.6-0.3,0.9-0.3,1.5c-0.1,0.9-0.3,1.8-0.3,2.8
		c-0.7,0.9-0.3,1.7,0.1,2.6c-0.6,0.4-0.7,0.5-0.9,1.2l-0.5,1.1c-0.4,0.7-0.7,1.4-1,2.2c-0.4,0.8-0.5,1-0.4,1.9
		c-0.3,0.5-0.4,0.8-0.5,1.4c-0.8,0.5-1,0.8-1.5,1.7l-0.6,0.9c-1.6,0.2-1.6,0.7-1.4,2.3c-0.2,0.6-0.5,1.1-0.6,1.8
		c-0.6,0.2-0.8,0.3-1.2,0.8c-0.5-0.6-0.4-0.7-1.2-0.6c-1,0.1-1.4,0.3-2.3,0.8c-0.9,0.5-0.6-0.2-2.5,1.4c-0.3,0.3-0.3-0.2-0.1-0.7
		c0.1-0.2-0.4-0.6-0.7-0.7c-0.8-0.3-1.1,0.5-0.8-0.7c0.3-0.1,0.3-0.7,0.7-0.8c1-0.1,1.1-2.3,1.2-3.3c0.2-0.7,0.2-1.2,0.2-1.9
		c0-1.8,0-3.7-0.8-5.3c-1.9-3.8-6-4.7-8.9-3.4c-2.9,1.3-4.6,4.4-4.7,8c0,2.4-0.2,4.6,1.5,6.5c0.3,0.4,0.8,0.7,0,0.5
		c-0.2,0-0.4,0-0.5,0.1c-0.3,0.3,0.1,0.8-0.2,0.9c-0.3,0.1-0.8-0.7-2.1-0.4c-1-0.4-2-1-3.1-0.5c-0.6-0.2-0.1-0.3-1.3,0
		c-0.5-1.4-0.1-1.5-0.4-2.1c-0.4-0.9-0.9-1.3-2.3-2.5c-0.1-1.1-0.1-1.9-0.6-2.8c0-0.7,0-0.7-0.5-1.1c-0.2-0.8-0.6-1.3-1-1.9
		c0-0.1-0.1-0.1-0.1-0.2v-1.7h-1.6c-0.2-0.1-0.3-0.2-0.5-0.3c0.3-0.7,0.3-1.3,0.3-2.1c0.1-0.9,0.1-1.4-0.1-2.2
		c-0.2-0.6-0.4-1.1-0.7-1.6c2.6-1.1,5.1-2.9,7.5-4.2c2.4-1.5,6.3-4.3,8.1-6.4c1.9-2.2,2-0.9,4.3-3.7c3.8-4.4,6.7-10,8.6-15.8
		c0.9-2.5,0.9-3.4,3.2-4.8l1.3-1.6c0.8-1.7,0.3-2.9,1.7-4.3c1.1-0.6,4.9-4.4,2.8-5.3c-1.1-0.1-0.6,0.8-1.6,2.2
		c-0.8,1.1-1.9,0.9-2.1,1.4c-1.5,1-0.9-0.5-0.5-1.5c0.9-2.3,1.1-3.2,1.5-4.4l0.7-1.8c0.4-1.3-1.3-1.4-1.7-0.3
		c-0.8,1.9-1.9,3.7-2.6,5.7c-0.9,1.7-0.6,1-0.3-0.4c0.1-0.4,2.2-4.8,2.4-6.6c0.1-0.9-0.8-1.3-1.5-0.1c-0.8,1.3-1.8,3.4-1.9,3.7
		c-0.4,1.3-1.6,3.8-1.1,1.4c0.4-1.4,0.8-2.7,1.4-4c0.2-0.6,1.3-2.8-0.3-2.4c-0.6,0.1-1.2,1.2-1.5,1.7c-1,1.8-1.7,4.3-2.5,7.8
		c-0.2,0.6-0.7,3.3-1.1,2.7c-0.4-0.7-1.7-2.3-1.4-3.8c0.2-1.1,0.1-3-0.5-4.1c-0.6-1-1.5-1.3-1.4-0.2c0,0.7,0.3,1.2-0.3,2.6
		c-0.3,0.8,0,2.5,0.2,2.9c0.2,0.4,0.1,1.3,0.2,2.1c0.1,1.1,2.1,3,2,4.4c-0.9,3.5-2.7,6.8-5,9.6c-3.9,3.2-6.8,5.9-8.7,10.7
		c-7.6,2.8-7.5,6.3-12.1,6.5c-1,0-2.2,0-3.3,0c-0.2-0.9-0.3-1.7-0.2-2.7c1.2-1,2.1-2.4,2.4-3.8c0.2-0.3,0.7-0.7,0.9-1.1
		c0.3-0.4,0.3-0.7,0.4-0.9c0.3-0.8,1.3-0.9,1.2-1.4c-0.2-0.7-2-0.9-3.2,1.7c-0.1,0.1-0.7,1-0.9,0.8c-0.3-0.2-0.5-1-0.6-1.3
		c-0.1-0.6-0.3-1.3-0.2-1.9c0.2-1.2,0.2-2.2,0.1-3.2c0-0.4-0.2-1.4-0.2-2.3c0-1-1.3-1.2-1.4-0.1c-0.1,0.9,0.4,3.3,0,5
		c-0.2,0.6-0.4,0.4-0.4-0.3c0-0.2,0-0.6-0.1-0.9c-0.2-1-0.5-2-0.6-2.3c-0.2-0.7-0.4-1.5-0.6-2.1c-0.2-0.8-1.1-0.7-1.3-0.2
		c-0.2,0.5,0.2,0.8,0.5,2.4c0.2,0.8,0.4,1.7,0.6,2.6c0.3,1,0,2.3-0.5,0.5c-0.2-0.7-0.5-1.4-0.7-2.2c-0.1-0.5-0.3-1.1-0.4-1.7
		c0-0.4-0.1-0.7-0.3-0.9c-0.3-0.3-1-0.2-1.1,0.4c-0.1,0.5,0.2,1.4,0.4,2.2c0.2,1.3,0.6,2.6,1.1,3.8c0,0.5-0.3,0.7-0.6,0.2
		c-0.2-0.5-0.5-1-0.8-1.5c-0.3-0.7-0.6-1.3-0.8-2c-0.2-0.9-0.9-0.7-1.1-0.3c-0.2,0.3,0,0.8,0.1,1.4c0.4,1.4,0.8,2.3,1.7,3.5
		c-0.1,2.7,0.9,5.5,2.1,7.5c0.2,0.4,0.3,1,0.3,1.7c-1.1,0.4-2.2,0.8-3.3,1.1c-3.8,0.2-3.5,2.8-5.1,3.1c-1.1,0.2-2.7-0.6-4.6-0.4
		c-0.8,0.1-0.8-2-1.1-2.9c-0.3-1.3-0.7-2.5-0.1-3.9c0.5,1,1.4,0.4,1.2-0.4c-0.1-0.4,0.6-0.4,0.4-1.1c0.7-0.7,0.6-0.9,0.6-1.8
		c0.4-1.4,0.3-1.9-0.1-3.3c0.3-2.8,0.4-4.7-0.4-5.9c-0.5-2.5-2.6-3.8-4.8-5.1c-3.7-2.2-7.2-1-10.5,1.8c-2.1,2.3-3,4.2-3,7.8
		c-0.5,1.4-0.5,2.9,0.1,5c-0.2,0.9-0.1,1.8,0.4,2.6c0.5,0.7,0.3,2,1.4,0.9c0.3,0.8,0.7,1.4,1.2,2.1c0.8,2.2,1.3,4.1,0.6,5.7
		c-1.6,0.6-2.7,1.3-3.5,2.8c-1.2-0.7-2.3-1.2-3.6-1.7c-1.4-0.5-2.7-0.6-3.9-0.4c0.1-0.3,0.2-0.5,0.2-0.8c1.9-4.2-0.8-3.4,0.6-6.3
		c1.9-3.3,1.6-4.1,2.3-6.3c1.8-3.8-1.1-2.9,0.5-6c0.4-0.7,1.1-1,1.1-1.2c-0.1-0.6-1.3-0.9-2.5-2c0.3-1.6,0.2-3.1,0.5-4.8
		c0.1-0.9,0.6-1.8,0.7-2.7c0.4-1.2,1.6-2.1,0.8-3.4c0.4-0.8,0.3-1.3-0.4-1.9c-0.1-1-0.1-1.6-1.3-1.4c-0.5-2.5-2.1-0.8-3.3-0.8
		c-0.3,0-0.4-0.6-0.6-1.1c-0.1-0.4-0.1-1.6,0-2.2c0.1-1.7-1.1-1.9-1.7-0.9c-0.3,0.5-0.2,1.5,0,2.5c0.1,1.2-0.2,2.7-0.2,3.4
		c0.1,1.2,0.1,2.4,0.4,3c0.3,0.6,0.9,0.5,1.2,1.5c0.6,1.9-0.2,3.6-0.8,6.8c-1.3-0.3-0.9,2.4-1.6,3.3c-1.8,0.7-2,1-1.9,3.6
		c-0.6,0.9-0.6,1.2-0.6,2.3c-0.8,0.9-0.7,1.2-0.7,2.4c-0.9,1.2-1.1,1.7-1.4,3.1c-2.1,2.9-1.4,4.8-2.9,5.3l-1.6,1.2
		c-1.1,1-1.1,2.3-1,3.8c-0.2,0-0.4,0-0.7,0c-0.5-1.5-1.8-3-4-4.9c-3.4-4.6-7-6.2-11.4-3.2c-1.1,1.1-1.8,1.7-2.4,2.7
		c-1.5-0.9-2.9-1.9-4.3-2.9c-1.3-2.5-2.8-5-4.2-7.5c-0.5-0.9-1.2-1.7-1.4-2.8c-0.4-2-0.1-4.3-1.1-5.7c-0.1-0.6,0-1.2-0.3-1.5
		c-0.3-0.4-1,0-1-0.4c0.1-0.5,1.1-1.4,0.5-1.8c-0.3-0.2-1.3,0.4-1.9,0.8c0.3-1.5-1.8-2.6-2.1-0.5c0,0,0,0.1,0,0.1
		c-0.2-0.8-0.1-1.8-0.1-2.8c2.1-2.5,1.7-4.8,1.5-7.9c0.5-0.8,0.4-3.4-0.5-3.3c-0.3,0-0.6,0-0.9,0.6c-0.8,1.5,0.1,2.4-0.4,3.9
		c-0.4-0.2-0.8-0.2-1.3-0.3c-1.2-0.7-2.3-0.7-2.9,0.8c-1.1,0-1.2,0.7-1.1,1.7c-1,0.2-0.9,0.8-0.7,1.7c-1.1,1-0.8,1.5,0,2.8
		c1.6,1.7,1.6,2.9,1.8,5.3c-0.6,0.3-0.6,0.4-0.9,1c0,0-0.1,0.1-0.1,0.1c0,0,0,0,0,0c-1.5-1.1-2.2-0.5-1.9,0.4c0.4,1,1.6,1.6,2.5,2.9
		c-0.1,0.3-0.3,0.7-0.4,1.3c-1-0.9-1.9-1.9-2.9-2.8c-0.9-1-2.8-0.4-1.6,1c1.3,1.3,2.6,2.6,3.8,4c0,0,0,0,0.1,0.1
		c0,0.2-0.1,0.4-0.1,0.6c-0.3-0.1-0.6-0.3-0.9-0.5c-0.7-0.7-1.4-1.3-2.1-2c-0.9-1.1-2.3,0.1-1.2,1.5c1.3,1.4,3.2,2.1,4.2,3.6l0,2.4
		c-0.4,4.3,2.2,6.4,3.5,10.5c0.2,1.7,0.2,2.6,1.1,4c-0.2,2.7,0.8,5.7,2.3,8.8c-0.6,0-0.7,0-0.5,0.7c-0.5,0-0.5,0.1-0.7,0.5
		c-0.9,0.1-1-0.1-1.2,0.8c-0.8,0.4-1.1,0.6-1.6,1.3l-0.6-0.1c-1.1,0.2-1,0.1-1.1,1.1c-1.1,0.3-1.4,0.6-2.2,1.5
		c-0.7,0-0.8,0.1-1.3,0.5c-0.6-0.4-0.6-0.3-1.2-0.1c-0.9-1.1-0.6-4.4-0.4-5.8c0.9,0.6,1.1-0.1,1.5-0.9c0.2-0.4,0.5-0.8,0.6-1.1
		c0.3-0.8,0.7-2-0.6-2V564c0.2-1.1,0.4-1.9-0.3-2.9c-0.5-3.5-4.9-5-4.4-5.7c0.3-0.5,0.5-0.7,0.9-1c0.6-0.4,1.4-1.8,1.1-2.2
		c-0.5-0.7-0.5,0.6-1.2-1.1c0.1-0.9,0.1-0.8-0.7-1.1c-2.3-0.8-1.1-1.6-2.5-1.3c-0.3-0.1-0.8,0.7-1.1,0.8c-1.3-0.7-1.1-0.7-1.4,0.7
		c-1,0.5-1.2,1-1,2.2c-1.5,1.3-2.4,3.2-1.5,5.2c-1.5,1.3-2.6,2.8-2.4,5c-0.2,1.7-0.5,3.1,0.1,4.8c-1.4,0.7,0.2,1.6-0.2,3.4
		c0,0.2,0.1,0.3,0.1,0.6c0,0.7-0.2,1.9-0.2,2.2c0,1.3-0.2,1.8-0.3,2.7c-0.2-0.3-0.2-0.3-0.8-0.3c-0.7-0.6-0.9-0.8-1.8-0.8
		c-2-1.9-5-3-7.7-3.7c-0.3-0.8-0.5-1.3-0.8-1.6c0.7-0.9,1.2-1.7,1.6-2.9c0.8-1.7,1.2-3.2,1.5-5.1c0.6-1.7,0.7-3.1,0.9-4.8
		c0.1-1.1-0.7-1-0.9-0.9c-0.4,0.1-0.5,1.7-0.9,2.7c-0.2,1-0.9,3.3-1.1,3.3c-0.7-1.2-1.1-1.7-2.1-0.5c-1.1-0.3-1.6-0.3-1.7,1.1
		c-1-0.1-1.4,0-1.8,1.1c-0.9,0.6-0.9,1.7-0.9,2.7c0,0.6,0.1,1.2,0.1,1.8c-0.3-0.6-0.7-0.6-1.7-0.9c-0.4-0.7-1-0.8-1.8-0.8
		c-0.9-0.7-1.1-0.5-2.2-0.2c0-1.6,0.5-2.5,1-4.1c0.6,0.5,0.6,0.3,1.5-0.3c2.6-0.9,3.1-1.6,1.9-3.6c-1.5-2,2.5-2.9-1.5-5.7
		c-1.5-0.6,0.7-3.4-3-5.8c-4.3-3.8-9.2-0.9-10.9,4.2c-4.4,1.9-1,4.9-3,7.1c-1.1,1.6,1,2.5,2.4,3.1l0.9,0.5c0.1,0.8,0.3,1.5,0.6,2.3
		l0,1.5c-2-1.6-2.3,0.4-3.4-0.6c0.2-1.4-0.7-1.6-1.9-2c-1.2-0.6-2.1-0.9-3.5-1.1c-1.7-1.8-2.2-0.8-3.3-2.1c-1.4-1.8-3.1-3.8-4.8-5.2
		c-1.4-1.1-2.2-0.9-3-3.4c-3.1-7.1-9.6-11.9-12.3-19.4c-0.3-0.7,0.2-1.3,0.4-2c0.9-2.7,0-2.9-1.8-4.8c0.6-0.7-0.2-1.4-0.9-1.4
		c-0.3,0-0.3,0.4-0.7,0.9c-0.2-0.5-1.4-0.5-1.8,0.6c-0.9,0-1.4-0.1-1.7,1.3c-4.6,0.4,2,7.4,2.4,9c3,6.9,7.3,17.9,10.6,20.8
		c-0.2,0.2-0.4,0.5-0.3,1.1c0.2,2.2,0.4,4,1.2,6.1c0.4,2.3,0.9,4.3,1.9,6.4c0.6,1.9,1.3,3,2.6,4.4l1.6,3l2.3,4c1,1.9,1.3,3.1,2,5.1
		c0.6,1.8,1.2,3.5,1.7,5.3l-1.8-0.5l-2-0.2c0.1-0.7-1.1-0.4-1.8-0.4c-2-0.9-2.3-0.1-3.3-0.4c-1.4-0.4-1.7-1.2-3.5-1.3
		c-1.3-0.8-1.8-0.4-2.3-0.7c-1.1-0.7-1.6-1.6-2-0.4c-1-0.4-2.9-0.9-3.6-0.5c-0.1,0.1,0.5-0.4,0.7-1c0.2-0.7,0.1-1.6-0.2-2.2
		c-0.2-0.6-1.5-0.9-2.5-0.4c0-2.7-0.6-3.1-0.5-5.3c0-0.5-0.2-1.9-0.2-2.8c0-0.4,0.1-0.6,0.1-0.8c-0.6-2.4,1.4-3.4-0.3-4.3
		c0.8-2.1,0.4-3.9,0.1-6c0.2-2.7-1.1-4.6-3-6.2c1.1-2.5-0.1-4.8-1.9-6.5c0.3-1.5,0-2.1-1.2-2.8c-0.4-1.7-0.1-1.7-1.7-0.9
		c-0.3-0.2-1.1-1.1-1.4-1c-1.7-0.4-0.1,0.5-3.1,1.6c-1,0.4-1,0.3-0.8,1.4c-0.9,2.1-0.9,0.4-1.5,1.4c-0.4,0.5,0.6,2.3,1.4,2.7
		c0.1,0,0.1,0.1,0.1,0.1c0,0.4,0.1,0.8,0.2,1.4c0.2,0.3,0.3,0.5,0.3,0.7c-1.3,1.2-4.5,3-5,6.3c-0.4,0.5-0.5,1-0.6,1.5
		c-0.6,0.6-1.3,1.2-2.4,2.1c-7.1,4.8-5.5,5.3-9,6.5c-0.4,0.1-0.7,0.2-1.1,0.3c-0.4-0.5-0.6-0.7-1.3-1l-1.4-2.9
		c-1.3-2.6-2.5-4.9-4.5-7c-1-1.3-0.7-1.5,0-2.8c1.9-5.5,2.3-8.7,3.3-12.6c0.9-3.4,2.7-6.4,3.7-9.8c1.4-1.9,2-3.6,2.6-5.8
		c1.1-1.9,1.7-3.8,1.8-5.3c0.1-1,0.9-2,0.9-3.3l0.4-2.2c0.5-2-1.5-2.7-1.9,0l-0.4,1.6c-0.5,1-0.9,3.8-1.5,1.8
		c-0.4-2.7-3-1.2-2.7,0.6c-0.9-0.5-2-1.3-2.4-1c-0.8,0.6,0.5,1.6,0.6,2.3c0.1,0.5-0.8,0-1.2,0.5c-0.3,0.4-0.3,1.2-0.4,1.9
		c-1.3,1.7-0.8,4.6-1.3,7.1c-0.3,1.3-1.2,2.3-1.8,3.5c-3.7,6.6-8.1,13.5-9.9,21c-0.4,1.6-0.6,2,0.6,3.3c1.5,4.2,2.8,8.5,4.3,12
		c-0.1,0-0.3,0.1-0.4,0.1c-2.5-0.2-3.6-1.9-7.2-1c-0.7-0.3-0.7-1.6-1.3-1.1c-0.9,0.9-3.5-0.4-3.4,0.5c0.1,0.8-1.4-0.7-2.2,1.3
		c-0.1-0.6-0.1-1.1-0.1-1.6c0.6-0.2,1.7-1.9,1.8-1.6c0.4,1.3,1.3,0.7,1.1,0.5c-0.2-0.3,0.3-0.7,0-1c-0.5-0.6-0.8-1.4-1.1-2.2
		c0.9-0.7,0.6-2.6,0.6-4.7c-0.1-5.2-2-8.9-4.6-10.9c-0.1-0.7-0.3-1.3-0.4-2c-0.8-3.4-1.9-6.6-2.8-9.9c-0.7-2.6-1.3-5.3-2.5-7.7
		c-0.7-0.8-0.4-1.1-1.3-0.2c0-0.1,0.1-0.1,0.1-0.2c0.1-0.2,0.4-0.3,0.5-0.5c0.5,0.2,1,1.7,1.3,2.3c0.2,0.5,0.6-1.9,0.2-3.2
		c-0.3-0.9-0.1-1.1-1-1.4c0-0.9-0.4-1.9-1.5-1.3c0-1-0.6-1.4-1.6-0.9c-0.7-1.6-1.9-0.7-2.1,1.1c0,0.3-0.1,0.5-0.1,0.8
		c0.2-1.1-0.3-1.6-1.1-1.9c0,0,0.1,0,0.1,0c0.1-0.4,0.6-2.8-0.6-2.9c-0.2,0-0.3,0.5-0.3,1.1c-0.1,0.6-0.2,0.9-0.5,1.4c0,0,0,0,0,0
		c-0.4-0.1-0.8-0.1-1.2-0.2c-15.1,0-30.2,0.4-45.4,0.1c-10.4-0.2-21.1-0.8-31.5-1.3c-0.8,0-1.2,0.1-1.4,0.6
		c-0.2,0.1-0.4,0.3-0.5,0.5c0,0,0,0,0-0.1c0.5-1.7-1.5-2.2-2-0.5c-0.8-0.9-1.3-0.6-1.8,0.5c-1.1-0.7-1.9-0.2-1.8,1.2
		c-0.5,0-0.9-0.2-1.2,0.3c-0.2,0.9-0.1,1.7,0.1,2.5c-0.2,0.3-0.5,0.7-0.8,1c-0.8,1-2.2,3.2-2.4,3.8c-0.7,1.6,0.7,2.9,0.3,4.9
		c-2.1,3-1.8,4.6-1.8,8.4c-1.1,4.6-4.2,8.3-4,12.7c-0.3,0.6-0.7,1.3-0.9,2c-5.4,2.1-6,4.6-8.6,5.4c-0.5-1.1-1.2-1.7-2.6-1.6
		c-0.7-0.3-0.9-0.3-1.7-0.3c-0.6-0.8-1.5,0.2-2.7,0.3c-2.2,0.4-2.3,1.2-3.5,3.1c-0.1,0.1-0.1,0.2-0.2,0.3c-2.4,0.4-2.3,2.3-3.5,2.5
		c-0.9,0.2-2.2-0.5-3.7-0.3c-0.7,0.1-0.7-1.7-0.9-2.4c-0.3-1.1-0.5-2.1-0.1-3.3c0.4,0.8,1.1,0.3,1-0.4c-0.1-0.3,0.5-0.3,0.3-0.9
		c0.6-0.6,0.5-0.7,0.5-1.5c0.3-1.2,0.3-1.6-0.1-2.8c0.2-2.4,0.3-4-0.4-5c-0.4-2.1-2.2-3.2-3.9-4.3c-1.7-1.1-3.4-1.1-5-0.6
		c0-0.7,0-1.5,0.1-2.2c0.1-0.8,0.2-1,0.7-1.6l0.8-0.6l0.5-0.6c1.1-1.2,1.1-1.1,0.7-2.7c-0.1-0.4-0.2-0.7-0.4-1
		c2.7-5.3,5.4-12,7.5-16.8c0.4-1.9,8.2-10.1,2.8-10.6c-0.3-1.6-1-1.5-2-1.5c-0.4-1.3-1.9-1.3-2.1-0.7c-0.5-0.6-0.4-1-0.8-1.1
		c-0.7-0.1-1.8,0.8-1,1.6c-2.1,2.2-3.2,2.5-2.1,5.6c0.2,0.9,0.8,1.6,0.5,2.4c-3.2,8.8-10.9,14.6-14.6,22.9c-0.9,2.9-1.9,2.7-3.6,4
		c-2,1.7-4,4.1-5.7,6.2c-1.2,1.5-1.9,0.4-3.8,2.5c-1.6,0.3-2.6,0.6-4.1,1.3c-1.4,0.5-2.5,0.7-2.2,2.4c-1.3,1.1-1.7-1.3-4,0.7l0-1.8
		c0.3-1,0.5-1.8,0.7-2.8l1.1-0.5c1.7-0.7,4.1-1.7,2.8-3.7c-2.3-2.6,1.7-6.1-3.6-8.4c-1.9-6-7.8-9.4-12.9-4.9
		c-4.3,2.8-1.8,6.1-3.6,6.8c-4.8,3.3,0,4.3-1.8,6.7c-1.2,2-1,2.9,0.9,3.8c-0.1,0.9-0.7,1.8-1.2,1.2c-0.8-1.7-1.9-3.4-3.1-4.9
		c-0.7-0.7-1.9-0.2-1.1,1c0.5,0.7,1,1.4,1.5,2.2c0.2,0.4,1.9,3.7,0.2,1.5c-0.9-1.1-1.9-2.2-3-3.2c-1.2-0.9-1.8-0.4-1.5,0.4
		c0.3,0.9,1.5,1.4,2.2,2.7c0.6,0.6,2.3,3.2,0.4,1.8c-1.1-1.1-2.1-2.2-3.2-3.3c-0.7-0.8-2.3-0.3-1.3,0.9c1.1,1.1,2.1,2.2,3.1,3.3
		c1,1.4,0.2,0.7-0.8,0.2c-0.6-0.6-1.1-1.1-1.7-1.6c-0.7-0.9-1.8,0.1-1,1.3c1.1,1.2,2.9,1.9,3.6,3.4c0.1,0.1,0.1,0.1,0.2,0.2
		c-0.5,0.1-0.6-0.1-1.1-0.4c-0.6-0.8-1.3-0.5-2.6-0.2c-0.8,0.1-2,0-2.8,0.1c0.7-1.4-0.2-1.2-0.3-2c-0.1-0.6,0.2-1.6,0.5-2.4
		c0.2-0.5,0.3-1.4,0.6-0.9c0.3,0.4,0.6,0.2,0.7-0.1c0.2-0.4,0.3-0.9,0.4-1.1c0.3-0.7,1.2-2.8-0.4-2.6c0,0,0.2-0.4,0.5-1.6
		c0.2-1-0.1-2.2-0.1-3.5c-0.3-1-0.1-0.9-1-1.7c-0.1-1-0.7-1.4-1.3-2.2c-1.2-1.6-2.5-1.8-4.5-2c-1.1-0.2-1.5-0.2-2.6,0.2
		c-1.7,0.2-2.7,1-3.6,3.1c-0.5,1.3-0.7,2.5-0.8,3.9c-0.3,1.2-0.3,2,0,3.2c-1.1-0.1-0.6,1.4-0.5,2c0.1,0.5,0,1,0.1,1.4
		c0.1,0.3,0.3,0.4,0.5,0.4c0.3,0,0.5-0.4,0.6,0c0,0.2,0.2,0.6,0.3,1.2c0.2,0.6,0.4,1.3,0.6,1.7c0,0.5,0.5,2.5,0.3,3.1
		c-0.1,0.1-0.3,0.1-0.4,0c-0.4-0.1-0.9,0-1.3,0c-0.9,0-1.8,0.1-2.6,0.2c-0.9-0.6-1.6-0.7-2.3,0.4c-1.1-0.4-1.5-0.5-2.4,0.3
		c0,0,0,0,0,0c-0.3,0-0.7-0.1-1.1-0.4c-0.9-0.8-1.6-1.6-2.6-2c0-1.5-0.3-2.7-1.1-4.1c0.5-3.4-0.8-4.2-3.1-5.7c-1-1-1.2-1.4-2.6-1.7
		c-0.7-0.2-0.6-0.1-0.4-0.8c0.2-0.2,0.5-0.1,0.6-0.2c0.4-0.6,0-0.7-0.4-1.8c-0.2-0.3-0.1-0.9-0.3-1c-0.6-0.5-1.4,0-2.6-0.2
		c-0.6-0.6-1.4-0.8-1.8-0.1c-0.2,0.3-0.8,0-1.1,0.2c-0.4,0.2-0.5,0.9-0.5,1.2c-1.3,0.6-0.9,0.1-0.7,1.5c-0.1,1.5-0.4,2.5,0.8,3.6
		c0.3,0.6,0.2,0.5,0.9,0.5c-2.7,1.8-4.9,4.9-4.5,8.3c0.1,0.6-0.8,0.2-1.8,1.6c-0.1,0.2-0.3,0.4-0.6,0.5c-0.7-0.3-1.5-0.6-2.2-0.9
		c-2.2-0.7-4-1.9-5.9-3.2c-0.5-0.3-0.6-0.4-0.6-1c0.1-0.9,0-1-0.3-1.9c0.1-1.1,0-1.5-1.2-2.1c-0.4-0.3-0.7-0.4-0.9-0.5
		c1.4-0.6,2-1,3.1-2.2c4-1.9,7-4.8,9.7-7.1c6.3-3.7,9.4-7.5,13.4-13.5c1.3-1.6,2.9-4.1,4.5-5.7c1.2-1.2,2.1-1.7,2.6-3.1
		c0.2-1,0.1-2.7,0.1-3.4c0-0.3,0.4-0.2,0.8-0.1c0.3,0.1,0.6-0.3,0.8-0.4c0.6-0.5,0.3-2,0.2-2.6c1.8-1,0.7-1.9-0.7-1.9
		c-0.3-0.3-0.5-0.5-0.9-0.7c-0.5-1.6-2.3-0.9-3.1-0.1c-2.5,0.4-2.6,1.5-2.2,3.5c0,2,0.3,3.2-0.4,5c-1.4,2.3-4.9,4.4-7,6.2
		c-5,3.8-10.5,6.7-15.5,10.8c-2.1,0.9-4,1.7-6,2.8c-1.9,0.4-2.6,1.3-2.8,1.8c-0.3,1.1-0.3-2.1-3.4-0.4c-1.5-0.4-2.1-0.5-3.6-0.2
		c-1.7-2.1-1.3-2.3-3.6-0.8c-1.3,1.2-1.8,1.7-2.4,3.3c-0.5-1.5-1.2-1.6-2.6-2.1c0.6-1.4,0.7-2.3,0.9-3.8c1.8,0.5,1.2-1.7,1.2-2.7
		c0.3-2.4,0.3-2-0.9-3.3c0.2-1.9-0.1-3.3-0.4-5.2c-0.3-3-1.6-5.9-4.8-6c-2-0.9-2.6-1.2-4.7-0.8c-3.2,1.3-5.9,0.3-6.9,4.5
		c-1.8,1.6-1.4,3.3-1.3,5.4c0.1,1.4,0,3.1,0.7,4.2c-1.8,0.8-0.8,2-0.3,3.4l0.8,1.4c0.7,1.2,0.5,1.6,1.6,0.5c0.7,1.4,0.9,1.9,0.7,3.4
		c-3.7-0.4-3.7,1.7-4.4,1.9c0-0.2,0-0.3,0-0.5c-0.3-1.2-0.2-2.2-0.2-3.4c0.1-2.7,1-3.5-0.3-4c-0.4-1.7-2.1-4.3-3.6-5.4
		c-0.6-1.6-0.9-2.3-1.5-3.6c-0.7-1.3-1.5-1.5-1.7-1.2c-0.3,0.5,0.4,0.8,0.8,2c0.1,0.5,0.5,1.9,0.2,2.1c-0.1,0.1-0.2-0.3-0.6-0.8
		c-0.7-1.4-1.2-2.7-1.6-4.2c-0.3-0.8-0.5-1.3-1.5-0.9c-0.5-0.8-1-0.8-1.2-0.5c-0.3,0.6,0,2.1,0,2.5c0,0.4-0.1,0.8-0.1,0.9
		c0,0.1-0.1,0-0.2-0.3c-0.3-0.7-0.3-0.9-0.5-1.4c-0.4-1.1-1.2-1.1-1.3-0.6c-0.2,1.2,1.7,3.6,1.4,4.9c0,0.1-0.3-0.1-0.9-0.2
		c-0.6-0.1-0.7,0.4,0.7,1.5l1.4,2.2c0.9,1,1.6,1.6,2.6,2c0.2,0.1,0.6,0.3,0.9,0.5c0.2,0.2,0.3,0.4,0.5,0.5c-0.1,1.2,0.2,1.7,0.4,2.9
		c-0.2,1.1-0.3,2.2-0.3,3.3c-0.2,0.2-0.4,0.4-0.5,0.5c-3.4,1-3.6-1.5-7.4-0.3c-1.7-0.6-2.7-0.8-4.5-0.8c-2.9-1-5.8-2-8.7-3.1
		c-4.5-2.4-8.5-3.6-13.5-4.6c-2-0.6-3.9-1.4-5.7-2.2c0.1-1.6,0.2-2.9-0.7-4.3c-0.9-1.6-2.6-1.4-4.5-1.3c0.1-0.4,0.1-0.8,0.1-1.2
		c-0.1-0.9,0.1-2.1-1.2-1.6l0.2-0.8c0.2-0.8-1.1-1.2-1.5-0.1c-0.3,0.9-0.5,2.4-1.1,3.2c0-0.2-0.1-0.4-0.1-0.6c0-0.2-0.1-0.5-0.2-0.8
		c0.1-0.5,0.2-1,0.4-1.5c0.3-0.9-0.8-1.3-1.2-0.8c-0.6-1.1-1.4-2.2-2.5-2.7c-0.9-0.4-3.4-1.2-3.3,0.6c-1.5,0-1.2,0.5-0.9,1.7
		c-0.3,1-0.9,0.2-0.9,2.7c-1,2.2,0.6,1.6,1,2.8c0.1,0.3,0.3,0.6,0.4,0.8c-1.1,0.5-2.1,1.2-2.5,2.5c-0.7-0.3-0.5,2.4-1,3.3
		c-0.2,1.1-0.3,1.8-0.3,2.9c-0.3,0.7-0.3,1.1-0.3,1.8c-0.8,0.8-0.2,2.6-0.5,4.1c-0.3,2.1-0.4,4.1-0.4,6.1c-0.7-0.9-1.4-0.3-2.6,0.7
		c-1.8,0.7-1.5,1.6-1.7,3.2c-0.3,0.6-0.4,1.1-0.5,1.7c-0.8,1.6-2.4,3.3-4.1,4.7c-2,1.8-3.7,3-5.3,3.9c-1,0.6-1.9,1.1-2.9,1.7
		c-0.2-0.4,0.1-1.1-1.7-1.1c-0.2-1-1.1-1.2-1.3,0.1c-0.2,0.7-1.3-0.9-1.7,1.1c-1.1,0.5-0.9,0.6-0.9,1.8c-0.3,0.9-0.5,1.5,0.1,2.3
		c0,0,0,0.1,0,0.1c-0.4,0.4-0.8,0.8-1.1,1.2c-0.6,0.8-0.9,1.1-2.2,1.6c-0.4,0.1-0.8,0.3-1.1,0.5c-0.9-2.6-1.9-5.2-2.7-7.9
		c-1.1-3.8-2.4-7.4-3.9-11.1c-0.3-1.2-0.4-2.1-1.1-3.1c-0.1-1-0.2-1.6-0.6-2.5c-0.1-1.6-0.2-2.1-1.1-3.4c-0.5-1.7-0.6-2.4-0.3-4.2
		c0.1-1.1,0.2-2.2-1.1-2.1c0.9-1.8,3.1-2.8,2-4.8c-0.3-1-1.5-5.9-3.3-4.2c-0.6-0.3-1.5-0.2-1,0.7c-0.7,0-0.9,0-1.4,0.5
		c-1.2-0.2-1.6,0.4-2.4,1.1c-1.5,0-1.4,0.8-1.5,2.1c-0.3,1.9-0.3,3.1,0.5,4.8c-0.1,2.3-1,0.9-0.1,2.3c1.6,3.1,0.4,3.3,1.6,5.2
		c-0.1,1.6,0,3.1,0.4,4.7c0.3,1.5,0.7,3.1,1,4.6c0.2,2.8,1,6,1.6,8.8c0.2,1,0.7,1.9,0.8,2.9c0.2,1.6-0.7,1.6,0.2,5.3
		c-0.3,3,0.6,5,1.9,7.5c0,0,0,0.1,0,0.1c0,0-0.1,0.1-0.1,0.1c-0.7-0.1-0.7,0-1.2,0.4c-0.7-0.1-0.8-0.3-0.9,0.4
		c-0.9,0.2-1.9,0.5-2.7,0.9c-0.9,0.3-1.5,0.7-2.3,1.2c-0.7-0.7-1.1,0.1-1.5,0.7c-1.2,0.7-1.3,1-1.6,1.9c-0.7-0.2-0.7-0.2-1.3,0.3
		c-0.2-0.8-0.9-0.3-1.9-0.2c-0.4,0.1-0.7-0.1-1.2-0.1c-0.1-1.1-0.4-2.2-0.1-3.3c0.4-1.6,0.4-2.6,0.4-2.5c0,0.2,0.6,0.6,1.1-0.6
		c1.9-0.4,2.8-1.5,2.8-2.1c0-0.6-1-0.9-1.3-1.8c-0.3-0.8,0.6-2.8,0.1-3.5c-0.8-1.2-1.5-0.4-1.9-1.7c-0.2-0.5-0.4-1.2-0.5-2.1
		c-0.3-1.8-1.2-2.8-2.9-3.7c-3.4-2.5-6-2.3-8.8,0.7c-2,1-1.7,2.6-2.2,4.6c-3.3,1.4-2.7,4.5-1.9,6.9c-1.7,1.8-0.5,1.5,1.7,2.4
		c-0.1,1.4,1,0.7,1,0.7c0.4-0.1,0.2,0.6,0.4,1.5c0.2,0.7,0.6,1.3,0.8,1.7c0.4,1.1,1.1,2.5,0.9,3.7c-1.1-0.1-0.7,0.2-1,0.3
		c-0.1,0.1-0.3,0.2-0.6,0.1c-0.5,0.3,0.6-1.5-1.8-1.8c-0.1,0,0-0.3-0.1-0.3c-0.9-0.4-1.6-0.7-2.5-0.2c0-1,0.1-1-1.1-0.4
		c-0.8-0.4-1.3-0.5-2.1-0.5c0.1-0.9-0.7-0.6-1.3-0.4c-0.5-0.6-0.6-0.7-1.4-0.7c-0.3-0.1-0.5-0.2-0.7-0.3c-0.1-0.3-0.1-0.6-0.2-0.9
		c0.3-2.3,0.3-3.9,0.1-6.2c0.4-2.8-1.3-4.5-3.3-6.4c-1.3-1.2-2.7-2.9-3.9-4c-0.4-1.9,1.2-1.3,1.4-4.4c1.4-0.8,1.8-1.7,2.7-2.9
		c1.2,0.2,0.2-1,1-1.8c0.9-0.9,1.4-2.6,0.1-2.4c1.1-2.8,1.9-5.4,0.8-8.4c-0.7-2.5-2.7-4.5-3.4-7.5c-1.9,2.1-5.1,3.6-7.6,5.4
		c0.1-1.1,0.2-2.1,0.2-3.2c-0.2-4.7,0.4-3.7,0.3-6.2c-0.1-2-0.9-3.5-0.7-5l0.2-1.1c0.2-0.8,0.5-2,0.2-2.7c-0.3-0.7-1.1-1.1-1.3,0.2
		c-0.1,1.3-0.4,2.5-0.6,3.7c-0.1,0.9-0.5,1.3-0.6,1.3c-0.3-0.1-0.3-1.3-0.3-2.1c-0.1-1.3-0.2-2.6-0.2-3.9c0-1.3-1.3-2-1.5-0.6l0,1.8
		c0,0.6-0.1,3.2-0.1,3.9c0,0-0.6-0.6-0.7-2c-0.2-1.3-0.1-2.8-0.7-4.1c-0.3-0.7-1.2-0.2-1.2,0.5c0,1.6,0,3.1,0.2,4.7
		c0.2,1.4-0.1,0.5-0.6-0.3c-0.5-1.1-0.7-1.7-1.1-2.9c-0.2-0.5-0.5-1.4-0.9-1.6c-0.3-0.1-0.7-0.1-0.6,0.8l0.1,0.9
		c0.4,1.2,0.9,2.7,1.4,3.8c0.4,0.8,1.1,1.1,0.9,1.9c-0.4,1.5-2.2-1-2.2-1.1c0.4-0.3-0.2-1.3-0.8-1.6c-0.4-0.2-1.2-0.1-1.1,0.3
		c0.1,0.3,0.7,0.6,0.6,1.4c0.1,0.6,0.1,0.7,0.6,1.2c0.2,0.5,0.4,0.6,0.7,0.9c0.7,0.7,1.8,1.2,3,1.6c1.3,0.8,1.5,1.7,2,3
		c1,3.6-1,7.9-2.2,11.7c-0.3,0.5-0.6,1-0.9,1.4c-0.1-0.1-0.1-0.1-0.2-0.2c-0.2-1-0.7-1.6-1.2-2.5c-0.7-1.3,1-7.1-2.9-13
		c-0.3-0.5-0.1-1.2-0.1-2.4c-0.1-4.7-2.6-11.8-3.5-14.9c-0.4-1.9-1-4-1-6h-5c0,2.4,0.1,4.7,0.4,7.1c0.6,5.5,0.2,10.4,2.7,17.5
		c0.2,0.6,0.2,1.2,0.2,1.8c-0.3,4.2-0.3,7.4,0.1,12.6c-0.4,1.9,0.2,2,0.4,4.7c0,0.9,0,1.7,0.1,2.6c-0.8,0-1.8-0.1-2.5,0.1
		c0-0.1,0-0.2-0.1-0.3c-0.3-1.4-0.3-2.3-1.9-2.8c-0.4-0.1-0.8-0.3-1.1-0.5c-0.5-0.5-0.5-1.3-1.5-1.3c-0.6,0-1.3-0.1-1,1.4
		c-0.9-0.1-1.2,0.5-1,1.4c-1.1,0.1-1,0.9-1,1.8c-0.8,0.9-0.8,1.6-0.3,2.8c0.1,0.4,0.3,0.7,0.5,1c0,0-0.1,0-0.1,0.1
		c-2.1-1.4-3,0-3.1,1.9c-2,1.4-1,0-2-0.3c-0.8,0.4-1,0.5-1.8,0.5c0-0.9-0.3-1.8-0.2-2.6c0.1-0.9,0.9-1,0.8-2.5
		c2.1,0.4,1.7-2.7,1.6-4.5c-0.4-4.3-0.9-6-3.1-8.7c-3.4-2.9-8.2-2.6-11.2,0.3c-2,2.6-1.7,5.8-1.5,8.8c0.1,1.3,0.2,2.6,0.5,3.8
		c0.3,1.1,0.4,0.9,1.4,1.2c0.9,0.8,0.6,2.2,0.4,3.3l-0.2,1.6c-0.7-0.2-1.6-0.3-2,0.4c-0.5,0.9-0.5-1.2-2.6-1.4
		c-1.3-1.9-2.8-1.3-4.8-1.1c0.1-1.7-1.2-1.9,0-4.2c2.2-3.5,1.9-4.3,2.7-6.8c2.1-4-1.1-3.2,0.7-6.5c0.4-0.7,1.2-1,1.2-1.2
		c-0.1-0.6-1.3-1.1-2.6-2.2c0.3-1.7,0.4-3.4,0.7-5.1c0.2-0.9,0.7-1.9,0.9-2.8c0.5-1.3,1.8-2.2,1-3.6c0.5-0.9,0.3-1.4-0.3-2.1
		c-0.1-1.1,0-1.7-1.4-1.5c-0.5-2.7-2.3-0.9-3.5-1c-0.3,0-0.4-0.6-0.6-1.2c0-0.4,0-1.8,0-2.4c0.2-1.9-1.1-2.1-1.8-1.1
		c-0.4,0.6-0.2,1.7-0.1,2.7c0.1,1.3-0.3,2.9-0.3,3.6c0,1.3,0.1,2.6,0.4,3.2c0.3,0.6,0.9,0.6,1.2,1.7c0.6,2.1-0.3,3.9-1.1,7.3
		c-1.3-0.3-1.1,2.5-1.8,3.5c-2,0.6-2.2,1-2.2,3.8c-0.7,1-0.7,1.3-0.8,2.5c-0.9,1-0.8,1.2-0.9,2.6c-1,1.2-1.3,1.7-1.6,3.3
		c-0.7,0.9-1.1,1.7-1.5,2.5c-0.3-0.1-0.5-0.3-0.8-0.4c-3-0.8-3.9-5.4-5.8-7.7c-1.4-2.4-2.4-6.3-1.7-9.3c0.1-0.6,1.3-0.4,1.9-0.7
		l1.4-1.2c0.9-0.5,1.4-0.5,1.9-1.4c0.6-0.4,1-0.5,1.4-1.1c-0.1-0.9-0.5-1-1.3-1.1c-0.8,0.3-1.3,0.5-1.8,1.2c-0.9,0.9-1.4,1.4-1-0.1
		c0.4-1.7,1.5-3.3,2.2-4.9c0.2-0.6,0.5-1.3,0.6-2c0.2-0.8-1-1.7-1.6-0.5c-0.4,1.1-0.8,2.2-1.3,3.3c-1,1.9-0.5,0.7-0.3-0.6
		c0.2-1.1,0.5-2.1,0.8-3.1c0.3-1.3-0.9-2.2-1.6-1c-0.4,1.7-0.9,3.3-1.6,4.9c-0.7,1.9-0.5,0.8-0.4-0.5c0.1-1.1,0.1-2.1,0.4-3.1
		c0.5-2-0.7-2.6-1.4-1.7c-0.4,0.4-0.3,1.3-0.4,2c-0.2,1.4-0.4,2.8-0.7,4.2c-0.4,0.6-0.3,0.6-0.7-0.1c-0.1-0.6-0.1-1.1-0.1-1.7v-0.8
		c0-1.3-1-1.7-1.3-0.4c0.1,1.2,0.2,2.6,0,3.8c-0.7,2-1,4.2-0.4,6.3c0,2.1,0.2,4.1,0.4,6.2c0.2,4,0.4,7.7,2,11.4
		c0.1,0.4,0.2,0.7,0.3,1.1c-3.1-3.6-6.5-4.6-10.7-1.9c-1.7,1.5-2.6,2.3-3.4,4.3c-1.6,1-2.8,2-4.2,3.3c-0.5-1.6-1-2.7-2.1-3.7
		c0-0.1,0-0.3,0-0.4c1.3-4.4,0.2-10.3-0.3-15.3V770h1032.1V545.2z M619.2,563.7c-0.3,0-1-3-1.3-4.2c-0.1-0.4-0.2-0.8-0.3-1.2
		c0.9,1.3,1.7,2.7,2.6,4.1C619.8,562.7,619.5,563.1,619.2,563.7z M-1.2,572.9c0.3-0.7,0-1.1-0.5-1.7c-0.4-0.7-1.4-1.5-0.1-0.9
		c1.3,1.9,1.1,1,1.9,1.6c0.6,0.5,0.6,0.8,0.7,1.6C0.1,572.5,0.1,573.5-1.2,572.9z M1.7,575.1l0.3-0.4c0.1,0.5,0,0.6,0.5,0.6
		C2.5,576.4,1.7,575.8,1.7,575.1z M21.2,573.7c-1,0.4-1,0.4-1.3,1.4c-1.1,0.5-1.1,0.8-1.1-0.5c0.5-0.7,1-1.3,1.5-1.9
		c2.2-3.5,1.8-5.7-1-8.9c0.4,0.3,0.8,0.5,1.2,0.8c0.6,0.5,1.2,0.9,1.8,1.3c-0.1,1.1,0.2,2.3,0.2,3.5
		C21.8,570.8,21.4,572.2,21.2,573.7z M165.5,590.7c-0.1,1.5-2.4-0.2-1,2.5c0.3,2.2-1-0.9-2.4-0.1c-0.4-1.3-0.2-1.5-1.6-1.5
		c-0.5-1-0.5-1.7-1.6-2.1c-0.2-1.5-0.3-1.4-1.5-2.3c-0.3-2.5-0.7-2.6-1-2.7c1.3-1.4,2.7-2.8,4.1-4.1c0.7-0.2,0.8-0.3,1.3-0.8
		c0.6-0.3,1.2-0.6,1.8-1c0,0.2-0.1,0.4-0.1,0.6c-0.4,1.2-0.4,2.1-0.3,3.4c-0.1,0.3-0.4,1.1-0.4,2.1c0,0.7,0.5,1,0.7,1.8
		c0.3,1.1,0.4,2.9,0.8,3.2C165,590.3,165.8,588.5,165.5,590.7z M193.8,609.3c0,0.2-0.1,0.5-0.1,0.8c-0.1-0.1-0.1-0.2-0.2-0.3
		c-0.5-1.5-0.9-2.2-1.9-3.3c-0.8-1.5-0.9-1.6-2.4-2.3c-1.7-1-2.9-1.3-4.8-1.8c-3.4-1.2-4.2-0.9-3.8-4.7c3.1-2.6,0.6-3.6-2.1-3.7
		c0.9-1,1.4-2.2,1.7-3.4c1.4,0.1,1.4-0.4,1.3-1.6c0-2.2,1.2-1.9,0.9-6.5c-0.3-3.9-1-6.8-2.6-8.4c-3-3-2.8-1.5-4.2-2.8
		c-0.8-0.8-1.3-1.7-1.9-2.5c1.1-1.1,2.1-2.3,3.2-3.4c1.3-1.4,2.7-2.5,4.5-3.6c0.1,0,0.2-0.1,0.4-0.2c-0.1,3.5,0.1,5.7,1.9,8.3
		c1.5,2.2,2.2,4.9,3.5,7.6c0.7,1.4,1.6,2.1,2.4,3.5c1.2,2.2,2.1,5,3,7.1c1,1.9,0.4,4.4,0.3,7.4c0,2.4,0.6,5.4,1,7.3
		C194.6,604.7,194,605.8,193.8,609.3z M238,563.5c-1.6,1-0.3,1.2-1,2.3c-0.4,0.6-0.7-0.7-2,1.5c-1.6,1-2.4,1.7-2.8,3.6
		c-1.1,1-1.1,1.3-1.4,2.7c-1.5,0.2-1.5,0.2-1.8,1.7c-1.4-0.2-1.9-0.3-2,1.4c-1.4,0-1.7-0.3-2.1,1c-1.1,0-1.2-0.2-1.7,0.7
		c-1.1-0.3-1.3-0.5-2.3,0c0.1-0.4,0.1-1.2,0.1-1.6c-0.1-1.5-1.7,0.4-0.8-2c1.4,1.1,1.3-0.4,1.8-1.8c0.2-0.6,0.8-1.1,0.8-1.6
		c0.2-0.9,0-1.4-1.3-1.3c1.3-2.7,1.4-4.7,0.6-7.6c-0.6-2.1-2.5-3.6-4.5-4.4c-0.9-0.3-1.3-0.4-2.2-0.2c-1.3-0.4-1.8-0.3-3.2,0
		c-4.1,1-6.1,2.8-6,6.8c0,1-0.3,3,0.2,3.9c-1.3-0.1-1.6,0.8-1,2.6c0.4,1.3,0,2.5,0.9,2.8c0.9-0.5,0.8,0.5,0.6,1.2
		c-0.9,0-0.5,1-0.2,2.2c0.1,0.8-0.2,1.7-0.9,1.6c-0.5-0.1,0.4-1.9-2.4-1.3c-0.3-1.2-0.2-1-1.5-1c-0.6-1.3-0.3-1.7-1.7-1.2
		c-0.7-0.2-0.6-1.6-1.7-1.2c-0.4-1.7-0.9-2.8-2.1-4.1c-0.9-1.8-1.7-3.5-2.8-5.2c-0.2-0.9-0.4-1.3-1.2-1.6c-0.3-0.1-0.5-1-0.7-1.3
		c-0.1-1-0.1-1.1-0.6-2c-0.1-1.7,0.3-4.6-0.9-6c0-0.9,0-1-0.5-1.6c0.2-1.4,0.1-1.7-0.6-2.9c0.4-1,0.5-1.1,0-2.1
		c0.1-1.1,0-1.8-0.2-2.9c0.9-0.7,0.7-0.9,0.5-2.1c1-1.3-0.1-1.1-0.1-1.8c0-0.6,0.5-1.7,0.8-2.5c0.6-0.8,1.2-1.3,1.2-2.3
		c0.3,0,0.5,0,0.7,0c0.3,0.2,0.6,0.4,1,0.6c0.1,1.5,0.1,2.8,0,4.3c-0.8,2,0.1,3.9,0.3,6.1c0.7,2.8,2.8,4.2,5,6.1l2.5,2
		c0.5,0.2,1.4,0.8,1.8,0.5c1.9-1.5,3.7-2.5,4.9-4.3c0.9-1.4,1.2-3,1.3-4.5c0.4,0.2,0.7,0.3,1.1,0.5c2.4,1.9,4,2.3,7,3.1
		c3.4,0.9,6.2,2.3,9.5,3.8c2.8,1.2,4,2.9,8.5,3.4c0.8,2,2.4,1.9,3.9,2.8c0,0,0,0,0,0C238.4,561.6,238.3,562.8,238,563.5z
		 M279.2,567.3c0.7-3.2-0.7-2.9-0.1-4.8c0.5-1.4,2.3-2.9,3.1-4.4c0.7-0.4,1.3-0.8,1.8-1.2c0.4,0.1,1.1-0.2,0.5,0.2
		c-0.6,0.2-0.7,0.4-0.7,1.1c-0.8-0.3-1,0.5-0.9,1.1c-1.4,0.1-0.8,1-0.1,2.2c0.5,1.5,0.5,1.8,1.9,2.1c1.3,0.8,2.6,1.8,3.9,2.7
		c-0.3,0.1-0.7,0.1-1.1,0.2c-2-0.2-3.1-0.3-5.1,0.1C281.4,566.7,280.3,567,279.2,567.3z M301.4,578.5c-0.4,0.6-1.3-0.9-2.8,1.1
		c-0.8-0.4-1.1-0.4-2-0.4c-2.4-3.3-3.4-1.2-4.4-1.5c-0.9-0.3-1.3-1.8-2.4,0c-0.5-0.7-0.5-0.7-1.4-0.9c-0.8-0.9-0.7-0.9-1.8-0.5
		c-0.2-0.3-0.4-1-1.6-0.8c-0.5,0.1-0.5-0.7,0-0.7c1.6,0.1,1.8-0.1,2.7-0.8c1.9,0.1,2.2,0.3,2.7-0.8c3.4,1,2.6,0.7,4.5-0.2
		c1.2,0.1,1.2,0.2,1.7-0.7c0.7,0.4,1.4,0.7,2.1,1.1c0.6,0.3,1.6,0.8,2.3,1c-0.2,0.4-0.1,0.9,0.4,1.5
		C301.5,576.4,301.6,578.2,301.4,578.5z M353.9,564.1c-0.4-0.7-0.7-1.6-0.5-2.6c0.3-0.9,0.5-1.8,0.3-2.6c0.8,0.6,0.9,0.7,1.5,0.2
		c0.6,1.8,1.2,2.9,1.2,4.8C355.2,563.6,354.9,563.4,353.9,564.1z M395.6,577.6c-1-0.6-1.9-1-2.9-1.4c-3-1.2-5.2,0.5-8.4,0.7
		c0-0.2,0.1-0.4,0.1-0.6c0-2.1,0.7-3.8,1.6-5.4c1.3,0.1,2.3-0.3,3.3-1.4c0.6-0.8,1.1-1.2,0.4-2.2c-0.1-0.6,0-0.6-0.5-0.9
		c0.7-0.9,1.5-2.3,2.3-3.7c1.8-2.5,3.5-5.4,5.2-8.1c-0.1,0.8-0.3,1.6-0.4,2.3c0,0.2,0,0.3,0,0.5c-0.5,1.1-0.7,2.3-0.6,3.9
		c-0.4,1.1-0.4,2.3,0,4c0,0.1,0,0.3,0,0.4c-0.1,0.4,0,0.8,0.1,1.2c0.1,1,0.2,1.9,0.5,2.9c0,1.4,0.2,1.1,0.9,2.3c0.3,1,0.7,2,1.1,3
		C397,575.9,396.2,576.5,395.6,577.6z M441.5,575.1c-0.3,0.3-0.5,0.7-0.8,1c-0.9,1.3-1,2.5-1.9,3l-1.6,0.8c-2.3,1.3-4.3,2.9-6,5
		c-0.2,0.1-0.6,0.7-1.2,0.9c-0.8,0.3-1.9,0.3-1.9-0.6c0-1.1,0.3-3,0.4-4.3c1.1,0.4,1.1-0.3,1.5-1.3c0.4-0.8,0.5-1.6,0.4-2
		c1.5-0.9,2.9-1.8,4.4-2.6c1.8-1.2,4.7-3.3,6.3-5.1c0.3,0.5,0.5,1.4,0.9,3.1c0,0,0,0.1,0.1,0.1C441.1,573.6,441.2,574.3,441.5,575.1
		z M536.3,531.2c0.2,1,0.2,1,1.1,1c0.1,0.3,0.1,0.6,0.2,0.7c-0.1-0.1-0.1-0.4-0.2-0.7C536.6,532.3,536.4,532,536.3,531.2
		c-0.4,0.1-0.6,0-0.8-0.1C535.6,531.2,535.9,531.2,536.3,531.2z M475.4,599.5c-0.3-1.1-0.9-2.2-1.5-3.3c-0.1-1-0.1-1-0.8-1.6
		c-0.9-1.9-1.8-2.6-3.9-2.8c-1-0.6-1.1-0.6-2.2-0.4c-2.2-0.7-3.5-1-6.4-2.3c-0.4-0.4-0.3-0.5-0.9-0.3c-0.4-0.4-0.7-0.8-0.8-0.3
		c-1.4-1.1-1.6-1.1-1.9-3c0.1-1.7,0-3.6,0.7-5.1c0.3-0.7,0.5-1.2,0.6-2c1.1,1,1.3,0,1.6-0.7c0.3-0.9,2.4-4.9-0.7-4.2
		c1-1.6,0.8-3.8,0.7-5.5c0.1-2-0.1-3-1.2-4.6c-1.7-2.1-3.3-2.9-5.5-3.2c-0.3-3.1-0.8-6.2-0.8-8.7c0,0,0-0.1,0-0.1
		c0.3-0.7,0.6-1.3,1.3-1.8c1.6,3.7,3.6,7.2,6.2,10.4c0.4,0.9,0.7,1.3,1.4,2c3.2,5.5,3.7,7.9,9.6,15.5l0.7,1c1.6,1.8,2.4,3.2,3.4,5.4
		c0.9,1.7,1.1,2.5,0.7,4.2c-0.4,1.7-0.4,4.2-0.3,6.1c0.4,2.7,1.1,6.1,1.4,10.1C476.1,602.7,475.9,601.1,475.4,599.5z M511.6,567.1
		c-0.6,0.2-0.7,0.4-1.1,0.9c-0.8,0-0.7,0-1.1,0.7c-0.5,0.1-0.7,0-0.7,0.9c-0.5,0.2-0.5,0.3-0.7,0.8c-1.4-0.2-1.4-0.5-2.1,0.8
		c-1.1,0-1-0.1-1.6,0.9c-0.1,0-0.2,0.1-0.3,0.1c-1-0.7-2.1-1.7-4.3-2.6c0.5-0.7,0.7-1.5,0.5-3c-0.1-0.9,0-2-0.2-2.1
		c-0.1-2.5,0.2-4.3-0.7-6.4c-0.5-3.7-6.8-5.4-10.5-3.7c-0.9,0.7-0.8,0.7-1.9,0.5c-0.7-0.3-0.9-0.3-1.7-0.2c-0.7,0.1-1.3,0.4-1.8,0.7
		c-0.2-0.3-0.5-0.5-0.8-0.8c-0.8-0.9-1.2-1.4-2.3-1c-1.1,0-1.8,0.2-1.9,0.4c-0.3,0.9,1.5,0.9,0.7,1.4c-0.9,0.1-1.2,0.4-1,1.3
		c-1.1,0.2-1.4,0.4-1.1,1.5c-1.1,0.6-0.6,1.8,0.2,2.4c0.6,1.8,1,2.9,2.5,4c0.4,0.4,1.6,1.1,2,1.4c0.9,0.8,1.8,1.6,2.7,2.4
		c0.1,0.4,0.1,0.8,0.3,1.2c0.2,0.8,0.2,1.2,1.2,0.8c0,0.8,0.5,1.6,0.8,2.2c0.3,0.6,0.2,0.7,0.3,1.4c0,0.6,0.1,1-0.1,1.1
		c-0.3,0.1-0.8-0.1-0.7-0.6c0.1-0.4-0.9-0.6-0.9-0.6c-0.1-0.5-0.3-1.1-0.7-1.3c-0.3-0.1-0.6,0.3-1,0.2c-0.7,0-0.4-1.1-2.5-1.7
		c-0.8-1.1-0.7-1.1-2-1.1c-0.5-1.1-0.8-0.3-1.6-0.6c-0.2-1.3-1-1.3-2.1-1.4c-2.3-3.8-4.4-6.8-7.9-9.6c-1.7-4.6-5.2-8.9-8.3-12.8
		c0.7,0,1.5-0.1,2.3-0.4c13.8-2,58.9,0.1,66.2,0.9c-0.1,0-0.1,0.1-0.2,0.1c-2.8,2.7-5.4,5.7-7.4,9c-0.3,1.6-0.7,2.3-2.1,3.5
		C516.3,559.6,514.6,562.4,511.6,567.1z M538.9,552c-3,1.1-5.7,4-5.2,8.5c-0.1,2.1,0,4.1,0.2,6.2c0.5,3.9,2.5,2.2,2.5,5.2
		c-0.1,2.1,0.2,3.1-0.5,3.3c-0.4,0.1-1.1,0-1.9-0.2c-1.8-0.5-2.3-0.7-4.1-0.4c-1.8-0.8-2.2-1.7-3.3,0.1c-3.2,2.9-4.8-1.2-7.3,1.3
		c-0.8,0.3-1.5,0.1-2.1-0.2c0.4-0.5,0.8-1.1,1.1-1.6c0.9-1.8,2-3.4,2.8-5l1.6-3.1c0.8-1.6,1.5-2.8,2.6-4.2c0.6-0.5,0.7-0.5,0.8-1.3
		c3.5-3.4,6.1-8.4,7.9-12.8c0.6,0.1,1.1,0.2,1.6,0.3c3.8,1.4,1.3,0.8,1.1,2.4C536.7,551,538.8,551.4,538.9,552
		C538.9,551.9,538.9,552,538.9,552z M589.2,581.2c-0.8-0.2-0.8-0.3-1.5,0.2c-0.7-0.5-0.9-0.6-1.7-0.6c-1-1.1-1.4-1.4-2.8-1.8
		c0-0.1,0-0.1,0-0.2c2-1.3,3.7-3,5.2-4.9c0.3,0.4,0.7,0.5,1.3,0.1C590,575.6,590.4,579.8,589.2,581.2z M604.4,584.5
		c-0.1,0.2,0,0-0.1,0.6l0.1,1.3c-0.7-0.5-0.9-0.4-1.7-0.3c-0.3-0.6-0.2-0.6-0.9-0.6c-0.8-1.4-0.8-1.6-0.5-3.3c0.4-1.4,0.8-3,1.3-4.3
		c0.4-1,1.2-1.2,1.4-2.7c0.9,0.4,0.9,0.3,1.6-0.3c0.1,1.1,0.5,1.8,0.3,3.4c0,0.1,0,0.7,0.1,0.9c0.4,1.7,0.2,3,0.3,4.6
		C605.4,584,604.8,583.9,604.4,584.5z M677.9,578.7c-1.2-0.5-2.5-1.2-3.9-2c0-0.8,0-1.6,0.2-2.4c0-0.1,0-0.6,0-0.7
		c-0.1-1.3,0.2-1.8,0.3-2.7c0.6,0.5,0.6,0.6,1.3,0.3c0.1,1.3,0.7,1.4,1.1,2.2c0.4,1,0.7,2.3,1,3.5
		C678.1,577.8,678.1,578.1,677.9,578.7z M877.8,593.9h-2.9c0.1-1.3,0.2-2.7-0.1-4.1c0.2-1.1-0.1-2.4,0.3-3c0.4-0.6,0.6-0.7,2.6-1.5
		V593.9z M887.6,579.1c0.5-0.5,1.1-1,1.6-1.6c0.2,0.4,0.4,0.8,0.5,1.1c0.1,0.2,0.2,0.3,0.3,0.5H887.6z M986.8,592.8l0.2,3.2
		c-0.4,0.5-0.5,0.9-0.7,1.5c-0.9,1.1-0.8,1.4-0.8,2.8c-0.9,0.5-0.8,0.8-1.1,1.8c-0.7,0.8-0.5,0.9-0.3,1.9c-1,1.8-1.2,2.5-1.3,4.5
		l-0.4,2.4c-0.2,0.6-0.4,1.2-0.5,1.8c0-0.6-0.1-1.1-0.6-1.6c-0.2-1.1-0.5-1.6-1.2-2.5c-0.6-1.2-1.2-2.2-1.9-3.3
		c-0.1-0.8-0.1-1.3-0.5-2l-0.3-1.1c-3.8-7.1-6.4-7.6-10.8-9.3c-0.5-0.7-0.7-0.9-1.5-1.3c0.6-2.4,0-2.2,0.2-2.9
		c1-2.7-0.4-1.9-2.5-2.8c0.2-0.5,0.3-1.1,0.5-1.6c1,0.4,1-0.1,1.3-0.9c0.1-0.5,0.3-1,0.5-1.5l0.3-0.7c0.2-0.9,0.3-1.9-1.1-1.5
		c0.5-0.7,0.6-1,0.7-1.8c0.6-2.8-0.1-2.5,0-3.9c-0.4-1.6-0.8-2.3-2-3.5c-0.6-1.2-0.7-1.1-2-1.4c-1.2-1.1-2-1-3.6-0.7
		c-1.2-0.2-1.3-0.1-2.4,0.6c-0.8,0.2-1.1,0.5-1.7,1c-1.7,0.8-2.3,1.7-2.9,3.5c-0.7,0.6-0.5,1.1-0.5,2.1c0,1,0,2,0.2,3
		c-1.3,0-0.8,1.8-0.6,2.6c0,1.1,0,2.5,1.5,2.3l0.1,1.3c-0.7-0.1-0.8-0.2-1,0.5l-0.6,0c-1-0.2-1.6-0.2-2.5-0.1
		c-0.7-1.8-1.6,0.2-1.6-0.5c0-1.4-1-3.1-2.1-4.7c-0.2-1.2-0.3-2.4-0.7-3.5c0.8-1.6,1.6-3.2,2.4-4.8c0.2-0.5,0.5-1.3,0.8-1.8
		c0.3-0.5,0.6-0.6,0.7-0.8c0.1-0.2-0.1-0.5,0.1-1c1.8-6-0.5-14.9-0.6-20.7c0-0.4,0-0.7,0-0.9c0.8,0.5,1.6,0.9,2.3,1.4
		c4.8,3.1,9.7,5.9,15.4,6.9l1.9,0.1c1.7,0.5,3.7,1.4,5.6,1.8c1.7,0.3,3.4,0.2,4.7,0.8c2.4-0.1,2.3,1.3,3.9,1.3
		c4.3,3.9,5.2,10.5,6.1,16c0.3,3,0.7,7.1,1,10.5c0.1,0.5-0.7,0.9-0.9,1.3C985,588.4,986.4,590.7,986.8,592.8z"/>
	<path fill-rule="evenodd" clip-rule="evenodd" fill="#E6E7E8" d="M25.8,630v0.2C25.8,630.1,25.8,630.1,25.8,630z"/>
	<path fill-rule="evenodd" clip-rule="evenodd" fill="#E6E7E8" d="M316.3,577.8c0.5,0.2,0.9,0.4,1.2,0.9
		C317.3,578.8,316.9,578.2,316.3,577.8z"/>
	<path fill-rule="evenodd" clip-rule="evenodd" fill="#E6E7E8" d="M456.1,544.9c0.1,0,0.2,0.1,0.3,0.1
		C456.3,545,456.2,545,456.1,544.9C456.1,544.9,456.1,544.9,456.1,544.9z"/>
	<path fill-rule="evenodd" clip-rule="evenodd" fill="#E6E7E8" d="M712.7,565.8l0.2-0.4c0.1,0.4,0,0.6,0.5,0.5
		C713.6,567,712.8,566.5,712.7,565.8z"/>
	<path fill-rule="evenodd" clip-rule="evenodd" fill="#E6E7E8" d="M712,564.3c-0.5-0.5-0.7-0.4-1-0.3c0.1-0.2,0.2-0.4,0.2-0.7
		c0.2,0.1,0.4,0.2,0.6,0.4C711.9,563.8,712,564,712,564.3z"/>
	<path fill-rule="evenodd" clip-rule="evenodd" fill="#E6E7E8" d="M452.3,530.1C452.4,530,452.4,530,452.3,530.1
		C452.4,530,452.4,530,452.3,530.1z"/>
	<path fill-rule="evenodd" clip-rule="evenodd" fill="#E6E7E8" d="M452,530.2c0.1,0,0.2,0,0.3-0.1
		C452.1,530.2,452.1,530.2,452,530.2z"/>
	<path fill-rule="evenodd" clip-rule="evenodd" fill="#E6E7E8" d="M293.3,631.8c0.1,0.1,0.1,0.3,0.1,0.5c0,0.1-0.1,0.1-0.1,0.2
		V631.8z"/>
	<path fill-rule="evenodd" clip-rule="evenodd" fill="#E6E7E8" d="M538.9,533.9C538.9,533.8,539,533.8,538.9,533.9
		C539,533.8,538.9,533.8,538.9,533.9z"/>
	<path fill-rule="evenodd" clip-rule="evenodd" fill="#E6E7E8" d="M538.2,533c0,0.4,0.1,0.6,0.1,0.7
		C538.2,533.6,538.2,533.4,538.2,533c-0.2,0-0.3,0-0.4,0C537.9,533.1,538,533.1,538.2,533z"/>
	<path fill-rule="evenodd" clip-rule="evenodd" fill="#E6E7E8" d="M535.4,531.1c-0.1,0-0.1-0.1-0.2-0.1
		C535.3,531,535.4,531.1,535.4,531.1z"/>
	<path fill-rule="evenodd" clip-rule="evenodd" fill="#E6E7E8" d="M535,530.1c0,0.1,0,0.2,0,0.3c0,0,0,0,0-0.1
		C535,530.2,535,530.2,535,530.1z"/>
	<path fill-rule="evenodd" clip-rule="evenodd" fill="#E6E7E8" d="M535.1,530.8C535.1,530.8,535.1,530.8,535.1,530.8
		C535.1,530.8,535.1,530.8,535.1,530.8z"/>
	<path fill-rule="evenodd" clip-rule="evenodd" fill="#E6E7E8" d="M452.7,528.1c0,0.6,0,1.1,0,1.4
		C452.7,529.2,452.6,528.7,452.7,528.1z"/>
	<path fill-rule="evenodd" clip-rule="evenodd" fill="#E6E7E8" d="M451.8,530.2c-0.2,0-0.4,0-0.6,0
		C451.5,530.2,451.7,530.2,451.8,530.2z"/>
	<path fill-rule="evenodd" clip-rule="evenodd" fill="#E6E7E8" d="M447.2,531.3C447.1,531.3,447.1,531.2,447.2,531.3
		C447.1,531.2,447.1,531.2,447.2,531.3C447.1,531.2,447.2,531.3,447.2,531.3z"/>
	<path fill-rule="evenodd" clip-rule="evenodd" fill="#E6E7E8" d="M446.6,531.2c-0.1,0.1-0.2,0.1-0.3,0.3
		C446.4,531.3,446.5,531.2,446.6,531.2z"/>
</g>
<g>
	<path fill-rule="evenodd" clip-rule="evenodd" fill="#58595B" d="M-2.7,769h1028.8V628.8c-1.2,0.4-2.3,1-3.8,2
		c-5.3-3.3-7.5-0.1-7.6,4.8c-5,3.5-2.5-0.1-5-0.8c-1.9,1-2.4,1.3-4.5,1.2c-0.1-2.1-0.8-4.5-0.5-6.3c0.3-2.1,2.3-2.5,2-6.1
		c5.2,0.9,4.2-6.7,3.9-11.1c-0.9-10.6-2.3-14.7-7.7-21.5c-8.3-7-20-6.5-27.6,0.7c-4.8,6.3-4.3,14.2-3.8,21.6
		c0.2,3.1,0.4,6.3,1.3,9.3c0.8,2.8,1.1,2.3,3.5,3.1c2.2,1.9,1.4,5.5,1,8l-0.5,3.9c-1.6-0.5-4-0.7-4.9,0.9c-1.3,2.2-1.2-3-6.3-3.5
		c-2.2-3.2-4.8-3.5-7.7-3.2c2.3-4.6,4.8-10.1,6.3-14.8c1.4-2.4,1.8-1.8,1.9-4.6c2.2-8.2,0.5-17.4-0.3-25.8
		c-0.6-4.3-1.9-9.7-1.8-14.7c0-0.5,0.6-0.9,0.8-1.5c0.2-0.7,0.1-1.7,0.1-2.4c0.6-2.7,0.8-6.5-0.6-8.4c-0.6-1.8-1.4-2.6-3.2-2.2
		c-1.6-1.1-1.6-1.3-3.4-0.5c-2-1-2.6-0.8-3.8,0.5c-1.9-1.2-4.6,1-2.8,2.7c-0.9,0.7-0.9,1.3-1.3,2.4c-0.9,3.1-0.9,2.9,1.3,5.3l1,1.1
		l1.5,1.3c1.1,1.2,1.2,1.6,1.4,3.2c0.2,6.4,0.6,12.4-0.6,18.7c-0.4,2.4-1,6-0.9,10c0.1,3.8,0.8,7.9,0,9.6c-0.4,0.7-2.2,1.6-3.9,3
		c-4,3.4-6.6,7.7-8.8,12.2c-0.2,0-0.3,0-0.5,0c-2.6-1.3-5.1-2.7-7.9-3.3c-2.5-1.4-5-2.8-7.5-4.1c-0.2-1.9-0.6-3.6-1.7-4.6
		c-2.2-3.7-2.6-5.3-6.9-6.2c-0.9-0.1-1.6-0.3-2.3-0.6c-1.6-3.1-3.1-6.2-4.9-8.5c-3.4-5.9-5.9-15.5-4.3-22.7c0.3-1.5,3.3-1,4.7-1.8
		l3.4-2.9c2.2-1.1,3.4-1.3,4.7-3.4c1.5-1.1,2.6-1.1,3.5-2.8c-0.2-2.2-1.2-2.5-3.1-2.6c-2,0.8-3.1,1.2-4.3,2.9
		c-2.2,2.2-3.6,3.5-2.3-0.3c1.1-4.2,3.7-8.1,5.4-12c0.5-1.4,1.2-3.1,1.5-5c0.4-2-2.4-4.2-4-1.1c-1.1,2.7-2,5.5-3.2,8.2
		c-2.5,4.6-1.3,1.6-0.6-1.4c0.6-2.6,1.2-5.2,1.9-7.7c0.8-3.2-2.2-5.3-3.9-2.3c-1.1,4.1-2.2,8.2-4,12c-1.8,4.6-1.1,2.1-0.9-1.2
		c0.2-2.7,0.4-5.1,1-7.7c1.2-4.9-1.7-6.3-3.5-4.2c-0.9,1-0.7,3.3-1.1,5c-0.5,3.5-1,7-1.8,10.4c-1,1.5-0.8,1.4-1.6-0.2
		c-0.2-1.4-0.3-2.7-0.4-4.1v-2.1c0-3.1-2.5-4.1-3.2-1c0.2,3,0.6,6.3-0.1,9.3c-1.8,5-2.4,10.2-1,15.5c0,5.2,0.4,10.1,0.9,15.3
		c0.5,9.9,1,18.8,4.9,27.9c0.2,1.3,0.6,2.4,1,3.5c0.1,1.5,0.2,3.2,0.4,3.8c0.1,0.3-1.2-0.3-1.6,0.6c-0.3,0.6-0.1,2.3,0.7,4.1
		c0.6,1.8,0.6,3.3,2.9,2.5c0.2,2.8,0.8,6.5,0.8,8.7c0,1.8-2.2,1.8-3.8,1.2c-1.3-0.5-2.1-1.5-2.4-1.8c-3.4-4.2-7.4-7.3-12-10
		l-3.1-1.6c-1.4-0.8-1.9-2.3-2.7-4.1c0.6-1.8,0.7-3.5,0.9-6c2.5-8.9,7.9-13.5,6.8-22.7l-0.2-6.6c-0.1-4,0-6.1-1.7-9.8
		c0-3.5-2.2-3.1-0.4-6.4c1-1.7,2.3-3.1,0.4-4.6c-0.7-1.3-0.7-1.5-2.1-2.1c0.2-5,0.3-7.7,3.5-11.4c1.6-2.8,2.1-3.9-0.3-6
		c0.3-1.9,0.5-3.2-1.6-3.5c0.1-2.1-0.1-3.8-2.6-3.6c-1.5-3.2-3.6-3-6.3-1.5c-1,0.1-1.7,0.3-2.7,0.7c-1.1-3.2,0.7-5.2-1.1-8.3
		c-0.8-1.2-1.5-1.2-2.1-1.2c-1.9-0.1-2.1,5.6-0.9,7.2c-0.2,6.5-0.8,11.5,3.9,16.8c0.2,4.2,0.8,7.3-2.1,10.4
		c-0.3,0.6-0.9,2.5-0.2,5.2c0.3,1.4-1.6-0.4-1.9,2.6c-2.4,2.2-2.7,3-3.6,6.1c-0.5,0.9-0.8,1.7-1.1,2.5c-0.1-3.8,0.3-7.6,0.3-11.4
		c0.1-1.9-0.1-3.3,1-4.9l1.3-2c1.1-1.7,2.3-2.7,1-4.6c-0.9-1.3-1.3-1.9-1.7-3.5c-0.4-3.3-3.2-3.4-4.2-1.8c-1.8-0.5-1.8,0-3.2,1.3
		c-1.6,0.1-1.5,0.1-2.6,0.9c-2.1,0.3-2.2,1.4-2.7,3.2c-0.9,2.2,0.3,5.3,1,6.9c0,2.3,1.2,2.6,0.9,7c-0.1,10.7-4.3,27-1.1,38.1
		c0.1,0.4,0.1,0.6,0.1,0.9c-2,2-3.1,4.2-4.1,7.4c-2.7-2.6-5.2-4.5-8.3-6.6c-1.7-4.2-3.5-5.6-6.9-8.7c-6.8-4.3-12.5-3.9-17.7,0.2
		c-0.1-3.2-0.7-3.2-1.3-3.9c1.5-5.6,1.8-11.3,2.1-17.4c0.4-4.2,0.7-8.2,0.7-12.4c1.1-4.3,0.7-8.5-0.8-12.6c-0.5-2.4-0.2-5.1-0.1-7.5
		c-0.6-2.5-2.6-1.7-2.6,0.8v1.7c-0.1,1.1-0.1,2.2-0.3,3.4c-0.7,1.3-0.5,1.4-1.3,0.1c-0.6-2.8-1.1-5.6-1.5-8.5
		c-0.3-1.4-0.2-3.2-0.9-4.1c-1.5-1.7-3.8-0.5-2.9,3.4c0.5,2.1,0.7,4.1,0.8,6.3c0.2,2.6,0.8,4.7-0.7,1c-1.5-3.2-2.4-6.4-3.3-9.8
		c-1.4-2.4-3.8-0.7-3.1,1.9c0.6,2.1,1,4.2,1.5,6.3c0.5,2.5,1.5,4.9-0.5,1.2c-1-2.2-1.8-4.4-2.6-6.6c-1.3-2.5-3.6-0.7-3.3,0.9
		c0.3,1.5,0.8,2.9,1.2,4c1.4,3.3,3.5,6.4,4.4,9.8c1,3-0.1,2-1.9,0.2c-1-1.3-1.9-1.7-3.5-2.3c-1.6,0.1-2.3,0.3-2.5,2.1
		c0.7,1.3,1.6,1.4,2.8,2.3c1.1,1.7,2,1.9,3.8,2.8l2.8,2.3c1.2,0.7,3.6,0.2,3.8,1.5c1.3,5.9-0.7,13.7-3.5,18.5
		c-3.8,4.6-5.7,13.8-11.6,15.4c-0.5,0.3-1.1,0.6-1.6,0.9c-0.6-1.4-1.5-3.1-2.9-4.9c-0.6-3-1.2-4-3.2-6.5c-0.1-2.7,0.1-3.2-1.7-5.2
		c-0.1-2.5-0.1-3-1.5-5c0-5.6-0.4-6.3-4.4-7.5c-1.5-1.9-0.9-7.6-3.6-7c-1.5-6.9-3.3-10.4-2.1-14.6c0.6-2.1,1.8-2,2.4-3.3
		c0.6-1.3,0.7-3.9,0.7-6.4c-0.1-1.3-0.9-4.7-0.6-7.2c0.2-2.2,0.5-4.3-0.2-5.5c-1.3-2-3.9-1.6-3.5,2.1c0.1,1.2,0.2,4,0.1,4.8
		c-0.4,1.2-0.5,2.4-1.2,2.4c-2.5,0.1-6-3.4-7.1,2c-2.7-0.4-2.5,0.8-2.7,3c-1.4,1.5-1.7,2.5-0.7,4.2c-1.6,2.9,1,4.6,2,7.2
		c0.3,1.8,1.4,3.8,1.8,5.7c0.7,3.5,0.8,6.9,1.4,10.2c-2.5,2.3-5,3.2-5.2,4.5c0,0.5,1.6,1,2.4,2.4c3.7,6.6-2.8,4.9,1.5,12.9
		c1.7,4.8,1,6.5,5.4,13.5c2.3,4.5-0.3,4.8-0.1,8.3c-3.9-0.4-7-1.5-9.5,2.2c-4.1,0.4-4,4.6-5.1,2.8c-0.7-1.2-2.7-1.1-4-0.7l-0.4-3.1
		c-0.3-2.1-1-4.9,0.8-6.5c2-0.6,2.2-0.2,2.9-2.5c0.8-2.5,0.9-5,1.1-7.6c0.4-6,0.9-12.4-3.1-17.5c-6.1-5.8-15.7-6.3-22.4-0.6
		c0,0,0,0,0,0c-0.3-0.3-0.7-0.5-1.3-0.5c0.3-1.8-0.2-3-2-2.8c0.6-2.9-0.7-2.8-1.9-2.8c-2,0-2,1.5-3.1,2.6c-0.5,0.5-1.4,0.7-2.2,1
		c-3.1,1.1-3,2.8-3.7,5.6c-0.7,2-0.6,3.1-1,4.7c-0.7,2.5-7.3,7.3-9.5,9.4c-2.5,1.9-5.8,5.1-8.7,6.4c-1.2,0.5-2.2,1-3.1,1.5
		c-1.4-0.4-3.1-0.9-4.8-1.3c-0.4-0.9-1.1-1.8-2.1-2.7c-1.7-7-5.6-6.6-10.6-7.9c-0.7-1.5-1.7-3.3-3.3-5.5c-2.5-7.7-6.4-16.1-4.4-23.4
		c0.9-2.7,1.4-4.5,3.9-6.1c2.4-0.6,4.5-1.7,6-3.1c0.6-0.6,1-0.8,1.4-1.8c1-0.9,1-1,1.2-2.3c-0.2-1.5,1.1-2.2,1.3-2.7
		c0.2-0.9-1.3-1.2-2.2-0.7c-1.2,0.6-2.4,2.6-1.7,3.2c0.1,0.1-3.6,5.1-4.3,2.1c-0.5-1.6,1-2.2,1.8-3.8c1-2.1,2.1-5.2,2.9-7.5l0.3-1.9
		c0.1-1.7-0.7-1.7-1.2-1.5c-0.9,0.4-1.5,2.2-1.9,3.2c-0.7,2.2-1.2,3.6-2.2,5.7c-1,1.6-1.6,3.5-1.2,0.6c0.4-3.2,0.5-6.1,0.5-9.3
		c0-1.4-1.7-2.5-2.4-1c-1.1,2.5-0.9,5.6-1.3,8.1c-0.3,2.8-1.5,4.1-1.5,4c0.2-1.4-0.1-6.7-0.1-7.9l-0.1-3.6c-0.4-2.8-3-1.5-3,1.2
		c-0.1,2.6-0.2,5.2-0.4,7.8c0.1,1.7,0,4-0.5,4.2c-0.3,0.1-1.1-0.6-1.2-2.5c-0.3-2.5-0.9-4.9-1.2-7.4c-0.2-2.6-2-2-2.5-0.5
		c-0.6,1.5,0,3.8,0.3,5.5l0.4,2.3c0.5,2.9-1.2,5.9-1.3,10c-0.2,4.9,1.1,3,0.7,12.3c0.2,7.9,1.2,15.7,3,23.3
		c-5.1,1.2-7.3,6.4-7.9,11.8c-0.7,3.8-1.3,6.6-0.9,10.4c-2.5,2.6-2.3,1.9-1.8,6.7c-0.2,2-1.2,6.5,2.3,5.4c0.1,1.7,0.3,3,0.7,4.4
		c-0.7,0.4-1.3,0.9-2,1.8c-1.2,0.1-1.7,0.1-2.8,0.7c-1.1,0-1.5,0.1-1.9,0.4c-0.6-0.6-1.2-1.3-2.1-2.1c-4.4-3.1-3.7-2.6-7.1,1.5
		c-3-0.6-4.2-0.3-7.1,0.5c-1.4-0.7-2.4-1-3.3-1c0.4-0.7,0.7-1.5,0.9-2.3c0.5-1.9,0-3.2,0.8-3c0.1,0,2.4,1.4,2.1-1.4
		c4.3-1.7,6.7-1.1,3.3-4.7c1.5-4.8,2.9-11-3.8-13.8c-0.9-4-0.4-7.1-4.3-9.2c-5.5-5.9-10.7-6.5-17.5-1.4c-3.3,1.7-5.2,3.6-5.7,7.3
		c-0.2,1.8-0.6,3.2-0.9,4.2c-0.8,2.5-2.2,1-3.8,3.3c-0.9,1.4,0.9,5.3,0.3,6.9c-0.1,0.3-0.3,0.4-0.4,0.6c-4.1-2.9-8.4-5.6-12.6-8.4
		c0.6-3.7,1.5-7.3,3.3-10.9c3.3-6.5,5.6-11.4,4.8-19.1c2.3-9.3,0-9.2,0.5-13.4c0.3-2.5,1.6-4.8,2.1-7.5c1.5-7.2,3.5-15.3,4.1-22.4
		c0.9-3.9,1.8-7.8,2.6-11.7c1-4,1.3-7.8,1-11.9c3.1-4.9,0.1-5.3,4.1-13.2c2.4-3.5,0,0-0.1-5.7c2.1-4.2,2.2-7.4,1.4-12.2
		c-0.3-3.2,0.1-5.2-3.9-5.2c-2.1-1.8-3.1-3.2-6.1-2.7c-1.3-1.3-1.7-1.2-3.5-1.3c1.3-2.4-0.9-2.5-2.5-1.9c-4.7-4.2-7.8,8.2-8.5,10.7
		c-2.7,5.1,2.7,7.5,5.1,12.2c-3.5-0.5-3.1,2.4-2.9,5.2c0.8,4.5,0.6,6.3-0.7,10.7c-2.1,3.4-2.4,4.7-2.8,8.7c-1,2.3-1.3,3.9-1.6,6.4
		c-1.8,2.7-2.2,4.8-2.9,7.9c-3.6,9.3-7,18.6-9.8,28.1c-2.3,8-5.3,15.5-8,23.4c-0.3,0.6-0.6,1.1-0.9,1.6c-0.1-1.7,0.1-3.4,0.1-5.6
		c0.8-4.1,0.6-6.2-4.4-7c-1-1.1-2.9-2-4.4-1.7c0.8-1.7,0.5-3.2-0.2-5.1c-0.1-3,0.3-3.3-2.4-4.6c-1-5.2-3.9-1.1-4.3-2.9
		c-0.7-3.1-2.7-2.8-3.4-0.2c-6.1,0.2-2.8,3-5.5,3.8c-1.5,0.5,0.7-4.5-8.8-1.9c-3.4-0.4-2.6-2.3-7.3,0.2c-7-2.3-7.2,4.5-11.8,8.7
		c0,0-0.1,0.1-0.1,0.1c-0.3-1-1.1-1.9-2.9-2.5c-2.4-1.9-3.8-3.1-5.3-1.3c-2.4-1.9-4.6,0.2-3.9,2l0.5,1c-1.1,1-1.3,1.2-1.2,2.9
		c-0.9,0.8-1,0.9-1.2,2.1c-0.5,0.9-0.6,1.1-0.5,2.1c-1.5,2.5-0.6,2.1,0.3,4.4c0.2,0.2,0.4,0.5,0.6,0.7c-2,4.2-3.1,9.9-3.6,16.9
		c-0.6,11.5,2.4,10.8,2.4,16.4c-0.1,2.9-0.2,4.3,3.4,4c0.9,3.1,2.2,6.2,4.4,8.7c-6.8,0.2-13.1,2.7-5.3,9.3c1,9.5-1.1,8.9-9.7,11.8
		c-4.9,1.1-8,2.1-12.3,4.5c-3.8,1.7-4.2,2.1-6.1,5.8c-2.7,3-3.5,4.7-4.9,8.5c-0.9,1.5-1.6,2.9-2.3,4.2c-0.3-4.8-0.9-8.9,0.8-12
		c1.8-4.1,3.7-9.7,6-14.1c1.5-2.8,3.4-4.3,4.7-7.1c2.5-5.2,3.9-10.6,6.9-15.1c3.7-5.4,4.2-10.1,3.8-17.6c0.6-10.1,1.7-19.5,0.2-30
		c-0.5-2.9,0.7-6.5-0.9-8.1c0-1.5-0.1-2.3-0.7-3.6c0.1-2.2,0-3.7-0.5-5.9c-1-1.7-0.7-7.3-2.1-6.6c-1.2-3.3-4-4.8-7.2-5.8
		c-1.7-0.4-1.9-0.5-2.4-2.1c-0.4-1.4-1.1-2.7-1.9-3.9c-0.4-0.5-0.7-1-1.1-1.6c-1.3-1.6-3.3-0.9-2.5,1c0.6,1.1,1.3,2,1.7,3.1
		c0.4,0.9,0.4,1.9,0.9,2.8c0.3,1.4-0.3,1.2-0.9,0.4c-1.1-2-1.8-3.6-2.4-5.8c-0.3-1.3-0.9-2.8-1.2-4.1c-0.3-2.1-3.5-1.4-2.8,0.7
		c0.6,2,1,4,1.4,6.1c0.6,2.3,0.4,1.7-0.9,0.2c-1.4-1.5-1.8-4.8-2.4-6.9c-0.7-2.2-3.3-1.4-2.9,0.2l0.4,1.5c-2.7-1.1-2.2,1.4-2.4,3.2
		c0,0.9,0,1.6,0.3,2.4c-3.9-0.1-7.1-0.6-9,2.7c-1.9,3-1.7,5.7-1.4,9.1c0.1,0.7-0.8,0.9-1.3,1.5c-5.2,6.5-9.8,12.2-10.7,17.6
		c-0.4,4-0.1,8.6,2.4,12.3c2.3,3.6,5.9,5.5,9.7,8.5c0.8,0.6,2.6-0.6,3.6-1l4.9-4c4.4-3.8,8.6-6.5,10-12.2c0.4-4.4,2.1-8.3,0.5-12.2
		c-0.2-3.2-0.3-5.9,0-9c0-0.8,0.1-1.2,0.3-1.3c0.6-0.4,0.5,0.8,2.9,0.5c0.1,2.1,1.2,3,2.4,4.7c0.4,1.7,1.4,3.7,1.5,5
		c0.1,1.4-2.2,1.1-0.2,3.6c-0.3,2.4-0.9,2.7,1,4.2c-0.5,2.2-0.7,3.5-0.5,5.7c-0.9,2-0.8,2.1,0,4.2c-1.3,2.5-1.5,3.1-1.2,5.8
		c-1.1,1.4-1.2,1.6-1.1,3.3c-2.3,2.7-1.6,8.5-1.7,11.9c-0.8,1.8-0.9,2.1-1.1,4.1c-0.4,0.6-0.7,2.4-1.3,2.6c-1.6,0.6-2,1.3-2.4,3.1
		c-2.1,3.3-3.7,6.8-5.5,10.3c-2.5,2.6-3.5,4.9-4.3,8.2c-2.2-0.8-2.1,2-3.4,2.4c-2.7-1-2.2-0.1-3.4,2.5c-2.5,0-2.4-0.4-2.9,2
		c-5.6-1.3-3.8,2.3-4.8,2.5c-1.4,0.3-2.1-1.5-1.8-3.1c0.4-2.5,1.3-4.4-0.5-4.4c-0.3-1.4-0.6-3.4,1.2-2.4c1.7-0.6,0.9-3.1,1.8-5.7
		c1.2-3.6,0.5-5.4-2.1-5.3c1-1.9,0.3-5.9,0.4-7.9c0.1-8.1-3.9-11.7-12.1-13.6c-2.7-0.6-3.7-0.6-6.3,0.1c-1.8-0.4-2.6-0.1-4.4,0.4
		c-4.1,1.6-7.7,4.6-9,8.9c-1.6,5.8-1.3,9.7,1.2,15.2c-2.7-0.2-3,0.7-2.6,2.5c0.2,0.9,1.2,2,1.7,3.2c1.1,2.8,0.9,5.8,3.7,3.6
		c1.9,4.7-1.5,1.1-1.6,4c0,0.7,0.1,2.3,0.2,3.1c-2-0.9-2.5-0.6-4.6,0c-1.1-1.9-1.2-1.6-3.4-1.5c-0.9-2.7-1.4-2-4.3-2
		c-0.3-3.4-1.2-3.1-4.1-2.7c-0.6-3-0.6-3.1-3.6-3.4c-0.6-2.9-0.6-3.5-2.8-5.4c-0.9-3.9-2.3-5.3-5.6-7.3c-2.6-4.5-3.1-1.8-3.9-3.1
		c-1.4-2.2,1.1-2.7-2-4.7c-1.2-3.2-0.7-9.7-2.5-10.5c-0.2-1.7-0.1-2.2-1.4-3.1c0-3.2-0.2-6.4-0.4-9.9c0-1.1-0.1-2.3,0.3-3.5
		c4.2-12,4.4-20.8,5-29.8l0.5-0.8c2.7-2.2,2.5-3.2,1.3-3c-0.7,0.1-1.3,0.4-1.5,0.4c0-0.6,0.1-1.1,0.1-1.7c0-0.4,0-0.7,0.1-1.1
		c0.9-2.4,2.6-5.4,2.4-7c-0.1-0.8-1.1-1-1.9,0c0.1-2,0.2-4.1,0.2-6.2h-9.9c0.1,2.7-0.5,5.6-1.1,8.3c-0.6,0.2-1.5,1-2.4,2.5
		c-1.3,2.4-1.8,4-3,7.1c-2.9,2.1-6.3,7.3-7.1,10.7c-2.7,1-0.9,2.6-0.6,8c0.1,2.5,0.2,4.4-0.4,6.8c-0.2,1.8,0,3.2,0.3,5.1
		c0.1,2.9,0.3,5.6,0.7,8.5c-1.6,7.4-0.2,13.5-1.2,15.3c-1.1,1.8-2,2.9-2.4,5c-1.3,1.4-1.4,1.5-1.4,3.4c-3.2,0.9-3.7,5.5-4.8,6.5
		c-0.6,0.7-0.6-0.6,0.2-3.1c-0.1-2.5,0.3-5.6-2.7-5.6c-0.1-2.3,0.8-3.6-0.1-6c-3-8.4-16-11.8-22.2-18.6c-1.3,6-5.3,10.2-6.7,15
		c-2.2,6-0.7,11.2,1.5,16.8c-2.4-0.5-1.6,2.9,0.3,4.7c1.6,1.6-0.3,4,2.1,3.6c1.7,2.3,2.6,4.3,5.4,5.8c0.3,6.1,3.6,5,2.8,8.7
		c-2.3,2.2-5.2,5.6-7.8,8.1c-4,3.9-7.2,7.2-6.5,12.8c-0.6,4.5-0.4,7.8,0.1,12.4c-0.4,1.1-0.6,2.2-0.7,3.3v-36.1
		c0.3-0.2,0.5-0.4,0.8-0.6c4.1-4.5,6.6-10.7,4.2-14.3c-1.5-2.3-5.8-4-9.6-5.4c-6.2-2.4-12.2-5.6-18.8-5.8c-3.9-0.9-6.1-0.8-10.1-0.3
		c-0.8-0.2-1.5-0.3-2.1-0.4c2.6-1.9,5.2-3.9,7.8-5.4c2.9-0.5,2.9-1.2,3.9-4.1c1.4-2.5,2.6-4.1-0.2-4.4c0.1-1.2-0.2-2.8-1.8-2.2
		c-0.1-1.3-0.3-1.7-1.4-2.1c-1.1-1,0.3-0.1,1.2-0.5c1.3-0.6,0.8-1.2,0.1-1.7c-0.4-0.3-0.8-0.6-1.2-0.6c-1.4-0.1-1.7-0.8-2.3-0.8
		c-0.5,0-1.2,0.5-2.3,1.2c-2.5,1.2-2.6,2.1-2.5,4.2c-0.7,1.6-0.8,2-0.6,3.7c0,1.2-0.2,1.4-1.2,2c-3.7,2.5-7.4,5-11.7,6.4
		c-1.5,0.5-2.9,1.2-4.4,1.7c-0.4-0.3-0.8-0.7-1.1-1c-2-2.8-3.8-2-3.6-3.2c0.9-6.8-3.4-13-8.9-16.5c1.2,0.1,1.1,0.1,1.7-1
		c2.4-2.1,1.8-4.2,1.6-7.1c0.4-2.8,1.2-1.8-1.3-3.1c-0.2-0.6-0.4-2-1.1-2.4c-0.7-0.4-2,0.3-2.3-0.4c-0.7-1.6-2.5-1.1-3.6,0.1
		c-2.5,0.4-4-0.6-5.3,0.5c-0.4,0.3-0.1,1.5-0.6,2c-0.9,2.3-1.7,2.5-0.9,3.6c0.2,0.2,0.8-0.1,1.2,0.4c0.6,1.4,0.7,1.2-0.7,1.6
		c-2.7,0.6-3.2,1.4-5.1,3.4c-4.6,3-7.3,4.6-6.3,11.4c-1.6,2.7-2.3,5-2.3,8.1c-2.1,0.9-3.5,2.5-5.3,4c-0.8,0.6-1.6,0.8-2.2,0.9
		c0,0-0.1,0-0.1,0c-1.7-1.6-2.5-1.4-4.8-0.7c-1.5-2.1-2.8-2-4.7-0.7c-1.8-0.2-3.5-0.3-5.3-0.3c-0.8,0-1.7-0.2-2.5,0
		c-0.3,0.1-0.8,0.1-0.9-0.1c-0.5-1,0.5-5,0.6-6.1c0.4-0.8,0.9-2.2,1.2-3.4c0.3-1.3,0.6-2,0.7-2.5c0.1-0.7,0.7,0,1.2,0.1
		c0.3,0,0.7-0.1,1-0.8c0.2-0.8,0.1-1.9,0.2-2.9c0.2-1.2,1.1-4.2-1.1-4c0.6-2.4,0.6-3.9,0-6.3c-0.3-2.7-0.6-5.2-1.6-7.8
		c-1.8-4.1-3.7-5.6-7.1-6.1c-2.2-0.7-3-0.7-5.3-0.3c-4,0.2-6.6,0.6-9,3.9c-1.2,1.5-2.3,2.4-2.5,4.4c-1.8,1.6-1.4,1.4-2,3.4
		c0.1,2.6-0.7,5-0.1,7c0.6,2.5,1,3.3,1,3.2c-3.2-0.3-1.4,3.7-0.8,5.2c0.3,0.5,0.4,1.4,0.8,2.2c0.3,0.6,0.9,0.9,1.5,0.1
		c0.7-1,0.8,0.9,1.3,1.8c0.5,1.6,1.1,3.7,0.9,4.8c-0.3,1.7-2.1,1.2-0.7,4.1c-1.6-0.1-4.1,0.1-5.6-0.1c-2.6-0.4-4-1.1-5.2,0.5
		c-0.9,0.5-1.1,1-2.1,0.7c0.1-0.1,0.2-0.2,0.3-0.4c1.4-3,5-4.3,7.3-6.8c1.7-2.4-0.5-4.5-2-2.6c-1.1,1.1-2.3,2.2-3.4,3.3
		c-2,1-3.5,2.4-1.5-0.4c2-2.3,4.1-4.5,6.3-6.7c1.9-2.4-1.2-3.4-2.6-1.8c-2.1,2.2-4.2,4.4-6.4,6.5c-3.7,2.8-0.3-2.4,0.8-3.6
		c1.5-2.5,3.7-3.5,4.4-5.3c0.6-1.5-0.6-2.6-3-0.7c-2.1,2-4.1,4.1-6,6.4c-3.3,4.2,0-2.2,0.4-3c1-1.4,2-2.9,2.9-4.3
		c1.7-2.3-0.8-3.4-2.2-2c-2.5,2.9-4.7,6.3-6.3,9.7c-1,1.2-2.1-0.7-2.4-2.4c3.7-1.7,4.2-3.6,1.8-7.6c-3.6-4.8,6-6.7-3.6-13.4
		c-3.6-1.4,1.6-7.9-7.1-13.6c-10.2-8.9-21.8-2.2-25.7,9.8c-10.5,4.6-2.5,11.5-7.1,16.7c-2.6,3.9,2.3,6,5.6,7.4l2.2,1.1
		c0.3,2,0.7,3.6,1.3,5.5l0.1,3.6c-4.7-3.9-5.5,0.8-8-1.3c0.5-3.3-1.7-3.7-4.5-4.7c-2.9-1.4-5-2.1-8.2-2.6c-4-4.2-5.3-2-7.7-5
		c-1.4-1.8-3.1-3.8-4.8-5.8c0.3-0.5,0.8-1,1-1.7c0.3-1.1,0.1-2.6,0.2-3.6c1-4.2,1.3-9.8-0.8-12.7c-1-2.8-2.1-4-4.8-3.3
		c-2.5-1.7-2.4-2.1-5.2-0.9c-3-1.6-3.9-1.2-5.7,0.9c-0.7-0.4-1.4-0.6-2.1-0.5c-8-13-19.7-23.6-25.2-38.5c-0.6-1.7,0.5-3.1,1-4.8
		c2.2-6.3-0.1-6.8-4.2-11.2c1.5-1.6-0.6-3.3-2.1-3.2c-0.8,0.1-0.6,1-1.6,2.1c-0.4-1.1-3.4-1.1-4.2,1.4c-2,0-3.4-0.1-4,3
		c-10.7,1,4.7,17.4,5.6,21.2c7.3,16.6,17.8,43.6,25.6,49.5c4.5,6.3,8.9,14.1,13.4,20.6c-0.1,4.2-0.4,8.4-1.1,12.8
		c-0.6,3.6-1.5,9.1-1.4,15.1c-1.9,0.7-3.5,1.5-5.3,2.6c-1.4-2.5-3.1-3.8-5.7-4.8c-1.1-2.8-0.3-6,1-9.7c0.8-1.2,1.4-2.1,1.9-3.5
		c1.9,1.8,1.4-0.2,2.3-1.5c0.8-1.2,1-2.8,0.7-4.3c0.9-3.6,0.9-6.1,0.1-8.4c0.1-6-1.3-9.2-4.8-13.1c-5.2-4.7-10.9-6.9-16.9-3.2
		c-3.4,2.1-6.9,4.4-7.7,8.5c-1.4,2-1.2,5.2-0.7,9.9c-0.6,2.4-0.7,3.1-0.1,5.5c0,1.6-0.2,1.9,1,3c-0.3,1.2,0.8,1.2,0.6,1.8
		c-0.3,1.4,1.2,2.4,1.9,0.7c0.8,2.2,0.3,4.3-0.2,6.5c-0.5,1.4-0.5,5-1.8,4.9c-3-0.3-5.6,1-7.4,0.7c-2.5-0.4-2.1-4.8-8.2-5.2
		c-3.3-1-6.9-3-10-3c-1.1,0-2.3,0-3.4,0v20.6c0.2,0.1,0.5,0.3,0.7,0.4c-0.2,0-0.5,0-0.7,0V769z M932.2,687.9c2-10,4.3-16.8,7-23.8
		c1.7-4.4-0.3-4.1,3.9-10.3c5.1,4,6.8,8.8,8.3,15c1.6,13.5,4.7,12.3,6.4,21.8c1.3,7.2,0.8,11.3,5.2,27.5c0.6,8.3-4,16.4,1.3,27.3
		c-1.6,4.9-0.9,9.7-5.3,12.5c-1.4,1.8-1.2,2.7-1.3,5c-4.1,6.6-0.1,5.4-0.6,8.6c-0.6,3.2-2.3,0.1-2.7,7.6c-1.4,1-1.8,2-1.9,3.3h-7.1
		c0-1.2,0-2.4,0-3.6c1-0.1,2.2,0,2-0.4c-0.2-0.8-0.7-2.6-1-4.3c-0.6-4.5-1.4-8.9-1.9-13.2c-0.3-2.1-0.4-3.8-0.3-5.9
		c-0.1-1.8-0.1-2.4-1-4c-0.7-4.5-1.7-8.7-3.2-12.9c-0.4-1.2-0.5-2.2-0.6-3.5l-0.2-2.8c-0.6-3.6-1.3-6.4-2.6-7.5
		c-0.1-1.9-0.9-3-2-4.4c-0.1-1.2-0.2-1.8-0.8-2.9c-0.1-1.1,0.2-2-1-2.2c-0.1-1.9-0.7-3.8-0.8-5.7C931.7,701.8,931,693.9,932.2,687.9
		z M920.4,641.5c0.5,0.4,1.1,0.7,1.6,1c-0.7,0.5-1.3,1-1.7,1.1C920.2,643.7,920.2,642.7,920.4,641.5z M909.2,763.9
		c0.3-0.1,0.4,0.8,0.6,2.3h-1.6C908.4,765.2,908.6,764.2,909.2,763.9z M843.3,633.9c1.6-1.2,1.2,0.6,3.9-3.2
		c2.5-1.3,0.7,0.4-0.2,1.8c-0.8,1.3-1.4,2-0.9,3.4c-2.6,1.1-2.5-0.8-4.2,1.1C842.2,635.5,842.1,634.9,843.3,633.9z M839.9,639.5
		l0.6,0.8c-0.1,1.5-1.7,2.6-1.5,0.3C839.9,640.7,839.7,640.4,839.9,639.5z M799.6,624.8c0.6-0.4,1.3-0.8,1.9-1.2
		c-1.5,3.6-1,7.2,2,11.8c1,1.3,2,2.5,2.9,3.9c-0.1,2.5,0,2.1-2.2,1c-0.5-2.1-0.6-2-2.6-2.8c-0.4-2.8-1.3-5.7-2.4-8.3
		C799.2,627.7,799.4,626.3,799.6,624.8z M716.3,603c1.3-1.4,3-2.1,4.8-2.9c-0.1,0.7-0.2,1.4-0.2,2.2c-0.2,3.6-1.1,9.8,3.2,9.1
		c-0.2,2.9,1.4,3.2,1.6,4.9c0.3,1.5-0.3,3.4-0.4,5.1c-1.7,0.1-2.1-0.1-3.6-0.9c-2.1,0.6,0,3.5-4.1,0.7c-0.1-3.9-1.9-6.6-6.2-3.9
		c-2.4-1.4-3.3-2-6-2c-0.1-0.1-0.1-0.1-0.2-0.2C709.2,610.8,712.9,606.8,716.3,603z M684.1,634.6l0.9-1.7c1-0.6,1.9-1.2,2.9-1.9
		c0,0,0,0,0,0c2.2,2.2,4.1,3.8,5.7,5.2h-10.4C683.5,635.9,683.7,635.3,684.1,634.6z M680.9,635.7c0.2,0.2,0.4,0.4,0.6,0.6h-0.3v6.2
		c-0.6,0-1.1,0-1.7,0C679.2,639.4,679.6,638.5,680.9,635.7z M540.7,632.2c-3.4-2.2-6.7,5.8-6,0.1c3.6-6.7-2.2-2.3-2.6-6.2
		c-0.1-0.5-0.1-1-0.1-1.3c1.6,1.2,3.2,2.2,5,3c0.9,1,1.2,1.2,2.5,1.6c0.5,0.5,1.1,1,1.6,1.5C541,631.2,540.9,631.6,540.7,632.2z
		 M535.5,583.5c-0.5,0.9-0.1,2.7,1.3,3.5c1,0.6,2.8-2.6,3.4,1.2c4.9-0.4,1.2-3.3,3.3-3.2c0,0,0,0,0.1,0c0.3,0.3,0.7,0.7,1.3,1
		c-0.3,1.1-0.8,4.2,0.3,5.2c0.3,0.3,1,1,1.6,0.8c0.8-0.2,1.7-0.4,1.6,0.1c0,1.3-0.4,4.8,0.1,6.8c1,2.7,2.7,3.8,5.1,6.1
		c0.7,0.7,1.4,1.5,2.1,2.3c0.1,0.5,0.1,1.1,0,1.7c-0.4,2.9-2.3-1.5-3.3,8.2c-1.3,0.9-2,1.5-2.6,2c0,0,0,0,0,0
		c-2.6-1-3.3-1.6-4.4-3.3c-1.9-2.4-4.2-4.4-6.6-6.2c-0.2-1.8-0.7-3.3-1-4c0.1-3.3,0.2-5.6-0.9-8.7c-1.6-8.4-6-14.1-5.6-13.8
		C533.4,584.3,535.8,583,535.5,583.5z M475.2,724.6c3.1-7.5,2.2-5,2.4,1.5c0,0,0,0.1,0,0.1h-3C474.7,725.7,474.9,725.1,475.2,724.6z
		 M454.7,762.7v3.6h-0.9c-0.1-0.6-0.3-1.2-0.5-1.8C453.8,763.9,454.2,763.3,454.7,762.7z M303.7,728.9c0.8-1.2,1.5-2.3,2.2-3.4
		c4.2-6.1,7.7-12.7,8-17.9c0.2-3,3.1-8.2,4.1-11.4c-0.7,4.8-0.9,9.6-1.1,14.5c0.7,6.8-5.4,8.8,0.8,14.9c-1.3,1.7-1.5,2-1.5,4.1
		c-1.7,1.6-2.2,1.7-2.1,3.8h-5.7v5.9c-0.9,1.1-1.8,2.1-2.8,3.4c-1.4,2.4-2.1,4.8,0,5.9c-0.3,2-1,3.3-2,4.5V728.9z M243.2,638.8
		c1.5-0.5,3.4-1.5,4.7-2.1c1.5-0.6,2.9-1.3,4.3-2.1c1.1,1.8,1.1,1.6,3.4,1.4c3.8,1.9,2.1,2.4,9,0.4c1.1,2.2,1.7,1.8,5.5,1.6
		c1.8,1.6,2.1,1.9,5.3,1.6c1-0.1,1.1,1.5,0,1.4c-2.5-0.3-2.8,1.1-3.2,1.7c-2.3-0.7-2.1-0.8-3.6,1.1c-1.7,0.3-1.7,0.4-2.7,1.8
		c-2.3-3.7-3.1-0.5-4.9,0c-2,0.6-4-3.5-8.8,3c-1.8-0.1-2.3-0.1-3.9,0.7c-3-4-4.6-1-5.5-2.2c-0.4-0.5-0.2-4.2-0.3-5.2
		C243.4,640.6,243.7,639.6,243.2,638.8z M212.9,645.6c-1.1,0.9-1.8,2.1-2.4,1.8C211.1,646.5,212,646,212.9,645.6z M135.4,608.2
		c1.2,1,1.4,0.8,3-0.4c-0.3,1.8,0,3.5,0.6,5.3c0.4,2.1-0.1,3.8-1,5.3c-2-1.4-2.5-1-5-0.5C133,614.1,134.2,611.9,135.4,608.2z"/>
	<path fill-rule="evenodd" clip-rule="evenodd" fill="#58595B" d="M258.6,754.4c0-0.5,0.1-0.8,0.2-1v1.3
		C258.8,754.6,258.7,754.5,258.6,754.4z"/>
	<path fill-rule="evenodd" clip-rule="evenodd" fill="#58595B" d="M580.4,637c0.3,0.3,0.6,0.5,1,0.8c-0.4-0.1-0.7-0.3-1.1-0.4
		C580.3,637.2,580.3,637.1,580.4,637z"/>
	<path fill-rule="evenodd" clip-rule="evenodd" fill="#58595B" d="M573.5,670.6h-0.2c0-0.4,0-0.8-0.1-1.1
		C573.3,669.9,573.4,670.3,573.5,670.6z"/>
	<path fill-rule="evenodd" clip-rule="evenodd" fill="#58595B" d="M360.2,537.2c0.5,0.4,1.1,0.6,1.3,1.2c0.3,1,0.1,1.4,0,2.5h10
		c0.1-0.9,0.3-1.8,0.8-2.7c0.8-4,2.4-9.2,0.1-11.9c-1.1-1.8-1.5-2.7-3.5-2.1c-1.2-1.7-1.8-1.7-3.5-0.8c-1.4-1-3.3-1.4-4.3,0.2
		c-2.8-0.8-3.7,1.4-3.6,3.9c0,3-2.2,2.9-0.5,6.1C358,534.7,359.1,535.9,360.2,537.2z"/>
</g>
<path fill-rule="evenodd" clip-rule="evenodd" d="M5.6,575.9c-0.8-0.1-2.3,0.1-2.9-0.5c-0.4-0.3-1.9-0.5-2.7-0.1V769h1025.6V655.3
	l-2.4,5c-1.5,0.6-2,1-2.9,2.1c-0.7-0.2-1.5-0.4-2.2-0.6c-7.4-2.6-4-3.6-19.2-13.8c-2.4-2-3.9-3.4-5.1-4.6c-0.1-1-0.4-2.1-1.2-3.2
	c-1.1-7-7.9-11-10.7-13.4c0.1-0.5,0.3-1,0.7-1.6c0.3-1.1,0.4-2,0.4-2.9c0.1-0.1,0.2-0.1,0.3-0.2c1.6-1,3.8-4.7,3-5.8
	c-1.4-2-1.3,1.6-3.3-2.9c0.3-2.4,0.4-2.1-1.8-3c-6.3-2.2-2.9-4.3-6.6-3.4c-0.7-0.2-2.2,1.8-2.9,2.1c-3.4-1.9-2.8-1.9-3.6,1.8
	c-2.6,1.5-3.3,2.7-2.6,5.9c-3.9,3.6-6.5,8.5-4.1,13.9c-4.1,3.6-6.8,7.4-6.4,13.3c-0.6,4.6-1.3,8.4,0.3,12.9
	c-3.7,1.9,0.6,4.2-0.7,9.2c-0.1,0.4,0.2,0.8,0.2,1.6c-0.1,2-0.5,5-0.5,6c0.2,4.8-1.2,5.5-1.1,11.3c-2.2-1-4.8-0.4-5.3,0.8
	c-0.5,1.3-0.9,3.1-0.4,4.6c0.4,1.3,1.7,2.4,1.5,2.2c-1.4-0.9-5.4,0.1-7.6,1.1c-0.8-2.6-1.8-0.7-4.2,0.9c-1.2,0.8-2.3-0.1-5,1.6
	c-3.7,0.2-4.3,2-7.4,2.8c-2.1,0.5-2.6-1-7,0.8c-1.5,0-4.2-0.5-3.8,0.9l-4.2,0.4l-3.9,1.1c1.1-3.8,2.3-7.6,3.7-11.3
	c1.6-4.2,2-6.8,4.2-10.8l4.9-8.6l3.5-6.3c2.8-2.9,4.3-5.4,5.6-9.4c2.3-4.5,3.2-8.7,4.1-13.7c1.6-4.4,2-8.3,2.5-13
	c0.1-1.3-0.3-1.9-0.7-2.3c7-6.1,16.2-29.6,22.6-44.2c0.8-3.5,14.8-18.3,5.1-19.2c-0.5-2.9-1.7-2.7-3.6-2.8c-0.7-2.3-3.5-2.3-3.8-1.3
	c-0.8-1.1-0.7-1.9-1.4-1.9c-1.3-0.1-3.2,1.4-1.9,2.9c-3.7,4-5.8,4.5-3.8,10.1c0.4,1.6,1.5,2.8,0.9,4.4
	c-5.8,15.9-19.6,26.2-26.3,41.3c-1.6,5.3-3.4,4.8-6.4,7.2c-3.6,3-7.3,7.4-10.2,11.2c-2.2,2.8-3.3,0.7-6.9,4.5
	c-2.9,0.5-4.8,1.1-7.4,2.4c-2.4,0.9-4.5,1.3-4,4.2c-2.3,1.9-3-2.3-7.2,1.2l0.1-3.3c0.6-1.7,0.9-3.2,1.2-5l2-1c3-1.3,7.5-3.1,5.1-6.6
	c-4.2-4.6,3.1-10.9-6.4-15.1c-3.5-10.8-14-16.9-23.2-8.9c-7.8,5.1-3.2,11-6.4,12.3c-8.7,6,0,7.7-3.3,12.1c-2.7,4.3-1.5,5.8,3.9,7.7
	c1.9,1.3,1.9,1.7,3.1,0.7c1,3.3,2.2,5.3,2.2,8.7c-2.3-0.4-2.8-0.9-4.6,0.5c-1.6,0.1-2.9,0.3-3.8,1.7c-2.1,0.6-2.9,0.6-3.6,1.8
	c0-1.3,0.2-2.6,0.2-3.9c0-2.1-0.1-4.5-1.9-5.7c-0.7-2.4-1.5-2.6-3.7-2.3c-0.1-2.9-1.2-2.9-3.6-2.3c-2.1-2.7-3-1.7-4.5,1
	c-0.4,0.1-1.7-5-2.3-7c-0.8-2.2-1-5.7-1.8-5.8c-0.4-0.1-2.1-0.4-1.9,2c0.4,3.7,0.7,6.8,2,10.3c0.7,4,1.5,7.3,3.3,10.9
	c0.8,2.6,1.8,4.4,3.4,6.2c-0.6,0.6-1.2,1.7-1.8,3.4c-5.7,1.4-12.1,3.7-16.4,7.8c-2,0.2-2.3,0.5-3.9,1.8c-1.1,0-1.3,0.1-1.6,0.7
	c-0.3-2-0.8-3.1-0.7-5.7c0-0.8-0.3-3.2-0.4-4.8c0-0.7,0.2-1,0.1-1.3c-1-4,2.4-5.8-0.5-7.3c1.3-3.6,0.7-6.6,0.2-10.3
	c0.4-4.7-1.8-7.8-5.1-10.6c1.9-4.3-0.1-8.2-3.3-11c0.5-2.5,0-3.5-2.1-4.7c-0.6-3-0.2-2.9-2.9-1.5c-0.6-0.3-1.8-1.8-2.3-1.7
	c-3-0.8-0.2,0.9-5.3,2.7c-1.7,0.8-1.7,0.5-1.4,2.4c-1.6,3.6-1.5,0.8-2.6,2.3c-0.6,0.9,1.1,3.9,2.4,4.7c1,0.7,1.4,1.1,2,2.2
	c1.1,1.7-8.2,4.9-9.3,12.2c-1.5,2.1-1.1,3.8-0.6,6.1v4.8c-2.8,0-1.9,2.6-1.3,4.2c0.2,0.7,0.9,1.5,1.2,2.3c0.7,1.7,1.3,3.3,3.1,2
	c0.3,3,1,10-1,12.4c-1.4-0.4-1.4-0.5-2.5,0.3c-1.1-0.8-1.5-1-2.9-1c-1.7-1.8-2.3-2.5-4.7-3.1c-0.3-2.3-0.1-2.1-2.4-2.4l-1.3,0.2
	c-1.1-1.6-1.6-2-3.4-2.9c-0.2-1.9-0.6-1.5-2.5-1.8c-0.6-0.9-0.5-1-1.5-1c0.3-1.5,0.1-1.5-1.1-1.5c3.1-6.5,5.2-12.9,4.8-18.6
	c1.9-3.1,1.9-5,2.3-8.6c2.8-8.7,8.3-13.1,7.4-22.3l0-5.1c2.1-3.2,6.3-4.9,9-7.7c2.2-3.1-0.7-5.7-2.6-3.3c-1.5,1.4-3,2.8-4.5,4.2
	c-0.8,0.4-1.4,0.8-2,1.1c0-0.4-0.1-0.9-0.2-1.4c0-0.1,0.1-0.1,0.1-0.2c2.7-2.9,5.4-5.7,8.2-8.5c2.5-3.1-1.5-4.3-3.4-2.2
	c-2,2.1-4.1,4-6.1,6c-0.1-1.3-0.6-2-0.8-2.8c1.9-2.9,4.6-4.1,5.4-6.3c0.7-1.9-0.8-3.3-4-0.9c0,0,0,0,0,0c-0.1-0.1-0.1-0.2-0.2-0.2
	c-0.6-1.3-0.7-1.5-2-2.2c0.4-5,0.6-7.6,3.9-11.2c1.6-2.7,2.2-3.8-0.1-6c0.3-1.8,0.6-3.2-1.5-3.5c0.1-2.1,0-3.8-2.4-3.7
	c-1.3-3.2-3.5-3.1-6.2-1.6c-1,0.1-1.7,0.2-2.7,0.6c-1-3.2,0.9-5.1-0.8-8.3c-0.8-1.2-1.5-1.2-2-1.3c-1.9-0.1-2.3,5.4-1.2,7.1
	c-0.4,6.5-1.1,11.4,3.3,16.8c0.1,2.3,0.2,4.2-0.2,6c0-0.1-0.1-0.1-0.1-0.2c-0.7-4.6-5.2-2.1-4.5,1c-1.5-0.9-3.4-2.2-4.1-1.7
	c-1.4,1,0.9,2.8,1,3.9c0.1,0.8-1.4,0.1-2.1,0.8c-0.6,0.7-0.4,2-0.6,3.2c-2.1,2.9-1.4,7.8-2.3,12.1c-0.4,2.2-2,4-3.1,5.9
	c-2.9,5.2-6.1,10.5-8.9,15.9c-3,2.2-6,4.2-9.2,6.2c-1.3-2.2-2.8-3.6-5.1-5.8c-9.5-6.5-17.1-3-24.3,6.8c-4.5,4.1-7.4,7.3-8.5,10.5
	c-0.5,0-1,0-1.4,0.1c0.4-3,0.4-5.9-2-8l-3.3-2.5c-3.3-1.2-1.8-5.2-6.3-11.3c-0.5-3.1-1.1-4.1-2.9-6.6c0-2.7,0.2-3.2-1.5-5.2
	c0-2.5,0-3-1.4-5c0.2-5.6-0.2-6.2-4.1-7.6c-1.4-1.9-0.7-7.6-3.3-7c-1.3-6.9-3-10.4-1.6-14.6c0.7-2.1,1.8-2,2.5-3.2
	c0.7-1.2,0.8-3.8,0.9-6.3c0-1.3-0.7-4.6-0.4-7.2c0.3-2.1,0.6-4.3-0.1-5.4c-1.2-2-3.8-1.7-3.5,2c0.1,1.3,0,4-0.1,4.8
	c-0.4,1.1-0.6,2.4-1.2,2.4c-2.5,0.1-5.9-3.6-7,1.8c-2.7-0.5-2.5,0.7-2.8,2.9c-1.4,1.4-1.7,2.4-0.8,4.1c-1.7,2.8,0.9,4.6,1.7,7.2
	c0.3,1.8,1.2,3.8,1.6,5.7c0.6,3.5,0.6,6.9,1.1,10.2c-2.6,2.2-5.1,3-5.3,4.2c-0.1,0.5,1.6,1.1,2.3,2.5c3.4,6.6-2.9,4.8,1,12.9
	c1.5,4.8,0.8,6.4,4.9,13.5c2.9,6.1-2.9,4.4,1.2,13.4c0.1,0.6,0.3,1.1,0.5,1.7c-2.6-0.3-5.3-0.3-8.3,0.9c-2.8,1-5.1,2.1-7.7,3.6
	c-1.9-3.2-4.1-4.8-7.6-6.1c-1.5-3.5-0.4-7.6,1.2-12.2c1.1-1.5,1.8-2.7,2.5-4.4c2.5,2.3,1.9-0.3,3-1.9c1.1-1.6,1.3-3.6,0.9-5.5
	c1.1-4.5,1.2-7.7,0.1-10.6c0-7.6-1.8-11.7-6.4-16.6c-6.9-6-14.4-8.6-22.3-3.9c-4.5,2.7-9.1,5.5-10.2,10.8c-1.8,2.5-1.5,6.5-0.9,12.6
	c-0.8,3-1,4-0.1,6.9c0,2-0.2,2.4,1.3,3.8c-0.4,1.5,1,1.4,0.9,2.3c-0.4,1.8,1.5,3,2.5,0.9c1.1,2.8,0.4,5.4-0.3,8.2
	c-0.6,1.8-0.6,6.3-2.4,6.2c-3.9-0.4-7.4,1.3-9.7,0.9c-3.4-0.5-2.8-6.1-10.8-6.6c-2.3-0.7-4.7-1.6-7-2.4c0-1.7,0.1-2.9,0.6-3.7
	c2.5-4.2,4.7-10.3,4.5-16c1.8-2.5,2.8-4.5,3.6-7.4c0.3-1.2,0.6-2.2,0.3-2.9c-0.4-0.7-1.9-1.2-2.3,0.7c-0.4,1.6-0.9,2.8-1.7,4.3
	c-0.6,1-1.2,2-1.7,3.1c-0.6,0.9-1.3,0.5-1.3-0.5c1.2-2.6,2-5.2,2.4-8c0.4-1.6,1-3.5,0.8-4.6c-0.2-1.3-1.7-1.5-2.4-0.8
	c-0.3,0.4-0.5,1.1-0.6,1.9c-0.1,1.3-0.5,2.5-0.8,3.6c-0.4,1.6-1.1,3.1-1.5,4.6c-1.1,3.9-1.7,1.1-1-1c0.4-1.8,0.9-3.7,1.2-5.5
	c0.6-3.4,1.4-4,1-5.1c-0.4-1.2-2.4-1.4-2.8,0.3c-0.4,1.4-1,3.1-1.4,4.5c-0.2,0.6-0.9,2.8-1.3,4.9c-0.1,0.7-0.2,1.5-0.2,2
	c0,1.5-0.5,1.9-0.8,0.7c-0.9-3.7,0.1-8.7-0.1-10.6c-0.2-2.3-2.8-1.9-2.9,0.2c-0.1,1.9-0.4,4-0.5,4.8c-0.2,2.2-0.2,4.4,0.1,6.8
	c0.2,1.2-0.2,2.8-0.4,4.1c-0.2,0.7-0.8,2.3-1.3,2.8c-0.4,0.4-1.8-1.4-2-1.7c-2.5-5.5-6.4-5.1-6.8-3.6c-0.3,1,2,1.2,2.6,2.9
	c0.2,0.6,0.3,1.2,0.9,2c0.5,0.7,1.5,1.7,1.9,2.2c0.7,2.8,2.6,5.9,5.1,8c0.3,2,0.1,3.8-0.3,5.7c-2.4,0-4.9,0.1-7.1,0
	c-9.7-0.4-9.6-8-25.7-13.9c-4.2-10.1-10.3-15.9-18.6-22.7c-5-6-8.9-13-10.7-20.4c-0.3-3.1,4-7.2,4.3-9.4c0.2-1.7-0.1-3.6,0.4-4.5
	c0.4-0.8,1-4.5,0.3-6.2c-1.2-3.1-0.6-4.1-0.6-5.6c0.1-2.3-1.9-1.8-3,0.4c-1.2,2.2-1.6,6.3-1,8.7c0.7,3.2-2.1,6.6-3,8
	c-0.8,1.2-2-4.5-2.4-5.8c-1.7-7.4-3.3-12.8-5.3-16.7c-0.7-1.1-1.9-3.3-3.2-3.6c-3.4-0.8-1.1,4-0.7,5.2c1.2,2.8,2.2,5.5,2.9,8.4
	c1,5.1-1.6-0.2-2.4-3c-0.3-0.7-2.3-5.2-4-8c-1.6-2.5-3.5-1.7-3.3,0.2c0.4,3.9,4.9,13.2,5.2,14.1c0.6,2.9,1.3,4.6-0.6,0.8
	c-1.5-4.2-3.7-8-5.5-12.1c-1-2.5-4.5-2.2-3.7,0.6l1.4,3.9c0.9,2.6,1.4,4.5,3.3,9.4c0.8,2,2.1,5.3-1.1,3.1c-0.4-0.9-2.6-0.5-4.4-2.9
	c-2.3-3-1.1-4.9-3.5-4.7c-4.4,2.1,3.6,10.1,6,11.4c3.1,3.1,1.9,5.6,3.6,9.3l2.8,3.5c4.9,2.9,4.8,4.9,6.8,10.2
	c4,12.5,10,24.4,18.2,33.7c5,5.8,5.1,3.1,9.2,7.8c3.9,4.5,12.2,10.5,17.3,13.7c5.2,2.8,10.5,6.5,16,8.9c-0.5,1.1-1,2.1-1.4,3.4
	c-0.5,1.8-0.4,2.8-0.3,4.7c0,1.7,0.1,2.8,0.6,4.4c-0.5,0.2-0.8,0.4-1.2,0.6h-3.4v3.6c-0.1,0.2-0.2,0.3-0.2,0.4
	c-0.9,1.4-1.7,2.5-2.1,4.1c-1.2,0.9-1.1,0.9-1.1,2.3c-1,2.1-1,3.7-1.2,6c-3,2.7-4,3.5-5,5.4c-0.6,1.3,0.2,1.5-0.8,4.4
	c-2.6-0.6-1.6-0.4-2.9-0.1c-2.3-1-4.4,0.1-6.5,1c-2.7-0.6-3.7,1.2-4.4,0.9c-0.6-0.2,0.3-1.3-0.3-1.8c-0.2-0.1-0.6-0.2-1-0.1
	c-1.6,0.4-0.6-0.2,0-1c3.7-4.1,3.1-8.8,3.2-13.9c-0.2-7.8-3.9-14.3-9.9-17c-6.1-2.7-14.9-0.8-18.9,7.2c-1.7,3.5-1.6,7.6-1.7,11.4
	c-0.1,1.5,0,2.5,0.4,4c0.1,2.1,0.4,6.9,2.5,7c0.7,0,0.7,1.4,1.4,1.6c0.5,2.5,0.1,0.9-1.7,1.5c-0.6,0.3-1.8,1-1.6,1.5
	c0.5,1.2,0.6,2.3-0.1,1.6c-3.9-3.4-3.3-2.1-5.2-3.1c-1.9-1.2-2.6-1.6-4.8-1.8c-1.6-0.1-1.4,0.1-2.5,1.3c-0.9-1-1.3-1.3-2.6-1.7
	c-0.2-1.4-0.9-2.5-1.3-3.9c0.4-3.5,0.3-4.5-3.1-4.9l-1.3-1.9c-1-1.8-1.4-2.4-3.1-3.6c-0.2-1.2-0.5-1.9-1.1-3c0.2-1.9,0-2.4-0.8-4.1
	c-0.6-1.7-1.3-3.1-2.1-4.6l-1.1-2.4c-0.4-1.6-0.6-1.6-1.9-2.5c0.8-2.1,1.7-3.7,0.3-5.6c-0.2-2-0.4-4-0.7-6c-0.1-1.3-0.1-2.1-0.7-3.3
	c0.1-1.6,0.3-1.9-0.8-3.1c0.6-1.2,0.5-1.1-0.3-2.2c-1.1-0.9-1.2-1-2.5-0.9c-2.4-1.9-1.5-3.1-3.1-4c-0.5-1-0.5-1.4-1.5-1.7
	c0.1-1.8,0.1-3.3-0.1-5.1c-0.3-1.2-0.5-1.7-0.1-2.9c0.8-1.1,1.4-2.2,2-3.5l1-1.5c0.5-0.8,0.6-1.2,0.8-2.2l0.3-1.6
	c0.2-0.9,0.4-2,0.8-2.7c0.5-0.9,0.8-0.8,1.6-2.9c2-1.9,0.9-3.2-0.7-2.6c-2.2,0.7-3.4,2.6-3.5,4c-0.8,2.3-2.1,3.9-2.8,3.9
	c-1,0-2.5-2.4-3.4-3.9l-0.1-1.2c-0.1-2.7,0.3-5.5,0.3-8.2c-0.1-1.8-0.1-3.6-0.1-5.4c-0.3-1.9-2.5-1.7-2.7-0.1
	c-0.1,1.8-0.3,3.7-0.4,5.4c-0.1,1.1-0.4,1.5-0.2,3.2l-0.1,2.1c-0.7,2.6-0.6-1.6-0.5-2.2c0-1.9-0.3-3.5-0.7-5.3l-0.6-3.1
	c-0.4-2.4-2.8-2.2-2.9-0.7c0,0.8,0,2,0.2,2.9c0.5,2.8,0.1,5.5,0.9,8.3c0.2,1.3,0.6,2,0.1,2.1c-0.5,0.1-0.9-1.8-1.1-3.4
	c-0.3-2.2-0.7-4.2-0.7-6.4c0-2.1-2.2-2.3-2.5,0c0,3.7,0,7.3,1.1,10.8c0.5,1.8,0.2,2.9-0.3,2.9c-0.8-0.1-3.3-5.4-3.6-6.2
	c-0.7-2.1-2-2.9-2.7-1.8c-0.7,1.1,0.7,4.5,2.3,7.7c0.4,0.8,1.2,1.8,1.6,2.6c0.6,1.3,0.1,1.5,0.6,2.8c0.7,2.3,2.3,5.7,3.8,8
	c0.7,1.2,1.3,2.3,2.1,3.4c0.8,1.5,0.7,3,0.5,4.6c-2.2,0.1-2.2,0.3-2.4,2.3c-0.2,1.4-0.2,2.3,0,3.7c-0.9,2.1-0.9,4.1-0.3,6.3
	c-0.6,2.5-0.2,4.6,0.4,7c0,4,0.2,8.1,1.2,12c0.4,3,0.9,5.8,1.5,8.7c0,2.2,0.1,3.3,0.9,5.4c0.2,1.8,0.5,2.7,1.3,4.3
	c0.1,2,0.5,2.6,1.6,4.3c-0.4,1.9,0.6,3.7,2.7,6.6c1.1,2.1,2.1,4.1,3.1,6.2c0.4,0.8,0.8,1.5,1.1,2.3c-4.2-1.4-8.6-2.2-13.3-1.8
	c-9-5.8-11.8-1.8-13-4.4c-0.9-1.9-1.6-4.3-2.1-8.4c2-1.1,2.1-2.5,2.9-4.4l1.9-1.3c3.1-1.8,2.4-2.5,2.5-6.1c1.8-3.1,1.9-3.4,1-7.2
	l0.4-3.5l0.7-4.7c-0.2-5.2-3.9-8.7-7.4-11.6c-4.1-3.3-2.2-4.4-14.2-4c-7.1,0.2-12.5,8.9-14.4,19.1c-0.7,2.6-1,4.6-1.1,7.4
	c0.1,3.7-0.3,6.4,3.1,8.8c0.1,2.3,0.4,3.3,1.4,5.4l0.1,4.2c0.2,1.9,1.8,12.2-2.8,7.9c-4.7-7-8-8.7-16.6-10.8
	c-3.6-0.4-4.4-0.6-7.1-3.1c-10.7-8.8-16.6-5-17.7-11.1c-0.4-2-1.1-4-1.8-6.5c0-0.3,0.1-0.7,0.1-1.2c2.5-9.4,0.7-19.9-0.3-29.5
	c0.5-3.4,1.3-6.4,3.6-9.8c3.2-4.3,5.6-8.2,8.1-12.9c3.2-5.1,5.7-8.5,6.8-14.5c10.1-0.3,8.1,12.7,20.7,4c14,4.2,10.5-2.5,13.6-15.7
	c3.9-5.4,7.4-0.9,11.8-6c8.2-1.8,7.7-0.8,7.4-9.2c10.4-9.6-7.3-6.8-6.4-10.7c3.2-14.6-9.6-10.6-15-1.3c-17.9-6.7-15.3-7-22.1,10.8
	c-9.7,9.9-14-17-16.9,17.3c-0.4,4.1-4.5-1-5.7,10c-5.1,2.3-5.6,3.4-7,7.5c-0.2-0.4-0.3-0.9-0.6-1.3c-0.7-2.1-1.6-3-3.7-2.5
	c-1.9-1.3-1.8-1.6-4-0.6c-2.3-1.2-3-0.9-4.4,0.6c-2.2-1.4-5.4,1.1-3.2,3.1c-1.1,0.8-1.1,1.5-1.5,2.8c-1,3.6-1,3.4,1.5,6.1l1.2,1.3
	l1.8,1.5c1.3,1.4,1.3,1.8,1.6,3.7c0.1,5.2,0.4,10.2,0.1,15.2c-0.4,1.5-0.8,3-1.2,4.5c-2.3,7.7-4.7,14.9-5.3,23
	c-0.1,1.7,0,3.4,0.3,5.1c-0.1,0-0.1,0.1-0.1,0.1c-5.3,4.6-8.6,10.5-11.4,16.7c-1.7,2.4-2.5,2.7-5.2,3.8c-4.6,1.6-8.7,6-12.2,9.3
	c-1,0.8-4.2,3.5-5.3,4c-0.2,0.1-0.1-2.2,0.4-4.3c0.6-2.5,1.4-4.8,1.5-5.3c0.2-1.5,0.8,0.4,1.8,0.1c0.6-0.2,1.7-2,2.1-4
	c0.9-1.9,1-4.9-1-5.2c0.8-1.5,0.6-2.2,0.5-3.9c0.7-4.3,0.4-8.7-1.7-10.9c-2.6-4.3-3-6.2-8-7.2c-2.9-0.2-4.9-2.5-6.3-0.6
	c-1.7-0.1-2.3-0.1-3.9,0.6c-4-0.3-5.7,1.7-6.7,5.1c-1.1,1.2-3.5,2.9-2.4,3.1c-0.4,0.8-0.4,1-0.2,1.9c-0.8,1.7-2.2,3.3-1.2,4.4
	c0,1.6,0.2,5.3,0.5,6.3c0.1,0.3-1.3-0.3-1.8,0.7c-0.3,0.7-0.2,2.7,0.9,4.8c0.8,2.1,0.7,3.8,3.4,2.9c0.2,3.2,0.9,7.5,0.9,10.1
	c0,2.1-2.5,2.1-4.4,1.4c-1.5-0.6-2.4-1.8-2.8-2.1c-3.3-4.1-7.1-7.2-11.3-9.9c0.4-2.4,0.2-4.6,0.1-7.5c0.4-4.5,0.9-8.4,0-12.8
	c1.8-5.6,0.4-12.9,1-18.9c0.5-2.6,0.6-2.9-0.7-5.2c-1.8-3,0.3-6.7-3.4-8c0.3-3.3-0.3-5.4,1.1-8.4c1-4.7,2.7-10.7,0.1-13.8
	c-1.2-2.1-1.8-3.1-4.1-2.5c-1.4-1.9-2.1-2-4.1-1c-1.6-1.2-3.8-1.6-4.9,0.3c-3.3-0.9-4.3,1.6-4.2,4.5c0,3.5-2.6,3.4-0.6,7
	c1.3,1.4,2.5,2.9,3.7,4.3c0.6,0.5,1.3,0.7,1.5,1.4c0.7,2-0.5,2.1-0.1,6.9c-1.1,1-1.5,1.6-2.1,3c-1.3,0.5-1,0.7-1.1,2
	c-1.8,0.5-1.9,0.8-3,2.3c-2.1,1.5-0.9,2.6-1.2,4.5c-0.1,0.9-0.8,1-1,1.8c-0.2,1.2,0.1,2.9,0,3.7c0.3,1.5,0.3,2.1-0.1,3.7
	c-0.9,2.4-1.3,4.8-1.7,7.3c-0.4-0.2-0.5-0.3-0.4-0.9c0.3-3.2,0.1-6.7,0.1-9.9c-0.2-5.1-1-10.3-1.9-14.9c-1.2-6.5-0.2-12.9-0.2-19.4
	c0.1-2.1-0.1-3.7,1-5.5c2.3-1.2,3.6-2.8,4.7-6c1.8-1.7,3.4-3,1-5.3c0.6-1.8,0.9-2.8-1.3-3.6c-0.1-1.6-0.1-1.9-1-3.1
	c3.1,0,2.2-1.6-0.4-2.4c-2-1.1-1.8-1.2-3.6,0.2c-3.3,1.3-5.4,3.3-6.9,6.7c-0.2,0.4-0.2,0.7-0.3,1.1c-1.8,0.1-1.7,0.1-2.9,1.1
	c-2.5,0.3-2.5,1.6-3.1,3.7c-0.3,0.7-0.4,1.4-0.4,2.1c-8.2,3.8-16.3,6.6-25.4,8.2c-6.2,0.7-10.6,1.6-16.3,4.4
	c-5.5-0.8-10.5-0.5-16,0.5c-2.4-1-3.1-0.9-5.7-0.5c-1.6-1.8-1.5-1.6-3.9-1.2c-2.6-1.9-3.1-2.4-6.3-2.3l-2.7-1l-5.2-1.7
	c-5.7-2.2-2.2,2.8-8.8,0.1c-0.7-2.2-1.8-1.8-4.1-2.3c-1.5-3.7,2.9-6.4,2.9-10.6c1.2,0.5,1.5,0.3,2.1-0.7c3.2-5.4,9.1,2.1,5.8-11.7
	c1.1-5.4,1.9-9.1-3.1-13c-9.5-6,0.5-12.5-20.2-13.2c-7.9,0.8-12.4,1.3-14.1,10.5c0.1,3.9-0.2,3.9-3,6.6c-1.7,3.1,1.4,8.7-2.5,9.7
	c-7.1,2.2-2.3,9,4.2,10.7c3.5,0.1,2.7,4.2,2.6,7.2c0.2,7.4-1.7-1.3-6.8,3.4l-1.9-3.3c-2-3.4-4.7-9.3-9.5-5.9c-1.9-0.5-3.5-0.9-5-1.2
	c0.1-2.8,0-5.6-0.3-8.3l-0.4-5.2c0.4-2.1,0.4-4,0.5-6.1c-0.1,0-0.5-0.7-1-1c-0.3-0.2-0.9-0.1-0.9-0.1c-0.2-0.1-0.8-13.7-0.6-16
	c0.5-1.1,0.9-2.3,1.3-3.6c0.3-0.9,0.7-1.9,1-2.6c0.2-0.5,0.5-1.5,0.7-2c0.5,0,1.3-0.2,1.6-0.9c0.1-1.9-0.3-3.7,0.4-4.7
	c1.3-1.9,3.1-3.7,2.7-5.2c-0.1-0.6-1.2-0.7-1.2-1.2c0-0.3-0.1-1.5,0.3-1.3c8.3,3.7,16,6.9,24,8.9c3.4,0.8,6.8,1,10.3,1.3
	c3.8,0.4,7.2,1.3,11.2,1.5c0.9,0.3,1.8-0.1,2.8,0.3c2,0.7,4,1.2,6.1,1.6c2.5,0.1,4.9,1,7.5,1.6c4.8,1.1,9.2,1.1,9.5-0.7
	c0.1-0.5-0.3-1.1,0-2c0.2-0.6-0.2-1.4-0.2-2.3c0.1-1.7-0.2-3.7-0.2-5.9c0-4.9,0.7-10.4,0.9-13.8c0.4-3.2,1-5.7,0.1-6.3
	c-0.6-0.4-1.9,0.1-4.5,0.2c-0.6,0-1.3-0.3-2-0.3c-10.4,0.2-20.8,0.5-31.2,0.7l-6.7,0c-10.5-0.1-21-0.8-31.6-0.8
	c-4.7,0.4-7.8,0.6-10.7,1.6c-0.6,0.2-0.7,0.9-1.2,1.1c-1.4,0.5-2.3,1.9-4.7,4.5c-0.3,0.9-0.8,1.6-0.6,2.1c0.5,1.1,0.8,1.3-0.9,1.4
	l-2.8,2.5c-1.3,1.5-3.3,3-3.7,4.6c-0.2,1,0.1,2.1-0.2,2.5c-0.7,0.8-3.4,2.2-1.1,1.3c0.5,0.5,1.2,0.7,1.2,1.1c0,0.4-1.6,2.2-2.7,3.5
	c-0.6,0.7-0.9,1.4-0.6,1.6c0.4,0.4,1.8,0.1,2.3,0.7c0.8,1-1.2,1.7-1.8,2.9c-0.2,0.3,1.3,0.1,0.8,0.4c-0.1,0.1,0.6,0.6,0.6,1.4
	c0,0.7,0.7,1.6,1.2,1.9c0.2,0.1,0.4,1.2-0.1,1.9c-0.3,0.4,0.9,0.5,0.9,0.5c0.4,0.1,1.7,2.3,1.7,2.3c-0.1-0.1,0.3-0.5,0.7-0.2
	c1.4,1.1-0.2,1.7,2.1,0.8c0.1,0,1.4,0.6,1.5,0.3c0.3-0.9,0.8,0.5,1.2-1.3c0.3,1.2,0.1,1.2,1,0.3c1.3-1.3,0.5,0.5,1.5-0.2l1.6-2.3
	l-0.3,2l0.1,7.2l-0.4,4.6c-0.3,0.2-0.9,0.1-1,0.6c-0.5,4-0.2,8.6-2.2,12.1c-1.6,1.8-1.8,4-0.7,5.7c0,0,0,0,0,0.1
	c-0.9-0.3-1.7-0.2-3.5,0.4l-1-1.8c-4.8-3.4-9.6-6.6-14.7-9.5c-4.4-5.5-8.1-8.8-13.7-13c-5.3-3.4-10.8-6.6-15.2-10.4
	c-3.8-3.3-6.5-7.2-10.3-11.3c-1.9-2.1-5.5-4.6-4.8-7.7c0.7-2.4,1.2-4.5,1.4-7c0.2-2.7-2.3-4.8-4.1-6.4c-0.6-1-1.1-2.4-2-2.7v32.3
	c1.3,1.4,2.5,2.8,3.7,4.2c3.7,5.1,7.6,10,11.5,15c7.5,9.8,15.1,15.2,25.6,21.9c4,4.9,8.6,8.6,13.4,12.8c1.4,1.3,2.7,2.5,4.1,3.6
	c-0.2,0.2-0.5,0.3-0.7,0.6c-0.5,0.5-3,0-5,0.6c-2.4,0.7-2.7,3.9-5.1,3.9c-1.8,1.1-2.9,2.2-4.3,2.7c-1.7,0.6-3.2,0-4,0.5
	c-1.4,0.9-2.8,2.7-4,2.5c-1.1-0.2-2.3,0.5-3.2,0.9c-1.8,0.8-4.4,0.2-6.5,0.6c-0.7,0.5-2,1.1-2.9,1.9c-0.7,0.6-0.6,1.9-1.3,1.5
	c-0.8-0.4-0.8,0.4-1.4,0.8c-0.7,0.6-1,1.4-1.2,1.3c-0.6-0.4-1.2-1.6-1.8-1.8c-0.7-0.2-1.3-0.1-1.9-0.6c-1.2-1.2-1.8-2.8-1.2-4.1
	c0.7-1.6,3.2-5,2.6-6.5c-0.3-0.7-1,0.4-1-1c1.9,1.2,3-2.8,3.2-6.1c0.1-1.6-0.1-5.4-2.1-2.9C19.9,587.9,15.7,578.1,5.6,575.9z
	 M989.6,664.5c1.3,1,2.1,0.7,2.7-0.1c3.3,4.1,7,7.8,11.2,10.5c0,0.1,0,0.2,0,0.4c-3,0.8-3.7,1.6-5.9,3.9c-1.8,0.1-2.2,0.3-3.6,1.3
	c-1.5-1-1.5-0.9-3.2-0.4C988.3,677.1,989.2,668.3,989.6,664.5z M955,675.4c0.1-0.3,0-1.6,0.1-1.8c-0.2-3.5,0.5-4.9,0.7-7.3
	c1.7,1.4,1.5,1.6,3.5,0.7c0.3,3.4,2,3.7,2.9,5.8c1.1,2.8,1.9,6.3,2.8,9.2c0.6,3.5,0.7,3.9-1.1,7c-1.4,0-1.3,0-1.9,1.3
	c-1.8-0.2-2.1-0.3-3.6,0.7l0.3-2.7c-0.2-1.2,0-0.8-0.3-1.2c-0.8-1.3-2.1-1-4.1-1.9C954.6,681.9,954.2,678.9,955,675.4z M930.5,631.5
	c-0.2,0.9-0.4,1.8-0.7,2.5c-0.7,2.5-2.3,8.9-2.8,8.8c-0.7-1.2-1.3-2.2-1.9-2.7C926.9,637.3,928.7,634.3,930.5,631.5z M801.9,670.8
	c0.7-2.4,1.3-5.2,2.2-7.4c0.7-1.7,2.1-2,2.3-4.6c1.6,0.7,1.4,0.6,2.8-0.6c0.2,1.9,0.8,3,0.6,5.8c0.1,0.2,0,1.3,0.1,1.5
	c0.4,1.8,0.4,3.5,0.4,5.1c-3,1.7-5.8,3-8.4,4.2C801.4,673.6,801.6,672.9,801.9,670.8z M729.5,642.7c0.4-0.3,0.8-0.5,1.2-0.8
	c0.2,0.5,0.3,0.9,0.5,1.4c-0.6-0.2-1-0.3-2.1,0.7C729.3,643.5,729.4,643.1,729.5,642.7z M726.2,647.5c1,0.2,0.7-0.2,1-1.1l0.5,0.8
	C727.5,648.8,725.9,649.8,726.2,647.5z M376.1,688.8c4.4,1.6,4.8,1.8,5.6,3.1c1,1.4,0.3,4,0.7,6.4c-0.6,3.2-0.6,6-0.3,8.8h-6.1
	V688.8z M350.7,674.7c0.4-0.7,0.8-1.6,1.1-2.3c1.1,1.1,2.2,2.3,3.4,3.3h-5.1C350.3,675.3,350.5,675,350.7,674.7z M145.1,666.3
	c1.9-11.7,3.9-25.7,13.1-34c3.3,0.1,3.1-3,8.3-2.7c2.9-1.3,6.5-1,10.1-1.7c4.2-0.8,8.3-2.7,12-3.9l4.1-0.3
	c12.1-2.1,22.5-8.3,32.8-14.8c1.7-1,3.3-2,5-2.9c0,0.6,0,1.2-0.1,2c-0.1,12.4-5,31.3-1.3,44.2c0.3,1.1,0,1.7,0.2,2.2
	c0.2,0.5,0.9,0.8,1.5,1.8c0.7,1.1,1.3,2.8,1.8,3.9c1.7,3.4,3.4,6.8,5.1,10.2c-0.9,2.4-1.2,5-1.6,7.5c-2.3,3.3-4.5,7-4.4,10
	c0.1,1.5-1.7-2.8-3.3,1c-2.1-0.2-3.4-0.2-5.4,0.3l-1.3-0.1c-0.4-1.5-0.6-1.1-2.1-1l0.3-2.7c3.3,0.3,3.2-2.6,3.2-4.9
	c0.5-1.8,1.5-5.7-1.3-5.6c0.3-2.2,0.4-4.2,0.4-6.4c0-2,0.6-3.1-1-4.4c-1.3-4-2.5-5.8-6.2-7.5c-1.3-1.2-2-1.7-3.7-2.2
	c-2.3-1.4-2.5-1.6-5.1-1.2c-3.5-0.8-5.1-0.9-7.7,1.4c-2.8,0.6-3,0.4-4.2,2.9c-2.6,2.5-3.5,4-4.4,7.4c0.3,3-1.3,2.3,0,8.3
	c0.3,1.7,0.5,2.4,1.5,3.9c-3-0.8-2.8,1.2-2.3,3.2l0.6,1.5c0.5,1.1,0.8,2.1,1.1,3.2c0.6,1.8,0.7,2.8,2.8,2c0.3,1,0.6,2.5,1,3.4
	c-4.6,2-7.4,0.4-5.4,6.1c0.6,1.6-0.7,1.1,0.5,6.2c-1.6,0.9-2.2,1.2-3.2,2.8c-9.5,3.5-14.9,4.5-23,19.7l-0.6,2.3
	c-0.7,1.6-0.8,2.6-1,4.3c-1.5,2.3-2.9,4.6-4.1,7c-1.4,2-2.1,2.9-2.5,5.4c-0.9,1-1.1,2.1-1.2,3.3c-0.3-1.3-0.7-2.5-1.1-3.9l-0.9-5.1
	c-0.2-4.3-0.6-5.9-2.7-9.7c0.5-2.2,0.9-2.3-0.6-4c-0.6-2.1-0.4-2.8-2.4-3.8c0.1-3.1,0.1-3.5-1.7-5.9c-0.4-1.4-0.7-2.1-1.5-3.2
	l0.4-6.8c0.8-4.6,3.8-9.4,1.2-13.4c-0.6-0.9-2.1-1.7-2-2.8C143.7,681.5,144.5,672.7,145.1,666.3z"/>
<path fill-rule="evenodd" clip-rule="evenodd" fill="#231F20" d="M407.3,473.9c2.2,2.2,3.9,2.6,7,3.4c11.4,12.7,23.7,28.1,39,36.3
	l4.9,4c8.5,7,15.2,15.6,24,22.3c0.3,2.5,0.8,2.9,3.5,3.2c4,2.6,5.5,4.2,8.2,8.1c3.5,6.9,4.3,14,4.9,22.3c-0.2,2.1-0.1,4.8,0.7,8.4
	c0.1,7.4,0,14.9-0.1,22.3c-1.3,3.1-1.4,6.1-1.6,9.3c-1.9,6.7-2.4,7.5,6.2,7.7c-0.7,2.5-1.2,4.3-1.3,6.9c-1.2,2.4-1.6,3.9-2,6.6
	c-1.3,3.6-1.7,7.1-2.1,10.9c-3.4,19.8-4.2,39.5-4.3,59.6c-0.7,4.9-1.6,6,3.6,7.7c0,5.3,1.1,11,0.8,16.9c-0.9,2.5-1,4-1,6.7
	c-4,8.5-3.2,19.9-1.7,31.6h20.6c0.8-4.4,1.3-8.4,1.3-11.8c-0.1-2.6-0.3-6.4-0.5-10.1c-0.3-4.2-0.7-8.3,0.4-10.8
	c3.9-7.2,5-12.7,4.5-20.7c6.5,0.1,11.5,1.4,11-5.5c-0.1-4.9,0.1-3.3,2.5-0.1c-0.3,2.8-0.8,4.6-0.5,7.4c-1.6,9.7,3.9,17.1,2.9,25.9
	c-2.5,8.7-2.6,17-1.8,25.7h20.3c2.3-11.3,3.7-23.1,0.8-32.4c0.8-1.2,0.1-3.3-0.6-6.8c0.4-1.9,3.5-6.5,3.7-10.5
	c0.4-6.6,1.1-6.8,3.2-6.9c6.6-0.2,1.9-67.2-0.4-78.8c-0.3-2.2-0.8-2.9-2.1-4.8c0.2-4-0.4-8.5,2.6-6.6c3.9,0.8,3.1-2.2,2.2-6.3
	c-0.8-3.9-1.7-8.7-2.2-10.9c2.1-8.1,2.6-16,3.2-24.3c1.1-6.8,3.2-9.4,4.8-15.2c1.5-5.3,2.3-10,4.3-11.9c2.6-0.6,2.5-0.8,3.7-3.2
	c3.1,0,3.4,0.4,5.3-2.1c11.5-5.7,21.6-12.6,31.7-20.5c3.6-1,6.8-2.8,10.4-4.7c9.2-5,15.4-11.3,22.3-17.3c4.2-3.7,8.5-5.8,11-9.4
	c3.9-1.3,6.9-3.7,10.5-6.2c2.4-2.4,4.6-4.5,2-7.7c1.1-1.4,2.8-3.6,1.3-5.5c0.9-2.2,1.2-3.7,0.1-5.9c-0.2-1.5,0.8-7.8-2.3-5.8
	l6.7-112.3l-266.1-15l-5.3,108.7c-3.5-1.3-1.9,5.2-0.1,5.6l0.1,0.8c-1.1-0.3-1.4-0.2-2.5,0.1c-3.1,1.2-2,3-1,5.5l0.5,0.8
	c-1.4,2.2-1.1,2.9-0.7,5.5C401.9,468.1,402.8,472.1,407.3,473.9z M654.1,486.1l1.2,0.1l-2.6,2.3c-5,3.9-11.5,8.4-17.3,10.8
	c-10.1,4-18.9,7.2-26.6,14.5c-8.7,2.3-15.9,6.7-24.3,10c-1.3,0.4-0.8,1.7-2.6,1.1c-1.6-0.8-1.4-0.7-2.7,0.4
	c-2.8,0.3-5.5,0.2-8.1,1.3c-4.1,0.4-6.6,1-10.8,3.4c-3.9-0.5-6.2-1.5-9.5,0.6c-2.4-1.3-3-1.6-5.7-1.3c-0.1-4.5,0.5-8.7,1.4-13.1
	c5.4,2.7,8.4-17.9,1.7-10c0.8-3.3,1.3-6.3,1.6-9.7c-0.5-20.5-33-21.8-31.5,2.2l0.4,5.4c-6.3-2.4-2.1,11.7,1.3,11.3
	c0.9,4,2.8,8.4,3.3,12.2c-1.4,1.2-1.4,1.4-1.9,3.2c-0.9-1.9-1.3-2.5-3-3.8c-1.7-0.9-6.5-4.8-6.5-0.8c-5.3-3.2-8.4-4.4-13.1-4.5
	c-0.9-1.2-0.7-1.4-2.1-0.8c-3.1-1-4.1-1.4-7.1-2.9c-1.1-1.8-1.8-2.4-3.3-2.2c-6-4.7-12.4-8.3-19.5-11.2c-6-7.5-13.9-12.6-23.5-18
	c-4.6-2.9-8.6-5.5-12.6-9.2l-4.3-3.9L654.1,486.1z"/>
<g>
	<path fill="#FFFFFF" d="M457,380.2l18.5,0.7l-7.2,51.5l0.2,0l15.5-51.1l14.7,0.6l-1.3,51.7l0.2,0l10.4-57.4l19,0.8l-17.2,67.3
		l-22.7-0.9l1.5-43.8l-0.2,0l-13.1,43.4l-23.3-0.9L457,380.2z"/>
	<path fill="#FFFFFF" d="M554.4,381.3l-13.6,64.1l-16.4-0.6l10-64.2L554.4,381.3z"/>
	<path fill="#FFFFFF" d="M563.7,384.4l25.1,1l1.8,47.9l0.2,0l7.4-53.7l16.4,2.9l-13.7,65.2l-20,1l-2.2-46.1l-0.2,0l-8.3,44
		l-14.1-0.6L563.7,384.4z"/>
	<path fill="#FFFFFF" d="M618,431.4l17.3,0.7l-3.6,16.9l-17.2-0.7L618,431.4z M628.2,380.8l18.9,0.7l-11.4,45l-16-0.6L628.2,380.8z"
		/>
</g>
</svg>
